<svg width="20" height="22" viewBox="0 0 20 22" fill="none" xmlns="http://www.w3.org/2000/svg">
<path d="M8.5 21.325C8.26667 21.325 8.03333 21.2833 7.8 21.2C7.56667 21.1167 7.35833 20.9917 7.175 20.825C6.09167 19.825 5.13333 18.85 4.3 17.9C3.46667 16.95 2.77083 16.0292 2.2125 15.1375C1.65417 14.2458 1.22917 13.3875 0.9375 12.5625C0.645833 11.7375 0.5 10.95 0.5 10.2C0.5 8.48333 0.933333 6.94167 1.8 5.575C2.66667 4.20833 3.89167 3.20833 5.475 2.575C5.90833 2.39167 6.3875 2.25 6.9125 2.15C7.4375 2.05 7.95833 1.99167 8.475 1.975C8.75833 1.975 8.99583 2.06667 9.1875 2.25C9.37917 2.43333 9.475 2.66667 9.475 2.95C9.475 3.23333 9.37917 3.47917 9.1875 3.6875C8.99583 3.89583 8.75833 4 8.475 4C8.075 4 7.68333 4.0375 7.3 4.1125C6.91667 4.1875 6.53333 4.3 6.15 4.45C4.98333 4.93333 4.08333 5.7 3.45 6.75C2.81667 7.8 2.5 8.95 2.5 10.2C2.5 11.3833 2.99167 12.7375 3.975 14.2625C4.95833 15.7875 6.46667 17.4833 8.5 19.35C9.51667 18.4167 10.4 17.5292 11.15 16.6875C11.9 15.8458 12.525 15.0417 13.025 14.275C13.3583 13.7583 13.65 13.2292 13.9 12.6875C14.15 12.1458 14.325 11.5833 14.425 11C14.4917 10.6167 14.6375 10.35 14.8625 10.2C15.0875 10.05 15.325 9.99167 15.575 10.025C15.825 10.0583 16.0375 10.1583 16.2125 10.325C16.3875 10.4917 16.4583 10.7167 16.425 11C16.2917 12.0333 15.9958 13.0042 15.5375 13.9125C15.0792 14.8208 14.5417 15.6917 13.925 16.525C13.2083 17.475 12.4708 18.3208 11.7125 19.0625C10.9542 19.8042 10.325 20.3917 9.825 20.825C9.64167 20.9917 9.43333 21.1167 9.2 21.2C8.96667 21.2833 8.73333 21.325 8.5 21.325ZM8.5 12C9.05 12 9.52083 11.8042 9.9125 11.4125C10.3042 11.0208 10.5 10.55 10.5 10C10.5 9.45 10.3042 8.97917 9.9125 8.5875C9.52083 8.19583 9.05 8 8.5 8C7.95 8 7.47917 8.19583 7.0875 8.5875C6.69583 8.97917 6.5 9.45 6.5 10C6.5 10.55 6.69583 11.0208 7.0875 11.4125C7.47917 11.8042 7.95 12 8.5 12ZM14.5 5V7C14.5 7.28333 14.5958 7.52083 14.7875 7.7125C14.9792 7.90417 15.2167 8 15.5 8C15.7833 8 16.0208 7.90417 16.2125 7.7125C16.4042 7.52083 16.5 7.28333 16.5 7V5H18.5C18.7833 5 19.0208 4.90417 19.2125 4.7125C19.4042 4.52083 19.5 4.28333 19.5 4C19.5 3.71667 19.4042 3.47917 19.2125 3.2875C19.0208 3.09583 18.7833 3 18.5 3H16.5V1C16.5 0.716667 16.4042 0.479167 16.2125 0.2875C16.0208 0.0958333 15.7833 0 15.5 0C15.2167 0 14.9792 0.0958333 14.7875 0.2875C14.5958 0.479167 14.5 0.716667 14.5 1V3H12.5C12.2167 3 11.9792 3.09583 11.7875 3.2875C11.5958 3.47917 11.5 3.71667 11.5 4C11.5 4.28333 11.5958 4.52083 11.7875 4.7125C11.9792 4.90417 12.2167 5 12.5 5H14.5Z" fill="currentColor"/>
</svg>
