<svg width="17" height="20" viewBox="0 0 17 20" fill="none" xmlns="http://www.w3.org/2000/svg">
    <path d="M14.0475 10.5693C14.0379 8.92994 14.7807 7.69441 16.2806 6.78339C15.4417 5.58151 14.1725 4.92048 12.4995 4.79308C10.9154 4.66809 9.18233 5.71612 8.54774 5.71612C7.8771 5.71612 6.3435 4.83635 5.13682 4.83635C2.64653 4.87481 0 6.82185 0 10.7832C0 11.9539 0.213934 13.163 0.641802 14.4081C1.21389 16.0475 3.27631 20.0641 5.42767 19.9992C6.55263 19.9728 7.34827 19.2012 8.81216 19.2012C10.2328 19.2012 10.9683 19.9992 12.2231 19.9992C14.3937 19.968 16.259 16.3167 16.8022 14.6725C13.8913 13.3 14.0475 10.6534 14.0475 10.5693ZM11.5212 3.23785C12.7399 1.7908 12.6293 0.473539 12.5933 0C11.5164 0.0624976 10.2712 0.733145 9.56213 1.55763C8.78091 2.44221 8.32179 3.53592 8.42034 4.76905C9.58376 4.85798 10.6462 4.25945 11.5212 3.23785Z" fill="currentColor"/>
</svg>
