<svg width="48" height="50" viewBox="0 0 48 50" fill="none" xmlns="http://www.w3.org/2000/svg">
<g filter="url(#filter0_d_4331_19191)">
<path d="M0 2C0 0.895431 0.895431 0 2 0H46C47.1046 0 48 0.895431 48 2V46C48 47.1046 47.1046 48 46 48H2C0.895431 48 0 47.1046 0 46V2Z" fill="white"/>
<path d="M28.1379 24.4166C28.1309 23.2178 28.674 22.3143 29.7709 21.648C29.1574 20.7691 28.2293 20.2857 27.0059 20.1926C25.8475 20.1012 24.5801 20.8676 24.116 20.8676C23.6256 20.8676 22.5041 20.2242 21.6217 20.2242C19.8006 20.2523 17.8652 21.6762 17.8652 24.573C17.8652 25.4291 18.0217 26.3133 18.3346 27.2238C18.7529 28.4227 20.2611 31.36 21.8344 31.3125C22.657 31.2932 23.2389 30.7289 24.3094 30.7289C25.3482 30.7289 25.8861 31.3125 26.8037 31.3125C28.391 31.2896 29.7551 28.6195 30.1523 27.4172C28.0236 26.4135 28.1379 24.4781 28.1379 24.4166ZM26.2904 19.0553C27.1816 17.9971 27.1008 17.0338 27.0744 16.6875C26.2869 16.7332 25.3764 17.2236 24.8578 17.8266C24.2865 18.4734 23.9508 19.2732 24.0229 20.175C24.8736 20.24 25.6506 19.8023 26.2904 19.0553Z" fill="black" fill-opacity="0.85"/>
<path d="M2 1H46V-1H2V1ZM47 2V46H49V2H47ZM46 47H2V49H46V47ZM1 46V2H-1V46H1ZM2 47C1.44772 47 1 46.5523 1 46H-1C-1 47.6569 0.343147 49 2 49V47ZM47 46C47 46.5523 46.5523 47 46 47V49C47.6569 49 49 47.6569 49 46H47ZM46 1C46.5523 1 47 1.44772 47 2H49C49 0.343145 47.6569 -1 46 -1V1ZM2 -1C0.343145 -1 -1 0.343147 -1 2H1C1 1.44772 1.44772 1 2 1V-1Z" fill="#BDBDBD"/>
</g>
<defs>
<filter id="filter0_d_4331_19191" x="0" y="0" width="48" height="50" filterUnits="userSpaceOnUse" color-interpolation-filters="sRGB">
<feFlood flood-opacity="0" result="BackgroundImageFix"/>
<feColorMatrix in="SourceAlpha" type="matrix" values="0 0 0 0 0 0 0 0 0 0 0 0 0 0 0 0 0 0 127 0" result="hardAlpha"/>
<feOffset dy="2"/>
<feColorMatrix type="matrix" values="0 0 0 0 0 0 0 0 0 0 0 0 0 0 0 0 0 0 0.016 0"/>
<feBlend mode="normal" in2="BackgroundImageFix" result="effect1_dropShadow_4331_19191"/>
<feBlend mode="normal" in="SourceGraphic" in2="effect1_dropShadow_4331_19191" result="shape"/>
</filter>
</defs>
</svg>
