<svg width="18" height="18" viewBox="0 0 18 18" fill="none" xmlns="http://www.w3.org/2000/svg">
<path d="M16.7337 14.6134C16.3127 13.616 15.7016 12.71 14.9346 11.946C14.17 11.1797 13.2642 10.5687 12.2672 10.1469C12.2583 10.1424 12.2494 10.1402 12.2404 10.1357C13.6311 9.13123 14.5351 7.49507 14.5351 5.64909C14.5351 2.59105 12.0574 0.113373 8.99936 0.113373C5.94132 0.113373 3.46364 2.59105 3.46364 5.64909C3.46364 7.49507 4.36766 9.13123 5.75829 10.1379C5.74936 10.1424 5.74043 10.1446 5.7315 10.1491C4.7315 10.571 3.83418 11.1759 3.06409 11.9482C2.29782 12.7129 1.68687 13.6187 1.26498 14.6156C0.850524 15.5916 0.626997 16.638 0.606501 17.6982C0.605905 17.722 0.610084 17.7457 0.618791 17.7679C0.627498 17.7901 0.640557 17.8103 0.657198 17.8274C0.67384 17.8444 0.693728 17.858 0.715689 17.8672C0.737651 17.8765 0.761242 17.8812 0.785073 17.8812H2.12436C2.22257 17.8812 2.3007 17.8031 2.30293 17.7071C2.31532 17.2289 2.37756 16.7591 2.48718 16.3038C2.77255 15.1183 3.379 14.0306 4.26275 13.1469C5.52838 11.8812 7.20918 11.1848 8.99936 11.1848C10.7895 11.1848 12.4703 11.8812 13.736 13.1469C14.9592 14.3701 15.6511 15.9839 15.6958 17.7071C15.698 17.8053 15.7761 17.8812 15.8744 17.8812H17.2136C17.2375 17.8812 17.2611 17.8765 17.283 17.8672C17.305 17.858 17.3249 17.8444 17.3415 17.8274C17.3582 17.8103 17.3712 17.7901 17.3799 17.7679C17.3886 17.7457 17.3928 17.722 17.3922 17.6982C17.3699 16.6312 17.1489 15.5933 16.7337 14.6134ZM8.99936 9.48837C7.97481 9.48837 7.01052 9.08882 6.28507 8.36337C5.55963 7.63793 5.16007 6.67364 5.16007 5.64909C5.16007 4.62453 5.55963 3.66025 6.28507 2.9348C7.01052 2.20936 7.97481 1.8098 8.99936 1.8098C10.0239 1.8098 10.9882 2.20936 11.7136 2.9348C12.4391 3.66025 12.8386 4.62453 12.8386 5.64909C12.8386 6.67364 12.4391 7.63793 11.7136 8.36337C10.9882 9.08882 10.0239 9.48837 8.99936 9.48837Z" fill="#4BA83B"/>
</svg>
