<svg width="26" height="26" viewBox="0 0 26 26" fill="none" xmlns="http://www.w3.org/2000/svg">
<path d="M20.584 10.6867C20.0896 10.6867 19.6104 10.7534 19.1542 10.8783L17.7592 7.25024L18.2639 6.73135C18.4702 6.51867 18.4679 6.17991 18.2584 5.97002L17.1753 4.88734C17.0737 4.78578 16.9357 4.72824 16.792 4.72824H14.084C13.7849 4.72824 13.5421 4.97103 13.5421 5.27019C13.5421 5.56935 13.7848 5.81173 14.084 5.81173H16.5674L17.1149 6.35881L16.7404 6.74283C16.5896 6.89797 16.5515 7.1205 16.6222 7.31093C16.6222 7.3121 16.623 7.31372 16.623 7.3153L17.1213 8.61025L9.75006 9.53149V8.52021H11.3751C11.6743 8.52021 11.917 8.27742 11.917 7.97831C11.917 7.6792 11.6743 7.43677 11.3751 7.43677H8.12507C7.82591 7.43677 7.58353 7.67915 7.58353 7.97831C7.58353 8.27747 7.82591 8.52021 8.12507 8.52021H8.66697V9.99843L7.91042 11.2957C7.16336 10.9069 6.31555 10.6867 5.41695 10.6867C2.43034 10.6867 0 13.1167 0 16.1028C0 19.0911 2.43034 21.5206 5.41695 21.5206C8.033 21.5206 10.2213 19.656 10.7248 17.1867H11.4682C11.692 17.8175 12.2938 18.2706 13.0004 18.2706C13.8966 18.2706 14.625 17.5422 14.625 16.6456C14.625 16.2711 14.4981 15.9252 14.2838 15.6507L17.7536 10.2535L18.1432 11.2683C16.3793 12.1622 15.1669 13.9939 15.1669 16.1028C15.1669 19.0911 17.5972 21.5206 20.5839 21.5206C23.5705 21.5206 26 19.0911 26 16.1028C26.0001 13.1167 23.5705 10.6867 20.584 10.6867ZM5.417 20.4367C3.02749 20.4367 1.08354 18.4927 1.08354 16.1028C1.08354 13.7141 3.02754 11.7702 5.417 11.7702C6.11683 11.7702 6.77817 11.9368 7.36374 12.2328L4.94884 16.3726C4.79847 16.6313 4.88536 16.9621 5.14405 17.1137C5.23012 17.1629 5.32377 17.1867 5.4166 17.1867C5.4166 17.1867 5.41817 17.1867 5.41939 17.1867H9.6132C9.13077 19.0545 7.43235 20.4367 5.417 20.4367ZM6.36003 16.1028L8.26432 12.8393C9.17444 13.6344 9.75006 14.8032 9.75006 16.1028H6.36003ZM11.4683 16.1028H10.8335C10.8335 14.4033 10.0464 12.8842 8.81774 11.8904L9.20851 11.2199L11.7607 15.5951C11.6349 15.7443 11.535 15.9156 11.4683 16.1028ZM13.0005 17.1867C12.7013 17.1867 12.4585 16.9431 12.4585 16.6455C12.4585 16.3456 12.7013 16.1028 13.0005 16.1028C13.2992 16.1028 13.542 16.3456 13.542 16.6455C13.542 16.9431 13.2992 17.1867 13.0005 17.1867ZM13.373 15.0634C13.2528 15.0357 13.1286 15.0206 13.0005 15.0206C12.8961 15.0206 12.7946 15.0302 12.6966 15.0491L10.0901 10.5808L16.7928 9.74285L13.373 15.0634ZM20.584 20.4367C18.194 20.4367 16.25 18.4927 16.25 16.1028C16.25 14.4548 17.1768 13.0183 18.5352 12.2859L20.0785 16.2979C20.1619 16.5122 20.3666 16.6455 20.584 16.6455C20.6483 16.6455 20.7141 16.6328 20.7784 16.609C21.0576 16.5011 21.1964 16.1884 21.0902 15.9092L19.5454 11.8959C19.8786 11.8138 20.2269 11.7701 20.584 11.7701C22.9731 11.7701 24.917 13.7141 24.917 16.1027C24.917 18.4927 22.9731 20.4367 20.584 20.4367Z" fill="currentColor"/>
</svg>
