<svg width="24" height="16" viewBox="0 0 24 16" fill="none" xmlns="http://www.w3.org/2000/svg">
<path d="M18.8943 5.8968C18.445 5.8968 18.0093 5.95736 17.5945 6.07098L16.3264 2.77271L16.7852 2.30099C16.9727 2.10765 16.9706 1.79968 16.7802 1.60887L15.7955 0.624618C15.7032 0.532286 15.5777 0.47998 15.4471 0.47998H12.9853C12.7133 0.47998 12.4926 0.700699 12.4926 0.972662C12.4926 1.24462 12.7133 1.46497 12.9853 1.46497H15.2429L15.7407 1.96232L15.4002 2.31142C15.2631 2.45246 15.2285 2.65476 15.2927 2.82788C15.2927 2.82894 15.2935 2.83042 15.2935 2.83185L15.7464 4.00908L9.04533 4.84657V3.92722H10.5226C10.7946 3.92722 11.0153 3.70651 11.0153 3.43459C11.0153 3.16267 10.7946 2.94228 10.5226 2.94228H7.56807C7.29611 2.94228 7.07576 3.16263 7.07576 3.43459C7.07576 3.70655 7.29611 3.92722 7.56807 3.92722H8.06071V5.27106L7.37293 6.45041C6.69378 6.09697 5.92305 5.8968 5.10614 5.8968C2.39104 5.8968 0.181641 8.10587 0.181641 10.8205C0.181641 13.5371 2.39104 15.7458 5.10614 15.7458C7.48437 15.7458 9.47375 14.0507 9.93143 11.8059H10.6073C10.8107 12.3793 11.3578 12.7912 12.0002 12.7912C12.8149 12.7912 13.4771 12.129 13.4771 11.3139C13.4771 10.9735 13.3617 10.659 13.1669 10.4095L16.3212 5.50295L16.6754 6.42553C15.0719 7.23814 13.9697 8.90329 13.9697 10.8205C13.9697 13.5371 16.1791 15.7458 18.8942 15.7458C21.6093 15.7458 23.818 13.5371 23.818 10.8205C23.8181 8.10583 21.6094 5.8968 18.8943 5.8968ZM5.10619 14.7604C2.9339 14.7604 1.16668 12.9932 1.16668 10.8205C1.16668 8.64897 2.93395 6.88174 5.10619 6.88174C5.7424 6.88174 6.34362 7.03321 6.87595 7.30227L4.68059 11.0657C4.54389 11.3009 4.62288 11.6017 4.85805 11.7395C4.9363 11.7842 5.02143 11.8059 5.10582 11.8059C5.10582 11.8059 5.10725 11.8059 5.10836 11.8059H8.92091C8.48234 13.5039 6.93832 14.7604 5.10619 14.7604ZM5.96349 10.8205L7.69466 7.85372C8.52204 8.57649 9.04533 9.63904 9.04533 10.8205H5.96349ZM10.6073 10.8205H10.0303C10.0303 9.27548 9.31475 7.89448 8.19777 6.99102L8.55302 6.38149L10.8732 10.3589C10.7588 10.4945 10.668 10.6503 10.6073 10.8205ZM12.0003 11.8058C11.7283 11.8058 11.5076 11.5844 11.5076 11.3139C11.5076 11.0412 11.7283 10.8205 12.0003 10.8205C12.2719 10.8205 12.4926 11.0412 12.4926 11.3139C12.4926 11.5844 12.2719 11.8058 12.0003 11.8058ZM12.3389 9.87559C12.2297 9.85039 12.1167 9.83668 12.0003 9.83668C11.9054 9.83668 11.8131 9.84535 11.724 9.86262L9.35445 5.80045L15.4478 5.03871L12.3389 9.87559ZM18.8943 14.7604C16.7217 14.7604 14.9544 12.9932 14.9544 10.8205C14.9544 9.32234 15.7969 8.01636 17.0319 7.35056L18.4348 10.9979C18.5106 11.1927 18.6967 11.3138 18.8943 11.3138C18.9528 11.3138 19.0126 11.3023 19.0711 11.2806C19.3249 11.1825 19.4511 10.8983 19.3545 10.6445L17.9502 6.99605C18.2531 6.9214 18.5697 6.8817 18.8943 6.8817C21.0662 6.8817 22.8335 8.64892 22.8335 10.8204C22.8335 12.9932 21.0662 14.7604 18.8943 14.7604Z" fill="currentColor"/>
</svg>
