<svg width="20" height="20" viewBox="0 0 20 20" fill="none" xmlns="http://www.w3.org/2000/svg">
<path fill-rule="evenodd" clip-rule="evenodd" d="M4.70835 16.7716V2.70971H14.9583V16.7378L14.1117 15.8912L12.9037 14.6832L10.5213 12.3008C10.1505 11.93 9.54989 11.93 9.17911 12.3008L6.79672 14.6832L5.58874 15.8912L4.70835 16.7716ZM4.60392 18.6995C4.57822 18.7103 4.54919 18.7161 4.51853 18.7161H3.18983C3.08543 18.7161 3.00001 18.649 3.00001 18.5446V1.75926C3.00001 1.33929 3.33931 1 3.75927 1H15.4018V1.00138H15.9074C16.3274 1.00138 16.6667 1.34067 16.6667 1.76064V18.5263C16.6667 18.6307 16.5813 18.7161 16.4769 18.7161H15.1482C15.1481 18.7161 15.1481 18.7161 15.1481 18.7161C15.1456 18.7161 15.1431 18.7161 15.1406 18.7161H15.106L15.0398 18.7161C14.8793 18.7161 14.7254 18.6524 14.6119 18.5389L13.6081 17.5351L12.9716 16.8986L11.2964 15.2234L9.85021 13.7772L8.40567 15.2217L6.71932 16.9081L5.00291 18.6245C4.94424 18.6832 4.86467 18.7161 4.7817 18.7161H4.7716C4.71414 18.7161 4.65807 18.7104 4.60392 18.6995Z" fill="currentColor"/>
</svg>
