<svg width="24" height="24" viewBox="0 0 24 24" fill="none" xmlns="http://www.w3.org/2000/svg">
<path fill-rule="evenodd" clip-rule="evenodd" d="M4.00057 5.00049C4.00057 3.34363 5.34372 2.00049 7.00057 2.00049H17.0006C18.6574 2.00049 20.0006 3.34363 20.0006 5.00049V20.6699C20.0006 21.5719 19.0427 22.1515 18.2437 21.7329L12.0054 18.4644L5.75684 21.7334C4.95786 22.1514 4.00057 21.5718 4.00057 20.6701V5.00049ZM7.00057 4.00049C6.44829 4.00049 6.00057 4.4482 6.00057 5.00049V19.3487L11.4494 16.4981C11.7981 16.3157 12.214 16.3158 12.5626 16.4985L18.0006 19.3476V5.00049C18.0006 4.4482 17.5529 4.00049 17.0006 4.00049H7.00057Z" fill="currentColor"/>
</svg>
