<svg width="14" height="18" viewBox="0 0 14 18" fill="none" xmlns="http://www.w3.org/2000/svg">
<path fill-rule="evenodd" clip-rule="evenodd" d="M1.70834 15.7716V1.70971H11.9583V15.7378L11.1117 14.8912L9.90369 13.6832L7.52129 11.3008C7.15051 10.93 6.54988 10.93 6.1791 11.3008L3.7967 13.6832L2.58873 14.8912L1.70834 15.7716ZM1.60391 17.6995C1.5782 17.7103 1.54918 17.7161 1.51852 17.7161H0.189816C0.0854177 17.7161 0 17.649 0 17.5446V0.75926C0 0.339294 0.339295 0 0.759261 0H12.4018V0.00137818H12.9074C13.3274 0.00137818 13.6667 0.340673 13.6667 0.760639V17.5263C13.6667 17.6307 13.5813 17.7161 13.4769 17.7161H12.1482C12.1481 17.7161 12.1481 17.7161 12.1481 17.7161C12.1456 17.7161 12.1431 17.7161 12.1406 17.7161H12.106L12.0397 17.7161C11.8793 17.7161 11.7254 17.6524 11.6119 17.5389L10.6081 16.5351L9.97154 15.8986L8.29641 14.2234L6.8502 12.7772L5.40566 14.2217L3.7193 15.9081L2.0029 17.6245C1.94423 17.6832 1.86466 17.7161 1.78169 17.7161H1.77159C1.71412 17.7161 1.65805 17.7104 1.60391 17.6995Z" fill="#777777"/>
</svg>
