<svg width="373" height="281" viewBox="0 0 373 281" fill="none" xmlns="http://www.w3.org/2000/svg">
<path d="M48.5768 254.108L37.5336 118.449C37.2539 114.993 38.2102 111.551 40.2309 108.74L95.1948 32.3151C96.6639 30.2725 98.6362 28.6481 100.918 27.6007C103.2 26.553 105.713 26.1184 108.212 26.3392L296.418 42.965C299.398 43.2285 302.223 44.4113 304.506 46.3511C306.788 48.2909 308.417 50.893 309.17 53.7999L335.047 153.763C335.686 156.222 335.67 158.806 335.001 161.257L309.714 254.408L48.5768 254.108Z" fill="currentColor"/>
<path d="M128.352 196.7C128.352 196.7 127.886 199.451 126.932 201.54C126.163 203.347 125.715 205.275 125.61 207.237C125.61 208.186 123.531 208.755 123.531 208.755L122.869 215.969H156.893C156.893 215.969 155.098 211.319 153.963 211.319C152.828 211.319 150.466 210.94 150.466 210.94L146.78 202.87L144.575 199.786C143.772 198.662 142.704 197.757 141.466 197.151C140.228 196.545 138.859 196.258 137.483 196.316L128.352 196.7Z" fill="#777777"/>
<path opacity="0.2" d="M128.352 196.7C128.352 196.7 130.902 197.168 131.66 197.934C132.417 198.7 133.737 203.25 133.737 203.25L134.683 205.528L143.19 206.193L146.44 202.395L143.854 198.784C143.274 197.972 142.501 197.317 141.605 196.878C140.71 196.44 139.721 196.231 138.726 196.271L128.352 196.7Z" fill="white"/>
<path opacity="0.3" d="M127.948 215.977L134.399 214.007L147.016 215.977H127.948Z" fill="#080908"/>
<path opacity="0.3" d="M134.684 205.535L134.399 214.007L147.016 215.977L143.19 206.2L134.684 205.535Z" fill="#080908"/>
<path d="M143.496 211.111C143.496 211.145 143.506 211.178 143.524 211.206C143.543 211.234 143.57 211.256 143.601 211.269C143.632 211.282 143.666 211.285 143.699 211.279C143.732 211.272 143.762 211.256 143.786 211.232C143.81 211.208 143.826 211.177 143.833 211.144C143.839 211.111 143.836 211.077 143.823 211.045C143.81 211.014 143.788 210.987 143.76 210.969C143.733 210.95 143.7 210.94 143.666 210.94C143.643 210.94 143.621 210.944 143.601 210.953C143.58 210.961 143.561 210.974 143.546 210.99C143.53 211.006 143.517 211.025 143.509 211.045C143.5 211.066 143.496 211.088 143.496 211.111Z" fill="#080908"/>
<path opacity="0.3" d="M129.461 201.098C129.461 201.098 127.13 204.61 127.13 206.657C127.13 208.703 125.624 210.169 124.864 210.94C124.104 211.71 124.864 215.977 124.864 215.977H127.957C127.957 215.977 125.927 212.356 126.997 211.282C128.067 210.207 128.361 207.926 128.361 206.2C128.361 204.474 129.461 201.098 129.461 201.098Z" fill="#080908"/>
<path opacity="0.2" d="M153.916 211.879C153.916 211.879 148.105 215.345 148.105 214.455C148.105 213.565 149.995 211.535 149.995 211.535C150.22 211.682 150.482 211.763 150.751 211.769C151.923 211.921 153.916 211.404 153.916 211.879Z" fill="white"/>
<path d="M110.914 208.197C110.914 208.197 118.187 211.155 118.794 218.032H120.178C120.178 218.032 119.486 210.024 110.914 208.197Z" fill="#37842A"/>
<path d="M121.134 218.026C121.134 218.026 120.607 211.937 114.082 210.546C114.082 210.546 119.619 212.797 120.08 218.026H121.134Z" fill="#37842A"/>
<path d="M129.03 208.155C129.03 208.155 121.756 211.113 121.15 217.99H119.765C119.765 217.99 120.458 209.982 129.03 208.155Z" fill="#37842A"/>
<path d="M120.399 218.457C120.399 218.457 117.658 213 122.479 208.369C122.479 208.369 118.949 213.209 121.297 217.899L120.399 218.457Z" fill="#37842A"/>
<g opacity="0.2">
<path opacity="0.2" d="M121.134 218.026C121.134 218.026 120.607 211.937 114.082 210.546C114.082 210.546 119.619 212.797 120.08 218.026H121.134Z" fill="#080908"/>
</g>
<g opacity="0.2">
<path opacity="0.2" d="M120.399 218.457C120.399 218.457 117.658 213 122.479 208.369C122.479 208.369 118.949 213.209 121.297 217.899L120.399 218.457Z" fill="#080908"/>
</g>
<path d="M121.193 204.971C121.193 204.971 117.332 211.834 121.118 217.592L120.032 218.456C120.032 218.456 115.614 211.762 121.193 204.971Z" fill="#37842A"/>
<g opacity="0.2">
<path opacity="0.2" d="M121.193 204.971C121.193 204.971 117.332 211.834 121.118 217.592L120.032 218.456C120.032 218.456 115.614 211.762 121.193 204.971Z" fill="white"/>
</g>
<path d="M122.768 157.346C122.768 157.346 114.39 165.38 109.48 164.584L107.212 167.457C107.212 167.457 116.574 168.26 122.768 157.346Z" fill="#080908"/>
<path opacity="0.1" d="M122.768 157.346C122.768 157.346 116.724 165.944 108.781 166.244L110.18 164.443C110.18 164.443 113.607 165.72 122.768 157.346Z" fill="#080908"/>
<path d="M86.6833 155.407C86.6833 155.407 85.893 167.015 81.7341 169.757L81.9858 173.415C81.9858 173.415 89.4388 167.664 86.6833 155.407Z" fill="#080908"/>
<path opacity="0.3" d="M86.6834 155.407C86.6834 155.407 87.9959 165.853 82.3403 171.459L82.1584 169.183C82.1584 169.183 85.5434 167.797 86.6834 155.407Z" fill="#080908"/>
<path d="M113.852 151.848C113.852 151.848 105.762 171.543 96.957 173.876L95.2762 180.369C95.2762 180.369 111.546 174.737 113.852 151.848Z" fill="#080908"/>
<path opacity="0.3" d="M113.852 151.848C113.852 151.848 110.082 170.745 97.0202 177.184L98.0226 173.122C98.0226 173.122 104.704 172.696 113.852 151.848Z" fill="#080908"/>
<path d="M75.7656 157.376C75.7656 157.376 83.8527 177.072 92.6579 179.405L94.341 185.898C94.341 185.898 78.0619 180.266 75.7656 157.376Z" fill="#080908"/>
<path opacity="0.3" d="M75.7656 157.376C75.7656 157.376 79.5329 176.274 92.5949 182.711L91.5925 178.651C91.5925 178.651 84.9065 178.224 75.7656 157.376Z" fill="#080908"/>
<path d="M93.588 143.399L91.3477 230.596L100.167 230.322L96.3762 143.308L93.588 143.399Z" fill="#080908"/>
<path opacity="0.3" d="M94.8283 143.376L95.5254 230.392L100.167 230.322L96.3763 143.308L94.8283 143.376Z" fill="#080908"/>
<path d="M119.246 114.196C118.036 114.199 116.829 114.325 115.644 114.573C112.434 107.855 104.687 103.099 95.5953 103.099C88.1913 103.099 81.6404 106.276 77.7519 111.109C76.515 110.873 75.258 110.756 73.9986 110.761C64.5431 110.761 56.8826 117.254 56.8826 125.26C56.8826 132.035 62.3447 137.701 69.7371 139.31V139.779H119.246C127.582 139.779 134.336 134.053 134.336 126.988C134.336 119.924 127.582 114.196 119.246 114.196Z" fill="#37842A"/>
<g opacity="0.2">
<path opacity="0.2" d="M119.246 114.196C118.036 114.199 116.829 114.325 115.644 114.573C112.434 107.855 104.687 103.099 95.5953 103.099C88.1913 103.099 81.6404 106.276 77.7519 111.109C76.515 110.873 75.258 110.756 73.9986 110.761C64.5431 110.761 56.8826 117.254 56.8826 125.26C56.8826 132.035 62.3447 137.701 69.7371 139.31V139.779H119.246C127.582 139.779 134.336 134.053 134.336 126.988C134.336 119.924 127.582 114.196 119.246 114.196Z" fill="white"/>
</g>
<path opacity="0.2" d="M121.505 114.355C119.097 126.015 103.186 135.021 83.8998 135.021C73.5048 135.021 64.0842 132.403 57.235 128.164C58.5428 133.611 63.4314 137.938 69.7375 139.311V139.779H119.246C127.583 139.779 134.336 134.054 134.336 126.989C134.336 120.573 128.767 115.28 121.505 114.355Z" fill="#080908"/>
<path d="M132.599 139.313C131.722 139.314 130.848 139.406 129.99 139.587C127.659 134.714 122.036 131.271 115.45 131.271C110.088 131.271 105.33 133.576 102.509 137.079C101.609 136.902 100.694 136.814 99.7771 136.814C92.9162 136.814 87.3608 141.53 87.3608 147.338C87.3608 152.255 91.324 156.36 96.6858 157.526V157.866H132.587C138.648 157.866 143.544 153.714 143.544 148.588C143.544 143.462 138.648 139.313 132.599 139.313Z" fill="#37842A"/>
<g opacity="0.2">
<path opacity="0.2" d="M132.599 139.313C131.722 139.314 130.848 139.406 129.99 139.587C127.659 134.714 122.036 131.271 115.45 131.271C110.088 131.271 105.33 133.576 102.509 137.079C101.609 136.902 100.694 136.814 99.7771 136.814C92.9162 136.814 87.3608 141.53 87.3608 147.338C87.3608 152.255 91.324 156.36 96.6858 157.526V157.866H132.587C138.648 157.866 143.544 153.714 143.544 148.588C143.544 143.462 138.648 139.313 132.599 139.313Z" fill="white"/>
</g>
<path opacity="0.2" d="M134.298 139.65C132.55 148.106 121.01 154.637 107.023 154.637C99.4835 154.637 92.6576 152.735 87.6851 149.661C88.6339 153.611 92.1774 156.751 96.7513 157.746V158.083H132.648C138.695 158.083 143.605 153.932 143.605 148.806C143.605 144.155 139.565 140.322 134.298 139.65Z" fill="#080908"/>
<path d="M92.6206 140.032C91.7431 140.035 90.8684 140.127 90.0096 140.306C87.6783 135.435 82.0553 131.993 75.4742 131.993C70.1124 131.993 65.3519 134.295 62.5288 137.8C61.6308 137.625 60.7181 137.535 59.8036 137.533C52.9474 137.533 47.3873 142.249 47.3873 148.059C47.3873 152.976 51.3505 157.081 56.7123 158.247V158.224L92.6136 158.585C98.6608 158.585 103.57 154.435 103.57 149.312C103.57 144.188 98.6678 140.032 92.6206 140.032Z" fill="#37842A"/>
<g opacity="0.2">
<path opacity="0.2" d="M92.6206 140.032C91.7431 140.035 90.8684 140.127 90.0096 140.306C87.6783 135.435 82.0553 131.993 75.4742 131.993C70.1124 131.993 65.3519 134.295 62.5288 137.8C61.6308 137.625 60.7181 137.535 59.8036 137.533C52.9474 137.533 47.3873 142.249 47.3873 148.059C47.3873 152.976 51.3505 157.081 56.7123 158.247V158.224L92.6136 158.585C98.6608 158.585 103.57 154.435 103.57 149.312C103.57 144.188 98.6678 140.032 92.6206 140.032Z" fill="white"/>
</g>
<path opacity="0.2" d="M94.262 140.151C92.5135 148.607 80.9738 155.138 66.9863 155.138C59.4447 155.138 52.6165 153.239 47.6486 150.162C48.5951 154.112 52.1409 157.253 56.7125 158.245V158.222L92.6138 158.583C98.661 158.583 103.571 154.433 103.571 149.31C103.568 144.659 99.5283 140.821 94.262 140.151Z" fill="#080908"/>
<path d="M66.8157 155.515C66.8157 155.515 73.1474 165.258 78.113 165.614L79.6702 168.928C79.6702 168.928 70.3686 167.565 66.8157 155.515Z" fill="#080908"/>
<path opacity="0.3" d="M66.8157 155.515C66.8157 155.515 70.7509 165.275 78.409 167.394L77.4602 165.322C77.4602 165.322 73.8351 165.769 66.8157 155.515Z" fill="#080908"/>
<path d="M64.9836 220.442C64.6883 221.679 64.7808 222.977 65.2487 224.159C65.7168 225.341 66.5374 226.348 67.5979 227.043C68.6584 227.738 69.9068 228.086 71.1722 228.04C72.4376 227.994 73.6578 227.556 74.6653 226.786C75.5668 227.556 76.6364 228.1 77.7871 228.376H77.8032L80.6007 228.51L95.5533 229.212L103.351 229.587L111.856 229.992C112.981 230.263 114.167 230.075 115.154 229.468C116.141 228.861 116.847 227.885 117.117 226.756C117.388 225.626 117.201 224.434 116.596 223.443C115.992 222.452 115.021 221.742 113.896 221.47C113.354 221.342 112.793 221.317 112.243 221.398C112.235 220.751 112.008 220.127 111.6 219.628C111.191 219.128 110.625 218.784 109.995 218.651C109.366 218.518 108.71 218.605 108.136 218.898C107.562 219.19 107.104 219.671 106.839 220.26C106.141 218.375 104.728 216.846 102.908 216.007C103.1 215.682 103.241 215.33 103.328 214.963C103.565 213.971 103.401 212.925 102.87 212.056C102.34 211.186 101.488 210.563 100.5 210.324C99.9526 210.191 99.3824 210.183 98.8311 210.301C98.2177 208.618 97.0999 207.168 95.6314 206.149C94.1632 205.131 92.4166 204.596 90.6328 204.616C88.8487 204.637 87.1149 205.212 85.6702 206.264C84.2256 207.316 83.1411 208.791 82.5662 210.488C81.9307 210.488 81.3138 210.702 80.8145 211.097C80.3151 211.491 79.9624 212.043 79.8127 212.663C79.7582 212.904 79.7332 213.15 79.7384 213.396C78.5583 213.367 77.3878 213.615 76.3203 214.122C75.2528 214.628 74.318 215.378 73.5909 216.312C73.202 216.124 72.795 215.979 72.376 215.876C71.5923 215.688 70.7791 215.657 69.9835 215.785C69.1876 215.913 68.4248 216.197 67.7383 216.621C67.0519 217.045 66.4554 217.601 65.9826 218.257C65.51 218.912 65.1706 219.655 64.9836 220.442Z" fill="#D9D9D9"/>
<path d="M93.2031 231.357C90.5594 231.043 87.9135 230.792 85.3001 230.595C84.1718 230.506 83.0505 230.434 81.9385 230.361H81.8639C79.9212 230.246 78.015 230.156 76.1453 230.092L75.1382 230.055C74.3432 230.031 73.553 230.008 72.772 229.994C72.1589 229.975 71.5504 229.966 70.9466 229.956C68.5011 229.916 66.1699 229.912 63.9878 229.933C63.032 229.942 62.1088 229.955 61.2183 229.97C60.0224 229.991 58.8871 230.019 57.817 230.052C51.5226 230.242 47.5595 230.574 47.5595 230.574C47.187 229.95 47.0168 229.225 47.0723 228.5C47.2704 226.188 49.8162 224.519 52.7862 224.753C52.6983 224.377 52.6701 223.99 52.7023 223.606C52.9144 221.13 55.621 219.339 58.7635 219.608C61.3745 219.843 63.4563 221.418 63.9529 223.374C64.7357 223.163 65.5493 223.093 66.3564 223.165C67.7246 223.265 69.0282 223.789 70.0864 224.666C70.8755 224.746 71.6453 224.961 72.3617 225.303C73.3665 223.788 75.4669 222.847 77.7982 223.046C78.2849 223.088 78.7661 223.18 79.2342 223.32C79.8886 223.188 80.5581 223.151 81.2228 223.21C83.603 223.414 85.5426 224.746 86.242 226.462C86.8031 226.372 87.3731 226.353 87.9391 226.404C91.049 226.654 93.4152 228.879 93.2031 231.357Z" fill="#D9D9D9"/>
<path d="M96.5319 229.191C96.4946 230.858 111.088 231.694 111.123 230.106C111.138 229.415 110.904 228.741 110.464 228.209C110.024 227.677 109.406 227.323 108.727 227.212C108.822 226.971 108.874 226.715 108.878 226.456C108.885 226.167 108.835 225.88 108.731 225.611C108.628 225.341 108.472 225.095 108.273 224.887C108.075 224.678 107.837 224.51 107.574 224.394C107.311 224.278 107.028 224.214 106.74 224.208C106.674 224.204 106.609 224.204 106.542 224.208C106.207 222.768 104.794 221.667 103.076 221.632C101.078 221.587 99.4273 222.995 99.3877 224.777C99.377 225.294 99.5043 225.804 99.756 226.254C97.989 226.334 96.5669 227.61 96.5319 229.191Z" fill="#D9D9D9"/>
<path opacity="0.1" d="M93.3759 231.642C90.7369 231.293 88.0931 231.012 85.4821 230.781C84.3561 230.677 83.2347 230.591 82.1227 230.509H82.0484C80.1088 230.368 78.2041 230.254 76.3345 230.167L75.3271 230.118C74.5322 230.083 73.7445 230.05 72.9635 230.027C72.348 230.001 71.7393 229.982 71.1379 229.966C68.6924 229.895 66.3612 229.86 64.1791 229.853C63.2233 229.853 62.3004 229.853 61.4098 229.853C60.2139 229.853 59.0786 229.872 58.0062 229.891C51.7118 230.001 47.7324 230.282 47.7324 230.282C47.3652 229.654 47.2022 228.927 47.2661 228.202C47.4992 225.893 50.0636 224.257 53.0266 224.517C52.9425 224.14 52.9187 223.753 52.9567 223.369C53.1898 220.896 55.9267 219.138 59.0576 219.447C61.6639 219.704 63.7201 221.32 64.2003 223.278C64.9855 223.077 65.8 223.016 66.6059 223.1C67.9714 223.217 69.2668 223.758 70.3126 224.648C71.1006 224.737 71.8671 224.961 72.5786 225.313C73.602 223.812 75.7141 222.896 78.0431 223.126C78.5298 223.173 79.0103 223.271 79.477 223.418C80.133 223.294 80.8035 223.266 81.4677 223.334C83.8432 223.568 85.7688 224.924 86.4449 226.647C87.0072 226.566 87.5769 226.553 88.142 226.61C91.2799 226.907 93.6184 229.169 93.3759 231.642Z" fill="#080908"/>
<g opacity="0.1">
<path opacity="0.1" d="M96.7651 229.191C96.7278 230.858 111.321 231.694 111.356 230.106C111.372 229.415 111.137 228.741 110.697 228.209C110.257 227.677 109.64 227.323 108.96 227.212C109.055 226.971 109.107 226.715 109.111 226.456C109.118 226.167 109.068 225.88 108.965 225.611C108.861 225.341 108.705 225.095 108.507 224.887C108.308 224.678 108.07 224.51 107.808 224.394C107.544 224.278 107.261 224.214 106.974 224.208C106.908 224.204 106.842 224.204 106.775 224.208C106.44 222.768 105.027 221.667 103.309 221.632C101.311 221.587 99.6605 222.995 99.6209 224.777C99.6101 225.294 99.7374 225.804 99.9892 226.254C98.2221 226.334 96.8001 227.61 96.7651 229.191Z" fill="#080908"/>
</g>
<path d="M263.14 227.936C262.844 229.172 262.937 230.47 263.406 231.652C263.874 232.834 264.692 233.842 265.753 234.537C266.814 235.232 268.063 235.579 269.329 235.534C270.593 235.487 271.814 235.05 272.822 234.279C273.724 235.05 274.791 235.593 275.943 235.869H275.959L278.757 236.003L293.71 236.705L301.508 237.08L310.012 237.485C311.138 237.757 312.325 237.569 313.311 236.96C314.297 236.354 315.003 235.38 315.274 234.249C315.544 233.119 315.358 231.927 314.751 230.936C314.148 229.945 313.178 229.235 312.052 228.964C311.511 228.835 310.949 228.81 310.399 228.891C310.392 228.244 310.166 227.62 309.756 227.121C309.348 226.621 308.781 226.277 308.152 226.144C307.522 226.011 306.865 226.099 306.291 226.391C305.718 226.684 305.261 227.164 304.995 227.753C304.298 225.869 302.883 224.339 301.065 223.5C301.256 223.175 301.398 222.823 301.484 222.456C301.722 221.464 301.557 220.418 301.027 219.549C300.496 218.679 299.645 218.056 298.656 217.817C298.109 217.684 297.537 217.677 296.987 217.794C296.374 216.111 295.255 214.661 293.789 213.643C292.32 212.625 290.574 212.089 288.788 212.109C287.005 212.13 285.27 212.706 283.827 213.757C282.382 214.809 281.298 216.285 280.722 217.981C280.088 217.981 279.47 218.195 278.971 218.59C278.472 218.985 278.118 219.536 277.969 220.157C277.915 220.397 277.89 220.643 277.894 220.89C276.715 220.86 275.544 221.108 274.477 221.615C273.409 222.121 272.474 222.871 271.747 223.805C271.358 223.618 270.952 223.472 270.532 223.369C269.749 223.182 268.935 223.151 268.14 223.279C267.343 223.406 266.581 223.69 265.895 224.114C265.208 224.538 264.611 225.094 264.14 225.75C263.667 226.405 263.326 227.148 263.14 227.936Z" fill="#D9D9D9"/>
<path d="M291.36 238.85C288.716 238.536 286.07 238.286 283.457 238.089C282.328 238 281.207 237.928 280.095 237.855H280.02C278.078 237.74 276.172 237.649 274.302 237.586L273.295 237.548C272.5 237.525 271.71 237.501 270.929 237.487C270.315 237.469 269.707 237.459 269.103 237.45C266.658 237.41 264.326 237.405 262.144 237.426C261.189 237.436 260.265 237.447 259.375 237.464C258.179 237.485 257.044 237.513 255.974 237.546C249.679 237.735 245.716 238.068 245.716 238.068C245.343 237.443 245.173 236.719 245.229 235.993C245.427 233.682 247.973 232.012 250.943 232.247C250.854 231.871 250.826 231.484 250.859 231.099C251.071 228.624 253.778 226.833 256.92 227.102C259.531 227.336 261.613 228.912 262.109 230.867C262.893 230.657 263.706 230.586 264.513 230.659C265.881 230.759 267.185 231.283 268.243 232.16C269.031 232.24 269.803 232.455 270.518 232.797C271.523 231.282 273.623 230.341 275.955 230.54C276.442 230.581 276.922 230.673 277.391 230.814C278.046 230.682 278.715 230.645 279.379 230.703C281.76 230.907 283.699 232.24 284.398 233.956C284.96 233.866 285.529 233.846 286.096 233.897C289.206 234.148 291.572 236.373 291.36 238.85Z" fill="#D9D9D9"/>
<path d="M294.689 236.684C294.651 238.351 309.245 239.187 309.28 237.6C309.294 236.909 309.061 236.234 308.62 235.703C308.179 235.171 307.562 234.815 306.883 234.705C306.979 234.464 307.03 234.209 307.035 233.949C307.042 233.66 306.991 233.373 306.888 233.104C306.783 232.834 306.629 232.589 306.429 232.38C306.231 232.171 305.993 232.003 305.729 231.887C305.468 231.771 305.184 231.707 304.897 231.701C304.832 231.697 304.764 231.697 304.699 231.701C304.363 230.261 302.951 229.16 301.232 229.125C299.235 229.081 297.584 230.488 297.544 232.27C297.533 232.787 297.661 233.297 297.913 233.747C296.146 233.827 294.724 235.103 294.689 236.684Z" fill="#D9D9D9"/>
<path opacity="0.1" d="M291.593 238.85C288.949 238.536 286.303 238.286 283.69 238.089C282.561 238 281.44 237.928 280.328 237.855H280.254C278.312 237.74 276.405 237.649 274.535 237.586L273.528 237.548C272.733 237.525 271.943 237.501 271.162 237.487C270.549 237.469 269.94 237.459 269.336 237.45C266.891 237.41 264.56 237.405 262.378 237.426C261.422 237.436 260.499 237.447 259.608 237.464C258.412 237.485 257.277 237.513 256.207 237.546C249.912 237.735 245.949 238.068 245.949 238.068C245.576 237.443 245.406 236.719 245.462 235.993C245.66 233.682 248.206 232.012 251.176 232.247C251.087 231.871 251.059 231.484 251.092 231.099C251.304 228.624 254.011 226.833 257.153 227.102C259.764 227.336 261.846 228.912 262.343 230.867C263.126 230.657 263.939 230.586 264.746 230.659C266.115 230.759 267.418 231.283 268.476 232.16C269.264 232.24 270.036 232.455 270.751 232.797C271.756 231.282 273.857 230.341 276.188 230.54C276.675 230.581 277.155 230.673 277.624 230.814C278.279 230.682 278.948 230.645 279.612 230.703C281.993 230.907 283.932 232.24 284.632 233.956C285.193 233.866 285.762 233.846 286.329 233.897C289.439 234.148 291.805 236.373 291.593 238.85Z" fill="#080908"/>
<g opacity="0.1">
<path opacity="0.1" d="M294.922 236.684C294.885 238.351 309.478 239.187 309.513 237.6C309.527 236.909 309.294 236.234 308.853 235.703C308.413 235.171 307.795 234.815 307.117 234.705C307.212 234.464 307.263 234.209 307.268 233.949C307.275 233.66 307.224 233.373 307.121 233.104C307.016 232.834 306.862 232.589 306.662 232.38C306.464 232.171 306.226 232.003 305.963 231.887C305.701 231.771 305.417 231.707 305.13 231.701C305.065 231.697 304.997 231.697 304.932 231.701C304.597 230.261 303.184 229.16 301.466 229.125C299.468 229.081 297.817 230.488 297.778 232.27C297.766 232.787 297.894 233.297 298.146 233.747C296.379 233.827 294.957 235.103 294.922 236.684Z" fill="#080908"/>
</g>
<path d="M46.625 230.963C46.625 230.963 95.115 220.66 141.74 241.032H255.272C255.272 241.032 301.197 230.495 314.019 238.222L309.8 254.029L48.5436 253.912L46.625 230.963Z" fill="#BDBDBD"/>
<path d="M287.811 122.888C287.811 122.888 276.621 133.625 270.052 132.562L267.021 136.4C267.021 136.4 279.535 137.472 287.811 122.888Z" fill="#080908"/>
<path opacity="0.1" d="M287.811 122.888C287.811 122.888 279.734 134.376 269.124 134.789L270.989 132.381C270.989 132.381 275.57 134.079 287.811 122.888Z" fill="#080908"/>
<path d="M239.594 120.298C239.594 120.298 238.54 135.81 232.983 139.472L233.318 144.361C233.318 144.361 243.278 136.674 239.594 120.298Z" fill="#080908"/>
<path opacity="0.3" d="M239.594 120.298C239.594 120.298 241.347 134.255 233.794 141.748L233.561 138.704C233.561 138.704 238.072 136.854 239.594 120.298Z" fill="#080908"/>
<path d="M275.894 115.542C275.894 115.542 265.086 141.858 253.323 144.975L251.076 153.653C251.076 153.653 272.817 146.12 275.894 115.542Z" fill="#080908"/>
<path opacity="0.3" d="M275.894 115.542C275.894 115.542 270.861 140.793 253.407 149.398L254.747 143.97C254.747 143.97 263.664 143.397 275.894 115.542Z" fill="#080908"/>
<path d="M224.999 122.938C224.999 122.938 235.804 149.253 247.569 152.37L249.819 161.046C249.819 161.046 228.078 153.513 224.999 122.938Z" fill="#080908"/>
<path opacity="0.3" d="M224.999 122.938C224.999 122.938 230.034 148.185 247.486 156.789L246.145 151.363C246.145 151.363 237.223 150.785 224.999 122.938Z" fill="#080908"/>
<path d="M248.824 104.254L245.828 220.761L257.613 220.396L252.547 104.132L248.824 104.254Z" fill="#080908"/>
<path opacity="0.3" d="M250.481 104.223L251.411 220.489L257.612 220.396L252.547 104.132L250.481 104.223Z" fill="#080908"/>
<path d="M283.102 65.2366C281.484 65.2401 279.874 65.408 278.291 65.7377C274.004 56.7621 263.636 50.4209 251.509 50.4209C241.618 50.4209 232.859 54.664 227.667 61.1223C226.013 60.7994 224.331 60.6364 222.646 60.6352C210.015 60.6352 199.776 69.3228 199.776 80.0172C199.776 89.0701 207.078 96.643 216.953 98.7904V99.4132H283.102C294.241 99.4132 303.265 91.7654 303.265 82.3191C303.265 72.8728 294.241 65.2366 283.102 65.2366Z" fill="#37842A"/>
<g opacity="0.2">
<path opacity="0.2" d="M283.102 65.2366C281.484 65.2401 279.874 65.408 278.291 65.7377C274.004 56.7621 263.636 50.4209 251.509 50.4209C241.618 50.4209 232.859 54.664 227.667 61.1223C226.013 60.7994 224.331 60.6364 222.646 60.6352C210.015 60.6352 199.776 69.3228 199.776 80.0172C199.776 89.0701 207.078 96.643 216.953 98.7904V99.4132H283.102C294.241 99.4132 303.265 91.7654 303.265 82.3191C303.265 72.8728 294.241 65.2366 283.102 65.2366Z" fill="white"/>
</g>
<path opacity="0.2" d="M286.124 65.4497C282.904 81.0265 261.645 93.0603 235.876 93.0603C221.986 93.0603 209.407 89.5619 200.25 83.8974C201.996 91.1753 208.528 96.9568 216.953 98.7904V99.4132H283.102C294.241 99.4132 303.265 91.7654 303.265 82.3191C303.265 73.7626 295.836 66.6838 286.124 65.4497Z" fill="#080908"/>
<path d="M300.948 98.7971C299.773 98.7985 298.601 98.9202 297.451 99.16C294.339 92.6479 286.823 88.0488 278.025 88.0488C270.852 88.0488 264.504 91.1281 260.732 95.8091C259.531 95.5756 258.312 95.4581 257.09 95.4579C247.926 95.4579 240.503 101.759 240.503 109.508C240.503 116.065 245.798 121.563 252.962 123.122V123.577H300.939C309.021 123.577 315.565 118.027 315.565 111.18C315.565 104.333 309.031 98.7971 300.948 98.7971Z" fill="#37842A"/>
<g opacity="0.2">
<path opacity="0.2" d="M300.948 98.7971C299.773 98.7985 298.601 98.9202 297.451 99.16C294.339 92.6479 286.823 88.0488 278.025 88.0488C270.852 88.0488 264.504 91.1281 260.732 95.8091C259.531 95.5756 258.312 95.4581 257.09 95.4579C247.926 95.4579 240.503 101.759 240.503 109.508C240.503 116.065 245.798 121.563 252.962 123.122V123.577H300.939C309.021 123.577 315.565 118.027 315.565 111.18C315.565 104.333 309.031 98.7971 300.948 98.7971Z" fill="white"/>
</g>
<path opacity="0.2" d="M303.216 99.2446C300.885 110.543 285.462 119.271 266.77 119.271C256.699 119.271 247.574 116.732 240.932 112.625C242.198 117.901 246.935 122.097 253.055 123.429V123.874H301.032C309.112 123.874 315.661 118.327 315.661 111.477C315.651 105.263 310.254 100.141 303.216 99.2446Z" fill="#080908"/>
<path d="M247.53 99.7549C246.355 99.7584 245.185 99.8806 244.033 100.12C240.925 93.6127 233.405 89.0137 224.612 89.0137C217.434 89.0137 211.091 92.0859 207.316 96.7716C206.116 96.5377 204.897 96.4185 203.675 96.4157C194.515 96.4157 187.086 102.717 187.086 110.477C187.086 117.034 192.38 122.535 199.546 124.092V124.061L247.523 124.544C255.601 124.544 262.149 118.999 262.149 112.152C262.149 105.305 255.608 99.7549 247.53 99.7549Z" fill="#37842A"/>
<g opacity="0.2">
<path opacity="0.2" d="M247.53 99.7549C246.355 99.7584 245.185 99.8806 244.033 100.12C240.925 93.6127 233.405 89.0137 224.612 89.0137C217.434 89.0137 211.091 92.0859 207.316 96.7716C206.116 96.5377 204.897 96.4185 203.675 96.4157C194.515 96.4157 187.086 102.717 187.086 110.477C187.086 117.034 192.38 122.535 199.546 124.092V124.061L247.523 124.544C255.601 124.544 262.149 118.999 262.149 112.152C262.149 105.305 255.608 99.7549 247.53 99.7549Z" fill="white"/>
</g>
<path opacity="0.2" d="M249.721 99.9165C247.39 111.213 231.967 119.945 213.277 119.945C203.201 119.945 194.079 117.406 187.44 113.299C188.703 118.575 193.443 122.769 199.562 124.097V124.066L247.539 124.549C255.617 124.549 262.165 119.003 262.165 112.156C262.156 105.937 256.759 100.811 249.721 99.9165Z" fill="#080908"/>
<path d="M213.051 120.443C213.051 120.443 221.511 133.475 228.143 133.943L230.225 138.369C230.225 138.369 217.797 136.545 213.051 120.443Z" fill="#080908"/>
<path opacity="0.3" d="M213.051 120.443C213.051 120.443 218.308 133.484 228.542 136.315L227.274 133.54C227.274 133.54 222.429 134.144 213.051 120.443Z" fill="#080908"/>
<path d="M287.676 215.977H109.336V253.912H287.676V215.977Z" fill="#777777"/>
<path d="M238.923 208.584C238.923 208.584 244.427 210.823 244.886 216.023H245.935C245.935 216.023 245.411 209.968 238.923 208.584Z" fill="#37842A"/>
<path d="M246.658 216.023C246.658 216.023 246.259 211.415 241.322 210.361C241.322 210.361 245.518 212.066 245.861 216.023H246.658Z" fill="#37842A"/>
<path d="M252.635 208.551C252.635 208.551 247.129 210.79 246.672 215.991H245.623C245.623 215.991 246.147 209.935 252.635 208.551Z" fill="#37842A"/>
<path d="M246.103 216.349C246.103 216.349 244.028 212.218 247.677 208.715C247.677 208.715 245.005 212.377 246.781 215.927L246.103 216.349Z" fill="#37842A"/>
<g opacity="0.2">
<path opacity="0.2" d="M246.658 216.023C246.658 216.023 246.259 211.415 241.322 210.361C241.322 210.361 245.518 212.066 245.861 216.023H246.658Z" fill="#080908"/>
</g>
<g opacity="0.2">
<path opacity="0.2" d="M246.103 216.349C246.103 216.349 244.028 212.218 247.677 208.715C247.677 208.715 245.005 212.377 246.781 215.927L246.103 216.349Z" fill="#080908"/>
</g>
<path d="M246.702 206.142C246.702 206.142 243.781 211.338 246.646 215.693L245.823 216.349C245.823 216.349 242.48 211.282 246.702 206.142Z" fill="#37842A"/>
<g opacity="0.2">
<path opacity="0.2" d="M246.702 206.142C246.702 206.142 243.781 211.338 246.646 215.693L245.823 216.349C245.823 216.349 242.48 211.282 246.702 206.142Z" fill="white"/>
</g>
<path d="M136.115 210.926C136.115 210.926 141.619 213.164 142.078 218.365H143.139C143.139 218.365 142.603 212.31 136.115 210.926Z" fill="#37842A"/>
<path d="M143.85 218.365C143.85 218.365 143.451 213.757 138.513 212.703C138.513 212.703 142.71 214.408 143.052 218.365H143.85Z" fill="#37842A"/>
<path d="M149.827 210.893C149.827 210.893 144.321 213.132 143.864 218.333H142.815C142.815 218.333 143.339 212.277 149.827 210.893Z" fill="#37842A"/>
<path d="M143.295 218.69C143.295 218.69 141.22 214.56 144.868 211.057C144.868 211.057 142.197 214.719 143.973 218.269L143.295 218.69Z" fill="#37842A"/>
<g opacity="0.2">
<path opacity="0.2" d="M143.85 218.365C143.85 218.365 143.451 213.757 138.513 212.703C138.513 212.703 142.71 214.408 143.052 218.365H143.85Z" fill="#080908"/>
</g>
<g opacity="0.2">
<path opacity="0.2" d="M143.295 218.69C143.295 218.69 141.22 214.56 144.868 211.057C144.868 211.057 142.197 214.719 143.973 218.269L143.295 218.69Z" fill="#080908"/>
</g>
<path d="M143.894 208.483C143.894 208.483 140.973 213.68 143.838 218.035L143.015 218.691C143.015 218.691 139.672 213.623 143.894 208.483Z" fill="#37842A"/>
<g opacity="0.2">
<path opacity="0.2" d="M143.894 208.483C143.894 208.483 140.973 213.68 143.838 218.035L143.015 218.691C143.015 218.691 139.672 213.623 143.894 208.483Z" fill="white"/>
</g>
<path d="M245.917 204.797C245.917 204.797 254.775 208.396 255.51 216.763H257.197C257.197 216.763 256.351 207.02 245.917 204.797Z" fill="#37842A"/>
<path d="M258.361 216.763C258.361 216.763 257.717 209.347 249.775 207.657C249.775 207.657 256.515 210.396 257.076 216.763H258.361Z" fill="#37842A"/>
<path d="M267.972 204.744C267.972 204.744 259.114 208.343 258.379 216.71H256.694C256.694 216.71 257.536 206.966 267.972 204.744Z" fill="#37842A"/>
<path d="M257.466 217.286C257.466 217.286 254.127 210.642 259.997 205.006C259.997 205.006 255.701 210.898 258.559 216.606L257.466 217.286Z" fill="#37842A"/>
<g opacity="0.2">
<path opacity="0.2" d="M258.361 216.763C258.361 216.763 257.717 209.347 249.775 207.657C249.775 207.657 256.515 210.396 257.076 216.763H258.361Z" fill="#080908"/>
</g>
<g opacity="0.2">
<path opacity="0.2" d="M257.466 217.286C257.466 217.286 254.127 210.642 259.997 205.006C259.997 205.006 255.701 210.898 258.559 216.606L257.466 217.286Z" fill="#080908"/>
</g>
<path d="M258.431 200.868C258.431 200.868 253.731 209.223 258.34 216.232L257.018 217.286C257.018 217.286 251.64 209.134 258.431 200.868Z" fill="#37842A"/>
<g opacity="0.2">
<path opacity="0.2" d="M258.431 200.868C258.431 200.868 253.731 209.223 258.34 216.232L257.018 217.286C257.018 217.286 251.64 209.134 258.431 200.868Z" fill="white"/>
</g>
<path opacity="0.15" d="M287.676 215.977H109.336V253.912H287.676V215.977Z" fill="#080908"/>
<path d="M272.756 215.977H104.207V253.912H272.756V215.977Z" fill="#777777"/>
<path d="M127.172 243.611C127.331 244.498 127.585 245.367 127.93 246.198C128.338 247.165 128.574 248.196 128.629 249.242C128.629 249.75 129.741 250.055 129.741 250.055L130.096 253.912H111.912C111.912 253.912 112.872 251.425 113.478 251.425C114.103 251.392 114.726 251.324 115.343 251.223L117.313 246.908L118.493 245.269C118.923 244.669 119.494 244.184 120.155 243.861C120.817 243.538 121.548 243.383 122.284 243.414L127.172 243.611Z" fill="#777777"/>
<path opacity="0.2" d="M127.172 243.611C127.172 243.611 125.806 243.864 125.403 244.269C124.999 244.674 124.291 247.112 124.291 247.112L123.785 248.329L119.239 248.685L117.5 246.655L118.882 244.721C119.193 244.285 119.607 243.936 120.086 243.702C120.566 243.468 121.096 243.356 121.628 243.379L127.172 243.611Z" fill="white"/>
<path opacity="0.3" d="M127.386 253.912L123.936 252.86L117.192 253.912H127.386Z" fill="#080908"/>
<path opacity="0.3" d="M123.785 248.329L123.936 252.86L117.192 253.912L119.239 248.685L123.785 248.329Z" fill="#080908"/>
<path d="M119.073 251.31C119.073 251.321 119.071 251.333 119.066 251.345C119.062 251.356 119.056 251.366 119.047 251.375C119.039 251.384 119.028 251.389 119.017 251.394C119.006 251.398 118.994 251.401 118.982 251.401C118.958 251.401 118.935 251.391 118.918 251.375C118.9 251.356 118.891 251.333 118.891 251.31C118.892 251.286 118.901 251.263 118.918 251.247C118.935 251.228 118.958 251.219 118.982 251.219C119.006 251.219 119.029 251.228 119.046 251.244C119.063 251.263 119.073 251.286 119.073 251.31Z" fill="#080908"/>
<path opacity="0.3" d="M126.587 245.957C126.587 245.957 127.836 247.83 127.836 248.929C127.836 250.027 128.643 250.802 129.051 251.219C129.459 251.636 129.051 253.912 129.051 253.912H127.396C127.396 253.912 128.48 251.977 127.909 251.401C127.338 250.825 127.181 249.608 127.181 248.685C127.181 247.762 126.587 245.957 126.587 245.957Z" fill="#080908"/>
<path opacity="0.2" d="M113.504 251.729C113.504 251.729 116.611 253.584 116.611 253.113C116.611 252.643 115.6 251.554 115.6 251.554C115.479 251.633 115.34 251.678 115.196 251.68C114.569 251.743 113.504 251.467 113.504 251.729Z" fill="white"/>
<path d="M82.8785 243.611C83.0375 244.498 83.2914 245.367 83.6362 246.198C84.0441 247.165 84.2808 248.196 84.3356 249.242C84.3356 249.75 85.4476 250.055 85.4476 250.055L85.8019 253.912H67.6182C67.6182 253.912 68.5786 251.425 69.1848 251.425C69.8095 251.392 70.4322 251.324 71.0498 251.223L73.0197 246.908L74.1993 245.269C74.6289 244.669 75.2001 244.184 75.8617 243.861C76.5233 243.538 77.2546 243.383 77.9899 243.414L82.8785 243.611Z" fill="#777777"/>
<path opacity="0.2" d="M82.8783 243.611C82.8783 243.611 81.5122 243.864 81.1089 244.269C80.7056 244.674 79.9969 247.112 79.9969 247.112L79.491 248.329L74.945 248.685L73.2059 246.655L74.5884 244.721C74.8994 244.285 75.3132 243.936 75.7927 243.702C76.272 243.468 76.8019 243.356 77.3346 243.379L82.8783 243.611Z" fill="white"/>
<path opacity="0.3" d="M83.0925 253.912L79.6422 252.86L72.8979 253.912H83.0925Z" fill="#080908"/>
<path opacity="0.3" d="M79.4907 248.329L79.6422 252.86L72.8979 253.912L74.9448 248.685L79.4907 248.329Z" fill="#080908"/>
<path d="M74.779 251.31C74.7795 251.321 74.7774 251.333 74.7727 251.345C74.7683 251.356 74.7618 251.366 74.7531 251.375C74.7447 251.384 74.7345 251.389 74.7233 251.394C74.7121 251.398 74.7002 251.401 74.6881 251.401C74.6641 251.401 74.641 251.391 74.624 251.375C74.6067 251.356 74.5972 251.333 74.5972 251.31C74.5979 251.286 74.6077 251.263 74.6244 251.247C74.6415 251.228 74.6643 251.219 74.6881 251.219C74.7123 251.219 74.7354 251.228 74.7524 251.244C74.7695 251.263 74.779 251.286 74.779 251.31Z" fill="#080908"/>
<path opacity="0.3" d="M82.2931 245.957C82.2931 245.957 83.5426 247.83 83.5426 248.929C83.5426 250.027 84.3493 250.802 84.7572 251.219C85.1652 251.636 84.7572 253.912 84.7572 253.912H83.102C83.102 253.912 84.1861 251.977 83.6149 251.401C83.0438 250.825 82.8876 249.608 82.8876 248.685C82.8876 247.762 82.2931 245.957 82.2931 245.957Z" fill="#080908"/>
<path opacity="0.2" d="M69.21 251.729C69.21 251.729 72.3175 253.584 72.3175 253.113C72.3175 252.643 71.3058 251.554 71.3058 251.554C71.1857 251.633 71.0461 251.678 70.9025 251.68C70.2753 251.743 69.21 251.467 69.21 251.729Z" fill="white"/>
<path d="M265.429 235.103C265.429 235.103 264.963 237.855 264.009 239.944C263.24 241.751 262.793 243.679 262.688 245.641C262.688 246.578 260.608 247.158 260.608 247.158L259.946 254.373H293.982C293.982 254.373 292.187 249.722 291.052 249.722C289.917 249.722 287.555 249.343 287.555 249.343L283.869 241.274L281.664 238.19C280.862 237.066 279.792 236.159 278.554 235.555C277.316 234.949 275.948 234.661 274.572 234.719L265.429 235.103Z" fill="#777777"/>
<path opacity="0.2" d="M265.429 235.103C265.429 235.103 267.979 235.572 268.737 236.337C269.495 237.103 270.814 241.653 270.814 241.653L271.761 243.931L280.267 244.597L283.517 240.798L280.932 237.18C280.351 236.368 279.577 235.712 278.682 235.274C277.787 234.836 276.799 234.628 275.803 234.668L265.429 235.103Z" fill="white"/>
<path opacity="0.3" d="M265.026 254.38L271.476 252.411L284.093 254.38H265.026Z" fill="#080908"/>
<path opacity="0.3" d="M271.761 243.938L271.476 252.411L284.093 254.38L280.265 244.604L271.761 243.938Z" fill="#080908"/>
<path d="M280.573 249.514C280.573 249.546 280.582 249.582 280.601 249.61C280.62 249.638 280.648 249.659 280.678 249.671C280.711 249.685 280.743 249.687 280.776 249.682C280.811 249.675 280.841 249.659 280.864 249.635C280.888 249.61 280.904 249.579 280.911 249.546C280.918 249.514 280.913 249.479 280.902 249.448C280.888 249.418 280.867 249.39 280.839 249.371C280.811 249.352 280.778 249.343 280.743 249.343C280.722 249.343 280.699 249.347 280.678 249.357C280.657 249.364 280.638 249.378 280.622 249.392C280.608 249.408 280.594 249.427 280.587 249.448C280.578 249.469 280.573 249.49 280.573 249.514Z" fill="#080908"/>
<path opacity="0.3" d="M266.539 239.501C266.539 239.501 264.208 243.013 264.208 245.06C264.208 247.107 262.702 248.573 261.942 249.343C261.182 250.113 261.942 254.38 261.942 254.38H265.035C265.035 254.38 263.005 250.76 264.075 249.697C265.145 248.633 265.438 246.341 265.438 244.615C265.438 242.889 266.539 239.501 266.539 239.501Z" fill="#080908"/>
<path opacity="0.2" d="M290.994 250.282C290.994 250.282 285.182 253.748 285.182 252.858C285.182 251.968 287.072 249.938 287.072 249.938C287.299 250.086 287.56 250.165 287.828 250.172C289 250.324 290.994 249.807 290.994 250.282Z" fill="white"/>
<path d="M199.618 195.714C199.627 195.694 199.632 195.673 199.634 195.651C199.662 195.199 200.31 189.661 200.487 187.504C200.592 186.221 201.576 181.456 205.311 178.948C207.924 177.194 211.395 176.567 215.839 178.906C215.879 178.926 215.911 178.96 215.93 179.002C215.948 179.043 215.951 179.09 215.939 179.134C215.926 179.177 215.899 179.215 215.861 179.241C215.824 179.266 215.779 179.278 215.734 179.274H215.633C215.585 179.27 215.537 179.284 215.499 179.314C215.46 179.343 215.435 179.386 215.426 179.434C215.418 179.482 215.428 179.532 215.454 179.573C215.481 179.614 215.521 179.643 215.568 179.655C216.445 179.902 217.281 180.281 218.046 180.777C218.079 180.799 218.104 180.831 218.118 180.868C218.132 180.906 218.134 180.946 218.124 180.985C218.115 181.023 218.094 181.058 218.064 181.084C218.034 181.11 217.997 181.126 217.958 181.13C217.542 181.18 217.13 181.258 216.724 181.365C216.684 181.376 216.648 181.4 216.622 181.434C216.596 181.468 216.583 181.51 216.583 181.552C216.583 181.595 216.596 181.636 216.622 181.67C216.648 181.703 216.684 181.728 216.724 181.739C217.482 181.962 218.213 182.268 218.904 182.65C219.086 182.758 218.99 182.861 218.783 182.838C218.189 182.772 217.349 182.87 216.575 182.868C216.529 182.867 216.485 182.882 216.449 182.912C216.414 182.941 216.389 182.982 216.381 183.027C216.373 183.072 216.381 183.119 216.403 183.159C216.426 183.199 216.462 183.229 216.505 183.245C216.759 183.348 217.037 183.465 217.291 183.594C217.328 183.613 217.358 183.643 217.377 183.68C217.396 183.717 217.403 183.759 217.396 183.8C217.39 183.841 217.37 183.88 217.341 183.909C217.312 183.938 217.273 183.958 217.233 183.964C215.981 184.135 213.95 184.826 212.918 187.547C212.48 188.665 212.13 189.816 211.871 190.989C211.862 191.035 211.87 191.082 211.893 191.122C211.915 191.162 211.951 191.193 211.995 191.209C212.038 191.226 212.085 191.226 212.129 191.211C212.172 191.195 212.209 191.165 212.232 191.125L212.248 191.097C212.273 191.059 212.31 191.031 212.353 191.017C212.395 191.004 212.442 191.005 212.483 191.022C212.525 191.038 212.56 191.069 212.582 191.108C212.604 191.147 212.612 191.193 212.605 191.237C212.514 191.705 212.409 192.319 212.356 192.89C212.258 193.967 211.528 206.252 198.979 205.535C198.938 205.533 198.899 205.518 198.867 205.493L196.79 203.833C196.76 203.808 196.738 203.775 196.727 203.737C196.716 203.7 196.716 203.66 196.727 203.622L198.093 199.199V199.178L199.618 195.714Z" fill="#DE701E"/>
<path d="M220.131 181.402C220.131 181.402 217.981 181.153 216.97 181.561C216.97 181.561 219.194 182.076 220.466 183.123C220.466 183.123 217.941 182.741 216.48 182.924C216.48 182.924 218 183.404 218.708 183.914C218.708 183.914 216.331 183.985 214.531 185.397C214.531 185.397 212.799 184.767 211.622 185.132C211.622 185.132 212.454 182.919 213.519 182.088C213.519 182.088 211.111 182.233 210.181 182.748C210.228 182.65 211.034 181.041 211.687 180.613C211.687 180.613 209.216 180.697 208.374 181.369C208.374 181.369 209.004 179.636 209.668 179.149C209.668 179.149 206.763 179.24 205.679 180.147C205.728 180.06 206.586 178.632 207.201 178.002C209.999 176.985 213.785 177.065 217.578 179.393C218.502 179.962 219.359 180.636 220.131 181.402Z" fill="white"/>
<path opacity="0.2" d="M209.74 193.188C209.856 191.207 210.029 190.846 210.549 189.179C211.127 187.305 211.696 185.964 212.568 185.095C212.587 185.075 212.611 185.06 212.636 185.05C212.662 185.04 212.689 185.035 212.717 185.036C213.212 185.07 213.702 185.157 214.179 185.296C214.212 185.306 214.242 185.324 214.266 185.35C214.29 185.375 214.306 185.406 214.314 185.44C214.322 185.474 214.32 185.51 214.309 185.543C214.299 185.576 214.279 185.606 214.253 185.629C213.66 186.154 213.205 186.817 212.927 187.561C212.486 188.68 212.136 189.832 211.88 191.008C211.872 191.056 211.881 191.105 211.907 191.146C211.933 191.188 211.973 191.218 212.02 191.231C212.067 191.244 212.117 191.239 212.16 191.218C212.204 191.196 212.238 191.158 212.255 191.113C212.28 191.075 212.317 191.047 212.36 191.034C212.402 191.02 212.448 191.022 212.49 191.038C212.532 191.055 212.567 191.085 212.589 191.124C212.611 191.163 212.619 191.209 212.612 191.253C212.523 191.722 212.416 192.338 212.365 192.907C212.265 193.981 211.535 206.268 198.986 205.552C198.945 205.549 198.906 205.533 198.874 205.507L196.799 203.849C196.769 203.825 196.746 203.792 196.735 203.754C196.723 203.716 196.724 203.676 196.736 203.638L198.102 199.206V199.189L199.576 195.763C199.643 195.583 199.79 195.417 199.834 195.602C200.792 199.665 203.485 200.112 204.963 200.03C204.963 200.03 206.101 200.03 207.709 198.391C208.374 197.717 208.897 196.915 209.245 196.033C209.594 195.15 209.761 194.207 209.737 193.258C209.742 193.218 209.74 193.199 209.74 193.188Z" fill="#080908"/>
<path opacity="0.1" d="M212.631 185.022C213.274 185.057 213.91 185.182 214.519 185.392C214.625 185.308 214.735 185.23 214.848 185.158H214.862C214.975 185.076 215.093 185.003 215.216 184.938C215.445 184.8 215.683 184.679 215.93 184.577C216.163 184.476 216.396 184.39 216.629 184.317C216.738 184.278 216.85 184.244 216.963 184.217C217.081 184.184 217.196 184.156 217.312 184.13C217.429 184.104 217.494 184.085 217.578 184.067C217.918 184.003 218.203 183.966 218.399 183.943H218.536C218.639 183.943 218.697 183.943 218.697 183.943C217.998 183.432 216.468 182.952 216.468 182.952C217.93 182.769 220.455 183.151 220.455 183.151C220.282 183.013 220.103 182.885 219.916 182.767C219.751 182.718 217.17 181.999 214.687 182.47C214.877 182.891 215.222 183.221 215.65 183.392C214.511 183.639 213.464 184.204 212.631 185.022Z" fill="#080908"/>
<path d="M197.173 191.132C195.898 187.657 195.043 184.04 194.627 180.36H190.869C189.237 179.093 187.979 179.074 186.382 180.36H183.743C183.111 183.17 180.57 190.869 180.57 190.869C176.942 202.404 175.872 213.67 188.613 212.09C201.213 213.476 201.654 204.503 197.173 191.132Z" fill="#DE701E"/>
<path d="M194.606 193.351C193.261 190.993 193.028 187.333 193.028 187.333C192.916 184.451 193.592 182.619 193.592 182.619C190.892 179.341 188.869 179.215 188.869 179.215C188.869 179.215 186.845 178.821 184.036 182.357C184.451 183.981 184.623 185.658 184.546 187.333C184.546 187.333 184.486 190.998 183.148 193.356C183.148 193.356 176.919 205.966 185.227 211.445C185.227 211.445 187.419 212.078 188.88 211.947C190.342 212.078 192.536 211.314 192.536 211.314C200.833 205.832 194.606 193.351 194.606 193.351Z" fill="white"/>
<path d="M181.26 199.145C181.26 199.145 180.707 199.77 180.707 200.294C180.707 200.294 181.173 199.868 181.099 200.081C181.099 200.081 180.542 200.819 180.707 201.17L180.985 200.992L181.26 199.145Z" fill="white"/>
<path d="M196.317 198.217C196.317 198.217 196.888 198.824 196.904 199.348C196.904 199.348 196.438 198.936 196.503 199.149C196.503 199.149 197.084 199.868 196.927 200.224L196.643 200.056L196.317 198.217Z" fill="white"/>
<path opacity="0.2" d="M181.156 190.544L183.73 193.297L188.26 187.35L188.607 188.223L183.73 195.396L181.156 190.544Z" fill="#080908"/>
<path opacity="0.2" d="M178.341 205.673V204.502C178.341 204.502 184.402 209.186 189.764 209.186C193.261 209.186 199.788 204.737 199.788 204.737L199.555 205.673L189.652 213.066L178.341 205.673Z" fill="#080908"/>
<path d="M181.092 190.478L183.731 194.522L188.304 187.38C188.304 187.38 189.057 187.38 188.645 189.469C188.504 190.16 188.287 190.833 187.997 191.476L184.766 198.754C184.657 199.03 184.468 199.267 184.224 199.434C183.979 199.601 183.69 199.69 183.395 199.69C183.178 199.691 182.963 199.643 182.766 199.55C182.57 199.457 182.396 199.322 182.257 199.154L179.49 195.239L181.092 190.478Z" fill="#DE701E"/>
<path opacity="0.2" d="M184.346 183.486C184.346 183.486 185.841 184.404 186.881 185.034C187.864 185.631 189.186 185.694 190.319 185.502C191.238 185.35 193.497 184.383 194.732 181.9L184.346 183.486Z" fill="#080908"/>
<path d="M187.046 213.091L203.663 203.118C204.781 202.439 206.119 202.224 207.393 202.519C207.924 202.652 208.414 202.916 208.817 203.288C209.221 203.66 209.525 204.127 209.703 204.647C209.875 205.123 209.948 205.629 209.917 206.135C209.887 206.64 209.755 207.134 209.528 207.586C209.039 208.563 208.279 209.376 207.339 209.928C205.211 211.162 200.868 213.251 194.816 214.016C192.756 214.271 190.737 214.786 188.806 215.548C188.382 215.711 187.969 215.899 187.568 216.112C186.536 216.713 185.345 216.98 184.157 216.875C183.147 216.768 182.156 216.519 181.215 216.136C180.772 215.956 180.371 215.689 180.034 215.349C179.697 215.009 179.433 214.605 179.257 214.159C179.005 213.522 178.97 212.885 179.702 212.717C179.928 212.669 180.162 212.68 180.383 212.747C181.406 213.04 185.351 214.077 187.046 213.091Z" fill="#DE701E"/>
<path opacity="0.2" d="M209.211 203.739C209.366 204.768 209.191 205.82 208.713 206.743C208.234 207.666 207.477 208.413 206.549 208.876C206.549 208.876 199.933 212.541 193.494 213.244L193.419 214.255C193.885 214.171 194.352 214.096 194.818 214.037C200.879 213.272 205.213 211.183 207.341 209.949C208.281 209.397 209.041 208.584 209.53 207.607C209.757 207.155 209.89 206.661 209.92 206.156C209.95 205.651 209.877 205.144 209.705 204.668C209.587 204.336 209.421 204.022 209.211 203.739Z" fill="#080908"/>
<path d="M190.899 210.783L187.046 213.092C185.351 214.073 181.406 213.035 180.383 212.74C180.162 212.673 179.928 212.662 179.702 212.71C178.97 212.878 179.003 213.515 179.257 214.152C179.433 214.598 179.697 215.003 180.034 215.342C180.371 215.682 180.772 215.95 181.215 216.129C182.155 216.517 183.145 216.771 184.155 216.883C185.341 216.992 186.532 216.731 187.565 216.136C187.966 215.923 188.38 215.734 188.803 215.571C190.734 214.805 192.753 214.287 194.813 214.028L195.457 213.939C193.704 214.216 190.899 210.783 190.899 210.783Z" fill="#080908"/>
<path opacity="0.3" d="M183.414 214.028C183.414 214.028 187.489 215.286 188.137 215.834L189.303 215.365L184.235 213.726L183.414 214.028Z" fill="#080908"/>
<path opacity="0.3" d="M189.98 211.333C189.98 211.333 191.57 213.056 193.477 213.234L194.522 213.937L192.083 214.113L189.286 212.188V211.745L189.98 211.333Z" fill="#080908"/>
<path d="M191.543 213.091L174.924 203.118C173.805 202.439 172.467 202.224 171.194 202.519C170.662 202.652 170.172 202.916 169.769 203.288C169.365 203.66 169.061 204.127 168.883 204.647C168.713 205.124 168.641 205.63 168.671 206.135C168.701 206.64 168.834 207.134 169.06 207.586C169.549 208.563 170.309 209.377 171.25 209.928C173.376 211.162 177.721 213.251 183.773 214.016C185.832 214.272 187.851 214.786 189.783 215.548C190.206 215.71 190.619 215.899 191.019 216.112C192.048 216.717 193.238 216.988 194.427 216.887C195.439 216.777 196.43 216.524 197.371 216.136C197.814 215.957 198.216 215.689 198.553 215.349C198.89 215.01 199.155 214.605 199.332 214.159C199.581 213.522 199.619 212.885 198.884 212.717C198.659 212.669 198.426 212.68 198.206 212.747C197.18 213.04 193.236 214.077 191.543 213.091Z" fill="#DE701E"/>
<path opacity="0.2" d="M173.24 209.64C167.764 207.017 169.876 203.203 169.876 203.203L169.512 203.566C169.239 203.887 169.027 204.255 168.885 204.652C168.714 205.128 168.642 205.634 168.673 206.14C168.703 206.645 168.836 207.139 169.062 207.591C169.55 208.568 170.311 209.382 171.251 209.933C173.377 211.167 177.723 213.255 183.775 214.021C183.924 214.04 184.073 214.063 184.22 214.084L186.519 213.492C178.56 212.155 174.378 210.204 173.592 209.813L173.24 209.64Z" fill="#080908"/>
<path d="M187.689 210.783L191.542 213.092C193.235 214.073 197.179 213.035 198.203 212.74C198.424 212.673 198.658 212.663 198.883 212.71C199.618 212.879 199.583 213.515 199.331 214.152C199.154 214.598 198.89 215.003 198.553 215.342C198.216 215.682 197.813 215.95 197.371 216.129C196.429 216.519 195.438 216.775 194.426 216.887C193.241 216.994 192.052 216.732 191.02 216.136C190.62 215.922 190.208 215.734 189.785 215.571C187.854 214.806 185.835 214.288 183.775 214.028L183.129 213.939C184.882 214.216 187.689 210.783 187.689 210.783Z" fill="#080908"/>
<path d="M197.016 172.672C199.499 170.206 201.332 165.706 201.306 162.226C201.306 161.626 201.427 161.001 201.22 160.439C200.931 159.669 200.033 159.268 199.215 159.313C198.396 159.357 197.644 159.76 196.939 160.184C195.5 161.048 194.14 162.037 192.874 163.142C191.927 163.967 191.144 164.965 190.566 166.083C190.405 166.355 190.325 166.668 190.333 166.984C190.374 167.264 190.487 167.527 190.659 167.75C192.074 169.822 195.079 171.148 197.016 172.672Z" fill="#DE701E"/>
<path d="M190.286 170.574C190.029 168.996 190.696 167.364 191.773 166.188C192.85 165.013 194.3 164.238 195.79 163.671C196.45 163.418 197.277 163.233 197.797 163.713C198.009 163.937 198.158 164.213 198.231 164.514C198.473 165.305 198.562 166.136 198.492 166.961C198.368 168.156 197.956 169.302 197.291 170.3C197.018 170.764 196.648 171.163 196.207 171.471C195.368 172.01 194.305 171.993 193.309 171.96C192.715 171.972 192.123 171.887 191.556 171.707C191.002 171.487 190.381 171.162 190.286 170.574Z" fill="white"/>
<path d="M178.82 173.173C178.669 173.184 178.518 173.154 178.382 173.086C178.069 172.884 177.813 172.603 177.641 172.272C175.951 169.555 173.47 164.799 174.575 161.5C174.694 161.096 174.958 160.752 175.317 160.533C175.736 160.299 176.249 160.336 176.715 160.42C177.838 160.626 178.898 161.093 179.809 161.783C181.611 163.148 183.613 164.066 185.637 165.062C186.154 165.322 186.733 165.741 186.679 166.321C186.635 166.582 186.52 166.825 186.346 167.024C185.15 168.642 183.569 169.923 182.005 171.187C181.429 171.658 179.851 173.117 178.82 173.173Z" fill="#DE701E"/>
<path d="M177.224 168.766C176.929 167.7 176.849 166.585 176.991 165.488C177.009 165.152 177.119 164.828 177.308 164.551C177.653 164.116 178.283 164.036 178.835 164.099C180.085 164.247 181.197 164.952 182.213 165.696C183.31 166.507 184.353 167.388 185.335 168.335C185.747 168.729 186.146 169.188 186.165 169.757C186.152 170.331 185.98 170.89 185.668 171.372C185.453 171.742 185.22 172.101 184.969 172.447C184.708 172.871 184.367 173.24 183.966 173.534C183.651 173.717 183.3 173.827 182.937 173.857C182.574 173.887 182.209 173.836 181.868 173.707C181.189 173.443 180.58 173.023 180.092 172.48C178.924 171.269 177.674 170.389 177.224 168.766Z" fill="white"/>
<path d="M200.396 173.529C200.757 173.434 201.136 173.434 201.497 173.529C200.552 172.424 198.907 171.307 198.907 171.307C198.811 171.188 198.706 171.078 198.592 170.977C196.885 169.459 195.079 168.057 193.186 166.781C191.787 165.844 190.265 164.94 188.591 164.942C186.6 164.942 184.861 166.205 183.264 167.411C182.59 167.906 181.941 168.436 181.32 168.998C180.031 170.234 178.976 171.693 178.205 173.307V173.197C178.205 173.197 177.039 174.63 176.086 175.735C176.447 175.639 176.827 175.639 177.189 175.735C176.814 175.837 176.483 176.059 176.244 176.367C176.244 176.367 177.049 176.367 177.956 177.796C177.977 177.835 178 177.874 178.026 177.911C178.032 177.924 178.04 177.936 178.049 177.948C178.086 178.004 178.123 178.06 178.165 178.114C179.252 179.547 180.679 180.606 182.222 181.521C184.527 182.891 186.959 184.299 189.637 184.395C190.113 184.436 190.592 184.366 191.036 184.191C191.361 184.032 191.662 183.829 191.931 183.587L196.184 179.999C197.349 179.018 198.529 178.018 199.389 176.758C199.657 176.383 199.871 175.973 200.026 175.538C200.755 173.899 201.34 174.173 201.34 174.173C201.104 173.861 200.772 173.635 200.396 173.529Z" fill="#DE701E"/>
<path d="M178.25 178.231C178.166 178.119 180.07 177.711 180.266 177.711C181.189 177.714 182.11 177.8 183.017 177.969C183.753 178.089 184.456 178.365 185.078 178.779C185.789 179.28 185.668 179.875 186.145 180.528C186.907 179.813 187.879 179.366 188.916 179.255C189.953 179.144 190.997 179.374 191.892 179.913C192.125 180.055 192.43 180.21 192.615 180.02C192.689 179.919 192.732 179.797 192.736 179.671C192.824 179.149 193.054 178.661 193.401 178.262C193.748 177.863 194.198 177.568 194.701 177.409C196.352 176.915 197.408 174.927 199.13 174.834C199.24 174.819 199.351 174.826 199.457 174.855C199.563 174.883 199.663 174.933 199.751 175C200.068 175.292 199.893 175.817 199.683 176.194C198.063 179.123 195.599 181.521 192.843 183.413C192.185 183.902 191.456 184.285 190.682 184.549C188.908 185.078 187.003 184.486 185.297 183.765C182.501 182.58 180.069 180.671 178.25 178.231Z" fill="white"/>
<path d="M188.393 178.046C188.731 177.95 189.081 177.901 189.433 177.898C189.787 177.9 190.13 178.021 190.407 178.243C190.628 178.445 190.768 178.722 190.803 179.02C190.838 179.318 190.764 179.619 190.596 179.868C190.375 180.13 190.102 180.342 189.794 180.491C189.671 180.606 189.51 180.673 189.342 180.679C189.174 180.685 189.009 180.63 188.878 180.523L188.165 180.074C187.982 179.981 187.822 179.847 187.698 179.683C187.634 179.569 187.595 179.443 187.584 179.313C187.572 179.183 187.588 179.052 187.631 178.929C187.764 178.51 187.957 178.154 188.393 178.046Z" fill="#080908"/>
<path d="M190.543 181.531C190.283 181.628 189.996 181.618 189.743 181.503C189.624 181.463 189.518 181.391 189.436 181.296C189.354 181.2 189.299 181.084 189.277 180.96C189.282 180.646 189.261 180.333 189.216 180.023C189.171 180.333 189.151 180.646 189.156 180.96C189.134 181.084 189.079 181.2 188.997 181.296C188.915 181.391 188.808 181.463 188.689 181.503C188.437 181.618 188.15 181.628 187.89 181.531C187.621 181.428 187.385 181.253 187.207 181.025C187.347 181.295 187.571 181.51 187.845 181.639C187.988 181.704 188.142 181.737 188.298 181.737C188.454 181.737 188.608 181.704 188.75 181.639C188.895 181.573 189.021 181.472 189.116 181.344C189.105 181.325 189.098 181.304 189.097 181.282C189.097 181.261 189.102 181.239 189.112 181.22C189.123 181.201 189.138 181.185 189.157 181.174C189.176 181.163 189.197 181.157 189.219 181.157C189.24 181.157 189.261 181.163 189.28 181.174C189.299 181.185 189.314 181.201 189.325 181.22C189.335 181.239 189.34 181.261 189.34 181.282C189.339 181.304 189.333 181.325 189.321 181.344C189.416 181.472 189.542 181.573 189.687 181.639C189.829 181.704 189.983 181.737 190.139 181.737C190.295 181.737 190.45 181.704 190.592 181.639C190.866 181.51 191.091 181.295 191.23 181.025C191.051 181.254 190.814 181.429 190.543 181.531Z" stroke="#080908" stroke-width="0.59" stroke-miterlimit="10"/>
<path d="M190.769 175.597C190.897 175.173 191.454 174.367 193.892 174.763C193.914 174.767 193.933 174.778 193.947 174.794C193.961 174.811 193.969 174.832 193.969 174.853C193.969 174.875 193.961 174.896 193.947 174.912C193.933 174.929 193.914 174.94 193.892 174.943C193.06 175.075 191.48 175.363 190.901 175.7C190.886 175.709 190.868 175.713 190.85 175.712C190.832 175.71 190.815 175.704 190.801 175.693C190.787 175.682 190.776 175.667 190.77 175.65C190.765 175.633 190.764 175.614 190.769 175.597Z" fill="#080908"/>
<path d="M186.755 175.735C186.626 175.311 186.069 174.506 183.631 174.901C183.609 174.905 183.59 174.916 183.576 174.932C183.562 174.949 183.554 174.97 183.554 174.991C183.554 175.013 183.562 175.034 183.576 175.051C183.59 175.067 183.609 175.078 183.631 175.082C184.463 175.213 186.043 175.501 186.622 175.838C186.637 175.847 186.655 175.851 186.673 175.85C186.691 175.849 186.708 175.842 186.722 175.831C186.737 175.82 186.747 175.805 186.753 175.788C186.759 175.771 186.759 175.752 186.755 175.735Z" fill="#080908"/>
<path d="M186.689 165.322L188.598 164.209C188.621 164.195 188.649 164.189 188.676 164.193C188.703 164.196 188.728 164.209 188.747 164.228C188.766 164.248 188.778 164.273 188.781 164.3C188.784 164.327 188.778 164.355 188.763 164.378L188.465 164.879L190.372 164.399C190.394 164.393 190.418 164.394 190.44 164.402C190.462 164.409 190.482 164.423 190.496 164.441C190.511 164.46 190.52 164.482 190.522 164.505C190.524 164.528 190.52 164.552 190.51 164.572L190.248 165.537L186.689 165.322Z" fill="#DE701E"/>
<path d="M188.304 187.38L184.882 192.719C184.882 192.719 186.066 192.438 186.64 194.527L187.997 191.483C188.287 190.84 188.504 190.167 188.645 189.476C189.064 187.38 188.304 187.38 188.304 187.38Z" fill="#080908"/>
<path opacity="0.4" d="M185.032 172.279C185.549 172.262 186.531 172.34 186.897 173.091C186.907 173.112 186.912 173.136 186.909 173.159C186.907 173.182 186.898 173.204 186.883 173.222C186.869 173.241 186.85 173.254 186.827 173.262C186.806 173.269 186.782 173.27 186.759 173.265C186.129 173.102 185.526 172.844 184.973 172.499C184.952 172.485 184.936 172.465 184.927 172.441C184.917 172.418 184.916 172.392 184.922 172.367C184.929 172.343 184.943 172.321 184.963 172.305C184.982 172.289 185.007 172.28 185.032 172.279Z" fill="white"/>
<path opacity="0.4" d="M192.293 172.274C191.773 172.262 190.794 172.342 190.428 173.096C190.417 173.116 190.412 173.14 190.415 173.163C190.417 173.187 190.426 173.209 190.44 173.227C190.455 173.245 190.475 173.259 190.497 173.266C190.519 173.273 190.543 173.273 190.566 173.267C191.196 173.102 191.797 172.843 192.349 172.496C192.37 172.482 192.386 172.462 192.395 172.439C192.404 172.415 192.405 172.39 192.399 172.365C192.393 172.341 192.38 172.319 192.36 172.303C192.342 172.286 192.318 172.276 192.293 172.274Z" fill="white"/>
<path opacity="0.2" d="M184.766 198.754L187.997 191.476C188.287 190.833 188.504 190.16 188.645 189.469C188.677 189.3 188.701 189.15 188.719 189.001L188.598 188.223L184.868 197.009C183.703 200.756 181.604 198.18 181.604 198.18L182.257 199.149C182.421 199.347 182.633 199.499 182.872 199.59C183.112 199.68 183.37 199.707 183.623 199.667C183.876 199.627 184.114 199.522 184.314 199.362C184.515 199.202 184.67 198.992 184.766 198.754Z" fill="#080908"/>
<path opacity="0.2" d="M196.427 190.544L193.853 193.297L189.324 187.35L188.976 188.223L193.853 195.396L196.427 190.544Z" fill="#080908"/>
<path d="M196.492 190.478L193.853 194.522L189.279 187.38C189.279 187.38 188.526 187.38 188.939 189.469C189.079 190.16 189.297 190.833 189.587 191.476L192.818 198.754C192.926 199.03 193.115 199.267 193.36 199.434C193.604 199.601 193.893 199.69 194.189 199.69C194.406 199.691 194.62 199.643 194.817 199.55C195.014 199.457 195.187 199.322 195.326 199.154L198.093 195.239L196.492 190.478Z" fill="#DE701E"/>
<path d="M189.279 187.38L192.701 192.719C192.701 192.719 191.517 192.438 190.943 194.527L189.587 191.483C189.297 190.84 189.079 190.167 188.939 189.476C188.526 187.38 189.279 187.38 189.279 187.38Z" fill="#080908"/>
<path opacity="0.2" d="M192.818 198.753L189.587 191.475C189.297 190.833 189.079 190.16 188.939 189.469C188.906 189.3 188.883 189.15 188.864 189L188.976 188.216L192.706 197.002C193.872 200.748 196.04 198.172 196.049 198.172L195.317 199.142C195.153 199.34 194.942 199.491 194.702 199.582C194.463 199.673 194.204 199.7 193.951 199.66C193.698 199.62 193.46 199.515 193.26 199.355C193.059 199.194 192.904 198.985 192.809 198.746L192.818 198.753Z" fill="#080908"/>
<path d="M169.762 66.3513C168.225 67.1451 167.283 68.7304 166.787 69.838L166.959 69.7561C167.064 69.7071 167.183 69.7015 167.291 69.7408C167.399 69.7802 167.488 69.861 167.536 69.9656C167.585 70.0703 167.591 70.1902 167.552 70.2989C167.513 70.4075 167.432 70.4963 167.328 70.5452C166.948 70.7232 166.612 70.9035 166.325 71.0697C166.146 71.1751 165.983 71.2758 165.84 71.3648C165.374 71.6669 165.127 71.8753 165.122 71.8776C165.034 71.9481 164.922 71.9813 164.81 71.9701C164.698 71.9589 164.594 71.9043 164.522 71.8177C164.449 71.7313 164.413 71.6198 164.42 71.5067C164.428 71.3938 164.479 71.2884 164.563 71.2126C164.577 71.2009 164.717 71.0838 164.973 70.9011C163.98 70.5288 162.327 70.3508 161.301 70.3251C161.186 70.322 161.077 70.2733 160.997 70.1895C160.918 70.1057 160.875 69.9937 160.877 69.8778C160.878 69.8205 160.89 69.7636 160.913 69.7111C160.936 69.6584 160.969 69.6106 161.011 69.5711C161.052 69.5315 161.101 69.5004 161.155 69.48C161.208 69.4594 161.265 69.4498 161.322 69.4516C161.653 69.4516 164.267 69.5453 165.677 70.2595C166.074 69.1519 167.167 66.7142 169.361 65.5762C169.462 65.5324 169.576 65.5289 169.68 65.5659C169.783 65.6031 169.869 65.6783 169.92 65.7764C169.971 65.8748 169.983 65.9886 169.953 66.0951C169.924 66.2019 169.856 66.2934 169.762 66.3513Z" fill="#080908"/>
<path d="M169.687 119.373C168.153 120.169 167.212 121.752 166.715 122.86L166.888 122.778C166.939 122.752 166.996 122.736 167.054 122.732C167.112 122.728 167.17 122.735 167.225 122.755C167.281 122.774 167.331 122.804 167.374 122.843C167.418 122.882 167.453 122.929 167.477 122.982C167.502 123.035 167.515 123.093 167.518 123.151C167.52 123.21 167.51 123.268 167.489 123.322C167.468 123.377 167.436 123.427 167.396 123.469C167.355 123.511 167.307 123.544 167.254 123.567C166.874 123.747 166.54 123.928 166.254 124.092C166.072 124.199 165.911 124.298 165.769 124.389C165.519 124.546 165.279 124.718 165.048 124.902C164.971 124.969 164.872 125.005 164.771 125.005C164.681 125.005 164.594 124.978 164.521 124.927C164.447 124.876 164.392 124.803 164.361 124.719C164.33 124.634 164.326 124.543 164.35 124.456C164.373 124.369 164.422 124.292 164.491 124.235C164.505 124.235 164.643 124.106 164.899 123.925C163.908 123.551 162.255 123.373 161.23 123.347C161.173 123.346 161.117 123.333 161.064 123.31C161.012 123.287 160.965 123.254 160.926 123.213C160.886 123.172 160.855 123.123 160.835 123.07C160.814 123.016 160.804 122.959 160.805 122.902C160.806 122.845 160.817 122.787 160.84 122.734C160.863 122.682 160.896 122.634 160.938 122.594C160.979 122.554 161.028 122.523 161.082 122.503C161.136 122.483 161.193 122.473 161.251 122.476C161.582 122.476 164.193 122.57 165.603 123.284C166.002 122.176 167.093 119.739 169.289 118.6C169.339 118.571 169.396 118.553 169.454 118.546C169.512 118.539 169.571 118.544 169.627 118.561C169.683 118.577 169.735 118.605 169.78 118.642C169.825 118.68 169.862 118.726 169.889 118.778C169.916 118.83 169.932 118.887 169.937 118.946C169.941 119.004 169.933 119.063 169.915 119.119C169.896 119.174 169.866 119.226 169.827 119.269C169.788 119.313 169.74 119.348 169.687 119.373Z" fill="#080908"/>
<path d="M285.811 147.16C284.86 147.652 284.277 148.633 283.969 149.319L284.077 149.267C284.142 149.236 284.217 149.232 284.284 149.256C284.352 149.28 284.405 149.33 284.438 149.395C284.468 149.46 284.471 149.535 284.447 149.602C284.424 149.67 284.375 149.726 284.31 149.757C284.077 149.867 283.867 149.991 283.69 150.08C283.578 150.145 283.478 150.209 283.389 150.265C283.235 150.362 283.086 150.468 282.944 150.581C282.897 150.623 282.834 150.646 282.771 150.644C282.732 150.645 282.694 150.636 282.657 150.62C282.622 150.603 282.592 150.579 282.566 150.548C282.519 150.494 282.498 150.423 282.503 150.352C282.51 150.281 282.545 150.215 282.599 150.169C282.68 150.101 282.764 150.037 282.853 149.977C282.116 149.752 281.351 149.631 280.58 149.619C280.545 149.618 280.51 149.61 280.477 149.596C280.445 149.582 280.414 149.561 280.391 149.536C280.365 149.51 280.347 149.48 280.335 149.447C280.321 149.413 280.316 149.378 280.316 149.342C280.316 149.307 280.326 149.272 280.34 149.239C280.354 149.207 280.375 149.178 280.4 149.153C280.424 149.129 280.454 149.11 280.489 149.097C280.522 149.085 280.557 149.079 280.591 149.08C280.799 149.08 282.415 149.139 283.286 149.579C283.534 148.895 284.219 147.387 285.569 146.682C285.629 146.663 285.692 146.666 285.751 146.689C285.809 146.713 285.858 146.757 285.888 146.813C285.916 146.868 285.925 146.933 285.911 146.995C285.9 147.056 285.865 147.112 285.816 147.151L285.811 147.16Z" fill="#080908"/>
<path d="M97.0784 95.7743C96.1296 96.2661 95.5465 97.2473 95.2388 97.9334L95.3484 97.8818C95.4127 97.8509 95.4868 97.8467 95.554 97.8704C95.6214 97.8943 95.6766 97.9437 95.7076 98.0083C95.7384 98.0729 95.7426 98.1472 95.7188 98.2148C95.6953 98.2825 95.6458 98.338 95.5815 98.3689C95.3484 98.4813 95.1386 98.5914 94.9614 98.6944C94.8495 98.76 94.7492 98.8209 94.6606 98.8771C94.5063 98.9747 94.3578 99.081 94.2156 99.1955C94.1669 99.236 94.106 99.2583 94.0429 99.2587C94.0039 99.2592 93.965 99.2505 93.9296 99.2342C93.8941 99.2175 93.8627 99.1932 93.8377 99.1627C93.8149 99.1358 93.7976 99.1047 93.7867 99.0709C93.7759 99.0372 93.772 99.0016 93.775 98.9663C93.778 98.9309 93.7881 98.8965 93.8044 98.8651C93.8207 98.8337 93.8433 98.8061 93.8704 98.7834C93.8704 98.7834 93.9636 98.7038 94.1221 98.5914C93.3857 98.3659 92.6215 98.2453 91.8515 98.2331C91.8163 98.2326 91.7813 98.2249 91.7489 98.2106C91.7163 98.1963 91.6871 98.1757 91.6627 98.1502C91.638 98.1244 91.6188 98.0942 91.606 98.061C91.5934 98.0277 91.5874 97.9924 91.5881 97.9568C91.5888 97.9214 91.5965 97.8863 91.6107 97.854C91.6249 97.8214 91.6454 97.7922 91.6711 97.7678C91.6965 97.7432 91.7268 97.7243 91.7599 97.7116C91.7928 97.6992 91.828 97.6933 91.8632 97.6945C92.0683 97.6945 93.6862 97.7531 94.5581 98.1933C94.8052 97.5072 95.4908 95.9991 96.8383 95.2943C96.8695 95.2781 96.9038 95.2681 96.939 95.265C96.9742 95.2622 97.0096 95.2662 97.0434 95.277C97.077 95.2877 97.1082 95.3051 97.1353 95.3278C97.1621 95.3507 97.1845 95.3788 97.2008 95.4102C97.2169 95.4418 97.2267 95.4762 97.2297 95.5116C97.2327 95.547 97.2288 95.5826 97.218 95.6163C97.2073 95.6502 97.1901 95.6816 97.1672 95.7085C97.1446 95.7357 97.1166 95.7582 97.0854 95.7743H97.0784Z" fill="#080908"/>
<path d="M115.11 89.5268C122.633 89.5268 128.732 83.401 128.732 75.8445C128.732 68.2879 122.633 62.1621 115.11 62.1621C107.587 62.1621 101.489 68.2879 101.489 75.8445C101.489 83.401 107.587 89.5268 115.11 89.5268Z" fill="white"/>
<path d="M86.624 235.262C86.624 235.262 86.1578 237.927 85.2533 239.946C84.5087 241.693 84.0755 243.559 83.9734 245.458C83.9734 246.376 81.9592 246.929 81.9592 246.929L81.3204 253.909H114.247C114.247 253.909 112.51 249.409 111.412 249.409C110.314 249.409 108.027 249.041 108.027 249.041L104.46 241.231L99.7979 234.708L86.624 235.262Z" fill="#777777"/>
<path opacity="0.3" d="M90.1678 236.773L84.8666 253.912H103.318L99.6141 244.449L92.7555 243.812L90.1678 236.773Z" fill="#080908"/>
<path opacity="0.2" d="M86.6241 235.262C86.6241 235.262 89.0952 235.731 89.8272 236.457C90.5592 237.183 91.8391 241.608 91.8391 241.608L92.7529 243.812L100.985 244.456L104.132 240.782L99.7957 234.717L86.6241 235.262Z" fill="white"/>
<path d="M248.963 244.601C248.812 245.444 248.569 246.266 248.243 247.057C247.854 247.975 247.625 248.954 247.572 249.949C247.572 250.418 246.518 250.72 246.518 250.72L246.18 254.38H263.447C263.447 254.38 262.536 252.019 261.96 252.019C261.366 251.989 260.774 251.923 260.186 251.827L258.321 247.732L255.876 244.311L248.963 244.601Z" fill="#777777"/>
<path opacity="0.3" d="M250.819 245.393L248.04 254.38H257.717L255.775 249.418L252.178 249.085L250.819 245.393Z" fill="#080908"/>
<path opacity="0.2" d="M248.964 244.601C248.964 244.601 250.257 244.835 250.642 245.226C251.027 245.617 251.698 247.924 251.698 247.924L252.164 249.081L256.482 249.418L258.132 247.491L255.859 244.311L248.964 244.601Z" fill="white"/>
<path d="M102.312 245.563C102.312 245.563 108.825 248.212 109.369 254.368H110.611C110.611 254.368 109.989 247.198 102.312 245.563Z" fill="#777777"/>
<g opacity="0.1">
<path opacity="0.1" d="M102.482 245.676C102.482 245.676 108.998 248.324 109.541 254.478H110.784C110.784 254.478 110.161 247.31 102.482 245.676Z" fill="white"/>
</g>
<path d="M111.466 254.368C111.466 254.368 111 248.912 105.148 247.667C105.148 247.667 110.109 249.683 110.51 254.368H111.466Z" fill="#D9D9D9"/>
<path d="M118.539 245.523C118.539 245.523 112.012 248.172 111.48 254.328H110.24C110.24 254.328 110.86 247.16 118.539 245.523Z" fill="#777777"/>
<g opacity="0.1">
<path opacity="0.1" d="M118.381 245.613C118.381 245.613 111.865 248.261 111.322 254.417H110.081C110.081 254.417 110.701 247.25 118.381 245.613Z" fill="white"/>
</g>
<path d="M110.809 254.752C110.809 254.752 108.354 249.865 112.674 245.716C112.674 245.716 109.513 250.053 111.616 254.254L110.809 254.752Z" fill="#D9D9D9"/>
<path opacity="0.1" d="M111.466 254.38C111.466 254.38 111 248.926 105.148 247.681C105.148 247.681 110.109 249.697 110.51 254.38H111.466Z" fill="#080908"/>
<g opacity="0.2">
<path opacity="0.1" d="M110.809 254.773C110.809 254.773 108.354 249.884 112.674 245.737C112.674 245.737 109.513 250.071 111.616 254.275L110.809 254.773Z" fill="#080908"/>
</g>
<path d="M111.518 242.671C111.518 242.671 108.06 248.821 111.45 253.977L110.48 254.752C110.48 254.752 106.522 248.755 111.518 242.671Z" fill="#777777"/>
<g opacity="0.2">
<path opacity="0.2" d="M111.518 242.671C111.518 242.671 108.06 248.821 111.45 253.977L110.48 254.752C110.48 254.752 106.522 248.755 111.518 242.671Z" fill="white"/>
</g>
<path d="M251.512 245.33C251.512 245.33 258.025 247.978 258.568 254.134H259.811C259.811 254.134 259.188 246.964 251.512 245.33Z" fill="#777777"/>
<g opacity="0.1">
<path opacity="0.1" d="M251.682 245.442C251.682 245.442 258.209 248.09 258.741 254.244H259.983C259.983 254.244 259.361 247.076 251.682 245.442Z" fill="white"/>
</g>
<path d="M260.666 254.134C260.666 254.134 260.2 248.678 254.349 247.432C254.349 247.432 259.31 249.448 259.711 254.134H260.666Z" fill="#D9D9D9"/>
<path d="M267.739 245.29C267.739 245.29 261.212 247.938 260.68 254.094H259.44C259.44 254.094 260.06 246.926 267.739 245.29Z" fill="#777777"/>
<g opacity="0.1">
<path opacity="0.1" d="M267.581 245.378C267.581 245.378 261.053 248.027 260.522 254.183H259.282C259.282 254.183 259.902 247.015 267.581 245.378Z" fill="white"/>
</g>
<path d="M260.009 254.518C260.009 254.518 257.554 249.631 261.874 245.481C261.874 245.481 258.713 249.818 260.816 254.019L260.009 254.518Z" fill="#D9D9D9"/>
<path opacity="0.1" d="M260.666 254.146C260.666 254.146 260.2 248.692 254.349 247.446C254.349 247.446 259.31 249.462 259.711 254.146H260.666Z" fill="#080908"/>
<g opacity="0.2">
<path opacity="0.1" d="M260.009 254.539C260.009 254.539 257.554 249.65 261.874 245.502C261.874 245.502 258.713 249.837 260.816 254.04L260.009 254.539Z" fill="#080908"/>
</g>
<path d="M260.718 242.438C260.718 242.438 257.26 248.587 260.65 253.743L259.68 254.518C259.68 254.518 255.722 248.521 260.718 242.438Z" fill="#777777"/>
<g opacity="0.2">
<path opacity="0.2" d="M260.718 242.438C260.718 242.438 257.26 248.587 260.65 253.743L259.68 254.518C259.68 254.518 255.722 248.521 260.718 242.438Z" fill="white"/>
</g>
<path d="M71.5694 243.599C71.5694 243.599 79.477 246.812 80.1344 254.282H81.6427C81.6427 254.282 80.8944 245.583 71.5694 243.599Z" fill="#777777"/>
<g opacity="0.1">
<path opacity="0.1" d="M71.7771 243.732C71.7771 243.732 79.6847 246.948 80.3444 254.417H81.8504C81.8504 254.417 81.0951 245.718 71.7771 243.732Z" fill="white"/>
</g>
<path d="M82.6804 254.282C82.6804 254.282 82.1092 247.662 75.0153 246.151C75.0153 246.151 81.0322 248.598 81.5428 254.282H82.6804Z" fill="#D9D9D9"/>
<path d="M91.264 243.55C91.264 243.55 83.3564 246.765 82.699 254.235H81.193C81.193 254.235 81.946 245.536 91.264 243.55Z" fill="#777777"/>
<g opacity="0.1">
<path opacity="0.1" d="M91.1521 243.695C91.1521 243.695 83.2445 246.91 82.5847 254.38H81.0811C81.0811 254.38 81.8271 245.681 91.1521 243.695Z" fill="white"/>
</g>
<path d="M81.8828 254.75C81.8828 254.75 78.9012 248.818 84.1418 243.784C84.1418 243.784 80.3071 249.045 82.8575 254.143L81.8828 254.75Z" fill="#D9D9D9"/>
<path opacity="0.1" d="M82.6804 254.305C82.6804 254.305 82.1092 247.685 75.0153 246.175C75.0153 246.175 81.0322 248.622 81.5428 254.305H82.6804Z" fill="#080908"/>
<g opacity="0.2">
<path opacity="0.1" d="M81.8828 254.773C81.8828 254.773 78.9012 248.842 84.1418 243.807C84.1418 243.807 80.3071 249.069 82.8575 254.167L81.8828 254.773Z" fill="#080908"/>
</g>
<path d="M82.7426 240.091C82.7426 240.091 78.5463 247.551 82.661 253.808L81.4814 254.745C81.4814 254.745 76.679 247.472 82.7426 240.091Z" fill="#777777"/>
<g opacity="0.2">
<path opacity="0.2" d="M82.7426 240.091C82.7426 240.091 78.5463 247.551 82.661 253.808L81.4814 254.745C81.4814 254.745 76.679 247.472 82.7426 240.091Z" fill="white"/>
</g>
<path d="M278.351 239.384C278.351 239.384 286.259 242.597 286.916 250.066H288.425C288.425 250.066 287.676 241.367 278.351 239.384Z" fill="#777777"/>
<g opacity="0.1">
<path opacity="0.1" d="M278.559 239.517C278.559 239.517 286.466 242.732 287.126 250.202H288.632C288.632 250.202 287.877 241.503 278.559 239.517Z" fill="white"/>
</g>
<path d="M289.462 250.066C289.462 250.066 288.891 243.446 281.797 241.936C281.797 241.936 287.814 244.383 288.324 250.066H289.462Z" fill="#D9D9D9"/>
<path d="M298.046 239.335C298.046 239.335 290.138 242.55 289.481 250.02H287.975C287.975 250.02 288.728 241.321 298.046 239.335Z" fill="#777777"/>
<g opacity="0.1">
<path opacity="0.1" d="M297.934 239.48C297.934 239.48 290.026 242.695 289.366 250.165H287.863C287.863 250.165 288.609 241.466 297.934 239.48Z" fill="white"/>
</g>
<path d="M288.665 250.535C288.665 250.535 285.683 244.603 290.924 239.569C290.924 239.569 287.089 244.831 289.639 249.928L288.665 250.535Z" fill="#D9D9D9"/>
<path opacity="0.1" d="M289.462 250.09C289.462 250.09 288.891 243.47 281.797 241.959C281.797 241.959 287.814 244.407 288.324 250.09H289.462Z" fill="#080908"/>
<g opacity="0.2">
<path opacity="0.1" d="M288.665 250.558C288.665 250.558 285.683 244.627 290.924 239.592C290.924 239.592 287.089 244.854 289.639 249.952L288.665 250.558Z" fill="#080908"/>
</g>
<path d="M289.525 235.876C289.525 235.876 285.329 243.337 289.443 249.593L288.264 250.53C288.264 250.53 283.461 243.257 289.525 235.876Z" fill="#777777"/>
<g opacity="0.2">
<path opacity="0.2" d="M289.525 235.876C289.525 235.876 285.329 243.337 289.443 249.593L288.264 250.53C288.264 250.53 283.461 243.257 289.525 235.876Z" fill="white"/>
</g>
<path d="M316.817 254.731H42.895C42.8022 254.731 42.7134 254.694 42.6476 254.628C42.5821 254.563 42.5453 254.474 42.5453 254.38C42.5453 254.286 42.5821 254.197 42.6476 254.132C42.7134 254.066 42.8022 254.029 42.895 254.029H316.817C316.91 254.029 316.999 254.066 317.064 254.132C317.129 254.197 317.167 254.286 317.167 254.38C317.167 254.474 317.129 254.563 317.064 254.628C316.999 254.694 316.91 254.731 316.817 254.731Z" fill="#D9D9D9"/>
</svg>
