<svg width="20" height="20" viewBox="0 0 20 20" fill="none" xmlns="http://www.w3.org/2000/svg">
<path fill-rule="evenodd" clip-rule="evenodd" d="M4.70834 16.7716V2.70971H14.9583V16.7378L14.1117 15.8912L12.9037 14.6832L10.5213 12.3008C10.1505 11.93 9.54988 11.93 9.1791 12.3008L6.7967 14.6832L5.58873 15.8912L4.70834 16.7716ZM4.60391 18.6995C4.5782 18.7103 4.54918 18.7161 4.51852 18.7161H3.18982C3.08542 18.7161 3 18.649 3 18.5446V1.75926C3 1.33929 3.3393 1 3.75926 1H15.4018V1.00138H15.9074C16.3274 1.00138 16.6667 1.34067 16.6667 1.76064V18.5263C16.6667 18.6307 16.5813 18.7161 16.4769 18.7161H15.1482C15.1481 18.7161 15.1481 18.7161 15.1481 18.7161C15.1456 18.7161 15.1431 18.7161 15.1406 18.7161H15.106L15.0397 18.7161C14.8793 18.7161 14.7254 18.6524 14.6119 18.5389L13.6081 17.5351L12.9715 16.8986L11.2964 15.2234L9.8502 13.7772L8.40566 15.2217L6.7193 16.9081L5.0029 18.6245C4.94423 18.6832 4.86466 18.7161 4.78169 18.7161H4.77159C4.71412 18.7161 4.65805 18.7104 4.60391 18.6995Z" fill="#4BA83B"/>
</svg>
