<svg width="70" height="70" viewBox="0 0 70 70" fill="none" xmlns="http://www.w3.org/2000/svg">
<path d="M67.0832 55.4167C67.0832 56.9638 66.4686 58.4475 65.3746 59.5415C64.2807 60.6354 62.7969 61.25 61.2498 61.25H8.74984C7.20274 61.25 5.71901 60.6354 4.62505 59.5415C3.53109 58.4475 2.9165 56.9638 2.9165 55.4167V23.3333C2.9165 21.7862 3.53109 20.3025 4.62505 19.2085C5.71901 18.1146 7.20274 17.5 8.74984 17.5H20.4165L26.2498 8.75H43.7498L49.5832 17.5H61.2498C62.7969 17.5 64.2807 18.1146 65.3746 19.2085C66.4686 20.3025 67.0832 21.7862 67.0832 23.3333V55.4167Z" stroke="currentColor" stroke-linecap="round" stroke-linejoin="round"/>
<path d="M35.0002 49.5833C41.4435 49.5833 46.6668 44.36 46.6668 37.9167C46.6668 31.4733 41.4435 26.25 35.0002 26.25C28.5568 26.25 23.3335 31.4733 23.3335 37.9167C23.3335 44.36 28.5568 49.5833 35.0002 49.5833Z" stroke="currentColor" stroke-linecap="round" stroke-linejoin="round"/>
</svg>
