<svg width="24" height="24" viewBox="0 0 24 24" fill="none" xmlns="http://www.w3.org/2000/svg">
<mask id="mask0_4460_993" style="mask-type:alpha" maskUnits="userSpaceOnUse" x="0" y="0" width="24" height="24">
<rect width="24" height="24" fill="#D9D9D9"/>
</mask>
<g mask="url(#mask0_4460_993)">
<path d="M1 18.35V6.35C1 5.51667 1.29167 4.80833 1.875 4.225C2.45833 3.64167 3.16667 3.35 4 3.35C4.83333 3.35 5.54167 3.64167 6.125 4.225C6.70833 4.80833 7 5.51667 7 6.35V6.65L10.7 3.475C10.8833 3.30833 11.0875 3.1875 11.3125 3.1125C11.5375 3.0375 11.7667 3 12 3C12.2333 3 12.4625 3.0375 12.6875 3.1125C12.9125 3.1875 13.1167 3.30833 13.3 3.475L17 6.65V6.35C17 5.51667 17.2917 4.80833 17.875 4.225C18.4583 3.64167 19.1667 3.35 20 3.35C20.8333 3.35 21.5417 3.64167 22.125 4.225C22.7083 4.80833 23 5.51667 23 6.35V18.35C23 18.9 22.8042 19.3708 22.4125 19.7625C22.0208 20.1542 21.55 20.35 21 20.35H13.5C13.3667 20.35 13.25 20.3 13.15 20.2C13.05 20.1 13 19.9833 13 19.85V15.35C13 15.0667 12.9042 14.8292 12.7125 14.6375C12.5208 14.4458 12.2833 14.35 12 14.35C11.7167 14.35 11.4792 14.4458 11.2875 14.6375C11.0958 14.8292 11 15.0667 11 15.35V19.85C11 19.9833 10.95 20.1 10.85 20.2C10.75 20.3 10.6333 20.35 10.5 20.35H3C2.45 20.35 1.97917 20.1542 1.5875 19.7625C1.19583 19.3708 1 18.9 1 18.35ZM19 7.35H21V6.35C21 6.06667 20.9042 5.82917 20.7125 5.6375C20.5208 5.44583 20.2833 5.35 20 5.35C19.7167 5.35 19.4792 5.44583 19.2875 5.6375C19.0958 5.82917 19 6.06667 19 6.35V7.35ZM3 7.35H5V6.35C5 6.06667 4.90417 5.82917 4.7125 5.6375C4.52083 5.44583 4.28333 5.35 4 5.35C3.71667 5.35 3.47917 5.44583 3.2875 5.6375C3.09583 5.82917 3 6.06667 3 6.35V7.35ZM3 18.35H5V9.35H3V18.35ZM7 18.35H9V15.35C9 14.5167 9.29167 13.8083 9.875 13.225C10.4583 12.6417 11.1667 12.35 12 12.35C12.8333 12.35 13.5417 12.6417 14.125 13.225C14.7083 13.8083 15 14.5167 15 15.35V18.35H17V9.275L12 4.975L7 9.275V18.35ZM19 18.35H21V9.35H19V18.35ZM12 10.85C11.5833 10.85 11.2292 10.7042 10.9375 10.4125C10.6458 10.1208 10.5 9.76667 10.5 9.35C10.5 8.93333 10.6458 8.57917 10.9375 8.2875C11.2292 7.99583 11.5833 7.85 12 7.85C12.4167 7.85 12.7708 7.99583 13.0625 8.2875C13.3542 8.57917 13.5 8.93333 13.5 9.35C13.5 9.76667 13.3542 10.1208 13.0625 10.4125C12.7708 10.7042 12.4167 10.85 12 10.85Z" fill="currentColor"/>
</g>
</svg>
