<svg width="18" height="18" viewBox="0 0 18 18" fill="none" xmlns="http://www.w3.org/2000/svg">
<path d="M3.35156 12.634C3.6428 12.634 3.87891 12.3979 3.87891 12.1067V11.2594C3.87891 10.9682 3.6428 10.7321 3.35156 10.7321C3.06033 10.7321 2.82422 10.9682 2.82422 11.2594V12.1067C2.82422 12.3979 3.06033 12.634 3.35156 12.634Z" fill="currentColor"/>
<path d="M3.35156 15.7406C3.6428 15.7406 3.87891 15.5045 3.87891 15.2133V14.366C3.87891 14.0748 3.6428 13.8387 3.35156 13.8387C3.06033 13.8387 2.82422 14.0748 2.82422 14.366V15.2133C2.82422 15.5046 3.06033 15.7406 3.35156 15.7406Z" fill="currentColor"/>
<path d="M14.6484 12.634C14.9397 12.634 15.1758 12.3979 15.1758 12.1067V11.2594C15.1758 10.9682 14.9397 10.7321 14.6484 10.7321C14.3572 10.7321 14.1211 10.9682 14.1211 11.2594V12.1067C14.1211 12.3979 14.3572 12.634 14.6484 12.634Z" fill="currentColor"/>
<path d="M14.6484 15.7406C14.9397 15.7406 15.1758 15.5045 15.1758 15.2133V14.366C15.1758 14.0748 14.9397 13.8387 14.6484 13.8387C14.3572 13.8387 14.1211 14.0748 14.1211 14.366V15.2133C14.1211 15.5046 14.3572 15.7406 14.6484 15.7406Z" fill="currentColor"/>
<path d="M17.4727 16.9453H17.4352V9.52734H17.4727C17.7639 9.52734 18 9.29123 18 9C18 8.70877 17.7639 8.47266 17.4727 8.47266H17.1715L15.7406 6.56483V5.61094C15.7406 5.3197 15.5045 5.08359 15.2133 5.08359C14.9221 5.08359 14.686 5.3197 14.686 5.61094V6.21327H13.4813V5.61094C13.4813 5.3197 13.2452 5.08359 12.9539 5.08359C12.6627 5.08359 12.4266 5.3197 12.4266 5.61094V6.21327H11.2219V3.35155C11.2219 1.91605 10.0556 1.32064 9.52734 1.19261V0.527344C9.52734 0.236109 9.29123 0 9 0C8.70877 0 8.47266 0.236109 8.47266 0.527344V1.19264C7.94696 1.32005 6.77813 1.91429 6.77813 3.35159V6.2133H5.57343V5.61094C5.57343 5.3197 5.33732 5.08359 5.04608 5.08359C4.75485 5.08359 4.51874 5.3197 4.51874 5.61094V6.21327H3.31407V5.61094C3.31407 5.3197 3.07796 5.08359 2.78673 5.08359C2.4955 5.08359 2.25939 5.3197 2.25939 5.61094V6.56483L0.828492 8.47266H0.527344C0.236109 8.47266 0 8.70877 0 9C0 9.29123 0.236109 9.52734 0.527344 9.52734H0.56482V16.9453H0.527344C0.236109 16.9453 0 17.1814 0 17.4727C0 17.7639 0.236109 18 0.527344 18H17.4727C17.7639 18 18 17.7639 18 17.4727C18 17.1814 17.7639 16.9453 17.4727 16.9453ZM9 2.18436C9.50474 2.18436 10.1672 2.56022 10.1672 3.38906H7.83281C7.83281 2.56152 8.49287 2.18436 9 2.18436ZM7.83281 4.44375H10.1672V6.21327H9.86875L9.33761 5.77065C9.14203 5.60767 8.85797 5.60767 8.66243 5.77065L8.13129 6.21327H7.83281V4.44375ZM9 6.86222L10.9325 8.47266H7.06746L9 6.86222ZM5.08359 16.9453H1.61951V9.52734H5.08359V16.9453ZM5.41737 8.47266H2.14685L3.05037 7.26796H6.83722L5.41737 8.47266ZM11.8617 16.9453H6.13828V9.52734H11.8617V16.9453ZM11.1628 7.26796H14.9496L15.8531 8.47266H12.5827L11.1628 7.26796ZM16.3805 16.9453H12.9164V9.52734H16.3805V16.9453H16.3805Z" fill="currentColor"/>
<path d="M7.87036 12.634C8.1616 12.634 8.39771 12.3979 8.39771 12.1067V11.2594C8.39771 10.9682 8.1616 10.7321 7.87036 10.7321C7.57913 10.7321 7.34302 10.9682 7.34302 11.2594V12.1067C7.34302 12.3979 7.57913 12.634 7.87036 12.634Z" fill="currentColor"/>
<path d="M7.87036 15.7406C8.1616 15.7406 8.39771 15.5045 8.39771 15.2133V14.366C8.39771 14.0748 8.1616 13.8387 7.87036 13.8387C7.57913 13.8387 7.34302 14.0748 7.34302 14.366V15.2133C7.34302 15.5046 7.57913 15.7406 7.87036 15.7406Z" fill="currentColor"/>
<path d="M10.1296 12.634C10.4209 12.634 10.657 12.3979 10.657 12.1067V11.2594C10.657 10.9682 10.4209 10.7321 10.1296 10.7321C9.8384 10.7321 9.60229 10.9682 9.60229 11.2594V12.1067C9.60229 12.3979 9.8384 12.634 10.1296 12.634Z" fill="currentColor"/>
<path d="M10.1296 15.7406C10.4209 15.7406 10.657 15.5045 10.657 15.2133V14.366C10.657 14.0748 10.4209 13.8387 10.1296 13.8387C9.8384 13.8387 9.60229 14.0748 9.60229 14.366V15.2133C9.60229 15.5046 9.8384 15.7406 10.1296 15.7406Z" fill="currentColor"/>
</svg>
