<svg width="20" height="20" viewBox="0 0 20 20" fill="none" xmlns="http://www.w3.org/2000/svg">
<path d="M19.5 18.8204H16.8472V14.173L19.5 15.7064V18.8204Z" stroke="currentColor"/>
<path d="M3.15284 14.1693V18.8203H0.5V15.706L3.15284 14.1693Z" stroke="currentColor"/>
<path d="M7.543 18.8004H4.79803V11.4967L10 7.18164L15.202 11.4967V18.8004H12.4571V15.8923C12.4571 14.5473 11.3666 13.4569 10.0216 13.4569H9.97849C8.63344 13.4569 7.543 14.5473 7.543 15.8923V18.8004Z" stroke="currentColor"/>
<path d="M1.77429 10.425L2.74178 11.599L9.99998 5.61824L17.2582 11.599L18.2257 10.425L10.4516 4.01914V2.59366H11.8471V1.69043H10.4516V0.679657H9.54836V1.69043H8.15281V2.59366H9.54836V4.01914L1.77429 10.425Z" fill="currentColor"/>
</svg>
