<svg width="24" height="24" viewBox="0 0 24 24" fill="none" xmlns="http://www.w3.org/2000/svg">
<mask id="mask0_8858_33504" style="mask-type:alpha" maskUnits="userSpaceOnUse" x="0" y="0" width="24" height="24">
<rect width="24" height="24" fill="#D9D9D9"/>
</mask>
<g mask="url(#mask0_8858_33504)">
<path d="M3.44232 22.5578V16.1924C3.44232 14.8783 3.90544 13.7581 4.83167 12.8318C5.75792 11.9056 6.87813 11.4425 8.1923 11.4425H9.34615V3.44247C9.34615 2.94535 9.52315 2.51979 9.87715 2.16579C10.2312 1.81177 10.6567 1.63477 11.1538 1.63477H12.8461C13.3432 1.63477 13.7688 1.81177 14.1228 2.16579C14.4768 2.51979 14.6538 2.94535 14.6538 3.44247V11.4425H15.8076C17.1218 11.4425 18.242 11.9056 19.1683 12.8318C20.0945 13.7581 20.5576 14.8783 20.5576 16.1924V22.5578H3.44232ZM4.94227 21.0578H7.34615V17.8078C7.34615 17.5953 7.41806 17.4172 7.56187 17.2734C7.70567 17.1297 7.88387 17.0578 8.09647 17.0578C8.30905 17.0578 8.48715 17.1297 8.63075 17.2734C8.77433 17.4172 8.84612 17.5953 8.84612 17.8078V21.0578H11.25V17.8078C11.25 17.5953 11.3219 17.4172 11.4657 17.2734C11.6095 17.1297 11.7877 17.0578 12.0003 17.0578C12.2129 17.0578 12.391 17.1297 12.5346 17.2734C12.6782 17.4172 12.7499 17.5953 12.7499 17.8078V21.0578H15.1538V17.8078C15.1538 17.5953 15.2257 17.4172 15.3695 17.2734C15.5134 17.1297 15.6916 17.0578 15.9041 17.0578C16.1167 17.0578 16.2948 17.1297 16.4384 17.2734C16.582 17.4172 16.6538 17.5953 16.6538 17.8078V21.0578H19.0577V16.1924C19.0577 15.295 18.7404 14.529 18.1057 13.8943C17.4711 13.2597 16.7051 12.9424 15.8076 12.9424H8.1923C7.29485 12.9424 6.52881 13.2597 5.8942 13.8943C5.25958 14.529 4.94227 15.295 4.94227 16.1924V21.0578ZM13.1538 11.4425V3.44247C13.1538 3.35272 13.125 3.27899 13.0673 3.22129C13.0096 3.16359 12.9359 3.13474 12.8461 3.13474H11.1538C11.0641 3.13474 10.9903 3.16359 10.9326 3.22129C10.875 3.27899 10.8461 3.35272 10.8461 3.44247V11.4425H13.1538Z" fill="#1C1B1F"/>
</g>
</svg>
