<svg width="20" height="20" viewBox="0 0 20 20" fill="none" xmlns="http://www.w3.org/2000/svg">
<path fill-rule="evenodd" clip-rule="evenodd" d="M18.0003 10.0002C18.0003 14.4185 14.4186 18.0002 10.0003 18.0002C5.58198 18.0002 2.00024 14.4185 2.00024 10.0002C2.00024 5.58191 5.58198 2.00018 10.0003 2.00018C14.4186 2.00018 18.0003 5.58191 18.0003 10.0002ZM20.0003 10.0002C20.0003 15.5231 15.5231 20.0002 10.0003 20.0002C4.47741 20.0002 0.000244141 15.5231 0.000244141 10.0002C0.000244141 4.47735 4.47741 0.000183105 10.0003 0.000183105C15.5231 0.000183105 20.0003 4.47735 20.0003 10.0002ZM10.3516 4.18655C10.3516 3.63427 9.90385 3.18655 9.35157 3.18655C8.79928 3.18655 8.35157 3.63427 8.35157 4.18655V11.1259C8.35157 11.5534 8.57892 11.9485 8.94844 12.1633L13.422 14.7641C13.8995 15.0417 14.5115 14.8797 14.7891 14.4022C15.0667 13.9248 14.9047 13.3127 14.4272 13.0351L10.3516 10.6656V4.18655Z" fill="currentColor"/>
</svg>
