<svg fill="none" height="20" viewBox="0 0 20 20" width="20" xmlns="http://www.w3.org/2000/svg">
<path clip-rule="evenodd" d="m10.0066.957359c0-.553524-.44933-1.0075077-.99928-.95289541-5.05732.50221041-9.00732 4.77563641-9.00732 9.97309641 0 5.53524 4.48011 10.02244 10.0066 10.02244 2.2986 0 4.4162-.7763 6.1057-2.0813.4537-.3505.4449-1.0228.0285-1.417-.3834-.363-.9831-.3637-1.4086-.0515-1.3244.9716-2.9581 1.5453-4.7256 1.5453-4.4212 0-8.00528-3.5897-8.00528-8.01794 0-4.08946 3.05672-7.46385 7.00659-7.95617.54842-.06836.99869-.51051.99869-1.064031zm6.9456 3.191511c-.3818.40017-1.0153.41455-1.4148.03213l-.0309-.02941-.031-.02924c-.4036-.37815-.4247-1.01238-.0472-1.4166.3776-.40422 1.0108-.42535 1.4144-.04721l.0388.03655.0386.03676c.3995.38243.4139 1.01685.0321 1.41702zm1.0368 1.53375c.5128-.20649 1.0956.04243 1.3017.556l.0198.04955.0195.04966c.2007.51573-.0541 1.09677-.569 1.29779-.5149.20101-1.095-.05411-1.2957-.56984l-.0156-.03973-.0158-.03964c-.2062-.51356.0424-1.09729.5551-1.30379zm-4.1476-3.92792c-.1772.52431-.7452.80551-1.2686.62807l-.0404-.01357-.0405-.01336c-.5254-.17185-.8121-.7377-.6406-1.26388.1716-.526167.7366-.813403 1.2619-.641556l.0506.016698.0505.016968c.5235.177439.8042.74632.6271 1.27063zm5.212 7.70988c.5519.02993.975.50226.9451 1.05502l-.003.0532-.0033.0533c-.0358.5523-.5118.9711-1.0633.9353-.5515-.0359-.9696-.5127-.9338-1.065l.0026-.0426.0024-.0426c.0299-.55276.5015-.97655 1.0533-.94662zm-.6314 3.87812c.4875.2607.6716.8679.4113 1.3562l-.0252.047-.0255.0468c-.2655.4855-.8737.6635-1.3583.3975-.4847-.2659-.6624-.875-.3969-1.3605l.0204-.0375.0202-.0376c.2603-.4882.8665-.6727 1.354-.4119zm-8.0636-9.19168c0-.55352-.44804-1.00224-1.00069-1.00224s-1.00066.44872-1.00066 1.00224v6.95498c0 .4283.22751.8244.59727 1.0397l4.47648 2.6066c.4778.2782 1.0903.1158 1.368-.3627.2778-.4785.1157-1.092-.3621-1.3702l-4.0783-2.3748z" fill="currentColor" fill-rule="evenodd"/>
</svg>