<svg width="16" height="16" viewBox="0 0 16 16" fill="none" xmlns="http://www.w3.org/2000/svg">
<path d="M3.60039 14.4001C3.27039 14.4001 2.98789 14.2826 2.75289 14.0476C2.51789 13.8126 2.40039 13.5301 2.40039 13.2001V4.0001H3.60039V13.2001H11.2004V14.4001H3.60039ZM6.00039 12.0001C5.67039 12.0001 5.38789 11.8826 5.15289 11.6476C4.91789 11.4126 4.80039 11.1301 4.80039 10.8001V2.8001C4.80039 2.4701 4.91789 2.1876 5.15289 1.9526C5.38789 1.7176 5.67039 1.6001 6.00039 1.6001H12.4004C12.7304 1.6001 13.0129 1.7176 13.2479 1.9526C13.4829 2.1876 13.6004 2.4701 13.6004 2.8001V10.8001C13.6004 11.1301 13.4829 11.4126 13.2479 11.6476C13.0129 11.8826 12.7304 12.0001 12.4004 12.0001H6.00039ZM6.00039 10.8001H12.4004V2.8001H6.00039V10.8001Z" fill="currentColor"/>
</svg>
