<svg width="20" height="20" viewBox="0 0 20 20" fill="none" xmlns="http://www.w3.org/2000/svg">
<path d="M10.7235 20C12.2404 20 13.6289 19.79 14.9942 19.3349V17.0712C13.7223 17.4912 12.3921 17.7013 11.0502 17.7013C5.84597 17.7013 2.63711 14.8775 2.63711 9.95333V9.94166C2.63711 5.30922 5.67095 2.24037 10.1867 2.24037C14.4924 2.24037 17.1179 4.93582 17.1179 9.2182V9.22987C17.1179 11.1785 16.5928 12.4387 15.776 12.4387C15.1225 12.4387 14.7491 11.7503 14.7491 10.5484V5.32089H11.7853V6.83781H11.6919C11.2019 5.70595 10.1634 5.02917 8.82147 5.02917C6.56943 5.02917 4.85414 7.07118 4.85414 9.94166V9.95333C4.85414 13.0805 6.48775 15.1109 8.83314 15.1109C10.28 15.1109 11.4002 14.3874 12.0537 13.0105H12.147L12.3221 13.3256C12.9055 14.3874 14.0723 15.0058 15.4842 15.0058C18.0747 15.0058 19.755 12.6604 19.755 9.05484V9.04317C19.755 3.58226 16.021 0 10.1867 0C4.16569 0 0 4.014 0 9.91832V9.92999C0 16.0793 4.32905 20 10.7235 20ZM9.83664 12.4737C8.89148 12.4737 8.28471 11.5869 8.28471 10.0583V10.0467C8.28471 8.54142 8.89148 7.66628 9.83664 7.66628C10.7585 7.66628 11.3769 8.55309 11.3769 10.0117V10.0583C11.3769 11.5753 10.7701 12.4737 9.83664 12.4737Z" fill="currentColor"/>
</svg>
