<svg width="24" height="24" viewBox="0 0 24 24" fill="none" xmlns="http://www.w3.org/2000/svg">
<mask id="mask0_8858_34958" style="mask-type:alpha" maskUnits="userSpaceOnUse" x="0" y="0" width="24" height="24">
<rect width="24" height="24" fill="#D9D9D9"/>
</mask>
<g mask="url(#mask0_8858_34958)">
<path d="M4.30773 19.5C3.8026 19.5 3.37503 19.325 3.02503 18.975C2.67503 18.625 2.50003 18.1974 2.50003 17.6922V6.3077C2.50003 5.80257 2.67503 5.375 3.02503 5.025C3.37503 4.675 3.8026 4.5 4.30773 4.5H19.6923C20.1974 4.5 20.625 4.675 20.975 5.025C21.325 5.375 21.5 5.80257 21.5 6.3077V17.6922C21.5 18.1974 21.325 18.625 20.975 18.975C20.625 19.325 20.1974 19.5 19.6923 19.5H4.30773ZM12 12.5576L4.00001 7.44225V17.6922C4.00001 17.782 4.02886 17.8557 4.08656 17.9134C4.14426 17.9711 4.21798 18 4.30773 18H19.6923C19.782 18 19.8558 17.9711 19.9135 17.9134C19.9712 17.8557 20 17.782 20 17.6922V7.44225L12 12.5576ZM12 11L19.8462 5.99997H4.15386L12 11ZM4.00001 7.44225V5.99997V17.6922C4.00001 17.782 4.02886 17.8557 4.08656 17.9134C4.14426 17.9711 4.21798 18 4.30773 18H4.00001V7.44225Z" fill="#393939"/>
</g>
</svg>
