<svg width="16" height="14" viewBox="0 0 16 14" fill="none" xmlns="http://www.w3.org/2000/svg">
<path d="M15.4286 0.711029H0.571429C0.255357 0.711029 0 0.966386 0 1.28246V12.711C0 13.0271 0.255357 13.2825 0.571429 13.2825H15.4286C15.7446 13.2825 16 13.0271 16 12.711V1.28246C16 0.966386 15.7446 0.711029 15.4286 0.711029ZM14.7143 2.6896V11.9967H1.28571V2.6896L0.792857 2.30567L1.49464 1.40389L2.25893 1.99853H13.7429L14.5071 1.40389L15.2089 2.30567L14.7143 2.6896ZM13.7429 1.99674L8 6.46103L2.25714 1.99674L1.49286 1.4021L0.791072 2.30389L1.28393 2.68782L7.38393 7.43067C7.55936 7.56696 7.77518 7.64094 7.99732 7.64094C8.21947 7.64094 8.43529 7.56696 8.61071 7.43067L14.7143 2.6896L15.2071 2.30567L14.5054 1.40389L13.7429 1.99674Z" fill="black" fill-opacity="0.85"/>
</svg>
