<svg width="373" height="281" viewBox="0 0 373 281" fill="none" xmlns="http://www.w3.org/2000/svg">
<path d="M49.6744 253.265L38.7455 118.699C38.4683 115.273 39.4173 111.859 41.4218 109.073L95.952 33.2636C97.4098 31.2369 99.3669 29.6252 101.631 28.5866C103.896 27.5481 106.39 27.1182 108.869 27.3392L295.549 43.8714C298.502 44.1341 301.305 45.3085 303.566 47.2333C305.83 49.1579 307.445 51.7389 308.191 54.622L333.835 153.78C334.467 156.217 334.45 158.778 333.788 161.208L308.695 253.603L49.6744 253.265Z" fill="currentColor"/>
<path opacity="0.1" d="M302.867 229.798C302.867 229.798 302.68 221.578 287.203 224.412C287.203 224.412 283.1 219.714 274.71 222.358C274.71 222.358 273.311 215.249 261.459 213.694C256.302 213.017 250.999 214.111 246.987 216.904C245.588 217.883 244.31 219.056 243.569 220.403C240.611 218.642 237.23 217.723 233.792 217.743C227.535 216.86 222.807 220.258 222.807 220.258C220.565 215.855 213.324 215.464 213.324 215.464C192.809 214.68 194.014 222.215 194.014 222.215C186.256 219.574 182.463 224.269 182.463 224.269C168.153 221.433 163.421 228.273 163.421 228.273C145.491 228.664 153.497 238.459 153.497 238.459H226.442L226.505 238.604H312.642L314.486 231.826C311.868 230.737 308.618 229.915 302.867 229.798Z" fill="#393939"/>
<path opacity="0.1" d="M302.867 229.797C302.867 229.797 302.68 221.578 287.203 224.411C287.203 224.411 283.1 219.714 274.71 222.358C274.71 222.358 273.022 215.473 261.858 213.771C256.412 212.94 250.756 214.117 246.602 217.178C245.35 218.098 244.243 219.178 243.571 220.4C240.613 218.64 237.233 217.72 233.794 217.74C227.537 216.857 222.81 220.255 222.81 220.255C220.567 215.853 213.326 215.461 213.326 215.461C192.811 214.677 194.016 222.213 194.016 222.213C186.258 219.571 182.465 224.266 182.465 224.266C168.153 221.433 163.421 228.273 163.421 228.273C145.491 228.664 153.497 238.459 153.497 238.459H226.442L226.505 238.604H312.642L314.486 231.825C311.868 230.736 308.618 229.914 302.867 229.797Z" fill="#393939"/>
<path d="M128.251 223.271C128.251 223.271 124.083 215.473 108.021 220.33C108.021 220.33 104.799 216.398 97.1267 218.857C97.1267 218.857 79.2273 204.732 61.8269 220.475C61.8269 220.475 54.6396 216.209 46.8579 220.035L48.5667 238.574H128.251V223.271Z" fill="#DADDDF"/>
<path opacity="0.1" d="M124.16 219.979C121.108 218.637 116.052 217.902 108.021 220.33C108.021 220.33 104.799 216.398 97.1267 218.857C97.1267 218.857 77.9311 204.732 61.8269 220.475C61.8269 220.475 54.6396 216.356 46.8579 220.035L48.5667 238.574H128.251V224.835C128.251 222.948 126.787 221.136 124.16 219.979Z" fill="#393939"/>
<path d="M52.8985 122.235C63.205 123.725 68.8559 126.919 68.8559 126.919L81.3817 150.448L78.9922 237.979L98.2087 237.907L96.5139 166.163L122.719 133.579L134.875 123.228C134.913 123.193 134.936 123.144 134.941 123.092C134.945 123.04 134.931 122.988 134.899 122.946C134.868 122.904 134.823 122.875 134.772 122.864C134.721 122.854 134.668 122.863 134.623 122.889L124.104 129.764L126.804 116.651C126.813 116.598 126.802 116.545 126.773 116.5C126.745 116.455 126.701 116.423 126.65 116.409C126.599 116.395 126.544 116.401 126.497 116.426C126.451 116.45 126.414 116.491 126.396 116.541L121.225 132.155L96.5139 155.337L103.316 128.324L108.135 109.967L116.854 80.6171C116.868 80.5653 116.863 80.5096 116.838 80.4618C116.813 80.4138 116.772 80.3773 116.721 80.359C116.671 80.341 116.615 80.3429 116.566 80.3642C116.516 80.3855 116.477 80.4248 116.455 80.4742L106.652 103.423L104.184 94.8778C103.936 94.0247 103.587 93.2047 103.144 92.4354L98.7379 84.7688C98.2509 83.9204 97.8777 83.0112 97.6282 82.0642L95.0988 72.4517C95.0841 72.4009 95.051 72.3571 95.006 72.3292C94.961 72.3016 94.9072 72.2917 94.8552 72.3016C94.8034 72.3116 94.757 72.3407 94.7253 72.3833C94.6936 72.4257 94.6787 72.4786 94.6838 72.5313L96.0476 83.4739C96.201 84.7098 96.5612 85.9109 97.113 87.0262L99.8569 92.5806C100.19 93.2543 100.454 93.9606 100.645 94.6881L103.811 106.827L89.2287 151.787L83.4216 137.557C81.7571 132.64 80.8805 116.456 80.6451 111.445C80.6418 111.394 80.6199 111.345 80.5835 111.309C80.5471 111.272 80.4989 111.25 80.4476 111.247C80.3963 111.243 80.3455 111.259 80.3047 111.29C80.2639 111.321 80.2357 111.366 80.2254 111.417C79.0598 118.081 79.5564 137.217 79.5564 137.217L70.5694 123.043L58.0482 98.4301L57.3139 99.4511C61.0439 110.157 67.3383 123.622 67.3383 123.622C62.3727 122.125 56.7684 121.709 52.8589 121.627L52.8985 122.235Z" fill="#61656D"/>
<path d="M86.5288 238.346C86.5288 238.346 87.9812 228.769 97.7538 231.556C97.7538 231.556 95.4831 225.105 102.295 222.386C102.295 222.386 108.776 219.686 112.126 226.158C112.126 226.158 113.863 219.939 119.819 223.149C119.819 223.149 128.212 208.359 143.896 219.187C143.896 219.187 161.427 209.53 164.798 228.16C164.798 228.16 170.424 225.009 170.927 230.97C170.927 230.97 179.618 226.954 182.404 238.122L86.5288 238.346Z" fill="#DADDDF"/>
<path d="M304.844 238.558C304.844 238.558 303.468 229.592 293.768 232.268C293.768 232.268 296.057 226.205 289.327 223.709C289.327 223.709 282.925 221.229 279.566 227.32C279.566 227.32 277.885 221.506 271.954 224.562C271.954 224.562 264.331 211.177 248.129 221.033C248.129 221.033 230.824 212.116 227.367 229.606C227.367 229.606 221.814 226.695 221.278 232.291C221.278 232.291 212.692 228.594 209.854 239.082L304.844 238.558Z" fill="#DADDDF"/>
<path d="M286.005 189.23H281.832C279.946 189.23 278.393 191.055 278.307 193.371L277.016 232.839L290.472 232.823L289.392 193.268C289.341 191.022 287.84 189.228 286.005 189.23Z" fill="#4BA83B"/>
<path opacity="0.61" d="M286.005 189.23H281.832C279.946 189.23 278.393 191.055 278.307 193.371L277.016 232.839L290.472 232.823L289.392 193.268C289.341 191.022 287.84 189.228 286.005 189.23Z" fill="white"/>
<path opacity="0.1" d="M289.392 193.272C289.341 191.022 287.839 189.228 286.005 189.23H284.457C285.156 189.497 286.977 190.572 286.977 194.532L287.909 231.296H290.429L289.392 193.272Z" fill="#393939"/>
<path d="M294.325 234.811L273.579 234.836L273.581 238.564L294.327 238.538L294.325 234.811Z" fill="#61656D"/>
<path d="M292.152 231.327L275.707 231.345L275.055 234.851L292.81 234.83L292.152 231.327Z" fill="#61656D"/>
<path d="M289.031 197.948H278.377C277.79 197.948 277.162 197.178 277.16 196.227C277.16 195.277 277.787 194.506 278.559 194.506L289.21 194.492C289.984 194.492 290.609 195.263 290.609 196.213C290.618 197.169 289.991 197.946 289.031 197.948Z" fill="#61656D"/>
<path d="M285.319 102.693L281.825 102.697L281.93 189.215L285.424 189.21L285.319 102.693Z" fill="#61656D"/>
<path d="M290.555 100.392L276.58 100.409L276.584 102.704L290.56 102.686L290.555 100.392Z" fill="#61656D"/>
<path d="M291.609 73.5591L275.451 73.5778L277.631 71.2807L289.422 71.2666L291.609 73.5591Z" fill="#61656D"/>
<path d="M292.814 73.5371L274.253 73.5601L274.258 75.8549L292.819 75.8319L292.814 73.5371Z" fill="#61656D"/>
<path d="M274.25 75.8751L276.463 100.427L290.439 100.411L292.814 75.854L274.25 75.8751Z" fill="#4BA83B"/>
<path opacity="0.61" d="M274.25 75.8751L276.463 100.427L290.439 100.411L292.814 75.854L274.25 75.8751Z" fill="white"/>
<path d="M282.827 69.8776L284.226 69.876C284.406 69.8757 284.583 69.9111 284.751 69.9799C284.916 70.049 285.068 70.1502 285.196 70.278C285.322 70.4057 285.424 70.5574 285.492 70.7244C285.562 70.8913 285.597 71.0702 285.597 71.251L281.447 71.2561C281.447 71.0747 281.482 70.8948 281.552 70.7269C281.622 70.5593 281.722 70.4068 281.851 70.2787C281.979 70.1507 282.133 70.0493 282.298 69.9804C282.466 69.9116 282.645 69.8767 282.827 69.8776Z" fill="#61656D"/>
<path d="M277.871 75.8818L277.647 75.9013L279.771 100.518L279.993 100.499L277.871 75.8818Z" fill="#61656D"/>
<path d="M289.397 75.8564L287.222 100.415L287.445 100.435L289.618 75.8764L289.397 75.8564Z" fill="#61656D"/>
<path d="M283.653 75.8433L283.429 75.8435L283.457 100.398L283.681 100.398L283.653 75.8433Z" fill="#61656D"/>
<path opacity="0.15" d="M285.31 102.713L284.209 102.715V189.23L285.41 189.205L285.31 102.713Z" fill="#393939"/>
<path opacity="0.15" d="M287.042 197.951H289.03C289.991 197.951 290.618 197.178 290.616 196.227C290.616 195.342 290.073 194.616 289.373 194.518H287.042C287.042 194.518 288.972 196.448 287.042 197.951Z" fill="#393939"/>
<path opacity="0.15" d="M292.81 234.83L292.152 231.327L287.949 231.331L288.83 234.832H290.616L292.81 234.83Z" fill="#393939"/>
<path opacity="0.15" d="M290.474 238.564L294.309 238.562L294.306 234.832L289.774 234.836L290.474 238.564Z" fill="#393939"/>
<path opacity="0.1" d="M285.979 100.416L290.439 100.406L292.805 75.9383V75.854L288.401 75.8587L287.881 75.8634L285.979 100.416Z" fill="#393939"/>
<path opacity="0.15" d="M287.909 75.8117H292.814L292.809 73.5591L287.909 73.5638V75.8117Z" fill="#393939"/>
<path opacity="0.15" d="M285.602 71.271L287.91 73.4698H291.525L289.483 71.3295L285.602 71.271Z" fill="#393939"/>
<path opacity="0.15" d="M285.979 102.711H290.551V100.505C289.299 100.523 287.315 100.453 286.462 100.42H286.044L285.979 102.711Z" fill="#393939"/>
<path d="M228.891 84.3892C221.035 80.8439 219.895 86.3468 219.895 86.3468C219.895 86.3468 223.198 90.8827 228.891 84.3892Z" fill="#4BA83B"/>
<path opacity="0.4" d="M228.884 84.3612C221.007 80.8651 219.902 86.3727 219.902 86.3727C219.902 86.3727 223.233 90.8898 228.884 84.3612Z" fill="white"/>
<path d="M185.668 68.4825C177.075 67.8947 177.91 73.4536 177.91 73.4536C177.91 73.4536 182.575 76.5566 185.668 68.4825Z" fill="#4BA83B"/>
<path opacity="0.4" d="M185.668 68.4825C177.075 67.8947 177.91 73.4536 177.91 73.4536C177.91 73.4536 182.575 76.5566 185.668 68.4825Z" fill="white"/>
<path d="M132.548 119.919C126.27 117.844 125.839 122.134 125.839 122.134C125.839 122.134 128.72 125.331 132.548 119.919Z" fill="#4BA83B"/>
<path opacity="0.4" d="M132.548 119.919C126.27 117.844 125.839 122.134 125.839 122.134C125.839 122.134 128.72 125.331 132.548 119.919Z" fill="white"/>
<path d="M99.1224 67.8496C93.2221 70.8399 95.9379 74.1721 95.9379 74.1721C95.9379 74.1721 100.225 74.3946 99.1224 67.8496Z" fill="#4BA83B"/>
<path opacity="0.4" d="M99.1224 67.8496C93.2221 70.8399 95.9379 74.1721 95.9379 74.1721C95.9379 74.1721 100.225 74.3946 99.1224 67.8496Z" fill="white"/>
<path d="M119.868 73.7627C113.968 76.753 116.681 80.0852 116.681 80.0852C116.681 80.0852 120.971 80.3194 119.868 73.7627Z" fill="#4BA83B"/>
<path opacity="0.4" d="M119.868 73.7627C113.968 76.753 116.681 80.0852 116.681 80.0852C116.681 80.0852 120.971 80.3194 119.868 73.7627Z" fill="white"/>
<path d="M54.3184 127.659C60.8855 128.324 60.3796 124.046 60.3796 124.046C60.3796 124.046 56.8827 121.547 54.3184 127.659Z" fill="#4BA83B"/>
<path opacity="0.4" d="M54.3184 127.659C60.8855 128.324 60.3796 124.046 60.3796 124.046C60.3796 124.046 56.8827 121.547 54.3184 127.659Z" fill="white"/>
<path d="M85.0905 106.453C78.873 108.705 81.167 112.351 81.167 112.351C81.167 112.351 85.3865 113.084 85.0905 106.453Z" fill="#4BA83B"/>
<path opacity="0.4" d="M85.0905 106.453C78.873 108.705 81.167 112.351 81.167 112.351C81.167 112.351 85.3865 113.084 85.0905 106.453Z" fill="white"/>
<path d="M121.013 115.232C127.137 119.014 123.892 122.386 123.892 122.386C123.892 122.386 119.225 122.236 121.013 115.232Z" fill="#4BA83B"/>
<path opacity="0.4" d="M121.013 115.232C127.137 119.014 123.892 122.386 123.892 122.386C123.892 122.386 119.225 122.236 121.013 115.232Z" fill="white"/>
<path d="M87.8672 71.5426C94.0753 69.5545 94.4623 73.7906 94.4623 73.7906C94.4623 73.7906 91.5902 76.9144 87.8672 71.5426Z" fill="#4BA83B"/>
<path opacity="0.4" d="M87.8672 71.5426C94.0753 69.5545 94.4623 73.7906 94.4623 73.7906C94.4623 73.7906 91.5902 76.9144 87.8672 71.5426Z" fill="white"/>
<path d="M111.739 78.7627C117.001 82.6218 113.837 85.4341 113.837 85.4341C113.837 85.4341 109.622 84.9517 111.739 78.7627Z" fill="#4BA83B"/>
<path opacity="0.4" d="M111.739 78.7627C117.001 82.6218 113.837 85.4341 113.837 85.4341C113.837 85.4341 109.622 84.9517 111.739 78.7627Z" fill="white"/>
<path d="M74.7935 110.269C81.2067 111.416 79.5842 115.343 79.5842 115.343C79.5842 115.343 75.5954 116.765 74.7935 110.269Z" fill="#4BA83B"/>
<path opacity="0.4" d="M74.7935 110.269C81.2067 111.416 79.5842 115.343 79.5842 115.343C79.5842 115.343 75.5954 116.765 74.7935 110.269Z" fill="white"/>
<path d="M64.0933 164.228C70.5089 165.375 68.8863 169.302 68.8863 169.302C68.8863 169.302 64.8952 170.724 64.0933 164.228Z" fill="#4BA83B"/>
<path opacity="0.4" d="M64.0933 164.228C70.5089 165.375 68.8863 169.302 68.8863 169.302C68.8863 169.302 64.8952 170.724 64.0933 164.228Z" fill="white"/>
<path d="M130.384 109.487C131.406 116.636 126.748 116.278 126.748 116.278C126.748 116.278 123.887 112.578 130.384 109.487Z" fill="#4BA83B"/>
<path opacity="0.4" d="M130.384 109.487C131.406 116.636 126.748 116.278 126.748 116.278C126.748 116.278 123.887 112.578 130.384 109.487Z" fill="white"/>
<path d="M87.7976 91.7256C87.35 98.9309 82.8624 97.6477 82.8624 97.6477C82.8624 97.6477 80.8109 93.4327 87.7976 91.7256Z" fill="#4BA83B"/>
<path opacity="0.4" d="M87.7976 91.7256C87.35 98.9309 82.8624 97.6477 82.8624 97.6477C82.8624 97.6477 80.8109 93.4327 87.7976 91.7256Z" fill="white"/>
<path d="M110.289 183.411C109.842 190.619 105.354 189.324 105.354 189.324C105.354 189.324 103.303 185.109 110.289 183.411Z" fill="#4BA83B"/>
<path opacity="0.4" d="M110.289 183.411C109.842 190.619 105.354 189.324 105.354 189.324C105.354 189.324 103.303 185.109 110.289 183.411Z" fill="white"/>
<path d="M62.5244 238.339C62.5244 238.339 63.3613 236.026 65.4851 235.295C66.7375 234.902 67.8504 234.156 68.6906 233.144C71.5277 229.561 78.9644 222.522 92.6185 224.379C93.7175 224.537 94.7917 224.836 95.8147 225.269C100.384 227.142 115.101 233.111 126.014 236.508C126.638 236.698 127.23 236.977 127.774 237.337C128.45 237.805 128.958 238.346 127.503 238.342C123.447 238.342 125.151 238.342 125.067 238.342L62.5244 238.339Z" fill="#4BA83B"/>
<path opacity="0.7" d="M62.5244 238.339C62.5244 238.339 63.3613 236.026 65.4851 235.295C66.7375 234.902 67.8504 234.156 68.6906 233.144C71.5277 229.561 78.9644 222.522 92.6185 224.379C93.7175 224.537 94.7917 224.836 95.8147 225.269C100.384 227.142 115.101 233.111 126.014 236.508C126.638 236.698 127.23 236.977 127.774 237.337C128.45 237.805 128.958 238.346 127.503 238.342C123.447 238.342 125.151 238.342 125.067 238.342L62.5244 238.339Z" fill="white"/>
<path d="M99.9364 224.852C99.5564 230.968 95.7401 229.867 95.7401 229.867C95.7401 229.867 94.0057 226.292 99.9364 224.852Z" fill="#4BA83B"/>
<path d="M86.6156 227.263C86.2356 233.38 82.4193 232.281 82.4193 232.281C82.4193 232.281 80.6849 228.703 86.6156 227.263Z" fill="#4BA83B"/>
<path d="M107.336 228.76C103.452 233.483 101.011 230.348 101.011 230.348C101.011 230.348 101.694 226.426 107.336 228.76Z" fill="#4BA83B"/>
<path d="M134.514 235.878C131.562 239.468 129.707 237.084 129.707 237.084C129.707 237.084 130.231 234.104 134.514 235.878Z" fill="#4BA83B"/>
<path d="M100.785 232.926C96.9008 237.651 94.46 234.513 94.46 234.513C94.46 234.513 95.143 230.594 100.785 232.926Z" fill="#4BA83B"/>
<path d="M90.2661 222.505C96.0685 224.395 94.0613 227.828 94.0613 227.828C94.0613 227.828 90.1798 228.631 90.2661 222.505Z" fill="#4BA83B"/>
<path d="M78.0366 223.601C83.8391 225.503 81.8272 228.924 81.8272 228.924C81.8272 228.924 77.9503 229.729 78.0366 223.601Z" fill="#4BA83B"/>
<path d="M87.8096 228.605C93.6867 226.966 93.8988 230.947 93.8988 230.947C93.8988 230.947 91.1036 233.762 87.8096 228.605Z" fill="#4BA83B"/>
<path d="M92.4182 233.345C88.9027 238.353 86.2334 235.412 86.2334 235.412C86.2334 235.412 86.6157 231.451 92.4182 233.345Z" fill="#4BA83B"/>
<path d="M125.422 235.261C122.708 239.131 120.643 236.858 120.643 236.858C120.643 236.858 120.927 233.797 125.422 235.261Z" fill="#4BA83B"/>
<path d="M117.374 236.218C112.84 237.597 112.539 234.558 112.539 234.558C112.539 234.558 114.628 232.338 117.374 236.218Z" fill="#4BA83B"/>
<path d="M73.7612 229.484C78.8154 227.655 78.813 231.42 78.813 231.42C78.813 231.42 76.3163 234.237 73.7612 229.484Z" fill="#4BA83B"/>
<path d="M76.9316 236.654C81.9671 234.38 83.4591 236.977 83.4591 236.977C83.4591 236.977 81.72 239.417 76.9316 236.654Z" fill="#4BA83B"/>
<path d="M89.812 237.553C93.3578 235.75 94.3906 237.787 94.3906 237.787C94.3906 237.787 93.162 239.7 89.812 237.553Z" fill="#4BA83B"/>
<path d="M103.568 237.337C99.7961 235.977 98.7773 237.806 98.7773 237.806C98.7773 237.806 100.127 239.4 103.568 237.337Z" fill="#4BA83B"/>
<path d="M113.556 229.987C110.621 233.734 108.553 231.72 108.553 231.72C108.553 231.72 108.954 228.861 113.556 229.987Z" fill="#4BA83B"/>
<path d="M108.977 235.265C103.786 237.138 102.513 234.42 102.513 234.42C102.513 234.42 104.441 232.13 108.977 235.265Z" fill="#4BA83B"/>
<path d="M67.8047 232.687C72.9008 232.118 73.2715 235.015 73.2715 235.015C73.2715 235.015 70.9426 236.761 67.8047 232.687Z" fill="#4BA83B"/>
<path d="M82.1304 222.243C88.0098 220.604 88.2219 224.585 88.2219 224.585C88.2219 224.585 85.4268 227.402 82.1304 222.243Z" fill="#4BA83B"/>
<g opacity="0.4">
<path opacity="0.4" d="M99.9359 224.852C99.5559 230.968 95.7396 229.867 95.7396 229.867C95.7396 229.867 94.0052 226.292 99.9359 224.852Z" fill="white"/>
<path opacity="0.4" d="M86.6151 227.264C86.2351 233.38 82.4188 232.282 82.4188 232.282C82.4188 232.282 80.6844 228.704 86.6151 227.264Z" fill="white"/>
<path opacity="0.4" d="M107.335 228.76C103.452 233.483 101.011 230.348 101.011 230.348C101.011 230.348 101.694 226.426 107.335 228.76Z" fill="white"/>
<path opacity="0.4" d="M134.513 235.878C131.562 239.468 129.706 237.084 129.706 237.084C129.706 237.084 130.231 234.104 134.513 235.878Z" fill="white"/>
<path opacity="0.4" d="M100.785 232.926C96.9008 237.651 94.46 234.513 94.46 234.513C94.46 234.513 95.143 230.594 100.785 232.926Z" fill="white"/>
<path opacity="0.4" d="M90.2661 222.505C96.0686 224.395 94.0613 227.828 94.0613 227.828C94.0613 227.828 90.1798 228.631 90.2661 222.505Z" fill="white"/>
<path opacity="0.4" d="M78.0366 223.601C83.8391 225.503 81.8272 228.924 81.8272 228.924C81.8272 228.924 77.9503 229.729 78.0366 223.601Z" fill="white"/>
<path opacity="0.4" d="M87.8091 228.605C93.6862 226.966 93.8983 230.947 93.8983 230.947C93.8983 230.947 91.1031 233.762 87.8091 228.605Z" fill="white"/>
<path opacity="0.4" d="M92.4182 233.345C88.9027 238.353 86.2334 235.412 86.2334 235.412C86.2334 235.412 86.6157 231.451 92.4182 233.345Z" fill="white"/>
<path opacity="0.4" d="M125.422 235.26C122.708 239.131 120.643 236.857 120.643 236.857C120.643 236.857 120.927 233.797 125.422 235.26Z" fill="white"/>
<path opacity="0.4" d="M117.374 236.218C112.84 237.597 112.539 234.558 112.539 234.558C112.539 234.558 114.628 232.338 117.374 236.218Z" fill="white"/>
<path opacity="0.4" d="M73.7612 229.484C78.8154 227.655 78.813 231.42 78.813 231.42C78.813 231.42 76.3163 234.237 73.7612 229.484Z" fill="white"/>
<path opacity="0.4" d="M76.9316 236.653C81.9671 234.38 83.4591 236.976 83.4591 236.976C83.4591 236.976 81.72 239.416 76.9316 236.653Z" fill="white"/>
<path opacity="0.4" d="M89.8115 237.552C93.3574 235.749 94.3901 237.787 94.3901 237.787C94.3901 237.787 93.1615 239.7 89.8115 237.552Z" fill="white"/>
<path opacity="0.4" d="M103.568 237.337C99.7961 235.977 98.7773 237.806 98.7773 237.806C98.7773 237.806 100.127 239.4 103.568 237.337Z" fill="white"/>
<path opacity="0.4" d="M113.555 229.987C110.62 233.734 108.552 231.72 108.552 231.72C108.552 231.72 108.953 228.861 113.555 229.987Z" fill="white"/>
<path opacity="0.4" d="M108.977 235.265C103.785 237.138 102.512 234.419 102.512 234.419C102.512 234.419 104.44 232.129 108.977 235.265Z" fill="white"/>
<path opacity="0.4" d="M67.8047 232.687C72.9008 232.118 73.2715 235.014 73.2715 235.014C73.2715 235.014 70.9426 236.761 67.8047 232.687Z" fill="white"/>
<path opacity="0.4" d="M82.1299 222.243C88.0093 220.604 88.2214 224.585 88.2214 224.585C88.2214 224.585 85.4263 227.402 82.1299 222.243Z" fill="white"/>
</g>
<path opacity="0.15" d="M48.3457 238.44L49.558 253.383L308.578 253.717L312.728 238.44H48.3457Z" fill="#393939"/>
<path d="M48.4902 238.323L312.388 238.557" stroke="#B2B6BB" stroke-width="1.97" stroke-miterlimit="10" stroke-linecap="round"/>
<path d="M237.144 150.585H239.489C239.82 150.585 240.137 150.718 240.371 150.952C240.606 151.187 240.737 151.506 240.737 151.838V193.251H235.895V151.838C235.895 151.674 235.927 151.51 235.99 151.358C236.053 151.206 236.144 151.068 236.261 150.952C236.377 150.835 236.515 150.743 236.666 150.68C236.818 150.617 236.981 150.585 237.144 150.585Z" fill="#828282"/>
<path d="M143.139 150.585H145.47C145.634 150.585 145.796 150.618 145.948 150.681C146.099 150.744 146.237 150.836 146.352 150.952C146.468 151.069 146.56 151.207 146.623 151.359C146.685 151.511 146.718 151.674 146.718 151.838V193.251H141.89V151.838C141.89 151.674 141.922 151.51 141.985 151.358C142.047 151.206 142.14 151.068 142.256 150.952C142.372 150.835 142.51 150.743 142.661 150.68C142.813 150.617 142.975 150.585 143.139 150.585Z" fill="#828282"/>
<g opacity="0.1">
<path opacity="0.1" d="M237.144 150.585H239.489C239.82 150.585 240.137 150.718 240.371 150.952C240.606 151.187 240.737 151.506 240.737 151.838V193.251H235.895V151.838C235.895 151.674 235.927 151.51 235.99 151.358C236.053 151.206 236.144 151.068 236.261 150.952C236.377 150.835 236.515 150.743 236.666 150.68C236.818 150.617 236.981 150.585 237.144 150.585Z" fill="#393939"/>
</g>
<g opacity="0.1">
<path opacity="0.1" d="M143.139 150.585H145.47C145.634 150.585 145.796 150.618 145.948 150.681C146.099 150.744 146.237 150.836 146.352 150.952C146.468 151.069 146.56 151.207 146.623 151.359C146.685 151.511 146.718 151.674 146.718 151.838V193.251H141.89V151.838C141.89 151.674 141.922 151.51 141.985 151.358C142.047 151.206 142.14 151.068 142.256 150.952C142.372 150.835 142.51 150.743 142.661 150.68C142.813 150.617 142.975 150.585 143.139 150.585Z" fill="#393939"/>
</g>
<path d="M255.12 172.832H126.046V181.051H255.12V172.832Z" fill="#828282"/>
<path d="M255.12 162.526H126.046V170.745H255.12V162.526Z" fill="#828282"/>
<path d="M255.12 152.04H126.046V160.259H255.12V152.04Z" fill="#828282"/>
<path d="M255.12 173.85H126.046V182.069H255.12V173.85Z" fill="#B2B6BB"/>
<path d="M255.12 163.546H126.046V171.766H255.12V163.546Z" fill="#B2B6BB"/>
<path d="M255.12 153.059H126.046V161.278H255.12V153.059Z" fill="#B2B6BB"/>
<path d="M261.583 199.386H119.423V205.905H261.583V199.386Z" fill="#828282"/>
<path d="M261.583 199.386H119.423V205.905H261.583V199.386Z" fill="#828282"/>
<path d="M261.583 199.386H119.423L125.886 192.867H255.12L261.583 199.386Z" fill="#B2B6BB"/>
<path d="M139.859 246.879C139.706 246.886 139.552 246.858 139.409 246.802C139.266 246.746 139.137 246.659 139.029 246.549C138.922 246.439 138.838 246.306 138.784 246.163C138.731 246.018 138.708 245.863 138.717 245.709L141.89 205.799H147.168L140.99 245.968C140.938 246.231 140.797 246.465 140.59 246.631C140.383 246.797 140.124 246.886 139.859 246.879Z" fill="#828282"/>
<path d="M243.849 246.676C244.002 246.68 244.156 246.655 244.299 246.598C244.441 246.54 244.569 246.453 244.679 246.343C244.786 246.233 244.867 246.102 244.921 245.957C244.975 245.814 244.998 245.659 244.989 245.505L241.818 205.598H236.542L242.718 245.767C242.772 246.027 242.911 246.261 243.119 246.427C243.326 246.594 243.585 246.683 243.849 246.676Z" fill="#828282"/>
<path d="M231.841 243.332C232.51 243.332 233.037 242.864 232.981 242.334L229.81 205.805H224.532L230.71 242.55C230.794 243.004 231.277 243.332 231.841 243.332Z" fill="#828282"/>
<path d="M152.742 243.332C152.073 243.332 151.546 242.864 151.599 242.334L154.772 205.805H160.05L153.863 242.557C153.784 243.004 153.304 243.332 152.742 243.332Z" fill="#828282"/>
<path d="M238.217 157.719C238.578 157.719 238.872 157.445 238.872 157.108C238.872 156.77 238.578 156.497 238.217 156.497C237.855 156.497 237.562 156.77 237.562 157.108C237.562 157.445 237.855 157.719 238.217 157.719Z" fill="#828282"/>
<path d="M238.217 168.518C238.578 168.518 238.872 168.244 238.872 167.907C238.872 167.569 238.578 167.296 238.217 167.296C237.855 167.296 237.562 167.569 237.562 167.907C237.562 168.244 237.855 168.518 238.217 168.518Z" fill="#828282"/>
<path d="M238.217 178.503C238.578 178.503 238.872 178.23 238.872 177.892C238.872 177.554 238.578 177.281 238.217 177.281C237.855 177.281 237.562 177.554 237.562 177.892C237.562 178.23 237.855 178.503 238.217 178.503Z" fill="#828282"/>
<path d="M144.319 157.719C144.68 157.719 144.974 157.445 144.974 157.108C144.974 156.77 144.68 156.497 144.319 156.497C143.957 156.497 143.664 156.77 143.664 157.108C143.664 157.445 143.957 157.719 144.319 157.719Z" fill="#828282"/>
<path d="M144.319 168.315C144.68 168.315 144.974 168.041 144.974 167.703C144.974 167.366 144.68 167.092 144.319 167.092C143.957 167.092 143.664 167.366 143.664 167.703C143.664 168.041 143.957 168.315 144.319 168.315Z" fill="#828282"/>
<path d="M144.319 178.3C144.68 178.3 144.974 178.026 144.974 177.688C144.974 177.351 144.68 177.077 144.319 177.077C143.957 177.077 143.664 177.351 143.664 177.688C143.664 178.026 143.957 178.3 144.319 178.3Z" fill="#828282"/>
<path opacity="0.1" d="M244.991 245.517L241.839 205.833L236.547 205.65L237.126 209.162L238.58 209.528C239.177 209.677 239.716 210.008 240.116 210.475C240.52 210.943 240.769 211.524 240.832 212.139L243.893 246.671H244.005C244.287 246.645 244.548 246.509 244.732 246.294C244.917 246.079 245.01 245.8 244.991 245.517Z" fill="#393939"/>
<path opacity="0.1" d="M232.981 242.334L229.817 205.894L224.542 205.861L225.497 210.624L227.516 219.899L228.251 220.101C228.746 220.237 229.192 220.515 229.533 220.901C229.874 221.287 230.096 221.765 230.172 222.276L232.396 243.215C232.574 243.152 232.727 243.03 232.833 242.871C232.938 242.714 232.99 242.524 232.981 242.334Z" fill="#393939"/>
<path opacity="0.1" d="M141.915 205.861L141.572 209.345L142.218 209.608C142.818 209.852 143.32 210.291 143.645 210.854C143.97 211.417 144.098 212.073 144.011 212.717L139.952 246.866C140.199 246.854 140.434 246.76 140.622 246.599C140.81 246.437 140.939 246.219 140.99 245.976L147.153 205.887L141.915 205.861Z" fill="#393939"/>
<path opacity="0.1" d="M154.795 205.861L153.397 219.026L154.481 219.494C154.759 219.613 154.991 219.82 155.141 220.084C155.291 220.348 155.35 220.654 155.311 220.955L153.119 243.285C153.297 243.245 153.462 243.156 153.594 243.03C153.726 242.903 153.82 242.742 153.867 242.564L160.029 205.903L154.795 205.861Z" fill="#393939"/>
<path opacity="0.15" d="M195.65 182.885C195.761 182.9 195.872 182.907 195.984 182.908H196.201L195.65 182.885Z" fill="#393939"/>
<path d="M124.545 183.664L124.512 183.818C124.381 183.565 124.225 183.325 124.046 183.102L124.118 183.336C123.638 182.68 122.72 182.699 122.72 182.699L122.85 182.751C121.943 182.69 121.848 183.453 121.848 183.453C122.081 181.467 123.997 179.908 125.986 179.859C126.835 179.824 127.678 180.008 128.436 180.393C129.195 180.778 129.842 181.352 130.317 182.06C130.205 181.905 130.252 181.971 130.205 181.711C130.583 182.269 130.928 182.849 131.238 183.448C131.811 185.165 131.767 186.881 131.238 188.694C130.914 189.804 130.373 190.874 130.249 192.035C130.135 193.119 130.793 193.972 130.781 194.986C130.758 196.932 126.885 194.342 126.338 193.686C124.955 192.047 124.519 189.743 124.734 187.598C124.811 186.813 124.967 186.029 124.918 185.242C124.91 185.108 124.895 184.974 124.871 184.842C124.834 184.433 124.724 184.033 124.545 183.664Z" fill="#61656D"/>
<path opacity="0.2" d="M122.948 182.631C122.948 182.306 122.624 182.643 122.456 182.486C124.512 181.102 125.307 183.809 125.673 185.949C125.822 185.617 125.48 185.142 125.792 184.804C126.34 186.413 125.759 188.228 126.634 189.825C126.62 189.499 126.753 189.27 126.764 189.005C127.464 190.445 127.109 191.654 127.974 193.089C128.28 192.588 127.874 192.548 128.016 192.054C128.104 192.774 128.421 193.445 128.92 193.969C129.418 194.493 130.072 194.841 130.783 194.963V194.988C130.76 196.934 126.888 194.344 126.34 193.689C124.958 192.049 124.522 189.745 124.736 187.6C124.813 186.816 124.969 186.031 124.92 185.245C124.913 185.11 124.897 184.976 124.874 184.844C124.835 184.437 124.724 184.041 124.545 183.673L124.512 183.828C124.381 183.574 124.225 183.334 124.046 183.111L124.118 183.346C123.638 182.69 122.72 182.709 122.72 182.709L122.85 182.76C121.943 182.699 121.848 183.463 121.848 183.463C121.875 183.233 121.924 183.006 121.995 182.786C122.288 182.633 122.622 182.579 122.948 182.631Z" fill="#393939"/>
<path d="M138.29 187.474C138.583 187.463 138.868 187.568 139.084 187.768C139.3 187.967 139.429 188.243 139.444 188.537L137.22 188.624C137.212 188.329 137.319 188.043 137.52 187.828C137.72 187.613 137.997 187.485 138.29 187.474Z" fill="#828282"/>
<path d="M139.444 188.537C139.444 188.537 139.444 188.537 139.444 188.549C139.467 189.167 139.01 190.239 138.395 190.263C137.779 190.286 137.241 189.251 137.229 188.624L139.444 188.537Z" fill="#B2B6BB"/>
<path d="M138.311 188.013C138.328 188.012 138.345 188.008 138.36 188.001C138.376 187.994 138.39 187.984 138.401 187.972C138.412 187.959 138.421 187.945 138.427 187.929C138.433 187.913 138.436 187.896 138.435 187.879L138.41 187.195C138.408 187.161 138.393 187.129 138.367 187.106C138.342 187.082 138.308 187.07 138.274 187.071C138.24 187.073 138.209 187.088 138.186 187.113C138.163 187.138 138.151 187.171 138.152 187.205L138.178 187.891C138.179 187.908 138.183 187.924 138.19 187.94C138.197 187.955 138.207 187.969 138.219 187.98C138.232 187.991 138.246 188 138.262 188.006C138.278 188.011 138.295 188.014 138.311 188.013Z" fill="#828282"/>
<path d="M135.784 196.026C135.655 196.07 135.517 196.109 135.371 196.145C135.371 196.145 135.532 196.091 135.784 196.026Z" stroke="#F4682B" stroke-width="0.7" stroke-miterlimit="10"/>
<path opacity="0.4" d="M137.458 191.87C137.436 191.831 137.425 191.787 137.425 191.743C137.436 191.783 137.446 191.827 137.458 191.87Z" fill="#F1E4D3"/>
<path d="M134.656 191.594C134.35 191.123 134.233 190.554 134.327 190.001C134.421 189.447 134.72 188.95 135.164 188.608C135.676 188.231 136.302 188.044 136.935 188.076C136.947 188.137 136.966 188.226 136.987 188.341C137.088 188.662 137.214 188.976 137.364 189.278C137.306 189.301 137.32 189.371 137.245 189.301C137.245 189.465 137.479 189.664 137.43 189.91C137.405 189.864 137.37 189.824 137.326 189.795C137.282 189.767 137.232 189.75 137.18 189.746C137.34 189.889 137.452 190.079 137.5 190.289C137.547 190.498 137.529 190.718 137.446 190.917C137.446 190.753 137.374 190.563 137.213 190.57C137.507 190.978 137.504 191.61 137.66 192.022C137.591 191.98 137.504 191.966 137.46 191.882C137.46 191.839 137.439 191.797 137.427 191.755C137.427 191.799 137.438 191.843 137.46 191.882C137.646 192.654 137.518 193.181 137.46 193.898C137.335 194.465 137.081 194.995 136.719 195.448C136.237 195.694 135.703 195.816 135.164 195.804C135.622 195.48 135.938 194.991 136.048 194.438C136.157 193.886 136.051 193.313 135.751 192.837C135.446 192.378 134.966 192.041 134.656 191.594Z" fill="#DADDDF"/>
<path d="M129.832 195.625C131.033 197.416 133.278 197.056 133.278 197.056L138.406 196.857C138.446 196.842 138.483 196.82 138.514 196.79C138.546 196.761 138.57 196.726 138.587 196.686C138.604 196.647 138.612 196.605 138.612 196.562C138.612 196.519 138.603 196.477 138.586 196.437C138.542 196.289 138.47 196.15 138.374 196.028C138.001 195.51 136.509 195.829 135.777 196.028C135.641 196.075 135.503 196.115 135.364 196.147C135.364 196.147 135.525 196.093 135.777 196.028C136.132 195.912 136.452 195.709 136.709 195.438C136.228 195.684 135.694 195.806 135.154 195.794C135.612 195.469 135.929 194.98 136.038 194.428C136.148 193.876 136.042 193.302 135.742 192.827C135.473 192.49 135.183 192.171 134.875 191.871C134.798 191.784 134.725 191.694 134.658 191.6C134.353 191.129 134.235 190.56 134.329 190.007C134.424 189.453 134.722 188.956 135.166 188.614C135.678 188.236 136.303 188.047 136.938 188.078C136.677 186.713 136.075 185.169 136.07 185.017C136.07 185.017 133.958 183.91 134.117 185.092C134.275 186.275 132.035 187.965 130.62 189.504C129.205 191.042 128.517 193.656 129.832 195.625Z" fill="#61656D"/>
<path opacity="0.2" d="M135.727 187.666C135.727 187.666 134.116 187.666 133.044 187.062L133.277 186.8C133.277 186.8 134.66 186.94 135.142 187.301C135.625 187.662 135.727 187.666 135.727 187.666Z" fill="#393939"/>
<path d="M131.888 179.92L133.466 181.273C133.491 181.291 133.52 181.301 133.55 181.301C133.581 181.301 133.61 181.291 133.634 181.273C134.231 180.896 136.707 180.805 137.329 181.13C137.356 181.146 137.386 181.153 137.417 181.151C137.447 181.148 137.476 181.136 137.499 181.116L139.08 179.728C139.128 179.685 139.186 179.658 139.249 179.647C139.312 179.637 139.376 179.644 139.435 179.669C139.493 179.693 139.544 179.733 139.581 179.785C139.618 179.837 139.64 179.898 139.644 179.962C139.706 180.451 139.61 180.947 139.371 181.377C139.132 181.808 138.762 182.15 138.315 182.355C138.298 182.364 138.283 182.376 138.271 182.39C138.258 182.405 138.249 182.422 138.243 182.44C138.237 182.458 138.235 182.478 138.237 182.497C138.238 182.516 138.243 182.534 138.252 182.552C138.42 182.912 138.526 183.298 138.565 183.694C138.653 184.305 138.642 185.223 138.782 185.706C138.812 185.813 138.809 185.926 138.772 186.031C138.736 186.136 138.668 186.227 138.579 186.291C138.151 186.606 137.698 186.885 137.224 187.125C137.08 186.788 136.443 186.551 135.688 186.582C134.933 186.612 134.313 186.893 134.196 187.242C133.706 187.039 133.232 186.796 132.781 186.516C132.687 186.458 132.613 186.372 132.569 186.27C132.525 186.169 132.514 186.056 132.536 185.947C132.636 185.455 132.555 184.542 132.597 183.924C132.605 183.523 132.684 183.126 132.83 182.753C132.845 182.719 132.847 182.681 132.834 182.645C132.822 182.611 132.796 182.582 132.762 182.566C132.312 182.359 131.934 182.021 131.678 181.594C131.423 181.168 131.302 180.674 131.331 180.177C131.333 180.113 131.353 180.051 131.388 179.998C131.423 179.944 131.472 179.902 131.53 179.875C131.588 179.848 131.652 179.839 131.716 179.846C131.779 179.854 131.838 179.88 131.888 179.92Z" fill="#61656D"/>
<path d="M135.679 186.582C136.434 186.552 137.078 186.788 137.215 187.125C137.08 187.191 136.942 187.254 136.803 187.308C136.518 187.425 136.278 187.519 136.103 187.589C135.862 187.683 135.597 187.693 135.35 187.62C135.175 187.568 134.938 187.495 134.618 187.385C134.476 187.339 134.334 187.287 134.194 187.233C134.313 186.894 134.931 186.61 135.679 186.582Z" fill="#61656D"/>
<path d="M133.422 190.814C136.236 191.27 137.082 189.5 137.082 189.5C137.814 189.5 138.621 189.221 138.376 188.633C138.357 188.585 138.333 188.538 138.303 188.495C138.021 188.041 137.427 188.048 136.515 188.603C135.52 189.209 133.503 188.214 133.503 188.214L133.422 190.814Z" fill="#61656D"/>
<path d="M135.579 187.008L135.213 186.631C135.195 186.614 135.184 186.591 135.179 186.567C135.174 186.543 135.176 186.518 135.185 186.495C135.195 186.472 135.21 186.452 135.23 186.438C135.251 186.424 135.274 186.417 135.299 186.416L135.998 186.388C136.023 186.387 136.047 186.394 136.069 186.406C136.09 186.419 136.107 186.438 136.117 186.46C136.128 186.482 136.132 186.507 136.129 186.532C136.127 186.556 136.117 186.58 136.101 186.599L135.765 186.994C135.754 187.008 135.741 187.02 135.725 187.028C135.71 187.037 135.693 187.042 135.675 187.043C135.658 187.044 135.64 187.042 135.623 187.036C135.607 187.03 135.592 187.02 135.579 187.008Z" fill="#191317"/>
<g opacity="0.2">
<path opacity="0.2" d="M133.954 181.149C134.952 180.915 135.985 180.875 136.998 181.03C137.023 181.035 137.047 181.046 137.067 181.061C137.088 181.076 137.105 181.095 137.118 181.117C137.132 181.139 137.14 181.163 137.144 181.188C137.148 181.213 137.147 181.239 137.14 181.264C137.14 181.264 136.117 184.437 135.889 185.01C135.69 185.502 135.616 185.385 135.488 185.113C135.208 184.519 133.832 181.402 133.832 181.402C133.822 181.378 133.817 181.351 133.818 181.325C133.819 181.298 133.825 181.272 133.836 181.248C133.848 181.224 133.864 181.203 133.884 181.186C133.905 181.169 133.928 181.156 133.954 181.149Z" fill="#393939"/>
</g>
<path d="M136.943 185.111C136.945 185.179 136.967 185.244 137.007 185.299C137.046 185.354 137.101 185.396 137.164 185.42C137.227 185.443 137.296 185.448 137.362 185.432C137.427 185.416 137.486 185.381 137.532 185.332C137.578 185.282 137.608 185.22 137.619 185.153C137.629 185.086 137.62 185.018 137.592 184.956C137.564 184.895 137.518 184.843 137.46 184.808C137.403 184.772 137.336 184.755 137.269 184.758C137.179 184.761 137.094 184.8 137.033 184.867C136.972 184.933 136.939 185.021 136.943 185.111Z" fill="#191317"/>
<path d="M137.052 185.055C137.052 185.079 137.062 185.101 137.078 185.118C137.095 185.135 137.117 185.144 137.141 185.144C137.164 185.144 137.187 185.135 137.204 185.118C137.221 185.101 137.23 185.079 137.23 185.055C137.228 185.031 137.218 185.009 137.2 184.993C137.183 184.977 137.16 184.968 137.136 184.968C137.114 184.97 137.093 184.98 137.078 184.996C137.062 185.012 137.053 185.033 137.052 185.055Z" fill="#F1E4D3"/>
<path d="M134.401 185.209C134.404 185.277 134.387 185.344 134.351 185.402C134.316 185.459 134.265 185.505 134.204 185.534C134.142 185.562 134.074 185.572 134.008 185.561C133.941 185.55 133.879 185.52 133.83 185.474C133.78 185.428 133.746 185.368 133.73 185.302C133.714 185.237 133.719 185.167 133.742 185.104C133.766 185.041 133.807 184.986 133.862 184.946C133.917 184.906 133.982 184.884 134.049 184.882C134.139 184.878 134.227 184.911 134.292 184.973C134.358 185.034 134.398 185.119 134.401 185.209Z" fill="#191317"/>
<path d="M134.281 185.161C134.281 185.172 134.28 185.184 134.276 185.195C134.272 185.206 134.266 185.216 134.258 185.224C134.25 185.233 134.24 185.24 134.23 185.244C134.219 185.249 134.208 185.252 134.196 185.252C134.179 185.253 134.161 185.249 134.146 185.239C134.131 185.231 134.119 185.217 134.111 185.201C134.104 185.185 134.101 185.167 134.104 185.15C134.107 185.132 134.115 185.116 134.127 185.103C134.139 185.09 134.154 185.081 134.171 185.077C134.189 185.072 134.207 185.074 134.223 185.08C134.239 185.086 134.254 185.097 134.264 185.112C134.274 185.126 134.28 185.143 134.281 185.161Z" fill="#F1E4D3"/>
<path d="M139.383 180.046C139.383 180.046 139.448 181.159 138.217 182.023C138.118 181.965 138.036 181.882 137.98 181.782C137.924 181.682 137.896 181.569 137.898 181.454C137.898 181.454 138.56 180.309 139.383 180.046Z" fill="#DADDDF"/>
<path d="M131.482 180.133C131.482 180.133 131.503 181.248 132.793 182.007C132.888 181.943 132.964 181.854 133.013 181.75C133.061 181.646 133.081 181.531 133.07 181.417C133.07 181.417 132.317 180.337 131.482 180.133Z" fill="#DADDDF"/>
<path opacity="0.2" d="M134.345 190.888C133.827 190.907 133.309 190.851 132.807 190.722C133.314 190.858 133.831 190.96 134.352 191.024H134.38L134.345 190.888Z" fill="#393939"/>
<path opacity="0.2" d="M137.078 189.5C137.81 189.5 138.616 189.221 138.371 188.633C138.353 188.585 138.328 188.538 138.299 188.495C138.299 188.495 138.551 189.109 137.078 189.5Z" fill="#393939"/>
<path opacity="0.2" d="M134.14 196.087C134.484 196.009 134.822 195.911 135.154 195.792C135.613 195.468 135.929 194.979 136.038 194.426C136.148 193.874 136.042 193.301 135.742 192.825C135.473 192.489 135.183 192.17 134.874 191.87C134.93 191.942 135.919 192.968 135.709 194.092C135.635 194.53 135.452 194.942 135.178 195.291C134.904 195.639 134.547 195.913 134.14 196.087Z" fill="#393939"/>
</svg>
