<svg width="24" height="24" viewBox="0 0 24 24" fill="none" xmlns="http://www.w3.org/2000/svg">
<path fill-rule="evenodd" clip-rule="evenodd" d="M12 6.10059C15.0788 6.10062 17.303 7.66534 18.8382 9.38311C19.6044 10.2403 20.1677 11.1048 20.5386 11.7558C20.5881 11.8427 20.6339 11.9254 20.6761 12.0033C20.6345 12.0806 20.5893 12.1626 20.5405 12.2487C20.1722 12.8989 19.612 13.7624 18.8485 14.6187C17.3196 16.3332 15.096 17.8996 12 17.8996C8.90406 17.8996 6.68043 16.3332 5.15157 14.6187C4.38799 13.7624 3.8278 12.8989 3.45955 12.2487C3.41075 12.1626 3.36555 12.0806 3.32391 12.0033C3.36613 11.9253 3.41198 11.8426 3.46148 11.7557C3.83231 11.1048 4.39569 10.2403 5.16181 9.38304C6.69701 7.66526 8.92125 6.10055 12 6.10059ZM12 19.8996C4.2896 19.8996 1.10052 12.0001 1.10052 12.0001C1.10052 12.0001 4.3208 4.1005 12 4.10059C19.6792 4.10067 22.8995 12.0001 22.8995 12.0001C22.8995 12.0001 19.7104 19.8996 12 19.8996ZM2.95401 11.2487L2.95424 11.2491L2.95291 11.246L2.9532 11.2467L2.95401 11.2487ZM2.95066 12.7597L2.95176 12.7571L2.95146 12.7577L2.95066 12.7597ZM21.0468 11.2467L21.0458 11.2491L21.046 11.2487L21.0468 11.2467ZM21.0486 12.7577L21.0483 12.7571L21.0494 12.7597L21.0486 12.7577ZM13.9999 12C13.9999 13.1046 13.1045 14 11.9999 14C10.8954 14 9.99994 13.1046 9.99994 12C9.99994 10.8954 10.8954 10 11.9999 10C13.1045 10 13.9999 10.8954 13.9999 12ZM15.9999 12C15.9999 14.2091 14.2091 16 11.9999 16C9.7908 16 7.99994 14.2091 7.99994 12C7.99994 9.79086 9.7908 8 11.9999 8C14.2091 8 15.9999 9.79086 15.9999 12Z" fill="currentColor"/>
</svg>
