<svg width="16" height="12" viewBox="0 0 16 12" fill="none" xmlns="http://www.w3.org/2000/svg">
<path d="M15.6822 5.54037C13.9894 1.9743 11.4305 0.179657 8.0001 0.179657C4.56796 0.179657 2.01082 1.9743 0.31796 5.54216C0.250059 5.68594 0.214844 5.84297 0.214844 6.00198C0.214844 6.16098 0.250059 6.31802 0.31796 6.4618C2.01082 10.0279 4.56975 11.8225 8.0001 11.8225C11.4322 11.8225 13.9894 10.0279 15.6822 6.46001C15.8197 6.17073 15.8197 5.83501 15.6822 5.54037ZM8.0001 10.5368C5.11975 10.5368 3.01082 9.07609 1.52332 6.00109C3.01082 2.92609 5.11975 1.46537 8.0001 1.46537C10.8805 1.46537 12.9894 2.92609 14.4769 6.00109C12.9912 9.07609 10.8822 10.5368 8.0001 10.5368ZM7.92868 2.85823C6.19296 2.85823 4.78582 4.26537 4.78582 6.00109C4.78582 7.7368 6.19296 9.14394 7.92868 9.14394C9.66439 9.14394 11.0715 7.7368 11.0715 6.00109C11.0715 4.26537 9.66439 2.85823 7.92868 2.85823ZM7.92868 8.00109C6.82332 8.00109 5.92868 7.10644 5.92868 6.00109C5.92868 4.89573 6.82332 4.00109 7.92868 4.00109C9.03403 4.00109 9.92868 4.89573 9.92868 6.00109C9.92868 7.10644 9.03403 8.00109 7.92868 8.00109Z" fill="#080908"/>
</svg>
