<svg width="16" height="16" viewBox="0 0 16 16" fill="none" xmlns="http://www.w3.org/2000/svg">
<path d="M15.6822 7.53761C15.0545 6.21511 14.3075 5.13654 13.4412 4.3019L12.5326 5.21047C13.2735 5.91851 13.9189 6.84476 14.4769 7.99833C12.9912 11.0733 10.8822 12.534 8.0001 12.534C7.13498 12.534 6.33814 12.4008 5.60957 12.1344L4.6251 13.1189C5.63701 13.5861 6.76201 13.8198 8.0001 13.8198C11.4322 13.8198 13.993 12.0323 15.6822 8.45726C15.7502 8.31348 15.7854 8.15645 15.7854 7.99744C15.7854 7.83843 15.7502 7.68139 15.6822 7.53761V7.53761ZM14.5471 1.8119L13.7858 1.04976C13.7726 1.03647 13.7568 1.02594 13.7395 1.01875C13.7221 1.01156 13.7035 1.00786 13.6847 1.00786C13.666 1.00786 13.6474 1.01156 13.63 1.01875C13.6127 1.02594 13.5969 1.03647 13.5837 1.04976L11.6306 3.0019C10.5539 2.4519 9.34367 2.1769 8.0001 2.1769C4.56796 2.1769 2.00725 3.9644 0.31796 7.5394C0.250059 7.68318 0.214844 7.84021 0.214844 7.99922C0.214844 8.15823 0.250059 8.31526 0.31796 8.45904C0.992841 9.88047 1.80534 11.0198 2.75546 11.8771L0.865818 13.7662C0.839047 13.793 0.824009 13.8293 0.824009 13.8672C0.824009 13.905 0.839047 13.9414 0.865818 13.9682L1.62814 14.7305C1.65493 14.7572 1.69125 14.7723 1.72912 14.7723C1.76699 14.7723 1.80331 14.7572 1.8301 14.7305L14.5471 2.01404C14.5604 2.00077 14.5709 1.98502 14.5781 1.96768C14.5853 1.95033 14.589 1.93174 14.589 1.91297C14.589 1.8942 14.5853 1.87561 14.5781 1.85827C14.5709 1.84092 14.5604 1.82517 14.5471 1.8119ZM1.52332 7.99833C3.01082 4.92333 5.11975 3.46261 8.0001 3.46261C8.97403 3.46261 9.85957 3.62976 10.663 3.96958L9.4076 5.22494C8.81308 4.90773 8.13235 4.79 7.46583 4.88912C6.7993 4.98825 6.18229 5.29897 5.7058 5.77546C5.22932 6.25194 4.91859 6.86896 4.81947 7.53548C4.72035 8.202 4.83807 8.88274 5.15528 9.47726L3.66564 10.9669C2.84117 10.2392 2.13046 9.25333 1.52332 7.99833ZM5.92867 7.99833C5.92899 7.68344 6.00357 7.37307 6.14637 7.09243C6.28917 6.81179 6.49616 6.56879 6.75052 6.38317C7.00487 6.19755 7.29943 6.07455 7.61026 6.02415C7.92108 5.97376 8.23941 5.9974 8.53939 6.09315L6.0235 8.60904C5.96044 8.41161 5.92845 8.20558 5.92867 7.99833V7.99833Z" fill="currentColor"/>
<path d="M7.92898 10.0012C7.8672 10.0012 7.80631 9.99836 7.74595 9.99282L6.80273 10.936C7.37004 11.1533 7.98813 11.2016 8.58229 11.075C9.17645 10.9485 9.72123 10.6526 10.1508 10.223C10.5803 9.79346 10.8763 9.24868 11.0028 8.65452C11.1293 8.06036 11.0811 7.44227 10.8638 6.87497L9.92059 7.81818C9.92613 7.87854 9.92898 7.93943 9.92898 8.00122C9.92912 8.2639 9.87749 8.52403 9.77703 8.76675C9.67657 9.00946 9.52926 9.23 9.34351 9.41574C9.15777 9.60149 8.93723 9.7488 8.69452 9.84926C8.4518 9.94972 8.19167 10.0014 7.92898 10.0012V10.0012Z" fill="currentColor"/>
</svg>
