<svg width="24" height="24" viewBox="0 0 24 24" fill="none" xmlns="http://www.w3.org/2000/svg">
<mask id="mask0_4460_997" style="mask-type:alpha" maskUnits="userSpaceOnUse" x="0" y="0" width="24" height="24">
<rect width="24" height="24" fill="#D9D9D9"/>
</mask>
<g mask="url(#mask0_4460_997)">
<path d="M6.5 13.5V19.5C6.5 19.7833 6.40417 20.0208 6.2125 20.2125C6.02083 20.4042 5.78333 20.5 5.5 20.5C5.21667 20.5 4.97917 20.4042 4.7875 20.2125C4.59583 20.0208 4.5 19.7833 4.5 19.5V4.5C4.5 4.21667 4.59583 3.97917 4.7875 3.7875C4.97917 3.59583 5.21667 3.5 5.5 3.5H12.675C12.9083 3.5 13.1167 3.575 13.3 3.725C13.4833 3.875 13.6 4.06667 13.65 4.3L13.9 5.5H18.5C18.7833 5.5 19.0208 5.59583 19.2125 5.7875C19.4042 5.97917 19.5 6.21667 19.5 6.5V14.5C19.5 14.7833 19.4042 15.0208 19.2125 15.2125C19.0208 15.4042 18.7833 15.5 18.5 15.5H13.325C13.0917 15.5 12.8833 15.425 12.7 15.275C12.5167 15.125 12.4 14.9333 12.35 14.7L12.1 13.5H6.5ZM14.15 13.5H17.5V7.5H13.075C12.8417 7.5 12.6333 7.425 12.45 7.275C12.2667 7.125 12.15 6.93333 12.1 6.7L11.85 5.5H6.5V11.5H12.925C13.1583 11.5 13.3667 11.575 13.55 11.725C13.7333 11.875 13.85 12.0667 13.9 12.3L14.15 13.5Z" fill="currentColor"/>
</g>
</svg>
