<svg width="24" height="24" viewBox="0 0 24 24" fill="none" xmlns="http://www.w3.org/2000/svg">
<path d="M7.875 18C6.59167 18 5.61667 17.525 4.95 16.575C4.28333 15.625 3.96667 14.5583 4 13.375L3.55 12.7C3.36667 12.4167 3.0625 11.775 2.6375 10.775C2.2125 9.775 2 8.51667 2 7C2 5.28333 2.425 3.85417 3.275 2.7125C4.125 1.57083 5.2 1 6.5 1C7.91667 1 9.02083 1.62917 9.8125 2.8875C10.6042 4.14583 11 5.51667 11 7C11 7.96667 10.8667 8.85833 10.6 9.675C10.3333 10.4917 10.1 11.15 9.9 11.65L10.1 11.975C10.2333 12.2083 10.4167 12.5792 10.65 13.0875C10.8833 13.5958 11 14.125 11 14.675C11 15.625 10.7042 16.4167 10.1125 17.05C9.52083 17.6833 8.775 18 7.875 18ZM5.25 11.6L8 11.05C8.21667 10.5167 8.4375 9.90833 8.6625 9.225C8.8875 8.54167 9 7.8 9 7C9 6 8.77083 5.08333 8.3125 4.25C7.85417 3.41667 7.25 3 6.5 3C5.75 3 5.14583 3.41667 4.6875 4.25C4.22917 5.08333 4 6 4 7C4 8.05 4.14583 8.97917 4.4375 9.7875C4.72917 10.5958 5 11.2 5.25 11.6ZM7.875 16C8.19167 16 8.45833 15.8833 8.675 15.65C8.89167 15.4167 9 15.0917 9 14.675C9 14.3917 8.93333 14.1 8.8 13.8C8.66667 13.5 8.53333 13.2333 8.4 13L6 13.5C6 14.1667 6.14583 14.75 6.4375 15.25C6.72917 15.75 7.20833 16 7.875 16ZM16.125 23C15.225 23 14.4792 22.6833 13.8875 22.05C13.2958 21.4167 13 20.625 13 19.675C13 19.125 13.1167 18.5958 13.35 18.0875C13.5833 17.5792 13.7667 17.2083 13.9 16.975L14.1 16.65C13.9 16.15 13.6667 15.4917 13.4 14.675C13.1333 13.8583 13 12.9667 13 12C13 10.5167 13.3958 9.14583 14.1875 7.8875C14.9792 6.62917 16.0833 6 17.5 6C18.8 6 19.875 6.57083 20.725 7.7125C21.575 8.85417 22 10.2833 22 12C22 13.5167 21.7875 14.7708 21.3625 15.7625C20.9375 16.7542 20.6333 17.3917 20.45 17.675L20 18.375C20.0167 19.5583 19.6958 20.625 19.0375 21.575C18.3792 22.525 17.4083 23 16.125 23ZM18.75 16.6C19 16.2 19.2708 15.6 19.5625 14.8C19.8542 14 20 13.0667 20 12C20 11 19.7708 10.0833 19.3125 9.25C18.8542 8.41667 18.25 8 17.5 8C16.75 8 16.1458 8.41667 15.6875 9.25C15.2292 10.0833 15 11 15 12C15 12.8 15.1125 13.5375 15.3375 14.2125C15.5625 14.8875 15.7833 15.5 16 16.05L18.75 16.6ZM16.125 21C16.7917 21 17.2708 20.75 17.5625 20.25C17.8542 19.75 18 19.1667 18 18.5L15.6 18C15.4667 18.2333 15.3333 18.5 15.2 18.8C15.0667 19.1 15 19.3917 15 19.675C15 20.0083 15.1042 20.3125 15.3125 20.5875C15.5208 20.8625 15.7917 21 16.125 21Z" fill="currentColor"/>
</svg>
