<svg width="20" height="20" viewBox="0 0 20 20" fill="none" xmlns="http://www.w3.org/2000/svg">
<g clip-path="url(#clip0)">
<path d="M17.3774 2.53327C13.8345 1.58406 10.4329 8.19387 11.5329 12.8281C11.5856 13.0498 11.7556 13.2248 11.9758 13.2838L16.6801 14.5443C16.8986 14.6029 17.134 14.5378 17.2915 14.371C20.5825 10.8854 20.8907 3.47469 17.3774 2.53327ZM16.6312 13.2472L12.6667 12.185C12.4724 11.0636 12.5585 9.73564 12.9164 8.3999C14.0674 4.10457 17.523 1.79006 18.4742 5.65882C19.0638 8.05725 18.1862 11.3826 16.6312 13.2472Z" fill="currentColor"/>
<path d="M16.1034 15.6738L11.9105 14.5504C11.5797 14.4618 11.2396 14.6581 11.151 14.9888L10.7497 16.4863C10.3514 17.9726 11.2366 19.5057 12.7229 19.904C14.2126 20.3032 15.7415 19.4207 16.1406 17.9309L16.5419 16.4334C16.6305 16.1028 16.4342 15.7625 16.1034 15.6738ZM14.9427 17.6098C14.721 18.4372 13.8717 18.928 13.044 18.706C12.2182 18.4848 11.7265 17.633 11.9477 16.8073L12.1885 15.9088L15.1834 16.7113L14.9427 17.6098Z" fill="currentColor"/>
<path d="M8.47663 10.3817C9.16074 7.49971 8.09197 3.52595 6.03972 1.38681C3.80198 -0.945768 1.1142 -0.269528 0.331024 2.91645C-0.375989 5.79244 0.682476 9.76876 2.71806 11.9248C2.87483 12.0908 3.10958 12.1568 3.32945 12.098L8.03375 10.8375C8.25393 10.7785 8.424 10.6035 8.47663 10.3817ZM7.34286 9.73861L3.37837 10.8009C2.64949 9.92693 2.06007 8.73382 1.70215 7.39809C0.556437 3.12198 2.37362 -0.643111 5.14474 2.24536C6.83444 4.00666 7.76319 7.31201 7.34286 9.73861Z" fill="currentColor"/>
<path d="M8.85854 12.5425C8.77013 12.2125 8.43058 12.0153 8.09905 12.104L3.90611 13.2275C3.57528 13.3161 3.37897 13.6562 3.46765 13.987L3.86891 15.4845C4.20257 16.7298 5.33293 17.553 6.56499 17.553C8.38725 17.553 9.73771 15.8236 9.25979 14.04L8.85854 12.5425ZM6.96562 16.2596C6.1399 16.481 5.28813 15.9891 5.06686 15.1635L4.82614 14.2649L7.82108 13.4624L8.0618 14.3609C8.28357 15.1885 7.79333 16.0379 6.96562 16.2596Z" fill="currentColor"/>
</g>
<defs>
<clipPath id="clip0">
<rect width="20" height="20" fill="white"/>
</clipPath>
</defs>
</svg>
