<svg width="24" height="24" viewBox="0 0 24 24" fill="none" xmlns="http://www.w3.org/2000/svg">
<mask id="mask0_4460_987" style="mask-type:alpha" maskUnits="userSpaceOnUse" x="0" y="0" width="24" height="24">
<rect width="24" height="24" fill="#D9D9D9"/>
</mask>
<g mask="url(#mask0_4460_987)">
<path d="M7.00002 21V18H1.82502C1.42502 18 1.13335 17.825 0.950016 17.475C0.766683 17.125 0.78335 16.7833 1.00002 16.45L3.85002 12C3.46668 12 3.17918 11.8292 2.98752 11.4875C2.79585 11.1458 2.81668 10.8083 3.05002 10.475L8.17502 3.175C8.37502 2.89167 8.65002 2.75 9.00002 2.75C9.35002 2.75 9.62502 2.89167 9.82502 3.175L12 6.3L14.175 3.175C14.375 2.89167 14.65 2.75 15 2.75C15.35 2.75 15.625 2.89167 15.825 3.175L20.95 10.475C21.1834 10.8083 21.2042 11.1458 21.0125 11.4875C20.8209 11.8292 20.5333 12 20.15 12L23 16.45C23.2167 16.7833 23.2333 17.125 23.05 17.475C22.8667 17.825 22.575 18 22.175 18H17V21C17 21.2833 16.9042 21.5208 16.7125 21.7125C16.5209 21.9042 16.2834 22 16 22H14C13.7167 22 13.4792 21.9042 13.2875 21.7125C13.0958 21.5208 13 21.2833 13 21V18H11V21C11 21.2833 10.9042 21.5208 10.7125 21.7125C10.5208 21.9042 10.2833 22 10 22H8.00002C7.71668 22 7.47918 21.9042 7.28752 21.7125C7.09585 21.5208 7.00002 21.2833 7.00002 21ZM16.725 16H20.35L16.475 10H18.15L15 5.5L13.225 8.025L14.95 10.475C15.1834 10.8083 15.2042 11.1458 15.0125 11.4875C14.8209 11.8292 14.5333 12 14.15 12L16.725 16ZM3.65002 16H14.35L10.475 10H12.15L9.00002 5.5L5.85002 10H7.52502L3.65002 16ZM3.65002 16H7.52502H5.85002H12.15H10.475H14.35H3.65002ZM16.725 16H14.15H16H13.225H18.15H16.475H20.35H16.725Z" fill="currentColor"/>
</g>
</svg>
