<svg width="20" height="20" viewBox="0 0 20 20" fill="none" xmlns="http://www.w3.org/2000/svg">
    <path d="M19.7875 10.2252C19.7875 9.56683 19.7292 8.94183 19.6292 8.3335H10.2125V12.0918H15.6042C15.3625 13.3252 14.6542 14.3668 13.6042 15.0752V17.5752H16.8208C18.7042 15.8335 19.7875 13.2668 19.7875 10.2252Z" fill="#4285F4"/>
    <path d="M10.2125 19.9999C12.9125 19.9999 15.1708 19.0999 16.8208 17.5749L13.6042 15.0749C12.7042 15.6749 11.5625 16.0415 10.2125 16.0415C7.60417 16.0415 5.39583 14.2832 4.60417 11.9082H1.2875V14.4832C2.92917 17.7499 6.30417 19.9999 10.2125 19.9999Z" fill="#34A853"/>
    <path d="M4.60417 11.9083C4.39583 11.3083 4.2875 10.6666 4.2875 9.99993C4.2875 9.33327 4.40417 8.6916 4.60417 8.0916V5.5166H1.2875C0.604167 6.8666 0.212502 8.38327 0.212502 9.99993C0.212502 11.6166 0.604167 13.1333 1.2875 14.4833L4.60417 11.9083Z" fill="#FBBC05"/>
    <path d="M10.2125 3.95833C11.6875 3.95833 13.0042 4.46667 14.0458 5.45834L16.8958 2.60833C15.1708 0.991668 12.9125 0 10.2125 0C6.30417 0 2.92917 2.25 1.2875 5.51667L4.60417 8.09167C5.39583 5.71667 7.60417 3.95833 10.2125 3.95833Z" fill="#EA4335"/>
</svg>
