<svg width="24" height="24" viewBox="0 0 24 24" fill="none" xmlns="http://www.w3.org/2000/svg">
<path d="M12 10.3636V13.8491H16.8437C16.631 14.97 15.9927 15.9191 15.0354 16.5574L17.9562 18.8237C19.6581 17.2528 20.6399 14.9455 20.6399 12.2046C20.6399 11.5665 20.5827 10.9528 20.4762 10.3637L12 10.3636Z" fill="#4285F4"/>
<path d="M6.95596 13.713L6.29719 14.2173L3.96533 16.0336C5.44624 18.9709 8.48147 21.0001 11.9996 21.0001C14.4296 21.0001 16.4669 20.1982 17.9559 18.8237L15.035 16.5572C14.2332 17.0972 13.2105 17.4245 11.9996 17.4245C9.65963 17.4245 7.67152 15.8455 6.95965 13.7182L6.95596 13.713Z" fill="#34A853"/>
<path d="M3.96538 7.96631C3.35178 9.17717 3 10.5435 3 11.9999C3 13.4562 3.35178 14.8226 3.96538 16.0334C3.96538 16.0415 6.95997 13.7098 6.95997 13.7098C6.77997 13.1698 6.67357 12.5971 6.67357 11.9998C6.67357 11.4024 6.77997 10.8297 6.95997 10.2898L3.96538 7.96631Z" fill="#FBBC05"/>
<path d="M11.9998 6.58364C13.3253 6.58364 14.5034 7.04179 15.4443 7.92544L18.0216 5.34821C16.4589 3.89187 14.4298 3 11.9998 3C8.48165 3 5.44624 5.02091 3.96533 7.96637L6.95984 10.29C7.67161 8.1627 9.65981 6.58364 11.9998 6.58364Z" fill="#EA4335"/>
</svg>
