<svg width="16" height="16" viewBox="0 0 16 16" fill="none" xmlns="http://www.w3.org/2000/svg">
<path d="M7.99988 6.90906V9.23269H11.229C11.0872 9.97996 10.6617 10.6127 10.0235 11.0382L11.9707 12.5491C13.1053 11.5018 13.7598 9.96365 13.7598 8.13639C13.7598 7.71094 13.7217 7.30181 13.6507 6.90912L7.99988 6.90906Z" fill="#4285F4"/>
<path d="M4.6373 9.14197L4.19812 9.47816L2.64355 10.689C3.63082 12.6472 5.65431 14 7.99974 14C9.6197 14 10.9779 13.4654 11.9706 12.5491L10.0233 11.0381C9.4888 11.3981 8.80698 11.6163 7.99974 11.6163C6.43975 11.6163 5.11434 10.5636 4.63976 9.14543L4.6373 9.14197Z" fill="#34A853"/>
<path d="M2.64359 5.31091C2.23452 6.11815 2 7.02907 2 7.99996C2 8.97085 2.23452 9.88178 2.64359 10.689C2.64359 10.6944 4.63998 9.13993 4.63998 9.13993C4.51998 8.77993 4.44905 8.39813 4.44905 7.9999C4.44905 7.60167 4.51998 7.21987 4.63998 6.85988L2.64359 5.31091Z" fill="#FBBC05"/>
<path d="M7.99986 4.38909C8.88351 4.38909 9.66895 4.69453 10.2962 5.28363L12.0144 3.56547C10.9726 2.59458 9.61988 2 7.99986 2C5.65443 2 3.63082 3.34727 2.64355 5.31091L4.63989 6.86C5.1144 5.4418 6.43987 4.38909 7.99986 4.38909Z" fill="#EA4335"/>
</svg>
