<svg width="48" height="50" viewBox="0 0 48 50" fill="none" xmlns="http://www.w3.org/2000/svg">
<g filter="url(#filter0_d_4331_19189)">
<path d="M0 2C0 0.895431 0.895431 0 2 0H46C47.1046 0 48 0.895431 48 2V46C48 47.1046 47.1046 48 46 48H2C0.895431 48 0 47.1046 0 46V2Z" fill="#FF565E"/>
<path d="M31.4127 22.6024H24.1544V25.5857H28.3009C28.1221 26.5499 27.5797 27.3656 26.762 27.912C26.071 28.3741 25.189 28.6473 24.1524 28.6473C22.1455 28.6473 20.448 27.2912 19.8413 25.4691C19.6886 25.0071 19.6002 24.5129 19.6002 24.0046C19.6002 23.4964 19.6886 23.0022 19.8413 22.5401C20.45 20.72 22.1475 19.364 24.1544 19.364C25.2855 19.364 26.3 19.7537 27.0995 20.5171L29.3093 18.3053C27.9734 17.0598 26.2317 16.2964 24.1544 16.2964C21.1431 16.2964 18.5375 18.024 17.2698 20.5432C16.7475 21.5839 16.4502 22.7611 16.4502 24.0066C16.4502 25.2522 16.7475 26.4274 17.2698 27.468C18.5375 29.9872 21.1431 31.7149 24.1544 31.7149C26.2357 31.7149 27.9794 31.0238 29.2531 29.8466C30.7096 28.5046 31.5513 26.5278 31.5513 24.1794C31.5513 23.633 31.5031 23.1086 31.4127 22.6024Z" fill="white"/>
<path d="M2 1H46V-1H2V1ZM47 2V46H49V2H47ZM46 47H2V49H46V47ZM1 46V2H-1V46H1ZM2 47C1.44772 47 1 46.5523 1 46H-1C-1 47.6569 0.343147 49 2 49V47ZM47 46C47 46.5523 46.5523 47 46 47V49C47.6569 49 49 47.6569 49 46H47ZM46 1C46.5523 1 47 1.44772 47 2H49C49 0.343145 47.6569 -1 46 -1V1ZM2 -1C0.343145 -1 -1 0.343147 -1 2H1C1 1.44772 1.44772 1 2 1V-1Z" fill="#FF565E"/>
</g>
<defs>
<filter id="filter0_d_4331_19189" x="0" y="0" width="48" height="50" filterUnits="userSpaceOnUse" color-interpolation-filters="sRGB">
<feFlood flood-opacity="0" result="BackgroundImageFix"/>
<feColorMatrix in="SourceAlpha" type="matrix" values="0 0 0 0 0 0 0 0 0 0 0 0 0 0 0 0 0 0 127 0" result="hardAlpha"/>
<feOffset dy="2"/>
<feColorMatrix type="matrix" values="0 0 0 0 0 0 0 0 0 0 0 0 0 0 0 0 0 0 0.043 0"/>
<feBlend mode="normal" in2="BackgroundImageFix" result="effect1_dropShadow_4331_19189"/>
<feBlend mode="normal" in="SourceGraphic" in2="effect1_dropShadow_4331_19189" result="shape"/>
</filter>
</defs>
</svg>
