<svg width="20" height="20" viewBox="0 0 20 20" fill="none" xmlns="http://www.w3.org/2000/svg">
<path d="M4.14575 12.5C3.90964 12.5 3.7152 12.4202 3.56242 12.2604C3.40964 12.1007 3.33325 11.9028 3.33325 11.6667C3.33325 11.4306 3.41311 11.2327 3.57284 11.0729C3.73256 10.9132 3.93047 10.8334 4.16659 10.8334H15.8541C16.0902 10.8334 16.2846 10.9132 16.4374 11.0729C16.5902 11.2327 16.6666 11.4306 16.6666 11.6667C16.6666 11.9028 16.5867 12.1007 16.427 12.2604C16.2673 12.4202 16.0694 12.5 15.8333 12.5H4.14575ZM4.14575 15.8334C3.90964 15.8334 3.7152 15.7535 3.56242 15.5938C3.40964 15.434 3.33325 15.2361 3.33325 15C3.33325 14.7639 3.41311 14.566 3.57284 14.4063C3.73256 14.2465 3.93047 14.1667 4.16659 14.1667H15.8541C16.0902 14.1667 16.2846 14.2465 16.4374 14.4063C16.5902 14.566 16.6666 14.7639 16.6666 15C16.6666 15.2361 16.5867 15.434 16.427 15.5938C16.2673 15.7535 16.0694 15.8334 15.8333 15.8334H4.14575ZM4.14575 9.16669C3.90964 9.16669 3.7152 9.08683 3.56242 8.9271C3.40964 8.76738 3.33325 8.56946 3.33325 8.33335C3.33325 8.09724 3.41311 7.89933 3.57284 7.7396C3.73256 7.57988 3.93047 7.50002 4.16659 7.50002H15.8541C16.0902 7.50002 16.2846 7.57988 16.4374 7.7396C16.5902 7.89933 16.6666 8.09724 16.6666 8.33335C16.6666 8.56946 16.5867 8.76738 16.427 8.9271C16.2673 9.08683 16.0694 9.16669 15.8333 9.16669H4.14575ZM4.14575 5.83335C3.90964 5.83335 3.7152 5.75349 3.56242 5.59377C3.40964 5.43405 3.33325 5.23613 3.33325 5.00002C3.33325 4.76391 3.41311 4.56599 3.57284 4.40627C3.73256 4.24655 3.93047 4.16669 4.16659 4.16669H15.8541C16.0902 4.16669 16.2846 4.24655 16.4374 4.40627C16.5902 4.56599 16.6666 4.76391 16.6666 5.00002C16.6666 5.23613 16.5867 5.43405 16.427 5.59377C16.2673 5.75349 16.0694 5.83335 15.8333 5.83335H4.14575Z" fill="currentColor"/>
</svg>
