<svg width="16" height="22" viewBox="0 0 16 22" fill="none" xmlns="http://www.w3.org/2000/svg">
<path d="M9.7498 4.25C10.8498 4.25 11.7498 3.35 11.7498 2.25C11.7498 1.15 10.8498 0.25 9.7498 0.25C8.6498 0.25 7.7498 1.15 7.7498 2.25C7.7498 3.35 8.6498 4.25 9.7498 4.25ZM13.7498 9.53C12.5198 9.16 11.5298 8.36 10.9498 7.35L9.9498 5.75C9.5398 5.1 8.8398 4.75 8.1098 4.75C7.3298 4.75 6.5198 5.25 6.3298 6.19C6.1398 7.13 3.2498 21.75 3.2498 21.75H5.3498L7.1498 13.75L9.2498 15.75V21.75H11.2498V14.25L9.1498 12.25L9.7498 9.25C10.7498 10.4 12.1598 11.26 13.7498 11.59V21.75H15.2498V7.75H13.7498V9.53ZM3.6798 11.88L1.5598 11.47C1.0198 11.36 0.6598 10.84 0.7698 10.3L1.5298 6.37C1.7398 5.29 2.7898 4.58 3.8698 4.79L5.0298 5.02L3.6798 11.88Z" fill="currentColor"/>
</svg>
