<svg width="24" height="24" viewBox="0 0 24 24" fill="none" xmlns="http://www.w3.org/2000/svg">
<path fill-rule="evenodd" clip-rule="evenodd" d="M12.1056 4.57383C12.0276 4.4959 11.9012 4.49585 11.8231 4.57372L6.0022 10.3775V18.9102C6.0022 19.4624 6.44991 19.9102 7.0022 19.9102H17.0008C17.5531 19.9102 18.0008 19.4624 18.0008 18.9102V10.4606L12.1056 4.57383ZM3.4651 12.9072L4.0022 12.3717V18.9102C4.0022 20.567 5.34534 21.9102 7.0022 21.9102H17.0008C18.6577 21.9102 20.0008 20.567 20.0008 18.9102V12.4577L20.5353 12.9914C20.9261 13.3816 21.5593 13.3811 21.9495 12.9903C22.3398 12.5995 22.3393 11.9664 21.9485 11.5761L19.0002 8.63213V4.50021C19.0002 4.22407 18.7764 4.00021 18.5002 4.00021H17.5032C17.227 4.00021 17.0032 4.22407 17.0032 4.50021V6.63794L13.5188 3.15859C12.6604 2.30139 11.27 2.30087 10.4109 3.15743L2.05297 11.4909C1.66187 11.8808 1.66094 12.514 2.05089 12.9051C2.44084 13.2962 3.074 13.2971 3.4651 12.9072Z" fill="currentColor"/>
</svg>
