<svg width="20" height="18" viewBox="0 0 20 18" fill="none" xmlns="http://www.w3.org/2000/svg">
<path d="M19.0781 8.89982L11.0165 0.842397L10.4762 0.302036C10.353 0.179728 10.1865 0.111084 10.013 0.111084C9.83946 0.111084 9.67296 0.179728 9.54983 0.302036L0.947875 8.89982C0.821716 9.02549 0.722011 9.17516 0.654645 9.33999C0.587278 9.50482 0.553616 9.68148 0.555644 9.85954C0.563989 10.5939 1.17529 11.1802 1.90968 11.1802H2.79637V17.9754H17.2296V11.1802H18.1351C18.4919 11.1802 18.8278 11.0404 19.0802 10.788C19.2045 10.6641 19.303 10.5167 19.37 10.3545C19.4369 10.1923 19.4711 10.0184 19.4704 9.84285C19.4704 9.48817 19.3306 9.15227 19.0781 8.89982ZM11.1813 16.4732H8.84465V12.2171H11.1813V16.4732ZM15.7275 9.67803V16.4732H12.5166V11.7164C12.5166 11.2553 12.1431 10.8818 11.6821 10.8818H8.34393C7.88285 10.8818 7.5094 11.2553 7.5094 11.7164V16.4732H4.29853V9.67803H2.29565L10.0151 1.96485L10.497 2.44679L17.7324 9.67803H15.7275Z" fill="#777777"/>
</svg>
