<svg width="24" height="22" viewBox="0 0 24 22" fill="none" xmlns="http://www.w3.org/2000/svg">
<path d="M0.59375 11.0898C0.59375 11.5586 0.964844 11.8418 1.42383 11.8418C1.69727 11.8418 1.93164 11.7051 2.12695 11.5098L11.6582 2.82812C11.7656 2.7207 11.8828 2.68164 12 2.68164C12.127 2.68164 12.2344 2.7207 12.3516 2.82812L21.873 11.5098C22.0684 11.7051 22.293 11.8418 22.5762 11.8418C23.0352 11.8418 23.4062 11.5586 23.4062 11.0898C23.4062 10.7969 23.2891 10.6113 23.1133 10.4453L19.7344 7.36914V1.59766C19.7344 1.16797 19.4512 0.894531 19.0312 0.894531H17.752C17.3223 0.894531 17.0391 1.16797 17.0391 1.59766V4.91797L13.1719 1.38281C12.8203 1.06055 12.4102 0.904297 12 0.904297C11.5898 0.904297 11.1797 1.06055 10.8281 1.38281L0.886719 10.4453C0.710938 10.6113 0.59375 10.7969 0.59375 11.0898ZM3.38672 19.2832C3.38672 20.6406 4.20703 21.4316 5.58398 21.4316H9.53906V14.4883C9.53906 14.0391 9.83203 13.7461 10.2812 13.7461H13.7285C14.1875 13.7461 14.4707 14.0391 14.4707 14.4883V21.4316H18.416C19.793 21.4316 20.6133 20.6406 20.6133 19.2832V12.1348L12.3125 4.66406C12.2148 4.56641 12.0879 4.51758 11.9805 4.51758C11.873 4.51758 11.7559 4.56641 11.6484 4.67383L3.38672 12.1836V19.2832Z" fill="currentColor"/>
</svg>
