<svg width="20" height="18" viewBox="0 0 20 18" fill="none" xmlns="http://www.w3.org/2000/svg">
<path d="M19.0781 8.90007L11.0165 0.842641L10.4762 0.30228C10.353 0.179972 10.1865 0.111328 10.013 0.111328C9.83944 0.111328 9.67294 0.179972 9.54982 0.30228L0.947859 8.90007C0.821701 9.02573 0.721996 9.1754 0.65463 9.34023C0.587263 9.50507 0.5536 9.68173 0.555628 9.85978C0.563974 10.5942 1.17527 11.1804 1.90966 11.1804H2.79635V17.9756H17.2296V11.1804H18.1351C18.4919 11.1804 18.8278 11.0406 19.0802 10.7882C19.2045 10.6643 19.303 10.517 19.37 10.3547C19.4369 10.1925 19.471 10.0186 19.4703 9.84309C19.4703 9.48841 19.3306 9.15251 19.0781 8.90007ZM11.1813 16.4735H8.84464V12.2173H11.1813V16.4735ZM15.7275 9.67827V16.4735H12.5166V11.7166C12.5166 11.2555 12.1431 10.8821 11.6821 10.8821H8.34392C7.88284 10.8821 7.50938 11.2555 7.50938 11.7166V16.4735H4.29851V9.67827H2.29563L10.0151 1.96509L10.497 2.44703L17.7324 9.67827H15.7275Z" fill="#4BA83B"/>
</svg>
