<svg width="30" height="30" viewBox="0 0 30 30" fill="none" xmlns="http://www.w3.org/2000/svg">
<rect width="30" height="30" rx="7" fill="#FE9500"/>
<path d="M19.36 17C19.44 16.34 19.5 15.68 19.5 15C19.5 14.32 19.44 13.66 19.36 13H22.74C22.9 13.64 23 14.31 23 15C23 15.69 22.9 16.36 22.74 17H19.36ZM17.59 22.56C18.19 21.45 18.65 20.25 18.97 19H21.92C20.96 20.65 19.43 21.93 17.59 22.56ZM17.34 17H12.66C12.56 16.34 12.5 15.68 12.5 15C12.5 14.32 12.56 13.65 12.66 13H17.34C17.43 13.65 17.5 14.32 17.5 15C17.5 15.68 17.43 16.34 17.34 17ZM15 22.96C14.17 21.76 13.5 20.43 13.09 19H16.91C16.5 20.43 15.83 21.76 15 22.96ZM11 11H8.08C9.03 9.34 10.57 8.06 12.4 7.44C11.8 8.55 11.35 9.75 11 11ZM8.08 19H11C11.35 20.25 11.8 21.45 12.4 22.56C10.57 21.93 9.03 20.65 8.08 19ZM7.26 17C7.1 16.36 7 15.69 7 15C7 14.31 7.1 13.64 7.26 13H10.64C10.56 13.66 10.5 14.32 10.5 15C10.5 15.68 10.56 16.34 10.64 17H7.26ZM15 7.03C15.83 8.23 16.5 9.57 16.91 11H13.09C13.5 9.57 14.17 8.23 15 7.03ZM21.92 11H18.97C18.65 9.75 18.19 8.55 17.59 7.44C19.43 8.07 20.96 9.34 21.92 11ZM15 5C9.47 5 5 9.5 5 15C5 17.6522 6.05357 20.1957 7.92893 22.0711C8.85752 22.9997 9.95991 23.7362 11.1732 24.2388C12.3864 24.7413 13.6868 25 15 25C17.6522 25 20.1957 23.9464 22.0711 22.0711C23.9464 20.1957 25 17.6522 25 15C25 13.6868 24.7413 12.3864 24.2388 11.1732C23.7362 9.95991 22.9997 8.85752 22.0711 7.92893C21.1425 7.00035 20.0401 6.26375 18.8268 5.7612C17.6136 5.25866 16.3132 5 15 5Z" fill="white"/>
</svg>
