<svg width="24" height="24" viewBox="0 0 24 24" fill="none" xmlns="http://www.w3.org/2000/svg">
<path fill-rule="evenodd" clip-rule="evenodd" d="M16.9462 13.0493C17.6318 11.6155 18.0005 10.3209 18.0005 9.25002C18.0005 5.73978 15.2566 3.00002 12.0005 3.00002C8.74435 3.00002 6.00049 5.73978 6.00049 9.25002C6.00049 10.3209 6.36916 11.6155 7.05479 13.0493C7.73076 14.4628 8.65196 15.8823 9.60606 17.1669C10.4584 18.3144 11.3144 19.3242 12.0005 20.0897C12.6866 19.3242 13.5426 18.3144 14.3949 17.1669C15.349 15.8823 16.2702 14.4628 16.9462 13.0493ZM13.3776 21.5493C15.6654 19.0156 20.0005 13.6361 20.0005 9.25002C20.0005 4.69367 16.4188 1.00002 12.0005 1.00002C7.58221 1.00002 4.00049 4.69367 4.00049 9.25002C4.00049 13.6361 8.33554 19.0156 10.6234 21.5493C10.8656 21.8175 11.0848 22.0539 11.2736 22.2537C11.7239 22.7306 12.0005 23 12.0005 23C12.0005 23 12.2771 22.7306 12.7274 22.2537C12.9161 22.0539 13.1354 21.8175 13.3776 21.5493Z" fill="currentColor"/>
<path fill-rule="evenodd" clip-rule="evenodd" d="M12.0005 11C13.1051 11 14.0005 10.1046 14.0005 9.00002C14.0005 7.89545 13.1051 7.00002 12.0005 7.00002C10.8959 7.00002 10.0005 7.89545 10.0005 9.00002C10.0005 10.1046 10.8959 11 12.0005 11ZM12.0005 13C14.2096 13 16.0005 11.2092 16.0005 9.00002C16.0005 6.79088 14.2096 5.00002 12.0005 5.00002C9.79135 5.00002 8.00049 6.79088 8.00049 9.00002C8.00049 11.2092 9.79135 13 12.0005 13Z" fill="currentColor"/>
</svg>
