<svg width="16" height="16" viewBox="0 0 16 16" fill="none" xmlns="http://www.w3.org/2000/svg">
<path d="M13.7163 7.14806H12.5021V3.14806C12.5021 1.88556 11.4788 0.86235 10.2163 0.86235H5.78778C4.52528 0.86235 3.50206 1.88556 3.50206 3.14806V7.14806H2.28778C1.9717 7.14806 1.71635 7.40342 1.71635 7.71949V14.5766C1.71635 14.8927 1.9717 15.1481 2.28778 15.1481H13.7163C14.0324 15.1481 14.2878 14.8927 14.2878 14.5766V7.71949C14.2878 7.40342 14.0324 7.14806 13.7163 7.14806ZM4.78778 3.14806C4.78778 2.59628 5.23599 2.14806 5.78778 2.14806H10.2163C10.7681 2.14806 11.2163 2.59628 11.2163 3.14806V7.14806H4.78778V3.14806ZM13.0021 13.8623H3.00206V8.43378H13.0021V13.8623ZM7.50206 11.3802V12.3266C7.50206 12.4052 7.56635 12.4695 7.64492 12.4695H8.3592C8.43778 12.4695 8.50206 12.4052 8.50206 12.3266V11.3802C8.64947 11.2744 8.75949 11.1245 8.8163 10.9522C8.8731 10.7798 8.87376 10.5939 8.81817 10.4212C8.76258 10.2484 8.65361 10.0978 8.50696 9.99091C8.36031 9.88404 8.18352 9.82647 8.00206 9.82647C7.8206 9.82647 7.64382 9.88404 7.49716 9.99091C7.35051 10.0978 7.24154 10.2484 7.18596 10.4212C7.13037 10.5939 7.13102 10.7798 7.18783 10.9522C7.24463 11.1245 7.35466 11.2744 7.50206 11.3802Z" fill="currentColor"/>
</svg>
