<svg width="25" height="24" viewBox="0 0 25 24" fill="none" xmlns="http://www.w3.org/2000/svg">
<path fill-rule="evenodd" clip-rule="evenodd" d="M5.50024 6.00061H19.5002C19.9333 6.00061 20.302 6.27583 20.4411 6.66088L12.4981 11.8253L4.54475 6.70469C4.67091 6.29687 5.05098 6.00061 5.50024 6.00061ZM4.50024 9.02521V14.8679L8.79371 11.8953L4.50024 9.02521ZM10.6916 13.0624L4.52396 17.2181C4.62326 17.6658 5.02265 18.0006 5.50024 18.0006H19.5002C19.9594 18.0006 20.3463 17.6911 20.4637 17.2694L14.3018 13.0603L13.2896 13.6878C12.8071 13.987 12.197 13.9881 11.7134 13.6907L10.6916 13.0624ZM16.1875 11.8912L20.5002 14.9201V8.97737L16.1875 11.8912ZM2.50024 7.00061C2.50024 5.34376 3.84339 4.00061 5.50024 4.00061H19.5002C21.1571 4.00061 22.5002 5.34376 22.5002 7.00061V17.0006C22.5002 18.6575 21.1571 20.0006 19.5002 20.0006H5.50024C3.84339 20.0006 2.50024 18.6575 2.50024 17.0006V7.00061Z" fill="currentColor"/>
</svg>
