<svg width="24" height="24" viewBox="0 0 24 24" fill="none" xmlns="http://www.w3.org/2000/svg">
<path d="M11.5312 1.125C7.80469 1.125 4.78125 4.00266 4.78125 7.54688C4.78125 11.625 9.28125 18.0877 10.9336 20.3198C11.0022 20.4141 11.0921 20.4907 11.1959 20.5436C11.2998 20.5965 11.4147 20.624 11.5312 20.624C11.6478 20.624 11.7627 20.5965 11.8666 20.5436C11.9704 20.4907 12.0603 20.4141 12.1289 20.3198C13.7812 18.0886 18.2812 11.6283 18.2812 7.54688C18.2812 4.00266 15.2578 1.125 11.5312 1.125Z" stroke="currentColor" stroke-linecap="round" stroke-linejoin="round"/>
<path d="M11.5312 10.125C12.7739 10.125 13.7812 9.11764 13.7812 7.875C13.7812 6.63236 12.7739 5.625 11.5312 5.625C10.2886 5.625 9.28125 6.63236 9.28125 7.875C9.28125 9.11764 10.2886 10.125 11.5312 10.125Z" stroke="currentColor" stroke-linecap="round" stroke-linejoin="round"/>
</svg>
