<svg width="16" height="20" viewBox="0 0 16 20" fill="none" xmlns="http://www.w3.org/2000/svg">
<path d="M15.3677 5.24199C14.9629 4.31512 14.3791 3.47591 13.6495 2.77172C12.9174 2.06116 12.0544 1.4972 11.1075 1.11063C10.1226 0.704967 9.07742 0.5 8 0.5C6.92258 0.5 5.87742 0.704967 4.89247 1.1085C3.93978 1.49921 3.08602 2.0586 2.35054 2.76958C1.62134 3.47417 1.03767 4.31328 0.632258 5.23986C0.212903 6.20064 0 7.2212 0 8.27166C0 9.77902 0.363441 11.28 1.07742 12.7276C1.65161 13.8912 2.45376 15.0249 3.46452 16.1031C5.1914 17.9435 7.00215 19.0687 7.51613 19.3698C7.66202 19.4553 7.82841 19.5003 7.99785 19.5C8.16559 19.5 8.33118 19.4573 8.47957 19.3698C8.99355 19.0687 10.8043 17.9435 12.5312 16.1031C13.5419 15.027 14.3441 13.8912 14.9183 12.7276C15.6366 11.2821 16 9.78329 16 8.27379C16 7.22334 15.7871 6.20278 15.3677 5.24199ZM8 17.8624C6.5828 16.9678 1.54839 13.4257 1.54839 8.27379C1.54839 6.61057 2.2172 5.0477 3.43226 3.86914C4.65161 2.68845 6.27312 2.03725 8 2.03725C9.72688 2.03725 11.3484 2.68845 12.5677 3.87128C13.7828 5.0477 14.4516 6.61057 14.4516 8.27379C14.4516 13.4257 9.4172 16.9678 8 17.8624ZM8 4.68474C5.90968 4.68474 4.21505 6.36718 4.21505 8.44246C4.21505 10.5178 5.90968 12.2002 8 12.2002C10.0903 12.2002 11.7849 10.5178 11.7849 8.44246C11.7849 6.36718 10.0903 4.68474 8 4.68474ZM9.70323 10.1334C9.47983 10.3559 9.21435 10.5322 8.92204 10.6524C8.62974 10.7726 8.31638 10.8342 8 10.8337C7.35699 10.8337 6.75269 10.5839 6.29677 10.1334C6.07274 9.91165 5.89508 9.64808 5.77403 9.35787C5.65297 9.06767 5.59091 8.75657 5.5914 8.44246C5.5914 7.80408 5.84301 7.20412 6.29677 6.75149C6.75269 6.29885 7.35699 6.05119 8 6.05119C8.64301 6.05119 9.24731 6.29885 9.70323 6.75149C10.1591 7.20412 10.4086 7.80408 10.4086 8.44246C10.4086 9.08085 10.1591 9.68081 9.70323 10.1334Z" fill="currentColor"/>
</svg>
