<svg width="43" height="42" viewBox="0 0 43 42" fill="none" xmlns="http://www.w3.org/2000/svg">
<mask id="mask0_1255_11413" style="mask-type:luminance" maskUnits="userSpaceOnUse" x="4" y="4" width="34" height="34">
<path d="M38 4H4V38H38V4Z" fill="white"/>
</mask>
<g mask="url(#mask0_1255_11413)">
<path d="M22.4278 7.86725L25.543 14.4707C25.7591 14.9293 26.1783 15.2471 26.6652 15.3211L33.6319 16.38C34.8527 16.5655 35.3397 18.1339 34.4566 19.0308L29.4146 24.172C29.0653 24.5276 28.9054 25.0429 28.9868 25.549L30.1767 32.8054C30.3848 34.0762 29.1107 35.0442 28.0187 34.4437L21.7867 31.0186C21.3531 30.7805 20.8352 30.7805 20.4023 31.0186L14.1696 34.4437C13.0784 35.0442 11.8035 34.0762 12.0117 32.8054L13.2023 25.549C13.2837 25.0429 13.1259 24.5276 12.7744 24.172L7.73237 19.0308C6.84854 18.1306 7.33837 16.5624 8.5571 16.38L15.5259 15.3211C16.01 15.2471 16.4292 14.9293 16.646 14.4707L19.7605 7.86725C20.3065 6.71092 21.8825 6.71092 22.4278 7.86725Z" fill="#F4B85E"/>
</g>
</svg>
