<svg width="18" height="18" viewBox="0 0 18 18" fill="none" xmlns="http://www.w3.org/2000/svg">
<path d="M16.9453 5.80078V5.27344H17.4727C17.7639 5.27344 18 5.03733 18 4.74609V3.69141C18 3.47105 17.863 3.27393 17.6565 3.19715L9.14868 0.0330825C9.02964 -0.0111793 8.89861 -0.0110386 8.77971 0.0335746L0.342211 3.19764C0.136371 3.27484 0 3.47157 0 3.69141V4.74609C0 5.03733 0.236109 5.27344 0.527344 5.27344H1.05469V5.80078C1.05469 6.48826 1.49558 7.07442 2.10938 7.29211V12.8173C1.49558 13.035 1.05469 13.6211 1.05469 14.3086V14.9266C0.440895 15.1444 0 15.7305 0 16.418V17.4727C0 17.7639 0.236109 18 0.527344 18H17.4727C17.7639 18 18 17.7639 18 17.4727V16.418C18 15.7305 17.5591 15.1443 16.9453 14.9266V14.3086C16.9453 13.6211 16.5044 13.035 15.8906 12.8173V7.29211C16.5044 7.07442 16.9453 6.48826 16.9453 5.80078ZM1.58203 4.21875H1.05469V4.05686L8.96558 1.09027L16.9453 4.05791V4.21875H16.418H1.58203ZM2.10938 14.3086C2.10938 14.0178 2.34594 13.7812 2.63672 13.7812H15.3633C15.6541 13.7812 15.8906 14.0178 15.8906 14.3086V14.8359H2.10938V14.3086ZM3.16406 12.7266V7.38281H4.21875V12.7266H3.16406ZM5.27344 12.7266V7.38281H7.38281V12.7266H5.27344ZM8.4375 12.7266V7.38281H9.49219V12.7266H8.4375ZM10.5469 12.7266V7.38281H12.7266V12.7266H10.5469ZM13.7812 12.7266V7.38281H14.8359V12.7266H13.7812ZM16.418 15.8906C16.7087 15.8906 16.9453 16.1272 16.9453 16.418V16.9453H1.05469V16.418C1.05469 16.1272 1.29125 15.8906 1.58203 15.8906H16.418ZM15.3633 6.32813H2.63672C2.34594 6.32813 2.10938 6.09156 2.10938 5.80078V5.27344H15.8906V5.80078C15.8906 6.09156 15.6541 6.32813 15.3633 6.32813Z" fill="currentColor"/>
</svg>
