<svg width="24" height="24" viewBox="0 0 24 24" fill="none" xmlns="http://www.w3.org/2000/svg">
<mask id="mask0_4407_225" style="mask-type:alpha" maskUnits="userSpaceOnUse" x="0" y="0" width="24" height="24">
<rect width="24" height="24" fill="#D9D9D9"/>
</mask>
<g mask="url(#mask0_4407_225)">
<path d="M12.0001 21.975C12.0001 19.875 12.6334 18.0167 13.9001 16.4C15.1668 14.7833 16.7751 13.7333 18.7251 13.25C19.0418 13.1667 19.3543 13.1375 19.6626 13.1625C19.9709 13.1875 20.2418 13.3167 20.4751 13.55C20.6751 13.7667 20.7876 14.025 20.8126 14.325C20.8376 14.625 20.8084 14.9167 20.7251 15.2C20.2584 17.1667 19.2126 18.7875 17.5876 20.0625C15.9626 21.3375 14.1001 21.975 12.0001 21.975ZM14.4501 19.55C15.4001 19.2 16.2334 18.6667 16.9501 17.95C17.6668 17.2333 18.2001 16.4 18.5501 15.45C17.6001 15.8 16.7668 16.3333 16.0501 17.05C15.3334 17.7667 14.8001 18.6 14.4501 19.55ZM12.0001 22C12.0001 19.9 11.3668 18.0417 10.1001 16.425C8.83344 14.8083 7.22511 13.7583 5.27511 13.275C4.95844 13.1917 4.64594 13.1625 4.33761 13.1875C4.02928 13.2125 3.75844 13.3417 3.52511 13.575C3.32511 13.7917 3.21261 14.05 3.18761 14.35C3.16261 14.65 3.19178 14.9417 3.27511 15.225C3.74178 17.1917 4.78761 18.8125 6.41261 20.0875C8.03761 21.3625 9.90011 22 12.0001 22ZM9.55011 19.55C8.60011 19.2 7.76678 18.6667 7.05011 17.95C6.33344 17.2333 5.80011 16.4 5.45011 15.45C6.40011 15.8 7.23344 16.3333 7.95011 17.05C8.66678 17.7667 9.20011 18.6 9.55011 19.55ZM12.0001 9C12.2834 9 12.5209 8.90417 12.7126 8.7125C12.9043 8.52083 13.0001 8.28333 13.0001 8C13.0001 7.71667 12.9043 7.47917 12.7126 7.2875C12.5209 7.09583 12.2834 7 12.0001 7C11.7168 7 11.4793 7.09583 11.2876 7.2875C11.0959 7.47917 11.0001 7.71667 11.0001 8C11.0001 8.28333 11.0959 8.52083 11.2876 8.7125C11.4793 8.90417 11.7168 9 12.0001 9ZM12.0001 15C11.3501 15 10.7626 14.8208 10.2376 14.4625C9.71261 14.1042 9.33344 13.6333 9.10011 13.05C9.01678 13.05 8.94178 13.0542 8.87511 13.0625C8.80844 13.0708 8.73344 13.075 8.65011 13.075C7.78344 13.075 7.04178 12.7667 6.42511 12.15C5.80844 11.5333 5.50011 10.7917 5.50011 9.925C5.50011 9.575 5.55844 9.2375 5.67511 8.9125C5.79178 8.5875 5.96678 8.28333 6.20011 8C5.98344 7.71667 5.81678 7.4125 5.70011 7.0875C5.58344 6.7625 5.52511 6.425 5.52511 6.075C5.52511 5.20833 5.82928 4.46667 6.43761 3.85C7.04594 3.23333 7.78344 2.925 8.65011 2.925C8.73344 2.925 8.80844 2.92917 8.87511 2.9375C8.94178 2.94583 9.01678 2.95 9.10011 2.95C9.33344 2.36667 9.71261 1.89583 10.2376 1.5375C10.7626 1.17917 11.3501 1 12.0001 1C12.6501 1 13.2376 1.17917 13.7626 1.5375C14.2876 1.89583 14.6668 2.36667 14.9001 2.95C14.9834 2.95 15.0584 2.94583 15.1251 2.9375C15.1918 2.92917 15.2668 2.925 15.3501 2.925C16.2168 2.925 16.9543 3.23333 17.5626 3.85C18.1709 4.46667 18.4751 5.20833 18.4751 6.075C18.4751 6.425 18.4209 6.7625 18.3126 7.0875C18.2043 7.4125 18.0334 7.71667 17.8001 8C18.0168 8.28333 18.1834 8.5875 18.3001 8.9125C18.4168 9.2375 18.4751 9.575 18.4751 9.925C18.4751 10.7917 18.1709 11.5333 17.5626 12.15C16.9543 12.7667 16.2168 13.075 15.3501 13.075C15.2668 13.075 15.1918 13.0708 15.1251 13.0625C15.0584 13.0542 14.9834 13.05 14.9001 13.05C14.6668 13.6333 14.2876 14.1042 13.7626 14.4625C13.2376 14.8208 12.6501 15 12.0001 15ZM15.3501 11.075C15.6668 11.075 15.9376 10.9625 16.1626 10.7375C16.3876 10.5125 16.5001 10.2417 16.5001 9.925C16.5001 9.69167 16.4376 9.4875 16.3126 9.3125C16.1876 9.1375 16.0251 9 15.8251 8.9L14.9501 8.475C14.9168 8.65833 14.8668 8.8375 14.8001 9.0125C14.7334 9.1875 14.6584 9.35 14.5751 9.5C14.4918 9.65 14.3918 9.79167 14.2751 9.925C14.1584 10.0583 14.0334 10.1833 13.9001 10.3L14.7001 10.875C14.7834 10.9417 14.8793 10.9917 14.9876 11.025C15.0959 11.0583 15.2168 11.075 15.3501 11.075ZM14.9501 7.525L15.8251 7.1C16.0251 7 16.1834 6.85833 16.3001 6.675C16.4168 6.49167 16.4751 6.29167 16.4751 6.075C16.4751 5.75833 16.3668 5.4875 16.1501 5.2625C15.9334 5.0375 15.6668 4.925 15.3501 4.925C15.2168 4.925 15.1001 4.94167 15.0001 4.975C14.9001 5.00833 14.8001 5.05833 14.7001 5.125L13.8751 5.7C14.0084 5.81667 14.1376 5.94167 14.2626 6.075C14.3876 6.20833 14.4918 6.35 14.5751 6.5C14.6584 6.65 14.7334 6.8125 14.8001 6.9875C14.8668 7.1625 14.9168 7.34167 14.9501 7.525ZM10.9751 5.2C11.1418 5.13333 11.3084 5.08333 11.4751 5.05C11.6418 5.01667 11.8168 5 12.0001 5C12.1834 5 12.3584 5.01667 12.5251 5.05C12.6918 5.08333 12.8584 5.13333 13.0251 5.2L13.1501 4.1C13.1834 3.8 13.0793 3.54167 12.8376 3.325C12.5959 3.10833 12.3168 3 12.0001 3C11.6834 3 11.4043 3.10833 11.1626 3.325C10.9209 3.54167 10.8168 3.8 10.8501 4.1L10.9751 5.2ZM12.0001 13C12.3168 13 12.5959 12.8917 12.8376 12.675C13.0793 12.4583 13.1834 12.2 13.1501 11.9L13.0251 10.8C12.8584 10.8667 12.6918 10.9167 12.5251 10.95C12.3584 10.9833 12.1834 11 12.0001 11C11.8168 11 11.6418 10.9833 11.4751 10.95C11.3084 10.9167 11.1418 10.8667 10.9751 10.8L10.8501 11.9C10.8168 12.2 10.9209 12.4583 11.1626 12.675C11.4043 12.8917 11.6834 13 12.0001 13ZM9.05011 7.525C9.08344 7.34167 9.13344 7.1625 9.20011 6.9875C9.26678 6.8125 9.34178 6.65 9.42511 6.5C9.50844 6.35 9.60844 6.20833 9.72511 6.075C9.84178 5.94167 9.96678 5.81667 10.1001 5.7L9.30011 5.125C9.21678 5.05833 9.12094 5.00833 9.01261 4.975C8.90428 4.94167 8.78344 4.925 8.65011 4.925C8.33344 4.925 8.06261 5.0375 7.83761 5.2625C7.61261 5.4875 7.50011 5.75833 7.50011 6.075C7.50011 6.29167 7.56261 6.49167 7.68761 6.675C7.81261 6.85833 7.97511 7 8.17511 7.1L9.05011 7.525ZM8.65011 11.05C8.78344 11.05 8.90011 11.0375 9.00011 11.0125C9.10011 10.9875 9.20011 10.9333 9.30011 10.85L10.1251 10.3C9.99178 10.1833 9.86261 10.0583 9.73761 9.925C9.61261 9.79167 9.50844 9.65 9.42511 9.5C9.34178 9.35 9.26678 9.1875 9.20011 9.0125C9.13344 8.8375 9.08344 8.65833 9.05011 8.475L8.17511 8.9C7.97511 9 7.81678 9.14167 7.70011 9.325C7.58344 9.50833 7.52511 9.70833 7.52511 9.925C7.54178 10.2417 7.65428 10.5083 7.86261 10.725C8.07094 10.9417 8.33344 11.05 8.65011 11.05Z" fill="currentColor"/>
</g>
</svg>
