<svg width="18" height="18" viewBox="0 0 18 18" fill="none" xmlns="http://www.w3.org/2000/svg">
<g clip-path="url(#clip0)">
<path d="M17.4727 16.9453H15.0983V13.6478C15.8616 13.4628 16.5517 12.8757 17.0794 11.9485C17.6731 10.9056 18 9.53388 18 8.08594C18 6.63799 17.6731 5.26623 17.0794 4.22336C16.4325 3.08686 15.5416 2.46094 14.5709 2.46094C13.8453 2.46094 13.1649 2.8105 12.5972 3.46127C12.4342 2.98079 12.2355 2.53139 12.0034 2.12351C11.2239 0.754137 10.1573 0 9 0C7.84273 0 6.77612 0.754137 5.99664 2.12351C5.7652 2.53009 5.56706 2.97791 5.40429 3.45667C4.83799 2.8087 4.15972 2.46094 3.43427 2.46094C2.46357 2.46094 1.57271 3.08686 0.92577 4.22336C0.332121 5.26623 0.00516797 6.63799 0.00516797 8.08594C0.00516797 9.53388 0.332121 10.9056 0.92577 11.9485C1.4535 12.8756 2.14362 13.4628 2.90693 13.6477V16.9453H0.527344C0.236109 16.9453 0 17.1814 0 17.4727C0 17.7639 0.236109 18 0.527344 18H17.4727C17.7639 18 18 17.7639 18 17.4727C18 17.1814 17.7639 16.9453 17.4727 16.9453ZM9.52734 13.6577C10.4457 13.4707 11.2834 12.7953 11.9336 11.707C12.1544 12.1427 12.4146 12.5221 12.7056 12.8279C13.1094 13.2522 13.5647 13.5289 14.0436 13.6464V16.9453H9.52734V13.6577ZM12.9744 4.75312C13.4199 3.96668 14.0018 3.51562 14.5709 3.51562C15.1378 3.51562 15.718 3.96376 16.1628 4.74511C16.6674 5.63154 16.9453 6.81803 16.9453 8.08594C16.9453 9.35385 16.6674 10.5403 16.1628 11.4268C15.8561 11.9656 15.485 12.3458 15.0983 12.53V9.70312C15.0983 9.41189 14.8622 9.17578 14.5709 9.17578C14.2797 9.17578 14.0436 9.41189 14.0436 9.70312V12.5296C13.4397 12.2409 12.8836 11.476 12.5443 10.4206C12.5433 10.4174 12.5419 10.4145 12.5408 10.4113C12.9242 9.35075 13.1295 8.12756 13.1295 6.85547C13.1295 6.1489 13.066 5.45755 12.944 4.80062C12.9548 4.78547 12.9651 4.76968 12.9744 4.75312ZM6.91323 2.64526C7.49707 1.61954 8.23816 1.05469 9 1.05469C9.76184 1.05469 10.5029 1.61954 11.0868 2.64526C11.7239 3.76457 12.0748 5.2598 12.0748 6.85547C12.0748 8.45114 11.7239 9.94637 11.0868 11.0657C10.6389 11.8524 10.0986 12.3676 9.52734 12.5652V9.48182L11.1042 7.90499C11.3101 7.69904 11.3101 7.36516 11.1042 7.15922C10.8983 6.95327 10.5643 6.95327 10.3584 7.15922L9.52734 7.99028V5.34375C9.52734 5.05252 9.29123 4.81641 9 4.81641C8.70877 4.81641 8.47266 5.05252 8.47266 5.34375V5.93613L8.17756 5.64103C7.97164 5.43509 7.63773 5.43509 7.43179 5.64103C7.22584 5.84698 7.22584 6.18086 7.43179 6.3868L8.47266 7.42767V12.5652C7.9014 12.3677 7.36105 11.8524 6.91323 11.0657C6.27609 9.94637 5.9252 8.45118 5.9252 6.85547C5.9252 5.25976 6.27609 3.76457 6.91323 2.64526ZM1.84233 11.4268C1.33773 10.5403 1.05986 9.35385 1.05986 8.08594C1.05986 6.81803 1.33773 5.63157 1.84233 4.74511C2.28713 3.96376 2.86734 3.51562 3.43427 3.51562C4.01593 3.51562 4.60709 3.98338 5.05635 4.79904C4.93414 5.45643 4.87051 6.14834 4.87051 6.85547C4.87051 8.13319 5.07762 9.36158 5.4643 10.4254C5.45509 10.4448 5.44658 10.4646 5.43962 10.4855C5.09361 11.5228 4.55442 12.2554 3.96158 12.533V9.70312C3.96158 9.41189 3.72547 9.17578 3.43424 9.17578C3.143 9.17578 2.90689 9.41189 2.90689 9.70312V12.53C2.52018 12.3458 2.14903 11.9656 1.84233 11.4268ZM3.96158 13.6462C4.43127 13.531 4.8786 13.2626 5.27643 12.852C5.57543 12.5434 5.84307 12.1573 6.06934 11.712C6.7191 12.7974 7.55568 13.471 8.47266 13.6577V16.9453H3.96158V13.6462Z" fill="currentColor"/>
</g>
<defs>
<clipPath id="clip0">
<rect width="18" height="18" fill="white"/>
</clipPath>
</defs>
</svg>
