<svg width="24" height="24" viewBox="0 0 24 24" fill="none" xmlns="http://www.w3.org/2000/svg">
<mask id="mask0_4460_995" style="mask-type:alpha" maskUnits="userSpaceOnUse" x="0" y="0" width="24" height="24">
<rect width="24" height="24" fill="#D9D9D9"/>
</mask>
<g mask="url(#mask0_4460_995)">
<path d="M1 19V10C1 9.71667 1.09583 9.47917 1.2875 9.2875C1.47917 9.09583 1.71667 9 2 9C2.28333 9 2.52083 9.09583 2.7125 9.2875C2.90417 9.47917 3 9.71667 3 10V11H5V4C5 3.71667 5.09583 3.47917 5.2875 3.2875C5.47917 3.09583 5.71667 3 6 3C6.28333 3 6.52083 3.09583 6.7125 3.2875C6.90417 3.47917 7 3.71667 7 4V5H9V4C9 3.71667 9.09583 3.47917 9.2875 3.2875C9.47917 3.09583 9.71667 3 10 3C10.2833 3 10.5208 3.09583 10.7125 3.2875C10.9042 3.47917 11 3.71667 11 4V5H13V4C13 3.71667 13.0958 3.47917 13.2875 3.2875C13.4792 3.09583 13.7167 3 14 3C14.2833 3 14.5208 3.09583 14.7125 3.2875C14.9042 3.47917 15 3.71667 15 4V5H17V4C17 3.71667 17.0958 3.47917 17.2875 3.2875C17.4792 3.09583 17.7167 3 18 3C18.2833 3 18.5208 3.09583 18.7125 3.2875C18.9042 3.47917 19 3.71667 19 4V11H21V10C21 9.71667 21.0958 9.47917 21.2875 9.2875C21.4792 9.09583 21.7167 9 22 9C22.2833 9 22.5208 9.09583 22.7125 9.2875C22.9042 9.47917 23 9.71667 23 10V19C23 19.55 22.8042 20.0208 22.4125 20.4125C22.0208 20.8042 21.55 21 21 21H15C14.7167 21 14.4792 20.9042 14.2875 20.7125C14.0958 20.5208 14 20.2833 14 20V18C14 17.45 13.8042 16.9792 13.4125 16.5875C13.0208 16.1958 12.55 16 12 16C11.45 16 10.9792 16.1958 10.5875 16.5875C10.1958 16.9792 10 17.45 10 18V20C10 20.2833 9.90417 20.5208 9.7125 20.7125C9.52083 20.9042 9.28333 21 9 21H3C2.45 21 1.97917 20.8042 1.5875 20.4125C1.19583 20.0208 1 19.55 1 19ZM3 19H8V18C8 16.9 8.39167 15.9583 9.175 15.175C9.95833 14.3917 10.9 14 12 14C13.1 14 14.0417 14.3917 14.825 15.175C15.6083 15.9583 16 16.9 16 18V19H21V13H18C17.7167 13 17.4792 12.9042 17.2875 12.7125C17.0958 12.5208 17 12.2833 17 12V7H7V12C7 12.2833 6.90417 12.5208 6.7125 12.7125C6.52083 12.9042 6.28333 13 6 13H3V19ZM9.25 12H10.75C10.8333 12 10.8958 11.9792 10.9375 11.9375C10.9792 11.8958 11 11.8333 11 11.75V10C11 9.71667 10.9042 9.47917 10.7125 9.2875C10.5208 9.09583 10.2833 9 10 9C9.71667 9 9.47917 9.09583 9.2875 9.2875C9.09583 9.47917 9 9.71667 9 10V11.75C9 11.8333 9.02083 11.8958 9.0625 11.9375C9.10417 11.9792 9.16667 12 9.25 12ZM13.25 12H14.75C14.8333 12 14.8958 11.9792 14.9375 11.9375C14.9792 11.8958 15 11.8333 15 11.75V10C15 9.71667 14.9042 9.47917 14.7125 9.2875C14.5208 9.09583 14.2833 9 14 9C13.7167 9 13.4792 9.09583 13.2875 9.2875C13.0958 9.47917 13 9.71667 13 10V11.75C13 11.8333 13.0208 11.8958 13.0625 11.9375C13.1042 11.9792 13.1667 12 13.25 12Z" fill="currentColor"/>
</g>
</svg>
