<svg width="18" height="18" viewBox="0 0 18 18" fill="none" xmlns="http://www.w3.org/2000/svg">
<path d="M4.25391 18H13.7461V6.97996L14.8008 4.87058V0H11.6367V2.10938H10.582V0H7.41797V2.10938H6.36328V0H3.19922V4.87058L4.25391 6.97996V18ZM5.10718 6.32812L4.57984 5.27344H13.4202L12.8929 6.32812H5.10718ZM10.0547 16.9453H7.94531V13.7461C7.94531 13.1645 8.41845 12.6914 9 12.6914C9.58155 12.6914 10.0547 13.1645 10.0547 13.7461V16.9453ZM11.1094 16.9453V13.7461C11.1094 12.583 10.1631 11.6367 9 11.6367C7.83689 11.6367 6.89062 12.583 6.89062 13.7461V16.9453H5.30859V7.38281H12.6914V16.9453H11.1094ZM5.30859 1.05469V3.16406H8.47266V1.05469H9.52734V3.16406H12.6914V1.05469H13.7461V4.21875H4.25391V1.05469H5.30859Z" fill="currentColor"/>
<path d="M7.41797 9.52734H10.582V10.582H7.41797V9.52734Z" fill="currentColor"/>
</svg>
