<svg width="21" height="20" viewBox="0 0 21 20" fill="none" xmlns="http://www.w3.org/2000/svg">

<path d="M10.4001 14.5C11.4001 14.5 12.2334 14.1597 12.9001 13.4792C13.5667 12.7986 13.9001 11.9722 13.9001 11C13.9001 10.0417 13.5667 9.21875 12.9001 8.53125C12.2334 7.84375 11.4001 7.5 10.4001 7.5C9.40005 7.5 8.56672 7.84375 7.90005 8.53125C7.23339 9.21875 6.90005 10.0451 6.90005 11.0104C6.90005 11.9757 7.23339 12.7986 7.90005 13.4792C8.56672 14.1597 9.40005 14.5 10.4001 14.5ZM10.4001 13C9.81672 13 9.33755 12.8047 8.96255 12.414C8.58755 12.0233 8.40005 11.545 8.40005 10.9792C8.40005 10.425 8.58755 9.9566 8.96255 9.57396C9.33755 9.19132 9.81672 9 10.4001 9C10.9834 9 11.4626 9.19132 11.8376 9.57396C12.2126 9.9566 12.4001 10.425 12.4001 10.9792C12.4001 11.545 12.2126 12.0233 11.8376 12.414C11.4626 12.8047 10.9834 13 10.4001 13ZM3.90005 17C3.49728 17 3.14658 16.8507 2.84797 16.5521C2.54936 16.2535 2.40005 15.9028 2.40005 15.5V6.5C2.40005 6.09722 2.54936 5.74653 2.84797 5.44792C3.14658 5.14931 3.49728 5 3.90005 5H6.40005L7.90005 3H12.9001L14.4001 5H16.9001C17.3126 5 17.6657 5.14931 17.9594 5.44792C18.2532 5.74653 18.4001 6.09722 18.4001 6.5V15.5C18.4001 15.9028 18.2532 16.2535 17.9594 16.5521C17.6657 16.8507 17.3126 17 16.9001 17H3.90005ZM3.90005 15.5H16.9001V6.5H13.6501L12.148 4.5H8.65005L7.15005 6.5H3.90005V15.5Z" fill="currentColor"/>
</svg>
