<svg width="18" height="20" viewBox="0 0 18 20" fill="none" xmlns="http://www.w3.org/2000/svg">
<path d="M13 4V10C13 11.1 13.9 12 15 12H16V19C16 19.55 16.45 20 17 20C17.55 20 18 19.55 18 19V1.13C18 0.48 17.39 8.9407e-08 16.76 0.15C14.6 0.68 13 2.51 13 4ZM8 7H6V1C6 0.45 5.55 0 5 0C4.45 0 4 0.45 4 1V7H2V1C2 0.45 1.55 0 1 0C0.45 0 0 0.45 0 1V7C0 9.21 1.79 11 4 11V19C4 19.55 4.45 20 5 20C5.55 20 6 19.55 6 19V11C8.21 11 10 9.21 10 7V1C10 0.45 9.55 0 9 0C8.45 0 8 0.45 8 1V7Z" fill="currentColor"/>
</svg>
