
<svg width="16" height="17" viewBox="0 0 16 17" fill="none" xmlns="http://www.w3.org/2000/svg">
<path d="M6.56396 13.7466C7.94189 13.7466 9.22852 13.2983 10.2744 12.5513L14.209 16.4858C14.3916 16.6685 14.6323 16.7598 14.8813 16.7598C15.4209 16.7598 15.811 16.3447 15.811 15.8135C15.811 15.5645 15.728 15.332 15.5454 15.1494L11.6357 11.2314C12.4575 10.1523 12.9473 8.81592 12.9473 7.36328C12.9473 3.85205 10.0752 0.97998 6.56396 0.97998C3.04443 0.97998 0.180664 3.85205 0.180664 7.36328C0.180664 10.8745 3.04443 13.7466 6.56396 13.7466ZM6.56396 12.3687C3.81641 12.3687 1.55859 10.1025 1.55859 7.36328C1.55859 4.62402 3.81641 2.35791 6.56396 2.35791C9.30322 2.35791 11.5693 4.62402 11.5693 7.36328C11.5693 10.1025 9.30322 12.3687 6.56396 12.3687Z" fill="currentColor" fill-opacity="0.6"/>
</svg>
