<svg width="24" height="24" viewBox="0 0 24 24" fill="none" xmlns="http://www.w3.org/2000/svg">
<path d="M7.21045 20.8555C6.29183 20.8555 5.5918 20.6175 5.11035 20.1416C4.63444 19.6712 4.39648 18.9795 4.39648 18.0664V9.98145C4.39648 9.06836 4.63444 8.37663 5.11035 7.90625C5.5918 7.43034 6.29183 7.19238 7.21045 7.19238H9.55127V9.04346H7.35986C6.99463 9.04346 6.71517 9.13753 6.52148 9.32568C6.33333 9.5083 6.23926 9.79053 6.23926 10.1724V17.8755C6.23926 18.2573 6.33333 18.5423 6.52148 18.7305C6.71517 18.9186 6.99463 19.0127 7.35986 19.0127H16.6318C16.9915 19.0127 17.2682 18.9186 17.4619 18.7305C17.6556 18.5423 17.7524 18.2573 17.7524 17.8755V10.1724C17.7524 9.79053 17.6556 9.5083 17.4619 9.32568C17.2682 9.13753 16.9915 9.04346 16.6318 9.04346H14.4487V7.19238H16.7896C17.7082 7.19238 18.4054 7.43034 18.8813 7.90625C19.3628 8.38216 19.6035 9.07389 19.6035 9.98145V18.0664C19.6035 18.974 19.3628 19.6657 18.8813 20.1416C18.4054 20.6175 17.7082 20.8555 16.7896 20.8555H7.21045ZM11.9917 14.1567C11.7593 14.1567 11.5601 14.0737 11.394 13.9077C11.228 13.7417 11.145 13.5452 11.145 13.3184V5.06738L11.2197 3.84717L10.7383 4.46973L9.64258 5.64014C9.49316 5.80062 9.30501 5.88086 9.07812 5.88086C8.87337 5.88086 8.69629 5.81445 8.54688 5.68164C8.40299 5.54329 8.33105 5.36898 8.33105 5.15869C8.33105 4.96501 8.40853 4.78792 8.56348 4.62744L11.3359 1.96289C11.4521 1.85221 11.5628 1.77751 11.668 1.73877C11.7731 1.6945 11.881 1.67236 11.9917 1.67236C12.1079 1.67236 12.2186 1.6945 12.3237 1.73877C12.4344 1.77751 12.5451 1.85221 12.6558 1.96289L15.4282 4.62744C15.5832 4.78792 15.6606 4.96501 15.6606 5.15869C15.6606 5.36898 15.5859 5.54329 15.4365 5.68164C15.2871 5.81445 15.1128 5.88086 14.9136 5.88086C14.6922 5.88086 14.5068 5.80062 14.3574 5.64014L13.2534 4.46973L12.7803 3.84717L12.8467 5.06738V13.3184C12.8467 13.5452 12.7637 13.7417 12.5977 13.9077C12.4372 14.0737 12.2352 14.1567 11.9917 14.1567Z" fill="currentColor"/>
</svg>
