<svg width="24" height="24" viewBox="0 0 24 24" fill="none" xmlns="http://www.w3.org/2000/svg">
<path d="M7.23535 20.7642C6.36654 20.7642 5.71354 20.5483 5.27637 20.1167C4.84473 19.6906 4.62891 19.0487 4.62891 18.1909V9.90674C4.62891 9.04899 4.84473 8.40706 5.27637 7.98096C5.71354 7.54932 6.36654 7.3335 7.23535 7.3335H9.55127V8.66992H7.25195C6.83691 8.66992 6.51872 8.7806 6.29736 9.00195C6.07601 9.22331 5.96533 9.5498 5.96533 9.98145V18.1162C5.96533 18.5479 6.07601 18.8743 6.29736 19.0957C6.51872 19.3171 6.83691 19.4277 7.25195 19.4277H16.7314C17.141 19.4277 17.4591 19.3171 17.686 19.0957C17.9129 18.8743 18.0264 18.5479 18.0264 18.1162V9.98145C18.0264 9.5498 17.9129 9.22331 17.686 9.00195C17.4591 8.7806 17.141 8.66992 16.7314 8.66992H14.4404V7.3335H16.7563C17.6252 7.3335 18.2754 7.54932 18.707 7.98096C19.1442 8.4126 19.3628 9.05452 19.3628 9.90674V18.1909C19.3628 19.0431 19.1442 19.6851 18.707 20.1167C18.2754 20.5483 17.6252 20.7642 16.7563 20.7642H7.23535ZM11.9917 14.2646C11.8146 14.2646 11.6597 14.201 11.5269 14.0737C11.3996 13.9465 11.3359 13.7943 11.3359 13.6172V5.09229L11.3857 3.84717L10.8213 4.43652L9.56787 5.78125C9.45166 5.91406 9.29948 5.98047 9.11133 5.98047C8.93424 5.98047 8.79036 5.92513 8.67969 5.81445C8.56901 5.70378 8.51367 5.56266 8.51367 5.39111C8.51367 5.23617 8.57731 5.09229 8.70459 4.95947L11.5103 2.25342C11.5988 2.17041 11.679 2.1123 11.751 2.0791C11.8285 2.0459 11.9087 2.0293 11.9917 2.0293C12.0802 2.0293 12.1605 2.0459 12.2324 2.0791C12.3099 2.1123 12.3901 2.17041 12.4731 2.25342L15.2788 4.95947C15.4116 5.09229 15.478 5.23617 15.478 5.39111C15.478 5.56266 15.4199 5.70378 15.3037 5.81445C15.1875 5.92513 15.0436 5.98047 14.8721 5.98047C14.6895 5.98047 14.54 5.91406 14.4238 5.78125L13.1621 4.43652L12.606 3.84717L12.6558 5.09229V13.6172C12.6558 13.7943 12.5894 13.9465 12.4565 14.0737C12.3293 14.201 12.1743 14.2646 11.9917 14.2646Z" fill="currentColor"/>
</svg>
