<svg width="24" height="24" viewBox="0 0 24 24" fill="none" xmlns="http://www.w3.org/2000/svg">
<path d="M19.5999 2.48889C17.2599 0.14889 12.9799 0.618889 10.0499 3.54889C8.44992 5.14889 7.52992 7.41889 7.50992 9.00889C7.48992 10.5889 7.76992 12.8989 6.15992 14.5089L1.91992 18.7489L3.33992 20.1689L7.57992 15.9289C9.18992 14.3189 11.4999 14.5989 13.0799 14.5789C14.6599 14.5589 16.9399 13.6389 18.5399 12.0389C21.4599 9.10889 21.9399 4.82889 19.5999 2.48889ZM10.3999 11.6789C8.86992 10.1489 9.34992 7.06889 11.4599 4.95889C13.5699 2.84889 16.6399 2.36889 18.1799 3.89889C19.7099 5.42889 19.2299 8.50889 17.1199 10.6189C15.0099 12.7289 11.9399 13.2089 10.3999 11.6789Z" fill="currentColor"/>
<path d="M18.0799 16.9989C18.6099 16.9989 19.1199 17.2089 19.4899 17.5889C20.2699 18.3689 20.2699 19.6389 19.4899 20.4189C19.1199 20.7889 18.6099 20.9989 18.0799 20.9989C17.5499 20.9989 17.0399 20.7889 16.6699 20.4089C15.8899 19.6289 15.8899 18.3589 16.6699 17.5789C17.0399 17.2089 17.5499 16.9989 18.0799 16.9989ZM18.0799 14.9989C17.0599 14.9989 16.0299 15.3889 15.2499 16.1689C13.6899 17.7289 13.6899 20.2589 15.2499 21.8289C16.0299 22.6089 17.0599 22.9989 18.0799 22.9989C19.0999 22.9989 20.1299 22.6089 20.9099 21.8289C22.4699 20.2689 22.4699 17.7389 20.9099 16.1689C20.1299 15.3889 19.0999 14.9989 18.0799 14.9989Z" fill="currentColor"/>
</svg>
