<svg width="22" height="22" viewBox="0 0 22 22" fill="none" xmlns="http://www.w3.org/2000/svg">
<path d="M18.5999 1.48889C16.2599 -0.85111 11.9799 -0.381111 9.04992 2.54889C7.44992 4.14889 6.52992 6.41889 6.50992 8.00889C6.48992 9.58889 6.76992 11.8989 5.15992 13.5089L0.919922 17.7489L2.33992 19.1689L6.57992 14.9289C8.18992 13.3189 10.4999 13.5989 12.0799 13.5789C13.6599 13.5589 15.9399 12.6389 17.5399 11.0389C20.4599 8.10889 20.9399 3.82889 18.5999 1.48889ZM9.39992 10.6789C7.86992 9.14889 8.34992 6.06889 10.4599 3.95889C12.5699 1.84889 15.6399 1.36889 17.1799 2.89889C18.7099 4.42889 18.2299 7.50889 16.1199 9.61889C14.0099 11.7289 10.9399 12.2089 9.39992 10.6789Z" fill="currentColor"/>
<path d="M17.0799 15.9989C17.6099 15.9989 18.1199 16.2089 18.4899 16.5889C19.2699 17.3689 19.2699 18.6389 18.4899 19.4189C18.1199 19.7889 17.6099 19.9989 17.0799 19.9989C16.5499 19.9989 16.0399 19.7889 15.6699 19.4089C14.8899 18.6289 14.8899 17.3589 15.6699 16.5789C16.0399 16.2089 16.5499 15.9989 17.0799 15.9989ZM17.0799 13.9989C16.0599 13.9989 15.0299 14.3889 14.2499 15.1689C12.6899 16.7289 12.6899 19.2589 14.2499 20.8289C15.0299 21.6089 16.0599 21.9989 17.0799 21.9989C18.0999 21.9989 19.1299 21.6089 19.9099 20.8289C21.4699 19.2689 21.4699 16.7389 19.9099 15.1689C19.1299 14.3889 18.0999 13.9989 17.0799 13.9989Z" fill="currentColor"/>
</svg>
