<svg width="44" height="44" viewBox="0 0 44 44" fill="none" xmlns="http://www.w3.org/2000/svg">
<circle cx="22" cy="22" r="21.5" fill="white" stroke="#D9D9D9"/>
<path d="M29.584 19.6867C29.0896 19.6867 28.6104 19.7534 28.1542 19.8783L26.7592 16.2502L27.2639 15.7314C27.4702 15.5187 27.4679 15.1799 27.2584 14.97L26.1753 13.8873C26.0737 13.7858 25.9357 13.7282 25.792 13.7282H23.084C22.7849 13.7282 22.5421 13.971 22.5421 14.2702C22.5421 14.5693 22.7848 14.8117 23.084 14.8117H25.5674L26.1149 15.3588L25.7404 15.7428C25.5896 15.898 25.5515 16.1205 25.6222 16.3109C25.6222 16.3121 25.623 16.3137 25.623 16.3153L26.1213 17.6102L18.7501 18.5315V17.5202H20.3751C20.6743 17.5202 20.917 17.2774 20.917 16.9783C20.917 16.6792 20.6743 16.4368 20.3751 16.4368H17.1251C16.8259 16.4368 16.5835 16.6792 16.5835 16.9783C16.5835 17.2775 16.8259 17.5202 17.1251 17.5202H17.667V18.9984L16.9104 20.2957C16.1634 19.9069 15.3155 19.6867 14.417 19.6867C11.4303 19.6867 9 22.1167 9 25.1028C9 28.0911 11.4303 30.5206 14.417 30.5206C17.033 30.5206 19.2213 28.656 19.7248 26.1867H20.4682C20.692 26.8175 21.2938 27.2706 22.0004 27.2706C22.8966 27.2706 23.625 26.5422 23.625 25.6456C23.625 25.2711 23.4981 24.9252 23.2838 24.6507L26.7536 19.2535L27.1432 20.2683C25.3793 21.1622 24.1669 22.9939 24.1669 25.1028C24.1669 28.0911 26.5972 30.5206 29.5839 30.5206C32.5705 30.5206 35 28.0911 35 25.1028C35.0001 22.1167 32.5705 19.6867 29.584 19.6867ZM14.417 29.4367C12.0275 29.4367 10.0835 27.4927 10.0835 25.1028C10.0835 22.7141 12.0275 20.7702 14.417 20.7702C15.1168 20.7702 15.7782 20.9368 16.3637 21.2328L13.9488 25.3726C13.7985 25.6313 13.8854 25.9621 14.144 26.1137C14.2301 26.1629 14.3238 26.1867 14.4166 26.1867C14.4166 26.1867 14.4182 26.1867 14.4194 26.1867H18.6132C18.1308 28.0545 16.4324 29.4367 14.417 29.4367ZM15.36 25.1028L17.2643 21.8393C18.1744 22.6344 18.7501 23.8032 18.7501 25.1028H15.36ZM20.4683 25.1028H19.8335C19.8335 23.4033 19.0464 21.8842 17.8177 20.8904L18.2085 20.2199L20.7607 24.5951C20.6349 24.7443 20.535 24.9156 20.4683 25.1028ZM22.0005 26.1867C21.7013 26.1867 21.4585 25.9431 21.4585 25.6455C21.4585 25.3456 21.7013 25.1028 22.0005 25.1028C22.2992 25.1028 22.542 25.3456 22.542 25.6455C22.542 25.9431 22.2992 26.1867 22.0005 26.1867ZM22.373 24.0634C22.2528 24.0357 22.1286 24.0206 22.0005 24.0206C21.8961 24.0206 21.7946 24.0302 21.6966 24.0491L19.0901 19.5808L25.7928 18.7428L22.373 24.0634ZM29.584 29.4367C27.194 29.4367 25.25 27.4927 25.25 25.1028C25.25 23.4548 26.1768 22.0183 27.5352 21.2859L29.0785 25.2979C29.1619 25.5122 29.3666 25.6455 29.584 25.6455C29.6483 25.6455 29.7141 25.6328 29.7784 25.609C30.0576 25.5011 30.1964 25.1884 30.0902 24.9092L28.5454 20.8959C28.8786 20.8138 29.2269 20.7701 29.584 20.7701C31.9731 20.7701 33.917 22.7141 33.917 25.1027C33.917 27.4927 31.9731 29.4367 29.584 29.4367Z" fill="#080908"/>
</svg>
