<svg width="44" height="44" viewBox="0 0 44 44" fill="none" xmlns="http://www.w3.org/2000/svg">
<circle cx="22" cy="22" r="22" fill="transparent" stroke="#3d3d3d"/>
<path d="M29.1999 26.6617C27.7773 26.6617 27.0431 27.178 26.3954 27.6334C25.8265 28.0333 25.3772 28.3492 24.3996 28.3492C23.4222 28.3492 22.9728 28.0333 22.4041 27.6334C21.7565 27.1779 21.0222 26.6617 19.5997 26.6617C18.1773 26.6617 17.4431 27.178 16.7954 27.6334C16.2267 28.0333 15.7773 28.3492 14.7999 28.3492C13.8225 28.3492 13.3732 28.0333 12.8044 27.6334C12.1566 27.178 11.4224 26.6617 10 26.6617V28.0679C10.9776 28.0679 11.4268 28.3838 11.9955 28.7839C12.6433 29.2393 13.3774 29.7554 14.7999 29.7554C16.2223 29.7554 16.9565 29.2393 17.6042 28.7839C18.1729 28.3838 18.6223 28.0679 19.5997 28.0679C20.5773 28.0679 21.0264 28.3838 21.5953 28.7839C22.243 29.2393 22.9772 29.7554 24.3996 29.7554C25.8221 29.7554 26.5564 29.2393 27.2042 28.7839C27.7729 28.384 28.2223 28.0679 29.1999 28.0679C30.1775 28.0679 30.6266 28.3838 31.1956 28.7839C31.8432 29.2393 32.5775 29.7554 34 29.7554V28.3492C33.0224 28.3492 32.5731 28.0333 32.0043 27.6334C31.3565 27.178 30.6223 26.6617 29.1999 26.6617Z" fill="white"/>
<path d="M29.1999 18.3665C27.7773 18.3665 27.0431 18.8826 26.3954 19.338C25.8265 19.7379 25.3772 20.054 24.3996 20.054C23.4222 20.054 22.9728 19.7379 22.4041 19.338C21.7565 18.8826 21.0222 18.3665 19.5997 18.3665C18.1773 18.3665 17.4431 18.8826 16.7954 19.338C16.2267 19.7379 15.7773 20.054 14.7999 20.054C13.8225 20.054 13.3732 19.7379 12.8044 19.338C12.1566 18.8826 11.4224 18.3665 10 18.3665V19.7727C10.9776 19.7727 11.4268 20.0886 11.9955 20.4885C12.6433 20.944 13.3774 21.4602 14.7999 21.4602C16.2223 21.4602 16.9565 20.9438 17.6042 20.4885C18.1729 20.0886 18.6223 19.7727 19.5997 19.7727C20.5773 19.7727 21.0264 20.0886 21.5953 20.4885C22.243 20.944 22.9772 21.4602 24.3996 21.4602C25.8221 21.4602 26.5564 20.9438 27.2042 20.4885C27.7729 20.0886 28.2223 19.7727 29.1999 19.7727C30.1775 19.7727 30.6266 20.0886 31.1956 20.4885C31.8432 20.944 32.5775 21.4602 34 21.4602V20.054C33.0224 20.054 32.5731 19.7379 32.0043 19.338C31.3565 18.8826 30.6223 18.3665 29.1999 18.3665Z" fill="white"/>
<path d="M29.1999 22.5142C27.7773 22.5142 27.0431 23.0303 26.3954 23.4857C25.8265 23.8856 25.3772 24.2017 24.3996 24.2017C23.4222 24.2017 22.9728 23.8856 22.4041 23.4857C21.7565 23.0303 21.0222 22.5142 19.5997 22.5142C18.1773 22.5142 17.4431 23.0303 16.7954 23.4857C16.2267 23.8856 15.7773 24.2017 14.7999 24.2017C13.8225 24.2017 13.3732 23.8856 12.8044 23.4857C12.1566 23.0303 11.4224 22.5142 10 22.5142V23.9204C10.9776 23.9204 11.4268 24.2363 11.9955 24.6362C12.6433 25.0916 13.3774 25.6079 14.7999 25.6079C16.2223 25.6079 16.9565 25.0916 17.6042 24.6362C18.1729 24.2363 18.6223 23.9204 19.5997 23.9204C20.5773 23.9204 21.0264 24.2363 21.5953 24.6362C22.243 25.0916 22.9772 25.6079 24.3996 25.6079C25.8221 25.6079 26.5564 25.0916 27.2042 24.6362C27.7729 24.2363 28.2223 23.9204 29.1999 23.9204C30.1775 23.9204 30.6266 24.2363 31.1956 24.6362C31.8432 25.0916 32.5775 25.6079 34 25.6079V24.2017C33.0224 24.2017 32.5731 23.8856 32.0043 23.4857C31.3565 23.0303 30.6223 22.5142 29.1999 22.5142Z" fill="white"/>
<path d="M32.0043 15.1905C31.3565 14.7349 30.6223 14.2188 29.1999 14.2188C27.7773 14.2188 27.0431 14.7349 26.3954 15.1905C25.8265 15.5904 25.3772 15.9062 24.3996 15.9062C23.4222 15.9062 22.9728 15.5904 22.4041 15.1905C21.7565 14.7349 21.0222 14.2188 19.5997 14.2188C18.1773 14.2188 17.4431 14.7349 16.7954 15.1905C16.2267 15.5904 15.7773 15.9062 14.7999 15.9062C13.8225 15.9062 13.3732 15.5904 12.8044 15.1905C12.1566 14.7349 11.4224 14.2188 10 14.2188V15.625C10.9776 15.625 11.4268 15.9409 11.9955 16.3408C12.6433 16.7963 13.3774 17.3125 14.7999 17.3125C16.2223 17.3125 16.9565 16.7963 17.6042 16.3408C18.1729 15.9409 18.6223 15.625 19.5997 15.625C20.5773 15.625 21.0264 15.9409 21.5953 16.3408C22.243 16.7963 22.9772 17.3125 24.3996 17.3125C25.8221 17.3125 26.5564 16.7963 27.2042 16.3408C27.7729 15.9409 28.2223 15.625 29.1999 15.625C30.1775 15.625 30.6266 15.9409 31.1956 16.3408C31.8432 16.7963 32.5775 17.3125 34 17.3125V15.9062C33.0224 15.9062 32.5731 15.5904 32.0043 15.1905Z" fill="white"/>
</svg>
