<svg width="44" height="44" viewBox="0 0 44 44" fill="none" xmlns="http://www.w3.org/2000/svg">
<circle cx="22" cy="22" r="22" fill="#475E69"/>
<path d="M31.7109 18.0898V17.4453H32.3555C32.7114 17.4453 33 17.1567 33 16.8008V15.5117C33 15.2424 32.8326 15.0015 32.5802 14.9076L22.1817 11.0404C22.0362 10.9863 21.8761 10.9865 21.7308 11.041L11.4183 14.9082C11.1667 15.0026 11 15.243 11 15.5117V16.8008C11 17.1567 11.2886 17.4453 11.6445 17.4453H12.2891V18.0898C12.2891 18.9301 12.8279 19.6465 13.5781 19.9126V26.6655C12.8279 26.9316 12.2891 27.648 12.2891 28.4883V29.2437C11.5389 29.5098 11 30.2262 11 31.0664V32.3555C11 32.7114 11.2886 33 11.6445 33H32.3555C32.7114 33 33 32.7114 33 32.3555V31.0664C33 30.2262 32.4611 29.5097 31.7109 29.2437V28.4883C31.7109 27.648 31.1721 26.9316 30.4219 26.6655V19.9126C31.1721 19.6465 31.7109 18.9301 31.7109 18.0898ZM12.9336 16.1563H12.2891V15.9584L21.9579 12.3325L31.7109 15.9597V16.1563H31.0664H12.9336ZM13.5781 28.4883C13.5781 28.1329 13.8673 27.8438 14.2227 27.8438H29.7773C30.1327 27.8438 30.4219 28.1329 30.4219 28.4883V29.1328H13.5781V28.4883ZM14.8672 26.5547V20.0234H16.1562V26.5547H14.8672ZM17.4453 26.5547V20.0234H20.0234V26.5547H17.4453ZM21.3125 26.5547V20.0234H22.6016V26.5547H21.3125ZM23.8906 26.5547V20.0234H26.5547V26.5547H23.8906ZM27.8438 26.5547V20.0234H29.1328V26.5547H27.8438ZM31.0664 30.4219C31.4218 30.4219 31.7109 30.711 31.7109 31.0664V31.7109H12.2891V31.0664C12.2891 30.711 12.5782 30.4219 12.9336 30.4219H31.0664ZM29.7773 18.7344H14.2227C13.8673 18.7344 13.5781 18.4452 13.5781 18.0898V17.4453H30.4219V18.0898C30.4219 18.4452 30.1327 18.7344 29.7773 18.7344Z" fill="white"/>
</svg>
