<svg width="44" height="44" viewBox="0 0 44 44" fill="none" xmlns="http://www.w3.org/2000/svg">
<circle cx="22" cy="22" r="21.5" fill="white" stroke="#D9D9D9"/>
<path d="M15.0963 26.4416C15.4523 26.4416 15.7408 26.153 15.7408 25.797V24.7615C15.7408 24.4055 15.4523 24.1169 15.0963 24.1169C14.7404 24.1169 14.4518 24.4055 14.4518 24.7615V25.797C14.4518 26.153 14.7404 26.4416 15.0963 26.4416Z" fill="black"/>
<path d="M15.0963 30.2386C15.4523 30.2386 15.7408 29.95 15.7408 29.594V28.5585C15.7408 28.2025 15.4523 27.9139 15.0963 27.9139C14.7404 27.9139 14.4518 28.2025 14.4518 28.5585V29.594C14.4518 29.95 14.7404 30.2386 15.0963 30.2386Z" fill="black"/>
<path d="M28.9037 26.4416C29.2596 26.4416 29.5482 26.153 29.5482 25.797V24.7615C29.5482 24.4055 29.2596 24.1169 28.9037 24.1169C28.5477 24.1169 28.2592 24.4055 28.2592 24.7615V25.797C28.2592 26.153 28.5477 26.4416 28.9037 26.4416Z" fill="black"/>
<path d="M28.9037 30.2386C29.2596 30.2386 29.5482 29.95 29.5482 29.594V28.5585C29.5482 28.2025 29.2596 27.9139 28.9037 27.9139C28.5477 27.9139 28.2592 28.2025 28.2592 28.5585V29.594C28.2592 29.95 28.5477 30.2386 28.9037 30.2386Z" fill="black"/>
<path d="M32.3555 31.7109H32.3097V22.6445H32.3555C32.7114 22.6445 33 22.356 33 22C33 21.644 32.7114 21.3555 32.3555 21.3555H31.9874L30.2386 19.0237V17.8578C30.2386 17.5019 29.95 17.2133 29.594 17.2133C29.2381 17.2133 28.9495 17.5019 28.9495 17.8578V18.594H27.4771V17.8578C27.4771 17.5019 27.1885 17.2133 26.8326 17.2133C26.4766 17.2133 26.188 17.5019 26.188 17.8578V18.594H24.7156V15.0963C24.7156 13.3418 23.2902 12.6141 22.6445 12.4576V11.6445C22.6445 11.2886 22.356 11 22 11C21.644 11 21.3555 11.2886 21.3555 11.6445V12.4577C20.713 12.6134 19.2844 13.3397 19.2844 15.0964V18.594H17.812V17.8578C17.812 17.5019 17.5234 17.2133 17.1674 17.2133C16.8115 17.2133 16.5229 17.5019 16.5229 17.8578V18.594H15.0505V17.8578C15.0505 17.5019 14.762 17.2133 14.406 17.2133C14.0501 17.2133 13.7615 17.5019 13.7615 17.8578V19.0237L12.0126 21.3555H11.6445C11.2886 21.3555 11 21.644 11 22C11 22.356 11.2886 22.6445 11.6445 22.6445H11.6903V31.7109H11.6445C11.2886 31.7109 11 31.9995 11 32.3555C11 32.7114 11.2886 33 11.6445 33H32.3555C32.7114 33 33 32.7114 33 32.3555C33 31.9995 32.7114 31.7109 32.3555 31.7109ZM22 13.6698C22.6169 13.6698 23.4266 14.1292 23.4266 15.1422H20.5734C20.5734 14.1307 21.3802 13.6698 22 13.6698ZM20.5734 16.4313H23.4266V18.594H23.0618L22.4126 18.053C22.1736 17.8538 21.8264 17.8538 21.5874 18.053L20.9382 18.594H20.5734V16.4313ZM22 19.3872L24.362 21.3555H19.638L22 19.3872ZM17.2133 31.7109H12.9794V22.6445H17.2133V31.7109ZM17.6212 21.3555H13.6239L14.7282 19.8831H19.3566L17.6212 21.3555ZM25.4977 31.7109H18.5023V22.6445H25.4977V31.7109ZM24.6434 19.8831H29.2718L30.3761 21.3555H26.3788L24.6434 19.8831ZM31.0206 31.7109H26.7867V22.6445H31.0206V31.7109H31.0206Z" fill="black"/>
<path d="M20.6193 26.4416C20.9752 26.4416 21.2638 26.153 21.2638 25.797V24.7615C21.2638 24.4055 20.9752 24.1169 20.6193 24.1169C20.2633 24.1169 19.9747 24.4055 19.9747 24.7615V25.797C19.9747 26.153 20.2633 26.4416 20.6193 26.4416Z" fill="black"/>
<path d="M20.6193 30.2386C20.9752 30.2386 21.2638 29.95 21.2638 29.594V28.5585C21.2638 28.2025 20.9752 27.9139 20.6193 27.9139C20.2633 27.9139 19.9747 28.2025 19.9747 28.5585V29.594C19.9747 29.95 20.2633 30.2386 20.6193 30.2386Z" fill="black"/>
<path d="M23.3807 26.4416C23.7367 26.4416 24.0253 26.153 24.0253 25.797V24.7615C24.0253 24.4055 23.7367 24.1169 23.3807 24.1169C23.0248 24.1169 22.7362 24.4055 22.7362 24.7615V25.797C22.7362 26.153 23.0248 26.4416 23.3807 26.4416Z" fill="black"/>
<path d="M23.3807 30.2386C23.7367 30.2386 24.0253 29.95 24.0253 29.594V28.5585C24.0253 28.2025 23.7367 27.9139 23.3807 27.9139C23.0248 27.9139 22.7362 28.2025 22.7362 28.5585V29.594C22.7362 29.95 23.0248 30.2386 23.3807 30.2386Z" fill="black"/>
</svg>
