<svg width="44" height="44" viewBox="0 0 44 44" fill="none" xmlns="http://www.w3.org/2000/svg">
<circle cx="22" cy="22" r="21.5" fill="white" stroke="#D9D9D9"/>
<path d="M31.5 30.8204H28.8472V26.173L31.5 27.7064V30.8204Z" stroke="#080908"/>
<path d="M15.1528 26.1693V30.8203H12.5V27.706L15.1528 26.1693Z" stroke="#080908"/>
<path d="M19.543 30.8004H16.798V23.4967L22 19.1816L27.202 23.4967V30.8004H24.4571V27.8923C24.4571 26.5473 23.3666 25.4569 22.0216 25.4569H21.9785C20.6334 25.4569 19.543 26.5473 19.543 27.8923V30.8004Z" stroke="#080908"/>
<path d="M13.7743 22.425L14.7418 23.599L22 17.6182L29.2582 23.599L30.2257 22.425L22.4516 16.0191V14.5937H23.8471V13.6904H22.4516V12.6797H21.5484V13.6904H20.1528V14.5937H21.5484V16.0191L13.7743 22.425Z" fill="#080908"/>
</svg>
