<svg width="44" height="44" viewBox="0 0 44 44" fill="none" xmlns="http://www.w3.org/2000/svg">
<circle cx="22" cy="22" r="21.5" fill="white" stroke="#D9D9D9"/>
<g clip-path="url(#clip0)">
<path d="M29.3774 14.5333C25.8345 13.5841 22.4329 20.1939 23.5329 24.8281C23.5856 25.0498 23.7556 25.2248 23.9758 25.2838L28.6801 26.5443C28.8986 26.6029 29.134 26.5378 29.2915 26.371C32.5825 22.8854 32.8907 15.4747 29.3774 14.5333ZM28.6312 25.2472L24.6667 24.185C24.4724 23.0636 24.5585 21.7356 24.9164 20.3999C26.0674 16.1046 29.523 13.7901 30.4742 17.6588C31.0638 20.0572 30.1862 23.3826 28.6312 25.2472Z" fill="#080908"/>
<path d="M28.1034 27.6738L23.9105 26.5504C23.5797 26.4618 23.2396 26.6581 23.151 26.9888L22.7497 28.4863C22.3514 29.9726 23.2366 31.5057 24.7229 31.904C26.2126 32.3032 27.7415 31.4207 28.1406 29.9309L28.5419 28.4334C28.6305 28.1028 28.4342 27.7625 28.1034 27.6738ZM26.9427 29.6098C26.721 30.4372 25.8717 30.928 25.044 30.706C24.2182 30.4848 23.7265 29.633 23.9477 28.8073L24.1885 27.9088L27.1834 28.7113L26.9427 29.6098Z" fill="#080908"/>
<path d="M20.4766 22.3817C21.1607 19.4997 20.092 15.5259 18.0397 13.3868C15.802 11.0542 13.1142 11.7305 12.331 14.9164C11.624 17.7924 12.6825 21.7688 14.7181 23.9248C14.8748 24.0908 15.1096 24.1568 15.3295 24.098L20.0338 22.8375C20.2539 22.7785 20.424 22.6035 20.4766 22.3817ZM19.3429 21.7386L15.3784 22.8009C14.6495 21.9269 14.0601 20.7338 13.7021 19.3981C12.5564 15.122 14.3736 11.3569 17.1447 14.2454C18.8344 16.0067 19.7632 19.312 19.3429 21.7386Z" fill="#080908"/>
<path d="M20.8585 24.5425C20.7701 24.2125 20.4306 24.0153 20.099 24.104L15.9061 25.2275C15.5753 25.3161 15.379 25.6562 15.4676 25.987L15.8689 27.4845C16.2026 28.7298 17.3329 29.553 18.565 29.553C20.3872 29.553 21.7377 27.8236 21.2598 26.04L20.8585 24.5425ZM18.9656 28.2596C18.1399 28.481 17.2881 27.9891 17.0669 27.1635L16.8261 26.2649L19.8211 25.4624L20.0618 26.3609C20.2836 27.1885 19.7933 28.0379 18.9656 28.2596Z" fill="#080908"/>
</g>
<defs>
<clipPath id="clip0">
<rect width="20" height="20" fill="white" transform="translate(12 12)"/>
</clipPath>
</defs>
</svg>
