<svg width="44" height="44" viewBox="0 0 44 44" fill="none" xmlns="http://www.w3.org/2000/svg">
<circle cx="22" cy="22" r="22" fill="transparent" stroke="#3d3d3d"/>
<path d="M32.3555 31.7109H29.4534V27.6806C30.3864 27.4545 31.2299 26.7369 31.8749 25.6037C32.6004 24.3291 33 22.6525 33 20.8828C33 19.1131 32.6004 17.4365 31.8748 16.1619C31.0842 14.7728 29.9953 14.0078 28.8089 14.0078C27.9221 14.0078 27.0904 14.4351 26.3966 15.2304C26.1973 14.6432 25.9545 14.0939 25.6708 13.5954C24.7181 11.9217 23.4144 11 22 11C20.5856 11 19.2819 11.9217 18.3292 13.5954C18.0464 14.0923 17.8042 14.6397 17.6052 15.2248C16.9131 14.4329 16.0841 14.0078 15.1974 14.0078C14.011 14.0078 12.9222 14.7728 12.1315 16.1619C11.4059 17.4365 11.0063 19.1131 11.0063 20.8828C11.0063 22.6525 11.4059 24.3291 12.1315 25.6037C12.7765 26.7369 13.62 27.4545 14.5529 27.6806V31.7109H11.6445C11.2886 31.7109 11 31.9995 11 32.3555C11 32.7114 11.2886 33 11.6445 33H32.3555C32.7114 33 33 32.7114 33 32.3555C33 31.9995 32.7114 31.7109 32.3555 31.7109ZM22.6445 27.6927C23.767 27.4642 24.7909 26.6387 25.5855 25.3086C25.8554 25.8411 26.1734 26.3048 26.529 26.6786C27.0226 27.1972 27.579 27.5354 28.1643 27.6789V31.7109H22.6445V27.6927ZM26.8577 16.8094C27.4021 15.8482 28.1133 15.2969 28.8089 15.2969C29.5017 15.2969 30.2109 15.8446 30.7545 16.7996C31.3713 17.883 31.7109 19.3331 31.7109 20.8828C31.7109 22.4325 31.3713 23.8826 30.7546 24.966C30.3797 25.6246 29.9261 26.0893 29.4534 26.3145V22.8594C29.4534 22.5034 29.1649 22.2148 28.8089 22.2148C28.453 22.2148 28.1644 22.5034 28.1644 22.8594V26.3139C27.4263 25.9611 26.7467 25.0262 26.3319 23.7363C26.3307 23.7324 26.329 23.7288 26.3276 23.7249C26.7963 22.4287 27.0472 20.9337 27.0472 19.3789C27.0472 18.5153 26.9696 17.6703 26.8204 16.8674C26.8337 16.8489 26.8462 16.8296 26.8577 16.8094ZM19.4495 14.2331C20.1631 12.9794 21.0689 12.2891 22 12.2891C22.9311 12.2891 23.8369 12.9794 24.5505 14.2331C25.3292 15.6011 25.7581 17.4286 25.7581 19.3789C25.7581 21.3292 25.3292 23.1567 24.5505 24.5247C24.0032 25.4863 23.3427 26.116 22.6445 26.3575V22.5889L24.5718 20.6617C24.8235 20.4099 24.8235 20.0019 24.5718 19.7502C24.3201 19.4984 23.912 19.4984 23.6603 19.7502L22.6445 20.7659V17.5312C22.6445 17.1753 22.356 16.8867 22 16.8867C21.644 16.8867 21.3555 17.1753 21.3555 17.5312V18.2553L20.9948 17.8946C20.7431 17.6429 20.335 17.6429 20.0833 17.8946C19.8316 18.1463 19.8316 18.5544 20.0833 18.8061L21.3555 20.0783V26.3575C20.6573 26.116 19.9968 25.4863 19.4495 24.5248C18.6708 23.1567 18.2419 21.3292 18.2419 19.3789C18.2419 17.4286 18.6708 15.6011 19.4495 14.2331ZM13.2517 24.966C12.635 23.8826 12.2954 22.4325 12.2954 20.8828C12.2954 19.3331 12.635 17.883 13.2517 16.7996C13.7954 15.8446 14.5045 15.2969 15.1974 15.2969C15.9084 15.2969 16.6309 15.8686 17.18 16.8655C17.0306 17.669 16.9528 18.5146 16.9528 19.3789C16.9528 20.9406 17.206 22.4419 17.6786 23.7422C17.6673 23.7658 17.6569 23.7901 17.6484 23.8156C17.2255 25.0834 16.5665 25.9788 15.8419 26.3181V22.8594C15.8419 22.5034 15.5534 22.2148 15.1974 22.2148C14.8414 22.2148 14.5529 22.5034 14.5529 22.8594V26.3145C14.0802 26.0893 13.6266 25.6246 13.2517 24.966ZM15.8419 27.6787C16.416 27.5379 16.9627 27.2098 17.449 26.708C17.8144 26.3309 18.1415 25.859 18.4181 25.3146C19.2122 26.6413 20.2347 27.4646 21.3555 27.6927V31.7109H15.8419V27.6787Z" fill="white"/>
</svg>
