<svg width="44" height="44" viewBox="0 0 44 44" fill="none" xmlns="http://www.w3.org/2000/svg">
<circle cx="22" cy="22" r="22" fill="#475E69"/>
<path d="M30.1151 13.7866C26.2179 12.7425 22.4761 20.0133 23.6862 25.1109C23.7441 25.3548 23.9311 25.5473 24.1733 25.6122L29.348 26.9987C29.5884 27.0632 29.8474 26.9916 30.0206 26.8081C33.6407 22.9739 33.9797 14.8222 30.1151 13.7866ZM29.2942 25.5719L24.9333 24.4035C24.7196 23.1699 24.8143 21.7092 25.208 20.2399C26.4741 15.515 30.2753 12.9691 31.3215 17.2247C31.9701 19.863 31.0048 23.5208 29.2942 25.5719Z" fill="white"/>
<path d="M28.7137 28.2412L24.1015 27.0054C23.7376 26.9079 23.3636 27.1239 23.2661 27.4877L22.8247 29.1349C22.3866 30.7698 23.3603 32.4563 24.9952 32.8944C26.6339 33.3335 28.3156 32.3628 28.7547 30.7239L29.1961 29.0767C29.2935 28.713 29.0777 28.3387 28.7137 28.2412ZM27.4369 30.3708C27.1931 31.2809 26.2589 31.8208 25.3484 31.5766C24.4401 31.3332 23.8991 30.3963 24.1425 29.488L24.4073 28.4997L27.7018 29.3824L27.4369 30.3708Z" fill="white"/>
<path d="M20.3243 22.4199C21.0769 19.2497 19.9012 14.8785 17.6437 12.5255C15.1822 9.95966 12.2257 10.7035 11.3642 14.2081C10.5865 17.3717 11.7508 21.7456 13.9899 24.1172C14.1624 24.2999 14.4206 24.3725 14.6624 24.3079L19.8372 22.9213C20.0794 22.8563 20.2664 22.6638 20.3243 22.4199ZM19.0772 21.7125L14.7162 22.881C13.9145 21.9196 13.2661 20.6072 12.8724 19.1379C11.6121 14.4342 13.611 10.2926 16.6593 13.4699C18.5179 15.4073 19.5396 19.0432 19.0772 21.7125Z" fill="white"/>
<path d="M20.7444 24.7967C20.6472 24.4337 20.2737 24.2168 19.909 24.3144L15.2968 25.5502C14.9328 25.6477 14.7169 26.0218 14.8144 26.3857L15.2558 28.0329C15.6229 29.4028 16.8663 30.3083 18.2215 30.3083C20.226 30.3083 21.7115 28.406 21.1858 26.4439L20.7444 24.7967ZM18.6622 28.8856C17.7539 29.1291 16.817 28.588 16.5736 27.6798L16.3088 26.6914L19.6032 25.8087L19.868 26.797C20.112 27.7073 19.5727 28.6417 18.6622 28.8856Z" fill="white"/>
</svg>
