<svg width="44" height="44" viewBox="0 0 44 44" fill="none" xmlns="http://www.w3.org/2000/svg">
<circle cx="22" cy="22" r="22" fill="#080908"/>
<path d="M32.5 31.7524H29.4819V26.5037L32.5 28.2482V31.7524Z" stroke="white"/>
<path d="M14.5181 26.4995V31.7524H11.5V28.2479L14.5181 26.4995Z" stroke="white"/>
<path d="M19.3472 31.7305H16.2278V23.6229L22 18.8349L27.7722 23.6229V31.7305H24.6527V28.4816C24.6527 27.0297 23.4756 25.8526 22.0237 25.8526H21.9763C20.5243 25.8526 19.3472 27.0297 19.3472 28.4816V31.7305Z" stroke="white"/>
<path d="M12.9517 22.4675L14.016 23.7589L22 17.1801L29.984 23.7589L31.0482 22.4675L22.4967 15.4211V13.8531H24.0319V12.8595H22.4967V11.7477H21.5032V12.8595H19.9681V13.8531H21.5032V15.4211L12.9517 22.4675Z" fill="white"/>
</svg>
