<svg width="44" height="44" viewBox="0 0 44 44" fill="none" xmlns="http://www.w3.org/2000/svg">
<circle cx="22" cy="22" r="22" fill="#475E69"/>
<path d="M16.1992 33H27.8008V19.5311L29.0898 16.9529V11H25.2227V13.5781H23.9336V11H20.0664V13.5781H18.7773V11H14.9102V16.9529L16.1992 19.5311V33ZM17.2421 18.7344L16.5976 17.4453H27.4025L26.7579 18.7344H17.2421ZM23.2891 31.7109H20.7109V27.8008C20.7109 27.09 21.2892 26.5117 22 26.5117C22.7108 26.5117 23.2891 27.09 23.2891 27.8008V31.7109ZM24.5781 31.7109V27.8008C24.5781 26.3792 23.4216 25.2227 22 25.2227C20.5784 25.2227 19.4219 26.3792 19.4219 27.8008V31.7109H17.4883V20.0234H26.5117V31.7109H24.5781ZM17.4883 12.2891V14.8672H21.3555V12.2891H22.6445V14.8672H26.5117V12.2891H27.8008V16.1562H16.1992V12.2891H17.4883Z" fill="white"/>
<path d="M20.0664 22.6445H23.9336V23.9336H20.0664V22.6445Z" fill="white"/>
</svg>
