<svg width="44" height="44" viewBox="0 0 44 44" fill="none" xmlns="http://www.w3.org/2000/svg">
<circle cx="22" cy="22" r="22" fill="#475E69"/>
<path d="M30.8236 19.3086C30.2485 19.3086 29.691 19.3861 29.1602 19.5315L27.5372 15.3104L28.1244 14.7067C28.3644 14.4592 28.3616 14.0651 28.1179 13.8209L26.8578 12.5612C26.7396 12.4431 26.579 12.3761 26.4119 12.3761H23.2612C22.9132 12.3761 22.6307 12.6586 22.6307 13.0067C22.6307 13.3547 22.9131 13.6367 23.2612 13.6367H26.1506L26.7875 14.2732L26.3518 14.72C26.1764 14.9005 26.1321 15.1594 26.2143 15.381C26.2143 15.3823 26.2152 15.3842 26.2152 15.3861L26.7949 16.8927L18.2188 17.9645V16.7879H20.1095C20.4575 16.7879 20.74 16.5055 20.74 16.1575C20.74 15.8095 20.4575 15.5274 20.1095 15.5274H16.3282C15.9802 15.5274 15.6981 15.8094 15.6981 16.1575C15.6981 16.5055 15.9802 16.7879 16.3282 16.7879H16.9587V18.5078L16.0785 20.0171C15.2093 19.5648 14.2229 19.3086 13.1774 19.3086C9.70261 19.3086 6.875 22.1358 6.875 25.61C6.875 29.0867 9.70261 31.9134 13.1774 31.9134C16.2211 31.9134 18.7671 29.744 19.3529 26.8711H20.2178C20.4782 27.605 21.1784 28.1322 22.0004 28.1322C23.0431 28.1322 23.8906 27.2847 23.8906 26.2415C23.8906 25.8058 23.7429 25.4033 23.4937 25.0839L27.5306 18.8046L27.9839 19.9853C25.9317 21.0253 24.5211 23.1564 24.5211 25.61C24.5211 29.0867 27.3487 31.9134 30.8235 31.9134C34.2983 31.9134 37.125 29.0867 37.125 25.61C37.1251 22.1357 34.2984 19.3086 30.8236 19.3086ZM13.1775 30.6524C10.3974 30.6524 8.13566 28.3906 8.13566 25.61C8.13566 22.8309 10.3974 20.5692 13.1775 20.5692C13.9917 20.5692 14.7611 20.763 15.4424 21.1073L12.6328 25.9239C12.4578 26.2248 12.5589 26.6098 12.8599 26.7861C12.96 26.8434 13.069 26.8711 13.177 26.8711C13.177 26.8711 13.1788 26.8711 13.1803 26.8711H18.0596C17.4983 29.0442 15.5223 30.6524 13.1775 30.6524ZM14.2747 25.61L16.4902 21.8131C17.5491 22.7381 18.2188 24.098 18.2188 25.61H14.2747ZM20.2179 25.61H19.4794C19.4794 23.6327 18.5636 21.8653 17.1341 20.709L17.5888 19.9289L20.5581 25.0192C20.4118 25.1928 20.2955 25.3922 20.2179 25.61ZM22.0006 26.871C21.6525 26.871 21.37 26.5876 21.37 26.2414C21.37 25.8925 21.6525 25.61 22.0006 25.61C22.3481 25.61 22.6306 25.8924 22.6306 26.2414C22.6306 26.5876 22.3481 26.871 22.0006 26.871ZM22.434 24.4007C22.2941 24.3684 22.1496 24.3509 22.0006 24.3509C21.8791 24.3509 21.761 24.362 21.647 24.3841L18.6144 19.1853L26.4128 18.2104L22.434 24.4007ZM30.8236 30.6524C28.0431 30.6524 25.7813 28.3906 25.7813 25.61C25.7813 23.6927 26.8596 22.0212 28.44 21.1691L30.2356 25.837C30.3325 26.0863 30.5707 26.2414 30.8236 26.2414C30.8984 26.2414 30.975 26.2266 31.0498 26.1989C31.3747 26.0734 31.5362 25.7096 31.4126 25.3848L29.6153 20.7154C30.003 20.6199 30.4082 20.5691 30.8236 20.5691C33.6033 20.5691 35.865 22.8308 35.865 25.6099C35.865 28.3906 33.6033 30.6524 30.8236 30.6524Z" fill="white"/>
</svg>
