<svg width="20" height="20" viewBox="0 0 20 20" fill="none" xmlns="http://www.w3.org/2000/svg">
<path fill-rule="evenodd" clip-rule="evenodd" d="M2.08092 0.711495C3.361 -0.391579 5.30429 -0.188187 6.32893 1.1561L8.0471 3.41027C8.5961 4.13054 8.78269 5.0641 8.55281 5.94048L7.9931 8.07423C7.90572 8.40735 7.99942 8.76195 8.23989 9.00819L10.8838 11.7157C11.1268 11.9645 11.4835 12.0656 11.8207 11.9812L14.1441 11.3995C15.0197 11.1803 15.9474 11.3767 16.6595 11.932L18.868 13.6541C20.2245 14.7119 20.3869 16.7054 19.2194 17.9693L18.7796 18.4454C17.4709 19.8622 15.3961 20.432 13.5485 19.6421C7.19578 16.9265 3.24575 12.9329 0.386928 6.49009C-0.467022 4.56556 0.148489 2.37671 1.6833 1.05413L2.08092 0.711495ZM4.77336 2.34506C4.43182 1.89696 3.78405 1.82916 3.35736 2.19685L2.95974 2.53949C2.0192 3.34997 1.70316 4.63042 2.17525 5.69438C4.84204 11.7044 8.43834 15.327 14.3168 17.8399C15.33 18.273 16.5395 17.9847 17.343 17.1148L17.7828 16.6386C18.172 16.2173 18.1179 15.5528 17.6657 15.2003L15.4572 13.4781C15.2198 13.293 14.9106 13.2276 14.6187 13.3006L12.2953 13.8823C11.2837 14.1356 10.2138 13.8323 9.48468 13.0857L6.84075 10.3783C6.11935 9.63952 5.83826 8.57574 6.1004 7.57639L6.6601 5.44263C6.73673 5.15051 6.67453 4.83932 6.49153 4.59923L4.77336 2.34506Z" fill="currentColor"/>
</svg>
