<svg width="24" height="24" viewBox="0 0 24 24" fill="none" xmlns="http://www.w3.org/2000/svg">
<mask id="mask0_8858_33488" style="mask-type:alpha" maskUnits="userSpaceOnUse" x="0" y="0" width="24" height="24">
<rect width="24" height="24" fill="#D9D9D9"/>
</mask>
<g mask="url(#mask0_8858_33488)">
<path d="M12 22.6077L8.85938 19.5H4.50001V15.1406L1.39233 12L4.50001 8.85938V4.50001H8.85938L12 1.39233L15.1406 4.50001H19.5V8.85938L22.6076 12L19.5 15.1406V19.5H15.1406L12 22.6077ZM12 18C13.6667 18 15.0833 17.4167 16.25 16.25C17.4167 15.0833 18 13.6667 18 12C18 10.3333 17.4167 8.91665 16.25 7.74998C15.0833 6.58332 13.6667 5.99998 12 5.99998V18ZM12 20.5L14.5 18H18V14.5L20.5 12L18 9.49998V5.99998H14.5L12 3.49998L9.49998 5.99998H5.99998V9.49998L3.49998 12L5.99998 14.5V18H9.49998L12 20.5Z" fill="currentColor"/>
</g>
</svg>
