<svg width="30" height="30" viewBox="0 0 30 30" fill="none" xmlns="http://www.w3.org/2000/svg">
<rect width="30" height="30" rx="7" fill="#AE52DD"/>
<g clip-path="url(#clip0_6513_14118)">
<path d="M14.9999 20.9999V8.99994C16.5912 8.99994 18.1174 9.63208 19.2426 10.7573C20.3678 11.8825 20.9999 13.4086 20.9999 14.9999C20.9999 16.5912 20.3678 18.1174 19.2426 19.2426C18.1174 20.3678 16.5912 20.9999 14.9999 20.9999ZM22.9999 18.3099L26.3099 14.9999L22.9999 11.6899V6.99994H18.3099L14.9999 3.68994L11.6899 6.99994H6.99994V11.6899L3.68994 14.9999L6.99994 18.3099V22.9999H11.6899L14.9999 26.3099L18.3099 22.9999H22.9999V18.3099Z" fill="white"/>
</g>
<defs>
<clipPath id="clip0_6513_14118">
<rect width="24" height="24" fill="white" transform="translate(3 3)"/>
</clipPath>
</defs>
</svg>
