<svg width="24" height="24" viewBox="0 0 24 24" fill="none" xmlns="http://www.w3.org/2000/svg">
<path fill-rule="evenodd" clip-rule="evenodd" d="M20.5 6.5625H17.8293C17.4175 5.39731 16.3062 4.5625 15 4.5625C13.6938 4.5625 12.5825 5.39731 12.1707 6.5625H3.5C3.22386 6.5625 3 6.78636 3 7.0625V8.0625C3 8.33864 3.22386 8.5625 3.5 8.5625H12.1707C12.5825 9.72769 13.6938 10.5625 15 10.5625C16.3062 10.5625 17.4175 9.72769 17.8293 8.5625H20.5C20.7761 8.5625 21 8.33864 21 8.0625V7.0625C21 6.78636 20.7761 6.5625 20.5 6.5625ZM3.5 15.4375C3.22386 15.4375 3 15.6614 3 15.9375V16.9375C3 17.2136 3.22386 17.4375 3.5 17.4375H6.17071C6.58254 18.6027 7.69378 19.4375 9 19.4375C10.3062 19.4375 11.4175 18.6027 11.8293 17.4375H20.5C20.7761 17.4375 21 17.2136 21 16.9375V15.9375C21 15.6614 20.7761 15.4375 20.5 15.4375H11.8293C11.4175 14.2723 10.3062 13.4375 9 13.4375C7.69378 13.4375 6.58254 14.2723 6.17071 15.4375H3.5Z" fill="currentColor"/>
</svg>
