<svg width="24" height="24" viewBox="0 0 24 24" fill="none" xmlns="http://www.w3.org/2000/svg">
<g clip-path="url(#clip0)">
<path d="M19.1999 16.6616C17.7773 16.6616 17.0431 17.178 16.3954 17.6334C15.8265 18.0333 15.3772 18.3491 14.3996 18.3491C13.4222 18.3491 12.9728 18.0333 12.4041 17.6334C11.7565 17.1778 11.0222 16.6616 9.59967 16.6616C8.17731 16.6616 7.44305 17.178 6.79541 17.6334C6.22668 18.0333 5.77734 18.3491 4.79993 18.3491C3.82251 18.3491 3.37317 18.0333 2.80444 17.6334C2.15662 17.178 1.42236 16.6616 0 16.6616V18.0679C0.9776 18.0679 1.42676 18.3837 1.99548 18.7838C2.64331 19.2392 3.37738 19.7554 4.79993 19.7554C6.22229 19.7554 6.95654 19.2392 7.60419 18.7838C8.17291 18.3837 8.62225 18.0679 9.59967 18.0679C10.5773 18.0679 11.0264 18.3837 11.5953 18.7838C12.243 19.2392 12.9772 19.7554 14.3996 19.7554C15.8221 19.7554 16.5564 19.2392 17.2042 18.7838C17.7729 18.3839 18.2223 18.0679 19.1999 18.0679C20.1775 18.0679 20.6266 18.3837 21.1956 18.7838C21.8432 19.2392 22.5775 19.7554 24 19.7554V18.3491C23.0224 18.3491 22.5731 18.0333 22.0043 17.6334C21.3565 17.178 20.6223 16.6616 19.1999 16.6616Z" fill="currentColor"/>
<path d="M19.1999 8.36646C17.7773 8.36646 17.0431 8.88263 16.3954 9.33801C15.8265 9.73792 15.3772 10.054 14.3996 10.054C13.4222 10.054 12.9728 9.73792 12.4041 9.33801C11.7565 8.88263 11.0222 8.36646 9.59967 8.36646C8.17731 8.36646 7.44305 8.88263 6.79541 9.33801C6.22668 9.73792 5.77734 10.054 4.79993 10.054C3.82251 10.054 3.37317 9.73792 2.80444 9.33801C2.15662 8.88263 1.42236 8.36646 0 8.36646V9.77271C0.9776 9.77271 1.42676 10.0886 1.99548 10.4885C2.64331 10.944 3.37738 11.4602 4.79993 11.4602C6.22229 11.4602 6.95654 10.9438 7.60419 10.4885C8.17291 10.0886 8.62225 9.77271 9.59967 9.77271C10.5773 9.77271 11.0264 10.0886 11.5953 10.4885C12.243 10.944 12.9772 11.4602 14.3996 11.4602C15.8221 11.4602 16.5564 10.9438 17.2042 10.4885C17.7729 10.0886 18.2223 9.77271 19.1999 9.77271C20.1775 9.77271 20.6266 10.0886 21.1956 10.4885C21.8432 10.944 22.5775 11.4602 24 11.4602V10.054C23.0224 10.054 22.5731 9.73792 22.0043 9.33801C21.3565 8.88263 20.6223 8.36646 19.1999 8.36646Z" fill="currentColor"/>
<path d="M19.1999 12.5142C17.7773 12.5142 17.0431 13.0303 16.3954 13.4857C15.8265 13.8856 15.3772 14.2017 14.3996 14.2017C13.4222 14.2017 12.9728 13.8856 12.4041 13.4857C11.7565 13.0303 11.0222 12.5142 9.59967 12.5142C8.17731 12.5142 7.44305 13.0303 6.79541 13.4857C6.22668 13.8856 5.77734 14.2017 4.79993 14.2017C3.82251 14.2017 3.37317 13.8856 2.80444 13.4857C2.15662 13.0303 1.42236 12.5142 0 12.5142V13.9204C0.9776 13.9204 1.42676 14.2363 1.99548 14.6362C2.64331 15.0916 3.37738 15.6079 4.79993 15.6079C6.22229 15.6079 6.95654 15.0916 7.60419 14.6362C8.17291 14.2363 8.62225 13.9204 9.59967 13.9204C10.5773 13.9204 11.0264 14.2363 11.5953 14.6362C12.243 15.0916 12.9772 15.6079 14.3996 15.6079C15.8221 15.6079 16.5564 15.0916 17.2042 14.6362C17.7729 14.2363 18.2223 13.9204 19.1999 13.9204C20.1775 13.9204 20.6266 14.2363 21.1956 14.6362C21.8432 15.0916 22.5775 15.6079 24 15.6079V14.2017C23.0224 14.2017 22.5731 13.8856 22.0043 13.4857C21.3565 13.0303 20.6223 12.5142 19.1999 12.5142Z" fill="currentColor"/>
<path d="M22.0043 5.19049C21.3565 4.73492 20.6223 4.21875 19.1999 4.21875C17.7773 4.21875 17.0431 4.73492 16.3954 5.19049C15.8265 5.59039 15.3772 5.90625 14.3996 5.90625C13.4222 5.90625 12.9728 5.59039 12.4041 5.19049C11.7565 4.73492 11.0222 4.21875 9.59967 4.21875C8.17731 4.21875 7.44305 4.73492 6.79541 5.19049C6.22668 5.59039 5.77734 5.90625 4.79993 5.90625C3.82251 5.90625 3.37317 5.59039 2.80444 5.19049C2.15662 4.73492 1.42236 4.21875 0 4.21875V5.625C0.9776 5.625 1.42676 5.94086 1.99548 6.34076C2.64331 6.79633 3.37738 7.3125 4.79993 7.3125C6.22229 7.3125 6.95654 6.79633 7.60419 6.34076C8.17291 5.94086 8.62225 5.625 9.59967 5.625C10.5773 5.625 11.0264 5.94086 11.5953 6.34076C12.243 6.79633 12.9772 7.3125 14.3996 7.3125C15.8221 7.3125 16.5564 6.79633 17.2042 6.34076C17.7729 5.94086 18.2223 5.625 19.1999 5.625C20.1775 5.625 20.6266 5.94086 21.1956 6.34076C21.8432 6.79633 22.5775 7.3125 24 7.3125V5.90625C23.0224 5.90625 22.5731 5.59039 22.0043 5.19049Z" fill="currentColor"/>
</g>
<defs>
<clipPath id="clip0">
<rect width="24" height="24" fill="white"/>
</clipPath>
</defs>
</svg>
