<svg width="24" height="24" viewBox="0 0 24 24" fill="none" xmlns="http://www.w3.org/2000/svg">
<path d="M16.751 12.968C19.369 12.968 21.4912 15.0909 21.4912 17.7092C21.4912 20.3276 19.369 22.4504 16.751 22.4504C14.1332 22.4501 12.0107 20.3275 12.0107 17.7092C12.0108 15.091 14.1333 12.9683 16.751 12.968ZM16.751 14.8704C16.5962 14.8705 16.4515 14.9268 16.3389 15.0393C16.2263 15.1521 16.171 15.2965 16.1709 15.4514V17.1282H14.4941C14.3779 17.1282 14.2672 17.1597 14.1719 17.2229L14.082 17.2971C13.9976 17.3816 13.9448 17.4839 13.9238 17.595L13.9131 17.7092L13.9238 17.8235C13.9448 17.9346 13.9976 18.0368 14.082 18.1213C14.1948 18.2341 14.3391 18.2902 14.4941 18.2903H16.1709V19.967C16.171 20.122 16.2262 20.2664 16.3389 20.3792C16.4516 20.4919 16.5961 20.547 16.751 20.5471C16.906 20.5471 17.0513 20.4919 17.1641 20.3792C17.2766 20.2664 17.3319 20.1219 17.332 19.967V18.2903H19.0088C19.1637 18.2902 19.3082 18.234 19.4209 18.1213C19.5335 18.0086 19.5898 17.8642 19.5898 17.7092C19.5898 17.593 19.5583 17.4823 19.4951 17.387L19.4209 17.2971L19.3311 17.2229C19.2357 17.1596 19.1251 17.1282 19.0088 17.1282H17.332V15.4514C17.332 15.335 17.3007 15.2246 17.2373 15.1292L17.1641 15.0393L17.0732 14.9651C17.0097 14.923 16.9393 14.8951 16.8652 14.8811L16.751 14.8704ZM13.5107 3.57544C14.9752 3.57572 16.1472 4.096 16.9502 4.94067C17.742 5.77379 18.126 6.87043 18.126 7.94751C18.1258 9.02464 17.7422 10.1214 16.9502 10.9543C16.1471 11.7989 14.9751 12.3194 13.5107 12.3196C11.8552 12.3196 11.0869 12.32 10.3193 12.3206C9.55137 12.3211 8.78227 12.3215 7.12598 12.3215C6.09565 12.3216 5.39631 12.6756 4.95215 13.1418C4.49706 13.6198 4.25685 14.2714 4.25684 14.9417C4.25696 15.6118 4.49713 16.2636 4.95215 16.7415C5.39635 17.2075 6.09598 17.5617 7.12598 17.5618H10.1211C10.603 17.562 10.9939 17.9529 10.9941 18.4348C10.9939 18.8864 10.6507 19.2589 10.2109 19.304L10.1211 19.3088H7.12598C5.66225 19.3088 4.49072 18.7887 3.6875 17.9456C2.89526 17.1136 2.5099 16.0179 2.50977 14.9417C2.50978 13.8654 2.89432 12.7698 3.68652 11.9377C4.48976 11.0942 5.66182 10.5755 7.12598 10.5754C8.78143 10.5754 9.54982 10.575 10.3174 10.5745C11.0853 10.5739 11.8545 10.5725 13.5107 10.5725C14.5406 10.5724 15.2403 10.2184 15.6846 9.75122C16.1398 9.27249 16.3798 8.61937 16.3799 7.94751C16.3799 7.27572 16.1396 6.62267 15.6846 6.1438C15.2403 5.67656 14.5407 5.32178 13.5107 5.32153C12.537 5.32142 11.6895 5.32205 11.0859 5.32251C10.7846 5.32274 10.5434 5.32331 10.3779 5.32349H10.1221C9.64007 5.32402 9.24897 4.93338 9.24805 4.45142C9.24739 3.96915 9.63785 3.57805 10.1201 3.57739H10.1855C10.2288 3.57733 10.2935 3.57651 10.376 3.57642C10.5416 3.57624 10.7834 3.57665 11.085 3.57642C11.6889 3.57596 12.5366 3.57533 13.5107 3.57544ZM19.21 17.9104L19.167 17.9456C19.1818 17.9356 19.1957 17.9236 19.209 17.9104C19.2117 17.9077 19.2133 17.9034 19.2158 17.9006C19.2134 17.9034 19.2126 17.9078 19.21 17.9104ZM19.2861 17.7668C19.2853 17.7712 19.2822 17.7753 19.2812 17.7795C19.2864 17.7572 19.291 17.734 19.291 17.7092L19.2861 17.7668ZM5.71973 1.5647C7.17893 1.71307 8.31738 2.94622 8.31738 4.44458L8.30273 4.74048C8.15435 6.19953 6.92199 7.33793 5.42383 7.33813L5.12793 7.32349C3.76587 7.18525 2.68244 6.10246 2.54395 4.74048L2.5293 4.44458C2.5293 2.84628 3.82556 1.55018 5.42383 1.55005L5.71973 1.5647ZM5.42383 3.29614C4.7901 3.29627 4.27539 3.81082 4.27539 4.44458C4.27561 5.07815 4.79023 5.59191 5.42383 5.59204C6.05734 5.59182 6.57107 5.0781 6.57129 4.44458C6.57129 3.81088 6.05748 3.29636 5.42383 3.29614Z" fill="currentColor"/>
</svg>
