<svg width="24" height="24" viewBox="0 0 24 24" fill="none" xmlns="http://www.w3.org/2000/svg">
<path fill-rule="evenodd" clip-rule="evenodd" d="M14.463 7.53781C14.463 8.89792 13.3604 10.0005 12.0003 10.0005C10.6402 10.0005 9.53758 8.89792 9.53758 7.53781C9.53758 6.17769 10.6402 5.0751 12.0003 5.0751C13.3604 5.0751 14.463 6.17769 14.463 7.53781ZM16.463 7.53781C16.463 10.0025 14.465 12.0005 12.0003 12.0005C9.5356 12.0005 7.53758 10.0025 7.53758 7.53781C7.53758 5.07312 9.5356 3.0751 12.0003 3.0751C14.465 3.0751 16.463 5.07312 16.463 7.53781ZM5.42342 20.0005H18.6081C18.3311 19.1908 17.8759 18.326 17.1384 17.6211C16.2568 16.7784 14.8035 16.0005 12.2727 16.0005C9.51828 16.0005 7.92675 16.8017 6.96972 17.6634C6.19245 18.3633 5.71482 19.2113 5.42342 20.0005ZM19.0996 22.0005H4.90047C3.85113 22.0005 3.01887 21.1413 3.28819 20.1271C3.91608 17.7627 5.91419 14.0005 12.2727 14.0005C18.2523 14.0005 20.1351 17.7589 20.728 20.1235C20.9833 21.1417 20.1493 22.0005 19.0996 22.0005Z" fill="currentColor"/>
</svg>
