<svg width="24" height="24" viewBox="0 0 24 24" fill="none" xmlns="http://www.w3.org/2000/svg">
<mask id="mask0_4460_1034" style="mask-type:alpha" maskUnits="userSpaceOnUse" x="0" y="0" width="24" height="24">
<rect width="24" height="24" fill="#D9D9D9"/>
</mask>
<g mask="url(#mask0_4460_1034)">
<path d="M5 22C3.61667 22 2.4375 21.5125 1.4625 20.5375C0.4875 19.5625 0 18.3833 0 17C0 15.6167 0.4875 14.4375 1.4625 13.4625C2.4375 12.4875 3.61667 12 5 12C6.38333 12 7.5625 12.4875 8.5375 13.4625C9.5125 14.4375 10 15.6167 10 17C10 18.3833 9.5125 19.5625 8.5375 20.5375C7.5625 21.5125 6.38333 22 5 22ZM5 20C5.83333 20 6.54167 19.7083 7.125 19.125C7.70833 18.5417 8 17.8333 8 17C8 16.1667 7.70833 15.4583 7.125 14.875C6.54167 14.2917 5.83333 14 5 14C4.16667 14 3.45833 14.2917 2.875 14.875C2.29167 15.4583 2 16.1667 2 17C2 17.8333 2.29167 18.5417 2.875 19.125C3.45833 19.7083 4.16667 20 5 20ZM13.2 8.1L10.8 10.5L12.45 12.225C12.6333 12.4083 12.7708 12.6167 12.8625 12.85C12.9542 13.0833 13 13.3333 13 13.6V18C13 18.2833 12.9042 18.5208 12.7125 18.7125C12.5208 18.9042 12.2833 19 12 19C11.7167 19 11.4792 18.9042 11.2875 18.7125C11.0958 18.5208 11 18.2833 11 18V14L7.8 11.2C7.6 11.0167 7.45 10.8042 7.35 10.5625C7.25 10.3208 7.2 10.0667 7.2 9.8C7.2 9.53333 7.25417 9.27917 7.3625 9.0375C7.47083 8.79583 7.61667 8.58333 7.8 8.4L10.6 5.6C10.8 5.4 11.0292 5.25 11.2875 5.15C11.5458 5.05 11.8167 5 12.1 5C12.3833 5 12.6542 5.05 12.9125 5.15C13.1708 5.25 13.4 5.4 13.6 5.6L15.5 7.5C15.8833 7.88333 16.3042 8.19583 16.7625 8.4375C17.2208 8.67917 17.7083 8.84167 18.225 8.925C18.5083 8.975 18.7292 9.10833 18.8875 9.325C19.0458 9.54167 19.1 9.79167 19.05 10.075C19 10.3583 18.8667 10.5792 18.65 10.7375C18.4333 10.8958 18.1833 10.95 17.9 10.9C17.15 10.7667 16.4458 10.5333 15.7875 10.2C15.1292 9.86667 14.5333 9.43333 14 8.9L13.2 8.1ZM15.5 5.5C14.95 5.5 14.4792 5.30417 14.0875 4.9125C13.6958 4.52083 13.5 4.05 13.5 3.5C13.5 2.95 13.6958 2.47917 14.0875 2.0875C14.4792 1.69583 14.95 1.5 15.5 1.5C16.05 1.5 16.5208 1.69583 16.9125 2.0875C17.3042 2.47917 17.5 2.95 17.5 3.5C17.5 4.05 17.3042 4.52083 16.9125 4.9125C16.5208 5.30417 16.05 5.5 15.5 5.5ZM19 22C17.6167 22 16.4375 21.5125 15.4625 20.5375C14.4875 19.5625 14 18.3833 14 17C14 15.6167 14.4875 14.4375 15.4625 13.4625C16.4375 12.4875 17.6167 12 19 12C20.3833 12 21.5625 12.4875 22.5375 13.4625C23.5125 14.4375 24 15.6167 24 17C24 18.3833 23.5125 19.5625 22.5375 20.5375C21.5625 21.5125 20.3833 22 19 22ZM19 20C19.8333 20 20.5417 19.7083 21.125 19.125C21.7083 18.5417 22 17.8333 22 17C22 16.1667 21.7083 15.4583 21.125 14.875C20.5417 14.2917 19.8333 14 19 14C18.1667 14 17.4583 14.2917 16.875 14.875C16.2917 15.4583 16 16.1667 16 17C16 17.8333 16.2917 18.5417 16.875 19.125C17.4583 19.7083 18.1667 20 19 20Z" fill="currentColor"/>
</g>
</svg>
