<svg width="24" height="24" viewBox="0 0 24 24" fill="none" xmlns="http://www.w3.org/2000/svg">
<mask id="mask0_4460_992" style="mask-type:alpha" maskUnits="userSpaceOnUse" x="0" y="0" width="24" height="24">
<rect width="24" height="24" fill="#D9D9D9"/>
</mask>
<g mask="url(#mask0_4460_992)">
<path d="M2 20V15.3C2 14.9 2.10833 14.5375 2.325 14.2125C2.54167 13.8875 2.83333 13.6417 3.2 13.475L6 12.225V10.225C6 9.84167 6.1 9.49583 6.3 9.1875C6.5 8.87917 6.76667 8.63333 7.1 8.45L11 6.5V5H10C9.71667 5 9.47917 4.90417 9.2875 4.7125C9.09583 4.52083 9 4.28333 9 4C9 3.71667 9.09583 3.47917 9.2875 3.2875C9.47917 3.09583 9.71667 3 10 3H11V2C11 1.71667 11.0958 1.47917 11.2875 1.2875C11.4792 1.09583 11.7167 1 12 1C12.2833 1 12.5208 1.09583 12.7125 1.2875C12.9042 1.47917 13 1.71667 13 2V3H14C14.2833 3 14.5208 3.09583 14.7125 3.2875C14.9042 3.47917 15 3.71667 15 4C15 4.28333 14.9042 4.52083 14.7125 4.7125C14.5208 4.90417 14.2833 5 14 5H13V6.5L16.9 8.45C17.2333 8.63333 17.5 8.87917 17.7 9.1875C17.9 9.49583 18 9.84167 18 10.225V12.225L20.8 13.475C21.1667 13.6417 21.4583 13.8875 21.675 14.2125C21.8917 14.5375 22 14.9 22 15.3V20C22 20.55 21.8042 21.0208 21.4125 21.4125C21.0208 21.8042 20.55 22 20 22H14C13.7167 22 13.4792 21.9042 13.2875 21.7125C13.0958 21.5208 13 21.2833 13 21V18C13 17.7167 12.9042 17.4792 12.7125 17.2875C12.5208 17.0958 12.2833 17 12 17C11.7167 17 11.4792 17.0958 11.2875 17.2875C11.0958 17.4792 11 17.7167 11 18V21C11 21.2833 10.9042 21.5208 10.7125 21.7125C10.5208 21.9042 10.2833 22 10 22H4C3.45 22 2.97917 21.8042 2.5875 21.4125C2.19583 21.0208 2 20.55 2 20ZM4 20H9V17.95C9 17.1 9.29167 16.3792 9.875 15.7875C10.4583 15.1958 11.1667 14.9 12 14.9C12.8333 14.9 13.5417 15.1958 14.125 15.7875C14.7083 16.3792 15 17.1 15 17.95V20H20V15.2L16 13.4V10.05L12 8L8 10.05V13.4L4 15.2V20ZM12 13.5C12.4167 13.5 12.7708 13.3542 13.0625 13.0625C13.3542 12.7708 13.5 12.4167 13.5 12C13.5 11.5833 13.3542 11.2292 13.0625 10.9375C12.7708 10.6458 12.4167 10.5 12 10.5C11.5833 10.5 11.2292 10.6458 10.9375 10.9375C10.6458 11.2292 10.5 11.5833 10.5 12C10.5 12.4167 10.6458 12.7708 10.9375 13.0625C11.2292 13.3542 11.5833 13.5 12 13.5Z" fill="currentColor"/>
</g>
</svg>
