<svg width="24" height="24" viewBox="0 0 24 24" fill="none" xmlns="http://www.w3.org/2000/svg">
<path d="M17.2501 6.75831C16.9251 6.43331 16.4001 6.43331 16.0751 6.75831L12.0001 10.825L7.9251 6.74998C7.6001 6.42498 7.0751 6.42498 6.7501 6.74998C6.4251 7.07498 6.4251 7.59998 6.7501 7.92498L10.8251 12L6.7501 16.075C6.4251 16.4 6.4251 16.925 6.7501 17.25C7.0751 17.575 7.6001 17.575 7.9251 17.25L12.0001 13.175L16.0751 17.25C16.4001 17.575 16.9251 17.575 17.2501 17.25C17.5751 16.925 17.5751 16.4 17.2501 16.075L13.1751 12L17.2501 7.92498C17.5668 7.60831 17.5668 7.07498 17.2501 6.75831Z" fill="currentColor"/>
</svg>
