<svg width="24" height="24" viewBox="0 0 24 24" fill="none" xmlns="http://www.w3.org/2000/svg">
<path fill-rule="evenodd" clip-rule="evenodd" d="M20.0003 12.0002C20.0003 16.4185 16.4186 20.0002 12.0003 20.0002C7.58198 20.0002 4.00024 16.4185 4.00024 12.0002C4.00024 7.58191 7.58198 4.00018 12.0003 4.00018C16.4186 4.00018 20.0003 7.58191 20.0003 12.0002ZM22.0003 12.0002C22.0003 17.5231 17.5231 22.0002 12.0003 22.0002C6.47741 22.0002 2.00024 17.5231 2.00024 12.0002C2.00024 6.47735 6.47741 2.00018 12.0003 2.00018C17.5231 2.00018 22.0003 6.47735 22.0003 12.0002ZM12.3516 6.18655C12.3516 5.63427 11.9039 5.18655 11.3516 5.18655C10.7993 5.18655 10.3516 5.63427 10.3516 6.18655V13.1259C10.3516 13.5534 10.5789 13.9485 10.9484 14.1633L15.422 16.7641C15.8995 17.0417 16.5115 16.8797 16.7891 16.4022C17.0667 15.9248 16.9047 15.3127 16.4272 15.0351L12.3516 12.6656V6.18655Z" fill="currentColor"/>
</svg>
