<svg width="24" height="24" viewBox="0 0 24 24" fill="none" xmlns="http://www.w3.org/2000/svg">
<path fill-rule="evenodd" clip-rule="evenodd" d="M12.0066 2.95736C12.0066 2.40384 11.5573 1.94985 11.0073 2.00446C5.95 2.50667 2 6.7801 2 11.9776C2 17.5128 6.48011 22 12.0066 22C14.3052 22 16.4228 21.2237 18.1123 19.9187C18.566 19.5682 18.5572 18.8959 18.1408 18.5017C17.7574 18.1387 17.1577 18.138 16.7322 18.4502C15.4078 19.4218 13.7741 19.9955 12.0066 19.9955C7.5854 19.9955 4.00132 16.4058 4.00132 11.9776C4.00132 7.8881 7.05804 4.51371 11.0079 4.02139C11.5563 3.95303 12.0066 3.51088 12.0066 2.95736ZM18.9522 6.14887C18.5704 6.54904 17.9369 6.56342 17.5374 6.181L17.5065 6.15159L17.4755 6.12235C17.0719 5.7442 17.0508 5.10997 17.4283 4.70575C17.8059 4.30153 18.4391 4.2804 18.8427 4.65854L18.8815 4.69509L18.9201 4.73185C19.3196 5.11428 19.334 5.7487 18.9522 6.14887ZM19.989 7.68262C20.5018 7.47613 21.0846 7.72505 21.2907 8.23862L21.3105 8.28817L21.33 8.33783C21.5307 8.85356 21.2759 9.4346 20.761 9.63562C20.2461 9.83663 19.666 9.58151 19.4653 9.06578L19.4497 9.02605L19.4339 8.98641C19.2277 8.47285 19.4763 7.88912 19.989 7.68262ZM15.8414 3.7547C15.6642 4.27901 15.0962 4.56021 14.5728 4.38277L14.5324 4.3692L14.4919 4.35584C13.9665 4.18399 13.6798 3.61814 13.8513 3.09196C14.0229 2.56579 14.5879 2.27856 15.1132 2.4504L15.1638 2.4671L15.2143 2.48407C15.7378 2.66151 16.0185 3.23039 15.8414 3.7547ZM21.0534 11.4646C21.6053 11.4945 22.0284 11.9668 21.9985 12.5196L21.9955 12.5728L21.9922 12.6261C21.9564 13.1784 21.4804 13.5972 20.9289 13.5614C20.3774 13.5255 19.9593 13.0487 19.9951 12.4964L19.9977 12.4538L20.0001 12.4112C20.03 11.8584 20.5016 11.4346 21.0534 11.4646ZM20.422 15.3427C20.9095 15.6034 21.0936 16.2106 20.8333 16.6989L20.8081 16.7459L20.7826 16.7927C20.5171 17.2782 19.9089 17.4562 19.4243 17.1902C18.9396 16.9243 18.7619 16.3152 19.0274 15.8297L19.0478 15.7922L19.068 15.7546C19.3283 15.2664 19.9345 15.0819 20.422 15.3427ZM12.3584 6.15102C12.3584 5.5975 11.9104 5.14878 11.3577 5.14878C10.8051 5.14878 10.3571 5.5975 10.3571 6.15102V13.106C10.3571 13.5343 10.5846 13.9304 10.9543 14.1457L15.4308 16.7523C15.9086 17.0305 16.5211 16.8681 16.7988 16.3896C17.0766 15.9111 16.9145 15.2976 16.4367 15.0194L12.3584 12.6446V6.15102Z" fill="currentColor"/>
</svg>
