<svg width="24" height="24" viewBox="0 0 24 24" fill="none" xmlns="http://www.w3.org/2000/svg">
<path d="M6.09497 6.04028C6.54191 5.59334 7.26654 5.59334 7.71348 6.04028L17.4246 15.7514C17.8715 16.1983 17.8715 16.9229 17.4246 17.3699C16.9776 17.8168 16.253 17.8168 15.806 17.3699L6.09497 7.65879C5.64803 7.21185 5.64803 6.48722 6.09497 6.04028Z" fill="currentColor"/>
<path d="M17.4246 6.04028C16.9776 5.59334 16.253 5.59334 15.8061 6.04028L6.09498 15.7514C5.64804 16.1983 5.64804 16.9229 6.09498 17.3699C6.54192 17.8168 7.26655 17.8168 7.71349 17.3699L17.4246 7.65879C17.8715 7.21185 17.8715 6.48722 17.4246 6.04028Z" fill="currentColor"/>
</svg>
