<svg width="343" height="349" viewBox="0 0 343 349" fill="none" xmlns="http://www.w3.org/2000/svg">
<path d="M306.557 140.623C306.782 138.953 304.443 137.586 302.667 137.445C301.823 137.476 300.978 137.402 300.152 137.227C298.426 136.621 297.735 134.409 296.051 133.704C294.79 133.169 293.339 133.641 292.113 134.261C290.887 134.881 289.682 135.67 288.322 135.733C287.131 135.811 285.842 135.374 284.799 135.952C284.031 136.382 283.622 137.276 282.911 137.805C282.169 138.274 281.308 138.518 280.431 138.509C279.562 138.49 278.697 138.63 277.88 138.925C277.474 139.082 277.13 139.367 276.9 139.737C276.67 140.107 276.566 140.542 276.605 140.975L306.557 140.623Z" fill="#F5F5F5"/>
<path d="M300.279 60.8293C300.547 58.9129 297.834 57.3064 295.805 57.1655C294.833 57.2049 293.86 57.122 292.909 56.9189C290.915 56.2143 290.091 53.6496 288.181 52.8323C286.723 52.2193 285.053 52.7619 283.644 53.4735C282.235 54.1851 280.825 55.0729 279.275 55.1715C277.908 55.2631 276.422 54.7558 275.224 55.4252C274.329 55.9184 273.864 56.9471 273.04 57.5389C272.184 58.0695 271.193 58.3388 270.186 58.314C269.186 58.2905 268.189 58.453 267.248 58.7931C266.782 58.9761 266.387 59.3045 266.121 59.7296C265.856 60.1548 265.735 60.654 265.776 61.1534L300.279 60.8293Z" fill="#F5F5F5"/>
<path d="M218.244 139.418C218.653 136.452 214.475 134.014 211.332 133.782C209.832 133.655 208.281 133.887 206.858 133.394C203.786 132.323 202.56 128.349 199.559 127.053C197.311 126.109 194.732 126.954 192.555 128.046C190.378 129.139 188.236 130.52 185.805 130.675C183.692 130.808 181.402 130.026 179.549 131.055C178.175 131.823 177.435 133.415 176.181 134.352C174.927 135.29 173.32 135.459 171.777 135.543C170.234 135.628 168.642 135.642 167.24 136.283C165.837 136.924 164.675 138.397 164.964 139.926L218.244 139.418Z" fill="#EBEBEB"/>
<path d="M65.3214 228.936C65.6596 226.498 62.2142 224.49 59.6284 224.286C58.3954 224.18 57.113 224.37 55.9434 223.962C53.414 223.081 52.4205 219.812 49.9263 218.769C48.0803 217.987 45.9525 218.684 44.1628 219.586C42.3732 220.488 40.6399 221.622 38.6036 221.749C36.8563 221.862 34.968 221.214 33.4461 222.066C32.3117 222.7 31.7199 224.004 30.67 224.779C29.5805 225.449 28.3202 225.789 27.0414 225.758C25.7694 225.729 24.503 225.937 23.3072 226.371C22.1446 226.9 21.1934 228.126 21.433 229.373L65.3214 228.936Z" fill="#EBEBEB"/>
<path d="M142.91 188.007C143.178 186.09 140.465 184.484 138.436 184.35C137.464 184.383 136.492 184.298 135.54 184.096C133.546 183.392 132.722 180.827 130.812 180.01C129.354 179.397 127.684 179.946 126.275 180.651C124.866 181.355 123.457 182.25 121.907 182.356C120.54 182.44 119.053 181.933 117.855 182.603C116.96 183.103 116.495 184.124 115.671 184.716C114.815 185.245 113.823 185.512 112.817 185.484C111.817 185.461 110.821 185.623 109.879 185.963C109.414 186.147 109.019 186.476 108.754 186.901C108.489 187.326 108.367 187.825 108.407 188.324L142.91 188.007Z" fill="#F5F5F5"/>
<path d="M311.108 222.249C311.369 220.333 308.663 218.726 306.634 218.585C305.662 218.625 304.689 218.542 303.738 218.339C301.744 217.634 300.92 215.07 299.003 214.252C297.552 213.639 295.882 214.182 294.473 214.893C293.064 215.605 291.655 216.493 290.105 216.591C288.695 216.683 287.251 216.176 286.053 216.845C285.158 217.338 284.693 218.367 283.869 218.959C283.014 219.489 282.022 219.759 281.015 219.734C280.015 219.71 279.019 219.873 278.077 220.213C277.61 220.395 277.214 220.723 276.949 221.149C276.684 221.574 276.563 222.074 276.605 222.573L311.108 222.249Z" fill="#F5F5F5"/>
<path d="M99.2543 32.0542C99.6277 29.3768 95.8441 27.1785 93.0046 26.946C91.6518 26.8403 90.2426 27.0446 88.9603 26.5937C86.1842 25.6284 85.071 22.035 82.3583 20.8936C80.3362 20.041 77.997 20.802 76.0171 21.7884C74.0372 22.7748 72.1137 24.0219 69.9154 24.1629C68.006 24.2897 65.9345 23.5781 64.2787 24.5081C63.0387 25.2127 62.3834 26.6219 61.2349 27.4885C60.0402 28.2342 58.6552 28.6184 57.247 28.5947C55.8505 28.5618 54.46 28.7888 53.1463 29.264C51.871 29.8488 50.8283 31.1876 51.089 32.5615L99.2543 32.0542Z" fill="#EBEBEB"/>
<path d="M228.713 278.102L254.733 250.975L259.63 245.853L274.3 230.542L285.178 242.485L319.499 281.42L341.644 328.902H255.84L228.713 278.102Z" fill="#E0E0E0"/>
<path d="M254.726 250.975L259.658 245.853L274.328 230.542L285.904 243.33L281.789 252.102L280.62 244.415L271.129 258.423C271.129 258.423 272.728 245.775 272.757 245.923C272.785 246.071 254.726 250.975 254.726 250.975Z" fill="#F5F5F5"/>
<path d="M6.48889 328.902L16.1276 295.491C16.1276 295.491 31.8539 287.663 31.7905 287.663C31.7271 287.663 47.707 259.994 47.707 259.994H54.7528L103.496 328.902H6.48889Z" fill="#E0E0E0"/>
<path d="M35.5317 281.16L47.7281 259.994H54.788L63.3839 272.155L56.4156 267.512L50.5112 278.109L48.9047 270.577L35.5317 281.864" fill="#F5F5F5"/>
<path d="M333.5 329.043C333.5 329.141 258.948 329.226 167.007 329.226C75.066 329.226 0.5 329.141 0.5 329.043C0.5 328.944 75.0308 328.853 167.007 328.853C258.983 328.853 333.5 328.937 333.5 329.043Z" fill="currentColor"/>
<path d="M112.434 144.556C129.09 127.901 129.09 100.898 112.434 84.2424C95.7792 67.5872 68.7757 67.5872 52.1205 84.2424C35.4652 100.898 35.4652 127.901 52.1205 144.556C68.7757 161.212 95.7792 161.212 112.434 144.556Z" fill="white"/>
<path d="M100.227 154.771C92.2417 158.322 83.3832 159.425 74.7712 157.942C66.1593 156.458 58.1807 152.453 51.8445 146.435C45.5083 140.417 41.0991 132.655 39.1744 124.13C37.2496 115.606 37.8959 106.702 41.0314 98.5455C44.1669 90.3885 49.6508 83.3445 56.7896 78.3042C63.9284 73.2639 72.4016 70.4537 81.1376 70.229C89.8735 70.0043 98.4799 72.3751 105.868 77.0417C113.257 81.7083 119.096 88.4611 122.647 96.4461C127.394 107.155 127.7 119.31 123.497 130.245C119.294 141.179 110.925 150 100.227 154.771ZM65.5401 76.8305C58.1057 80.1312 51.8173 85.5628 47.4704 92.4381C43.1235 99.3135 40.9134 107.324 41.1197 115.455C41.326 123.587 43.9394 131.474 48.6294 138.121C53.3193 144.767 59.8751 149.872 67.4673 152.792C75.0595 155.711 83.347 156.314 91.2815 154.522C99.216 152.731 106.441 148.626 112.042 142.728C117.644 136.83 121.37 129.403 122.75 121.386C124.129 113.37 123.1 105.125 119.793 97.6932C115.353 87.7432 107.148 79.9597 96.9784 76.049C86.8086 72.1382 75.503 72.4193 65.5401 76.8305Z" fill="#37842A"/>
<path d="M87.7625 151.291L87.4665 151.34L87.1142 149.043L87.3961 149.001L87.7625 151.291ZM90.6724 150.72L90.144 148.458L90.4187 148.388L90.9613 150.649L90.6724 150.72ZM84.5214 151.685H84.2184L84.0564 149.367H84.3382L84.5214 151.685ZM93.8219 149.86L93.1173 147.641L93.385 147.556L94.0896 149.769L93.8219 149.86ZM81.2451 151.798H80.9492V149.473H81.231L81.2451 151.798ZM96.8939 148.789L96.0625 146.626L96.3232 146.521L97.1686 148.684L96.8939 148.789ZM77.9758 151.608L77.6728 151.572L77.9194 149.268H78.2013L77.9758 151.608ZM99.8954 147.38L98.8033 145.33L99.0499 145.196L100.163 147.239L99.8954 147.38ZM74.6995 151.192L74.4036 151.136L74.8616 148.86L75.1363 148.909L74.6995 151.192ZM102.693 145.753L101.424 143.801L101.657 143.653L102.939 145.583L102.693 145.753ZM71.5077 150.424L71.2189 150.332L71.9234 148.113L72.1912 148.19L71.5077 150.424ZM105.328 143.836L103.919 142.018L104.144 141.842L105.553 143.66L105.328 143.836ZM68.3723 149.346L68.0975 149.24L68.9712 147.084L69.2319 147.197L68.3723 149.346ZM107.829 141.701L106.237 140.017L106.441 139.82L108.047 141.504L107.829 141.701ZM65.399 147.993L65.1313 147.852L66.2022 145.795L66.4559 145.922L65.399 147.993ZM110.119 139.362L108.428 137.805L108.611 137.586L110.351 139.122L110.119 139.362ZM62.5454 146.358L62.2918 146.189L63.56 144.252L63.7925 144.4L62.5454 146.358ZM112.19 136.825L110.33 135.416L110.492 135.191L112.367 136.565L112.19 136.825ZM59.9033 144.435L59.6637 144.252L61.0729 142.427L61.2913 142.596L59.9033 144.435ZM114.072 134.078L112.099 132.859L112.247 132.619L114.227 133.824L114.072 134.078ZM57.3949 142.314L57.1836 142.11L58.7689 140.419L58.9732 140.609L57.3949 142.314ZM115.671 131.217L113.6 130.174L113.719 129.921L115.833 130.949L115.671 131.217ZM55.0769 139.982L54.8796 139.764L56.6058 138.213L56.796 138.425L55.0769 139.982ZM117.003 128.23L114.861 127.37L114.959 127.109L117.122 127.948L117.003 128.23ZM52.9983 137.467L52.8222 137.234L54.6752 135.825L54.8443 136.05L52.9983 137.467ZM118.095 125.122L115.868 124.418C115.868 124.326 115.925 124.242 115.946 124.15L118.179 124.798L118.095 125.122ZM51.1594 134.775L50.9973 134.521L52.9631 133.288L53.1111 133.521L51.1594 134.775ZM118.933 121.945L116.657 121.473L116.714 121.198L118.99 121.649L118.933 121.945ZM49.4754 131.957L49.3345 131.696L51.3989 130.625L51.5258 130.872L49.4754 131.957ZM119.419 118.718L117.115 118.45V118.175L119.426 118.422L119.419 118.718ZM48.0663 129.005L47.9465 128.73L50.0602 127.842L50.1659 128.096L48.0663 129.005ZM119.659 115.448L117.341 115.385V115.103L119.659 115.152V115.448ZM46.9037 125.947L46.8121 125.665L49.0174 124.96L49.102 125.228L46.9037 125.947ZM119.61 112.172L117.292 112.313V112.031L119.61 111.876V112.172ZM45.9948 122.804L45.9243 122.515L48.186 121.98L48.2494 122.255L45.9948 122.804ZM119.271 108.91L116.974 109.255L116.932 108.973L119.222 108.614L119.271 108.91ZM47.6435 119.239L45.3466 119.598L45.3043 119.302L47.6012 118.964L47.6435 119.239ZM116.383 106.232L116.319 105.958L118.574 105.401L118.644 105.69L116.383 106.232ZM47.2912 116.181L44.9802 116.343V116.047L47.2983 115.899L47.2912 116.181ZM115.565 103.28L115.474 103.013L117.672 102.259L117.764 102.54L115.565 103.28ZM47.2208 113.102L44.8956 113.067V112.771L47.2137 112.827L47.2208 113.102ZM114.438 100.42L114.325 100.166L116.439 99.2219L116.559 99.4966L114.438 100.42ZM47.3969 110.044L45.107 109.791V109.502L47.418 109.762L47.3969 110.044ZM113.564 98.5595L113.452 98.3482L115.516 97.2842L115.65 97.552L113.564 98.5595ZM47.8619 107.015L45.5861 106.557L45.6495 106.268L47.9183 106.747L47.8619 107.015ZM112.042 95.8821L111.901 95.6426L113.86 94.4025L114.022 94.6561L112.042 95.8821ZM48.6299 104.034L46.4034 103.365C46.4034 103.273 46.4598 103.175 46.495 103.083L48.7074 103.788L48.6299 104.034ZM110.344 93.3386L110.182 93.1202L112.028 91.711L112.204 91.9506L110.344 93.3386ZM49.6234 101.166L47.5096 100.286L47.6224 100.011L49.7361 100.906L49.6234 101.166ZM108.379 90.9853L108.188 90.7809L109.929 89.1886L110.126 89.407L108.379 90.9853ZM50.9128 98.3482L48.8554 97.2702L48.9963 97.0095L51.0466 98.1016L50.9128 98.3482ZM106.23 88.7588L106.018 88.5686L107.596 86.8635L107.808 87.0607L106.23 88.7588ZM52.4629 95.6989L50.5112 94.4377L50.6732 94.1911L52.6108 95.4664L52.4629 95.6989ZM103.897 86.7648L103.679 86.5887L105.088 84.7497L105.321 84.9329L103.897 86.7648ZM54.2666 93.2188L52.4417 91.8096L52.632 91.5771L54.4427 93.0286L54.2666 93.2188ZM101.41 84.9963L101.178 84.8413L102.425 82.8826L102.671 83.0446L101.41 84.9963ZM56.2746 90.8937L54.5836 89.3013L54.788 89.0829L56.4649 90.6894L56.2746 90.8937ZM98.761 83.4321L98.5144 83.3053L99.5854 81.2479L99.8531 81.3818L98.761 83.4321ZM58.4941 88.7447L56.944 87.0185L57.1624 86.8212L58.7055 88.5615L58.4941 88.7447ZM95.9638 82.1428L95.7031 82.0371L96.5909 79.9233L96.8727 80.0431L95.9638 82.1428ZM60.8333 86.8141L59.4241 84.9611L59.6637 84.7849L61.0729 86.645L60.8333 86.8141ZM93.0821 81.0647L92.8143 80.9802L93.5189 78.7678L93.8078 78.8594L93.0821 81.0647ZM63.3557 85.0386L62.0945 83.0869L62.3411 82.9248L63.5953 84.8836L63.3557 85.0386ZM90.1299 80.2474L89.8621 80.184L90.3624 77.9153L90.6513 77.9857L90.1299 80.2474ZM66.0261 83.4462L64.8987 81.41L65.1594 81.2691L66.2727 83.3053L66.0261 83.4462ZM87.1072 79.6908L86.8324 79.6485L87.1354 77.3516H87.4313L87.1072 79.6908ZM68.788 82.0793L67.8862 79.9656L68.168 79.8529L69.0487 81.9666L68.788 82.0793ZM84.0845 79.3949H83.8027L83.9013 77.0768H84.2043L84.0845 79.3949ZM71.6768 81.0154L70.9722 78.803L71.2541 78.7114L71.9587 80.9309L71.6768 81.0154ZM80.9632 79.3244H80.6814L80.5757 77.0063H80.8716L80.9632 79.3244ZM74.622 80.1558L74.1147 77.8941L74.4036 77.8307L74.8968 80.0995L74.622 80.1558ZM77.9335 79.5781H77.6517L77.3417 77.2741H77.6376L77.9335 79.5781Z" fill="currentColor"/>
<path d="M65.54 76.8302C65.54 76.8302 66.3573 76.4427 67.9637 75.8226C70.3123 74.9314 72.7398 74.2638 75.2139 73.8287C79.1393 73.1458 83.1429 73.0343 87.1002 73.4975C92.3454 74.1312 97.4233 75.7521 102.066 78.2746C107.262 81.125 111.786 85.0586 115.331 89.8092C118.876 94.5597 121.358 100.016 122.611 105.81C123.005 107.683 123.273 109.58 123.414 111.489C123.976 119.637 122.118 127.77 118.074 134.867C117.02 136.716 115.823 138.481 114.494 140.144C113.156 141.842 111.678 143.426 110.077 144.879C103.497 150.886 95.1446 154.595 86.2758 155.448C84.122 155.664 81.9538 155.702 79.7937 155.56C69.4579 154.922 59.7354 150.438 52.5404 142.991C51.2178 141.606 49.9891 140.135 48.8625 138.587C47.7693 137.079 46.7828 135.497 45.9103 133.852C44.2232 130.71 42.9559 127.361 42.1408 123.889C40.6533 117.647 40.6533 111.143 42.1408 104.901C43.3789 99.7653 45.581 94.9116 48.63 90.5977C50.9416 87.3484 53.7138 84.4527 56.8595 82.0018C58.8434 80.4582 60.9663 79.1019 63.2007 77.9505C64.7367 77.1754 65.5752 76.8302 65.5752 76.8302C65.5752 76.8302 65.3779 76.9359 64.9763 77.1261C64.5747 77.3163 63.9828 77.5841 63.2289 78.0068C58.029 80.7499 53.4779 84.5762 49.8826 89.2278C46.2873 93.8793 43.7314 99.2479 42.3874 104.971C41.6784 107.938 41.3096 110.975 41.2882 114.025C41.2465 117.335 41.6182 120.637 42.3944 123.854C43.6565 129.11 45.9326 134.069 49.095 138.453C50.219 139.986 51.4404 141.445 52.7518 142.821C58.3935 148.651 65.6321 152.683 73.5581 154.412C75.6224 154.865 77.7191 155.155 79.8289 155.278C81.9725 155.424 84.1246 155.386 86.2618 155.166C95.0672 154.318 103.359 150.631 109.886 144.66C111.479 143.22 112.947 141.648 114.276 139.961C120.679 131.916 123.845 121.769 123.154 111.51C123.011 109.616 122.747 107.733 122.365 105.873C121.23 100.59 119.076 95.5782 116.023 91.1191C112.408 85.8537 107.608 81.5098 102.009 78.4366C93.8632 73.9586 84.4431 72.3646 75.2773 73.9132C72.8063 74.3357 70.3794 74.9842 68.0271 75.8508C67.2098 76.1256 66.618 76.4074 66.2023 76.5554L65.54 76.8302Z" fill="currentColor"/>
<path d="M58.7971 73.23C56.6673 73.5857 54.4804 73.3371 52.4848 72.5125C50.4892 71.6879 48.7647 70.3203 47.5072 68.5649C46.2497 66.8096 45.5095 64.7369 45.3707 62.5821C45.2319 60.4272 45.7 58.2767 46.7218 56.3745C47.7437 54.4723 49.2784 52.8947 51.1518 51.8209C53.0251 50.747 55.162 50.2199 57.3198 50.2993C59.4776 50.3788 61.5699 51.0616 63.3592 52.2703C65.1485 53.479 66.5631 55.1652 67.4423 57.1373C68.0601 58.5228 68.3987 60.0164 68.4387 61.5328C68.4787 63.0492 68.2194 64.5586 67.6756 65.9747C67.1318 67.3908 66.3142 68.6858 65.2695 69.7857C64.2248 70.8855 62.9735 71.7686 61.5872 72.3845C60.6962 72.7818 59.7588 73.0659 58.7971 73.23ZM55.4644 53.2903C54.7366 53.4112 54.0266 53.6218 53.3506 53.9174C51.7925 54.6207 50.4773 55.7695 49.571 57.219C48.6646 58.6685 48.2076 60.3539 48.2575 62.0627C48.3074 63.7715 48.862 65.4273 49.8513 66.8215C50.8407 68.2157 52.2207 69.2858 53.8172 69.897C55.4138 70.5082 57.1555 70.6331 58.823 70.256C60.4904 69.879 62.009 69.0168 63.1872 67.7781C64.3655 66.5395 65.1507 64.9798 65.444 63.2956C65.7373 61.6114 65.5255 59.878 64.8354 58.314C64.0543 56.5539 62.7088 55.1043 61.0117 54.1945C59.3146 53.2847 57.3626 52.9665 55.4644 53.2903Z" fill="#E0E0E0"/>
<path d="M68.0976 72.9411L59.1564 76.915L56.9793 72.0322C56.4623 70.8444 56.4333 69.5009 56.8987 68.292C57.3641 67.083 58.2864 66.1057 59.4665 65.5712C60.6542 65.0542 61.9977 65.0253 63.2067 65.4906C64.4156 65.956 65.393 66.8784 65.9275 68.0584L68.0976 72.9411Z" fill="#37842A"/>
<path d="M72.8889 71.3838C72.6293 71.4837 72.3601 71.5569 72.0856 71.6022C71.8249 71.6586 71.5149 71.7431 71.1485 71.8418C70.7822 71.9404 70.3665 72.0461 69.9155 72.187C67.5424 72.9078 65.2291 73.8124 62.9965 74.8926C60.7593 75.9627 58.594 77.1772 56.5144 78.5283C55.7182 79.0426 55.1052 79.4865 54.6472 79.7965C54.4246 79.9673 54.1891 80.1204 53.9426 80.2545C54.128 80.0486 54.336 79.8643 54.5627 79.7049C54.9784 79.3667 55.5914 78.8946 56.3805 78.3521C58.44 76.9434 60.6048 75.6949 62.8556 74.6178C65.0995 73.5322 67.4363 72.6502 69.838 71.9827C70.303 71.8559 70.7258 71.7502 71.0922 71.6727C71.4586 71.5952 71.7968 71.5247 72.0504 71.4895C72.3253 71.4244 72.6064 71.389 72.8889 71.3838Z" fill="currentColor"/>
<path d="M101.406 121.264C105.174 110.924 99.8457 99.4881 89.506 95.7206C79.1664 91.9532 67.7304 97.2811 63.963 107.621C60.1956 117.96 65.5234 129.396 75.863 133.164C86.2027 136.931 97.6387 131.603 101.406 121.264Z" fill="#F5F5F5"/>
<path d="M78.6381 113.018L72.635 92.3523L84.472 110.425L78.6381 113.018Z" fill="#E0E0E0"/>
<path d="M82.7318 117.795L62.0593 123.798L80.1319 111.961L82.7318 117.795Z" fill="#E0E0E0"/>
<path d="M86.9241 115.927L92.9201 136.6L81.0831 118.527L86.9241 115.927Z" fill="#E0E0E0"/>
<path d="M82.8304 111.158L103.496 105.155L85.4233 116.992L82.8304 111.158Z" fill="#E0E0E0"/>
<path d="M80.2235 114.99L68.0131 107.754L81.8581 111.115L80.2235 114.99Z" fill="#E0E0E0"/>
<path d="M84.3453 115.442L77.1022 127.652L80.463 113.807L84.3453 115.442Z" fill="#E0E0E0"/>
<path d="M85.5219 112.658L97.7253 119.895L83.8802 116.541L85.5219 112.658Z" fill="#E0E0E0"/>
<path d="M81.4001 112.207L88.6362 100.004L85.2754 113.842L81.4001 112.207Z" fill="#E0E0E0"/>
<path d="M80.153 114.279L70.7679 102.703L83.1756 111.059L80.153 114.279Z" fill="#E0E0E0"/>
<path d="M84.0492 116.231L72.4658 125.616L80.8222 113.201L84.0492 116.231Z" fill="#E0E0E0"/>
<path d="M86.2195 113.912L95.6046 125.496L83.1898 117.139L86.2195 113.912Z" fill="#E0E0E0"/>
<path d="M82.323 111.968L93.9063 102.576L85.55 114.99L82.323 111.968Z" fill="#E0E0E0"/>
<path d="M80.773 116.78L65.9486 115.167L80.6533 112.362L80.773 116.78Z" fill="#E0E0E0"/>
<path d="M84.909 115.42L83.2955 130.238L80.4843 115.54L84.909 115.42Z" fill="#E0E0E0"/>
<path d="M84.8243 112.25L99.6417 113.863L84.9441 116.667L84.8243 112.25Z" fill="#E0E0E0"/>
<path d="M80.6815 113.61L82.3021 98.7852L85.1063 113.483L80.6815 113.61Z" fill="#E0E0E0"/>
<path d="M103.587 104.795L103.404 104.464L102.897 103.499L102.531 102.794C102.383 102.541 102.192 102.273 102.002 101.977L101.389 101.026C101.178 100.673 100.875 100.363 100.6 99.997C99.236 98.251 97.616 96.7212 95.7948 95.4594C93.3915 93.7699 90.6863 92.5572 87.826 91.8872L86.6211 91.6124C86.2054 91.549 85.7897 91.5067 85.367 91.4504C84.9421 91.3842 84.5141 91.3395 84.0846 91.3165L82.7671 91.2742H82.0977L81.3931 91.3235L80.0262 91.4151C79.5683 91.4645 79.1103 91.5631 78.6171 91.6336C78.1422 91.6964 77.6716 91.7882 77.2079 91.9084C76.2496 92.1348 75.3079 92.4267 74.3896 92.782C73.9316 92.9652 73.4595 93.1273 72.9804 93.3316L71.6276 94.0362C71.4021 94.156 71.1696 94.2546 70.923 94.3885L70.2748 94.8112C69.845 95.0931 69.3941 95.3608 68.9713 95.6638C67.2469 96.9502 65.6937 98.4513 64.3493 100.131C64.0181 100.568 63.7151 101.033 63.3981 101.491C63.2306 101.717 63.0754 101.952 62.9331 102.195L62.5244 102.9C61.9637 103.89 61.4694 104.916 61.0448 105.972C60.6508 107.061 60.3284 108.174 60.0795 109.305L59.8822 110.164L59.9033 111.031L59.7906 111.911C59.7401 112.202 59.7141 112.497 59.7131 112.792L59.6849 114.554C59.6849 115.153 59.7624 115.751 59.8047 116.357C60.2713 121.273 62.3296 125.901 65.6668 129.54L66.921 130.837L68.2879 131.999L68.6261 132.281L68.9925 132.535L69.6971 133.042L70.4016 133.542L71.1626 133.972C72.172 134.543 73.2169 135.049 74.2909 135.487C75.3587 135.877 76.4508 136.197 77.5602 136.445L78.3775 136.635C78.6523 136.699 78.9341 136.713 79.2089 136.755C79.7585 136.818 80.3081 136.91 80.8506 136.952C81.9367 137.026 83.0267 137.026 84.1128 136.952C85.1707 136.88 86.2228 136.739 87.2623 136.53C87.7767 136.417 88.2699 136.262 88.7701 136.135L89.517 135.931C89.7636 135.86 89.9961 135.755 90.2216 135.663L91.6307 135.12C92.0887 134.923 92.5255 134.677 92.9694 134.465C93.8381 134.027 94.6761 133.53 95.4777 132.978C95.8743 132.719 96.2554 132.437 96.6192 132.133C96.9785 131.837 97.366 131.562 97.7042 131.252L98.6906 130.301L99.1768 129.829L99.6136 129.322L100.466 128.321C100.755 127.997 100.973 127.617 101.227 127.278C101.481 126.94 101.713 126.574 101.932 126.236L102.538 125.158C103.961 122.588 104.873 119.767 105.222 116.851C105.508 114.65 105.458 112.42 105.074 110.235C105.017 109.808 104.937 109.385 104.835 108.966C104.736 108.579 104.637 108.212 104.546 107.874C104.454 107.536 104.377 107.219 104.285 106.937C104.193 106.655 104.088 106.409 104.003 106.183C103.841 105.739 103.714 105.394 103.623 105.155C103.531 104.915 103.503 104.802 103.503 104.802C103.503 104.802 103.559 104.915 103.651 105.14C103.743 105.366 103.883 105.718 104.06 106.162C104.151 106.388 104.25 106.634 104.355 106.909C104.461 107.184 104.532 107.508 104.63 107.846C104.729 108.184 104.828 108.551 104.94 108.945C105.053 109.34 105.095 109.77 105.187 110.213C105.597 112.409 105.666 114.655 105.391 116.872C105.051 119.814 104.147 122.663 102.728 125.263C102.524 125.616 102.326 125.968 102.122 126.348C101.918 126.729 101.643 127.053 101.417 127.405C101.192 127.758 100.945 128.11 100.656 128.462C100.368 128.814 100.086 129.167 99.7968 129.477L99.353 129.991L98.8668 130.47L97.9508 131.464C97.6056 131.774 97.2462 132.048 96.8517 132.351C96.4888 132.664 96.1051 132.951 95.7032 133.211C94.8963 133.772 94.0511 134.276 93.1738 134.719C92.7228 134.937 92.286 135.191 91.821 135.423L90.4118 135.98C90.1652 136.065 89.9327 136.17 89.7072 136.248L88.9533 136.452C88.446 136.586 87.9457 136.748 87.4244 136.861C85.2894 137.287 83.1086 137.439 80.9351 137.312C80.3856 137.269 79.829 137.178 79.2723 137.114C78.9909 137.086 78.711 137.044 78.4339 136.988L77.6025 136.804C76.4789 136.552 75.3728 136.227 74.2909 135.832C73.202 135.397 72.1449 134.886 71.1274 134.303L70.3453 133.873L69.6407 133.366L68.9361 132.852L68.5697 132.598L68.2245 132.309L66.8153 131.132L65.5471 129.822C62.1546 126.13 60.0679 121.427 59.6074 116.435L59.382 114.554C59.382 113.948 59.4242 113.342 59.4383 112.743C59.4393 112.441 59.4653 112.139 59.5158 111.841L59.6286 110.953L59.7483 110.065L59.9456 109.199C60.4121 106.917 61.25 104.727 62.4258 102.717L62.8415 101.977C62.9824 101.73 63.1585 101.505 63.3135 101.272C63.6376 100.814 63.9406 100.342 64.2859 99.8983C65.6445 98.1999 67.217 96.6842 68.9643 95.389C69.3941 95.079 69.8521 94.8112 70.2889 94.5224L70.9442 94.1066C71.1626 93.9728 71.4021 93.8671 71.6487 93.7473L73.0156 93.0427C73.4736 92.8314 73.9527 92.6693 74.4248 92.4861C75.3424 92.1287 76.2842 91.8367 77.2431 91.6124C77.7072 91.4938 78.1777 91.402 78.6523 91.3376C79.1244 91.2672 79.5824 91.1615 80.0615 91.1192L81.4706 91.0276L82.1752 90.9854H82.8798L84.2115 91.0276C84.6458 91.0553 85.0785 91.1046 85.5079 91.1756C85.9306 91.232 86.3534 91.2742 86.7691 91.3447L87.988 91.6265C90.8675 92.3116 93.5876 93.5461 95.9991 95.2622C97.8269 96.5436 99.4475 98.0976 100.804 99.8701C101.084 100.201 101.345 100.547 101.586 100.906C101.798 101.251 102.002 101.575 102.192 101.871C102.383 102.167 102.559 102.442 102.707 102.703L103.066 103.407L103.545 104.387C103.531 104.689 103.587 104.795 103.587 104.795Z" fill="#EBEBEB"/>
<path d="M71.8812 84.1511L74.0442 89.0198L73.1212 89.4284L69.3799 87.5542L70.6975 90.5065L69.5842 90.9997L67.4211 86.138L68.3512 85.7223L72.0855 87.6036L70.7679 84.6443L71.8812 84.1511Z" fill="currentColor"/>
<path d="M94.1177 143.329C93.7732 143.394 93.4195 143.394 93.0749 143.329V142.314C93.3737 142.361 93.678 142.361 93.9768 142.314C94.2977 142.28 94.6114 142.197 94.9068 142.067C95.1572 141.974 95.3784 141.816 95.548 141.609C95.6015 141.543 95.6357 141.463 95.6469 141.379C95.658 141.294 95.6458 141.208 95.6114 141.13C95.5863 141.075 95.5492 141.027 95.5029 140.988C95.4566 140.949 95.4022 140.92 95.3437 140.905C95.202 140.875 95.0556 140.875 94.9139 140.905L94.2727 141.011C93.935 141.076 93.594 141.123 93.2511 141.152C92.9746 141.167 92.6986 141.114 92.4479 140.996C92.1745 140.856 91.9617 140.62 91.849 140.334C91.7253 140.061 91.686 139.756 91.7362 139.461C91.8046 139.14 91.9608 138.845 92.1872 138.608C92.4824 138.304 92.8375 138.064 93.2299 137.903C93.5375 137.77 93.8589 137.671 94.1882 137.607C94.4939 137.559 94.8055 137.559 95.1112 137.607V138.615C94.5958 138.55 94.0725 138.626 93.5963 138.833C93.3451 138.925 93.1252 139.086 92.9622 139.298C92.911 139.37 92.8801 139.455 92.8727 139.543C92.8652 139.631 92.8815 139.719 92.9199 139.799C92.9541 139.881 93.0136 139.949 93.0896 139.995C93.1657 140.041 93.2544 140.061 93.3427 140.052C93.6467 140.05 93.9493 140.012 94.2445 139.94C94.5846 139.874 94.928 139.827 95.2732 139.799C95.5466 139.784 95.8195 139.835 96.0694 139.947C96.3452 140.082 96.5574 140.32 96.6613 140.609C96.7859 140.877 96.8228 141.178 96.767 141.469C96.7031 141.793 96.5464 142.091 96.316 142.328C96.0181 142.629 95.6638 142.869 95.2732 143.033C94.9029 143.182 94.5143 143.282 94.1177 143.329Z" fill="currentColor"/>
<path d="M106.92 104.203L106.011 104.605L104.341 100.835L109.203 98.6724L110.838 102.35L109.936 102.752L108.801 100.194L107.745 100.666L108.745 102.921L107.871 103.316L106.864 101.054L105.744 101.554L106.92 104.203Z" fill="currentColor"/>
<path d="M52.8575 121.966L58.4308 121.395L58.9733 122.6L56.155 125.137L59.9386 124.777L60.4741 125.982L56.317 129.745L55.8027 128.575L58.7338 125.954L54.8022 126.327L54.3372 125.285L57.2894 122.642L53.3367 123.044L52.8575 121.966Z" fill="currentColor"/>
<path d="M79.9417 110.834L83.535 86.6311L85.4092 110.883L79.9417 110.834Z" fill="#37842A"/>
<path d="M85.0711 118.225L82.0484 142.505L79.6035 118.309L85.0711 118.225Z" fill="#455A64"/>
<path d="M86.9241 112.44C87.3272 113.331 87.4562 114.322 87.2946 115.287C87.1331 116.252 86.6883 117.147 86.0168 117.858C85.3454 118.569 84.4776 119.065 83.5237 119.282C82.5699 119.499 81.5731 119.427 80.6601 119.076C79.7471 118.725 78.9591 118.11 78.3963 117.31C77.8335 116.51 77.5213 115.561 77.4994 114.583C77.4775 113.605 77.7469 112.642 78.2734 111.818C78.7999 110.993 79.5596 110.344 80.456 109.953C81.6446 109.433 82.9898 109.403 84.2004 109.869C85.411 110.334 86.3896 111.258 86.9241 112.44Z" fill="currentColor"/>
<g opacity="0.2">
<path d="M123.351 97.9819L76.306 98.3553C80.6533 97.2632 81.5834 96.0654 82.7107 95.537C83.8825 95.1144 85.1221 94.9114 86.3675 94.9381C87.6099 94.9672 88.8339 94.6343 89.8904 93.9799C90.912 93.226 91.4898 91.9507 92.603 91.3306C94.0897 90.5063 95.9287 91.1333 97.6338 91.0277C99.5855 90.9008 101.312 89.7946 103.059 88.9139C104.806 88.0332 106.885 87.3568 108.696 88.1177C111.105 89.1323 115.192 91.9929 117.665 92.8525L120.582 92.1902C121.678 94.0334 122.604 95.9718 123.351 97.9819Z" fill="black"/>
</g>
<path d="M205.083 34.2313C212.009 34.2313 217.624 28.6163 217.624 21.6898C217.624 14.7632 212.009 9.14819 205.083 9.14819C198.156 9.14819 192.541 14.7632 192.541 21.6898C192.541 28.6163 198.156 34.2313 205.083 34.2313Z" fill="white"/>
<path d="M217.624 21.6897C217.55 20.662 217.395 19.6419 217.159 18.6389C216.856 17.4737 216.381 16.3601 215.75 15.3344C214.925 13.9681 213.847 12.7723 212.572 11.8115C210.922 10.5605 208.983 9.74422 206.934 9.43768C204.886 9.13114 202.793 9.34411 200.848 10.0571C199.724 10.4545 198.668 11.025 197.72 11.7481C196.711 12.4728 195.828 13.3583 195.106 14.3691C193.545 16.4869 192.704 19.0485 192.704 21.6792C192.704 24.3098 193.545 26.8714 195.106 28.9892C195.478 29.4853 195.883 29.9561 196.318 30.3984C196.761 30.8282 197.231 31.2284 197.727 31.5962C198.677 32.3144 199.732 32.8824 200.855 33.2801C203.565 34.2654 206.533 34.2785 209.251 33.3171C211.97 32.3557 214.269 30.4796 215.757 28.0098C216.389 26.9848 216.864 25.871 217.166 24.7053C217.402 23.7047 217.557 22.6869 217.631 21.6615C217.639 21.7294 217.639 21.798 217.631 21.8659C217.631 22.0209 217.631 22.2182 217.631 22.4577C217.633 22.7834 217.607 23.1087 217.554 23.43C217.502 23.8716 217.422 24.3094 217.314 24.7406C217.036 25.9284 216.578 27.0666 215.954 28.1155C215.042 29.665 213.811 31.0028 212.342 32.0402C210.874 33.0776 209.201 33.7909 207.436 34.1327C205.204 34.5549 202.9 34.37 200.764 33.5972C199.606 33.1939 198.517 32.614 197.537 31.878C197.028 31.5175 196.541 31.127 196.078 30.7084C195.631 30.2452 195.214 29.7533 194.831 29.2358C193.221 27.0588 192.351 24.4223 192.351 21.7144C192.351 19.0064 193.221 16.37 194.831 14.193C195.216 13.6772 195.633 13.1854 196.078 12.7204C196.535 12.2835 197.02 11.8763 197.53 11.5015C198.507 10.7635 199.594 10.1812 200.75 9.77523C203.518 8.76889 206.551 8.76095 209.324 9.75279C212.098 10.7446 214.438 12.674 215.94 15.2076C216.563 16.2564 217.022 17.3946 217.3 18.5825C217.408 19.0137 217.488 19.4515 217.54 19.893C217.593 20.2144 217.619 20.5397 217.617 20.8654C217.617 21.112 217.617 21.3093 217.617 21.4643C217.629 21.5388 217.631 21.6146 217.624 21.6897Z" fill="currentColor"/>
<path d="M191.35 32.5333C191.35 32.9778 191.219 33.4124 190.972 33.782C190.725 34.1516 190.374 34.4397 189.963 34.6098C189.552 34.7799 189.1 34.8244 188.664 34.7377C188.228 34.651 187.828 34.4369 187.513 34.1226C187.199 33.8082 186.985 33.4077 186.898 32.9718C186.812 32.5358 186.856 32.0838 187.026 31.6731C187.196 31.2624 187.484 30.9114 187.854 30.6644C188.224 30.4175 188.658 30.2856 189.103 30.2856C189.699 30.2856 190.271 30.5224 190.692 30.944C191.114 31.3655 191.35 31.9372 191.35 32.5333Z" fill="white"/>
<path d="M191.35 32.5331C191.315 32.5331 191.308 32.3288 191.209 31.9976C191.061 31.5385 190.772 31.1372 190.385 30.8492C190.1 30.647 189.771 30.5169 189.425 30.4703C189.079 30.4237 188.726 30.4618 188.398 30.5814C188.015 30.7428 187.687 31.0138 187.457 31.3603C187.227 31.7069 187.105 32.1136 187.105 32.5296C187.105 32.9456 187.227 33.3523 187.457 33.6989C187.687 34.0454 188.015 34.3164 188.398 34.4778C188.726 34.6011 189.079 34.6412 189.425 34.5945C189.772 34.5477 190.102 34.4156 190.385 34.21C190.772 33.9221 191.061 33.5207 191.209 33.0616C191.308 32.7304 191.315 32.5331 191.35 32.5331C191.399 32.7179 191.399 32.912 191.35 33.0968C191.247 33.617 190.962 34.0837 190.547 34.4144C190.235 34.6648 189.864 34.8312 189.469 34.8978C189.075 34.9644 188.67 34.929 188.292 34.7948C187.824 34.6292 187.418 34.3225 187.132 33.9168C186.845 33.5111 186.691 33.0265 186.691 32.5296C186.691 32.0327 186.845 31.5481 187.132 31.1424C187.418 30.7367 187.824 30.43 188.292 30.2644C188.67 30.1322 189.075 30.0978 189.469 30.1644C189.863 30.2309 190.234 30.3962 190.547 30.6448C190.962 30.9755 191.247 31.4422 191.35 31.9624C191.398 32.1497 191.398 32.3458 191.35 32.5331Z" fill="currentColor"/>
<path d="M201.419 17.744H203.497C203.496 17.5069 203.543 17.2721 203.635 17.0534C203.726 16.8348 203.861 16.6367 204.03 16.4711C204.2 16.3055 204.401 16.1756 204.622 16.0893C204.842 16.0029 205.078 15.9618 205.315 15.9684C205.664 15.9552 206.009 16.0513 206.301 16.2433C206.592 16.4353 206.817 16.7136 206.943 17.0394C207.054 17.3129 207.098 17.6088 207.072 17.9027C207.046 18.1966 206.951 18.4803 206.795 18.7304C206.443 19.3082 205.668 19.8366 204.265 19.59V24.2825H206.323V21.5487C207.167 21.3007 207.907 20.7825 208.429 20.0736C208.951 19.3647 209.226 18.5043 209.212 17.6242C209.212 14.5804 206.478 13.8758 205.315 13.8758C204.42 13.8617 201.377 14.0731 201.419 17.744Z" fill="currentColor"/>
<path d="M206.351 25.248H204.265V27.1997H206.351V25.248Z" fill="currentColor"/>
<path d="M239.276 201.055C239.707 201.713 240.001 202.45 240.141 203.224C240.28 203.998 240.262 204.791 240.087 205.558C239.721 207.087 239.013 208.513 238.015 209.729C236.162 212.124 233.083 213.837 230.265 214.936C229.243 211.723 230.751 208.122 231.632 206.347C233.041 203.529 237.268 199.301 239.241 201.055" fill="#37842A"/>
<path d="M230.236 220.713C230.531 219.884 231.042 219.15 231.715 218.585C232.389 218.02 233.202 217.645 234.069 217.5C234.932 217.369 235.812 217.41 236.659 217.622C237.506 217.833 238.302 218.211 239.001 218.733C239.351 218.938 239.651 219.217 239.881 219.551C240.111 219.884 240.265 220.264 240.333 220.664C240.336 221.044 240.236 221.419 240.044 221.748C239.852 222.076 239.574 222.347 239.241 222.531C238.57 222.889 237.817 223.066 237.057 223.045C234.464 223.045 231.949 222.637 230.215 220.713" fill="#37842A"/>
<path d="M222.662 226.914C222.775 226.737 222.907 226.574 223.057 226.428L224.191 225.159C225.393 223.717 226.82 222.48 228.419 221.495C230.05 220.526 231.911 220.01 233.809 220.002C234.381 220.011 234.951 220.084 235.507 220.22C235.697 220.269 235.845 220.326 235.951 220.361L236.099 220.424C235.346 220.258 234.579 220.169 233.809 220.157C231.946 220.212 230.128 220.738 228.524 221.686C226.946 222.663 225.522 223.87 224.297 225.265C223.797 225.786 223.395 226.209 223.113 226.491C222.972 226.642 222.822 226.783 222.662 226.914Z" fill="currentColor"/>
<path d="M236.352 204.571C236.321 204.656 236.283 204.738 236.24 204.818C236.141 204.994 236.021 205.219 235.873 205.522C235.556 206.121 235.084 206.974 234.464 208.024C233.28 210.137 231.603 213.012 229.673 216.148C227.742 219.283 225.939 222.094 224.6 224.102C223.93 225.103 223.381 225.913 223 226.47L222.549 227.104C222.501 227.18 222.444 227.251 222.38 227.315C222.418 227.234 222.463 227.156 222.514 227.083L222.923 226.42L224.466 224.018C225.769 221.989 227.559 219.17 229.49 216.035C231.42 212.899 233.111 210.032 234.33 207.946C234.936 206.925 235.422 206.086 235.782 205.48L236.176 204.818C236.224 204.728 236.283 204.645 236.352 204.571Z" fill="currentColor"/>
<path d="M225.53 220.002C226.213 218.287 226.478 216.434 226.304 214.597C226.13 212.759 225.522 210.989 224.529 209.433C224.015 208.644 223.212 207.848 222.289 208.024C221.366 208.2 220.88 209.25 220.746 210.173C220.436 212.113 220.709 214.102 221.529 215.888C222.349 217.674 223.68 219.176 225.354 220.206" fill="#37842A"/>
<path d="M223.367 212.061C223.496 212.209 223.609 212.369 223.705 212.54C223.836 212.729 223.954 212.927 224.057 213.132C224.177 213.372 224.339 213.632 224.466 213.949C224.62 214.285 224.757 214.628 224.875 214.978C225.021 215.377 225.143 215.784 225.241 216.197C225.461 217.149 225.572 218.123 225.572 219.1C225.556 220.074 225.43 221.043 225.199 221.989C225.089 222.399 224.958 222.804 224.804 223.2C224.573 223.833 224.28 224.442 223.931 225.018C223.818 225.22 223.691 225.413 223.55 225.596C223.447 225.762 223.329 225.917 223.198 226.061C223.156 226.061 223.663 225.356 224.226 224.152C224.382 223.822 224.519 223.483 224.635 223.137C224.782 222.746 224.905 222.346 225.002 221.939C225.217 221.015 225.335 220.07 225.354 219.121C225.348 218.173 225.244 217.229 225.044 216.303C224.952 215.893 224.839 215.489 224.706 215.091C224.593 214.717 224.452 214.386 224.325 214.069C223.825 212.78 223.367 212.082 223.367 212.061Z" fill="currentColor"/>
<path d="M74.6716 295.913L104.912 274.48L109.309 245.338L124.922 234.347L133.582 211.243L149.484 195.588L206.872 197.349L228.052 231.599L243.764 269.111L265.924 284.309L283.024 328.902H61.4818L74.6716 295.913Z" fill="#F5F5F5"/>
<path d="M74.6998 295.913C74.6998 295.913 74.425 296.653 73.8613 298.077C73.2976 299.5 72.4521 301.599 71.346 304.418C69.1265 309.998 65.8361 318.242 61.5875 328.923L61.51 328.81L283.024 328.747L282.855 328.994C277.768 315.74 272.434 301.832 267.009 287.677L265.747 284.358L265.818 284.443L243.659 269.266L243.617 269.231V269.182L227.904 231.67C220.628 219.927 213.571 208.51 206.732 197.42L206.872 197.497L149.491 195.715L149.597 195.672L133.687 211.321V211.272L125.021 234.368V234.403H124.986L109.365 245.388L109.415 245.31C107.695 256.584 106.237 266.215 104.99 274.438V274.48L82.4502 290.453L76.6444 294.54C75.3409 295.455 74.6645 295.913 74.6645 295.913C74.6645 295.913 75.3128 295.434 76.6092 294.504L82.3797 290.382L104.849 274.395L104.814 274.459C106.047 266.229 107.491 256.612 109.189 245.317V245.268H109.224L124.831 234.262L124.789 234.319C127.494 227.083 130.369 219.41 133.434 211.208L149.386 195.475L149.435 195.433H149.498L206.88 197.18H206.971L207.02 197.265C213.855 208.299 220.917 219.71 228.207 231.5C233.318 243.713 238.558 256.217 243.927 269.012L243.863 268.935L266.015 284.126L266.065 284.161V284.21C266.48 285.302 266.903 286.395 267.319 287.494L283.165 328.81L283.256 329.057H282.996L61.4536 328.958H61.3268L61.3691 328.839L71.2332 304.347C72.3606 301.529 73.2131 299.415 73.7838 298.006C74.3545 296.597 74.6998 295.913 74.6998 295.913Z" fill="currentColor"/>
<path d="M109.027 324.005C109.027 323.216 122.414 294.046 122.414 294.046L160.708 272.5L205.181 283.541L163.336 277.235L127.79 297.879L109.027 324.005Z" fill="#FAFAFA"/>
<path d="M201.271 282.562C201.206 282.573 201.139 282.573 201.074 282.562L200.489 282.428L198.248 281.899L189.843 279.87L160.659 272.669H160.786L143.044 282.66L122.513 294.222L122.583 294.152C117.651 304.361 113.508 313.056 110.556 319.221C109.069 322.279 107.9 324.703 107.082 326.387C106.681 327.204 106.378 327.838 106.145 328.282L105.899 328.768C105.873 328.825 105.843 328.879 105.807 328.93C105.807 328.93 105.807 328.867 105.877 328.754L106.096 328.261C106.307 327.81 106.603 327.162 106.984 326.337L110.366 319.129C113.297 312.957 117.411 304.235 122.273 294.004V293.955H122.322L142.847 282.392L160.659 272.38H160.722H160.786L189.913 279.673L198.298 281.787L200.524 282.364L201.102 282.526L201.271 282.562Z" fill="currentColor"/>
<path d="M210.86 45.6033C210.86 45.6033 210.748 44.8987 210.41 44.8987C210.185 44.9044 209.966 44.9736 209.779 45.0983C209.592 45.223 209.444 45.398 209.353 45.6033C209.127 46.0965 210.86 45.6033 210.86 45.6033Z" fill="#FFBF9D"/>
<path d="M202.335 56.3761L202.673 51.0353L203.73 45.5396C203.73 45.5396 204.569 44.6518 205.012 44.835C205.456 45.0182 205.287 45.7791 205.287 45.7791C205.287 45.7791 206.457 44.5109 206.908 44.8068C207.359 45.1027 207.183 45.7791 207.183 45.7791C207.183 45.7791 208.246 44.37 208.747 44.7645C209.247 45.1591 208.747 45.7791 208.747 45.7791C208.747 45.7791 209.409 51.9372 209.078 54.1355C208.976 54.7779 208.722 55.3867 208.337 55.9113C207.952 56.4358 207.448 56.8608 206.865 57.1511L205.978 60.6106L201.609 58.2362L202.335 56.3761Z" fill="#FFBF9D"/>
<path d="M208.345 49.5278L182.98 49.253V47.2168L208.345 46.5122V49.5278Z" fill="#37842A"/>
<path d="M235.119 51.5429L199.284 50.028C198.839 48.7456 198.839 47.3507 199.284 46.0683L234.894 44.4971C236.507 46.2092 236.521 49.7885 235.119 51.5429Z" fill="#37842A"/>
<path d="M234.767 44.8C234.39 45.2388 234.104 45.7483 233.926 46.2987C233.749 46.8492 233.682 47.4295 233.731 48.0059C233.698 48.5765 233.781 49.1479 233.974 49.6856C234.168 50.2233 234.469 50.7161 234.859 51.1342C235.245 50.6546 235.532 50.1032 235.704 49.5118C235.876 48.9204 235.928 48.3008 235.859 47.6888C235.697 45.561 234.767 44.8 234.767 44.8Z" fill="#E0E0E0"/>
<path d="M233.337 51.5428C233.041 51.3065 232.8 51.0083 232.632 50.6691C232.161 49.8847 231.917 48.9845 231.927 48.0692C231.923 47.1601 232.138 46.2632 232.555 45.4552C232.712 45.1091 232.954 44.8085 233.259 44.5815C233.301 44.5815 233.027 44.9409 232.752 45.5468C232.412 46.347 232.235 47.2069 232.23 48.0763C232.232 48.9431 232.437 49.7975 232.829 50.5705C233.125 51.1764 233.372 51.5146 233.337 51.5428Z" fill="currentColor"/>
<path d="M234.936 44.5814C234.971 44.5814 234.711 44.9408 234.422 45.5538C234.046 46.3436 233.86 47.2099 233.877 48.0843C233.894 48.9586 234.114 49.817 234.52 50.5915C234.672 50.9176 234.888 51.21 235.154 51.4511C235.154 51.4511 235.035 51.4511 234.873 51.3313C234.651 51.1581 234.468 50.9395 234.337 50.6902C233.86 49.9052 233.598 49.0086 233.576 48.0902C233.558 47.1685 233.787 46.2588 234.238 45.4551C234.584 44.8492 234.908 44.5532 234.936 44.5814Z" fill="currentColor"/>
<path d="M235.401 46.4206C235.359 46.3035 235.294 46.1958 235.211 46.1035C235.168 46.059 235.114 46.0256 235.055 46.006C234.997 45.9864 234.934 45.9812 234.873 45.9908C234.819 46.0053 234.77 46.0328 234.729 46.0709C234.688 46.109 234.658 46.1565 234.64 46.2092C234.598 46.3229 234.598 46.4479 234.64 46.5615C234.774 46.8222 234.985 47.0618 234.978 47.3225C234.948 47.5797 234.931 47.8385 234.929 48.0975C234.933 48.1916 234.96 48.2834 235.006 48.3652C235.033 48.4051 235.07 48.4371 235.114 48.4581C235.157 48.4791 235.205 48.4884 235.253 48.485C235.408 48.485 235.479 48.2877 235.514 48.1398C235.654 47.5688 235.615 46.9684 235.401 46.4206Z" fill="white"/>
<path d="M199.277 50.1546C198.946 49.5196 198.778 48.8116 198.791 48.0953C198.803 47.3791 198.994 46.6773 199.348 46.054C199.432 46.054 199.101 46.9699 199.087 48.1043C199.073 49.2387 199.362 50.1264 199.277 50.1546Z" fill="currentColor"/>
<path d="M182.924 49.7321C182.873 49.7321 182.823 49.722 182.775 49.7026C182.728 49.6831 182.686 49.6545 182.65 49.6185C182.614 49.5826 182.585 49.5398 182.566 49.4928C182.546 49.4458 182.536 49.3954 182.536 49.3445V47.2308C182.536 47.1799 182.546 47.1295 182.566 47.0825C182.585 47.0355 182.614 46.9927 182.65 46.9568C182.686 46.9208 182.728 46.8922 182.775 46.8728C182.823 46.8533 182.873 46.8433 182.924 46.8433C183.027 46.8433 183.125 46.8841 183.198 46.9568C183.27 47.0294 183.311 47.128 183.311 47.2308V49.3445C183.311 49.4473 183.27 49.5459 183.198 49.6185C183.125 49.6912 183.027 49.7321 182.924 49.7321Z" fill="#37842A"/>
<path d="M182.924 49.7319C182.924 49.7319 183.029 49.7319 183.135 49.598C183.193 49.5372 183.226 49.4566 183.227 49.3726V48.9639C183.227 48.6187 183.227 48.2593 183.227 47.9C183.227 47.6886 183.227 47.4772 183.227 47.2659C183.234 47.2289 183.233 47.1908 183.224 47.1543C183.215 47.1177 183.198 47.0835 183.175 47.0541C183.151 47.0246 183.122 47.0006 183.088 46.9836C183.055 46.9667 183.018 46.9572 182.98 46.9558C182.943 46.957 182.906 46.9664 182.872 46.9834C182.839 47.0004 182.81 47.0246 182.787 47.0543C182.764 47.0839 182.748 47.1183 182.74 47.1548C182.732 47.1914 182.732 47.2293 182.74 47.2659C182.74 47.4772 182.74 47.6886 182.74 47.9C182.74 48.2664 182.74 48.6046 182.705 48.9639V49.3726C182.709 49.4574 182.744 49.5379 182.804 49.598C182.91 49.7037 183.015 49.7037 183.008 49.7319C183.001 49.7601 182.903 49.7953 182.726 49.6896C182.677 49.6541 182.635 49.6089 182.604 49.5569C182.572 49.5048 182.552 49.4469 182.543 49.3867C182.543 49.2457 182.543 49.1048 182.543 48.9639C182.543 48.6187 182.543 48.2593 182.543 47.9C182.543 47.6886 182.543 47.4772 182.543 47.2659C182.528 47.1203 182.569 46.9745 182.656 46.8572C182.707 46.7966 182.771 46.7476 182.842 46.7136C182.914 46.6796 182.992 46.6613 183.072 46.6599C183.151 46.6598 183.23 46.6775 183.302 46.7116C183.374 46.7458 183.437 46.7955 183.487 46.8572C183.579 46.9725 183.622 47.1192 183.607 47.2659C183.607 47.4772 183.607 47.6886 183.607 47.9C183.607 48.2664 183.607 48.6046 183.572 48.9639V49.3867C183.564 49.4479 183.543 49.5066 183.51 49.5589C183.477 49.6111 183.433 49.6557 183.382 49.6896C183.036 49.7953 182.924 49.7319 182.924 49.7319Z" fill="currentColor"/>
<path d="M187.708 54.4738C187.708 54.4738 187.215 48.3722 187.363 47.8367C187.511 47.3012 189.194 45.42 189.779 45.3565C190.364 45.2931 190.435 45.9413 190.435 45.9413C190.925 45.6168 191.485 45.4139 192.069 45.3495C192.29 45.3255 192.511 45.3843 192.691 45.5145C192.871 45.6447 192.996 45.837 193.041 46.0541C193.433 45.82 193.899 45.7444 194.345 45.8427C194.69 45.9061 195.085 46.5473 195.085 46.5473C195.085 46.5473 195.944 46.1739 196.36 46.5473C196.687 46.9224 196.867 47.4028 196.867 47.9001C196.319 47.8974 195.784 48.0675 195.338 48.3862C195.244 49.7131 195.07 51.0331 194.817 52.339C194.493 53.6424 193.197 54.7275 192.76 55.4039L192.421 59.9132L186.862 56.9751L187.708 54.4738Z" fill="#FFBF9D"/>
<path d="M188.962 48.323C188.935 47.7587 189.096 47.2013 189.42 46.7384C189.744 46.2755 190.212 45.9333 190.752 45.7654C190.351 46.1086 189.981 46.4858 189.645 46.8927C189.376 47.3487 189.148 47.8273 188.962 48.323Z" fill="#FF9A6C"/>
<path d="M191.661 48.1961C191.583 47.9529 191.563 47.6947 191.604 47.4426C191.644 47.1905 191.743 46.9514 191.893 46.7446C192.074 46.421 192.364 46.1716 192.71 46.04C192.971 45.9414 193.147 45.9696 193.147 45.9978C193.147 46.0259 192.513 46.2091 192.126 46.8785C191.924 47.2999 191.768 47.7416 191.661 48.1961Z" fill="#FF9A6C"/>
<path d="M193.662 47.9918C193.591 47.9918 193.711 47.4 194.232 46.9279C194.754 46.4558 195.339 46.3924 195.339 46.4629C195.339 46.5333 194.873 46.7095 194.415 47.1675C193.958 47.6254 193.774 48.02 193.662 47.9918Z" fill="#FF9A6C"/>
<path d="M205.935 55.0868C206.879 53.9736 206.161 50.9862 206.161 50.9862C206.565 50.8435 206.93 50.6078 207.226 50.2981C207.522 49.9885 207.741 49.6135 207.866 49.2036C208.204 47.8649 207.535 47.6394 207.535 47.6394C207.309 47.7521 205.245 49.0908 204.188 49.6475C203.131 50.2041 202.779 55.883 202.779 55.883" fill="#FFBF9D"/>
<path d="M202.758 55.8831C202.735 55.6347 202.735 55.3847 202.758 55.1363C202.758 54.6572 202.835 53.9667 202.941 53.1141C203.035 52.1058 203.257 51.1137 203.603 50.1619C203.663 50.0224 203.739 49.89 203.829 49.7674C203.93 49.6353 204.063 49.531 204.216 49.4644L204.991 49.0135L206.612 48.02C206.887 47.8509 207.147 47.6818 207.436 47.5127H207.492H207.542C207.65 47.5631 207.746 47.6365 207.822 47.7278C207.899 47.8191 207.955 47.926 207.986 48.0411C208.05 48.2386 208.074 48.4471 208.056 48.6541C208.038 49.0398 207.937 49.4171 207.76 49.7603C207.426 50.3878 206.868 50.866 206.196 51.099L206.274 50.9652C206.519 51.9725 206.571 53.0172 206.429 54.0442C206.379 54.332 206.279 54.6087 206.133 54.8615C206.02 55.0236 205.942 55.1011 205.935 55.094C205.928 55.087 205.978 54.9954 206.069 54.8263C206.185 54.5716 206.261 54.3007 206.295 54.023C206.385 53.0158 206.301 52.0006 206.048 51.0215V50.9229L206.147 50.8806C206.751 50.6508 207.251 50.2104 207.556 49.6405C207.709 49.3283 207.795 48.9875 207.81 48.64C207.84 48.4808 207.826 48.3163 207.768 48.1646C207.711 48.013 207.613 47.88 207.485 47.7804H207.591C207.337 47.9214 207.056 48.1045 206.788 48.2736L205.16 49.2671L204.343 49.7321C204.224 49.7823 204.119 49.8624 204.04 49.9646C203.958 50.071 203.89 50.187 203.836 50.3099C203.488 51.2346 203.252 52.1972 203.131 53.1775C202.997 54.023 202.92 54.7065 202.863 55.1786C202.85 55.4162 202.815 55.652 202.758 55.8831Z" fill="#FF9A6C"/>
<path d="M131.362 44.5957C132.581 44.7507 133.61 45.6173 134.765 46.0894C135.828 46.4665 136.964 46.5928 138.083 46.4583C139.203 46.3239 140.276 45.9323 141.219 45.3143C143.073 44.2082 144.503 42.6087 146.152 41.2278C147.8 39.8468 149.033 38.4799 151.535 37.9867C155.945 37.113 160.828 40.5725 159.151 44.1166L155.551 45.8216C154.358 51.2334 151.288 56.0482 146.884 59.413C146.038 60.1778 144.958 60.6325 143.819 60.7024C142.636 60.7024 141.332 59.6878 141.466 58.5887C139.664 59.2705 137.756 59.6283 135.829 59.6456C133.857 59.5681 131.736 58.6944 130.686 57.0457C129.636 55.3969 130.157 52.9943 131.989 52.4588C130.15 51.5851 128.466 50.0139 128.185 48.1538C127.903 46.2937 129.368 44.342 131.362 44.5957Z" fill="currentColor"/>
<path d="M167.705 33.1534C165.225 32.7518 163.054 33.7242 160.976 35.1404C158.858 36.6473 157.251 38.7651 156.369 41.2103C155.488 43.6556 155.374 46.3118 156.044 48.8234C156.411 50.0998 157.034 51.2882 157.874 52.3165C158.715 53.3448 159.756 54.1915 160.934 54.8053C162.594 55.5705 164.434 55.863 166.25 55.6504C168.066 55.4378 169.788 54.7285 171.228 53.6004C172.633 52.4556 173.772 51.0175 174.565 49.3868C175.357 47.756 175.783 45.9718 175.814 44.159C175.928 41.6409 175.24 39.1517 173.849 37.0498C173.149 36.0116 172.242 35.1295 171.184 34.459C170.127 33.7884 168.942 33.3439 167.705 33.1534Z" fill="currentColor"/>
<path d="M160.765 41.6436C161.117 40.6924 160.969 39.6355 161.103 38.6279C161.399 36.4085 162.195 34.4004 164.252 33.5127C166.162 32.6954 169.473 33.0758 171.791 33.8015C173.402 34.2729 174.844 35.1945 175.948 36.4578C176.651 37.3146 177.138 38.327 177.37 39.4105C177.602 40.494 177.571 41.6172 177.28 42.6863L165.943 41.1363C164.94 42.0817 163.788 42.8553 162.533 43.4262C162.163 43.5953 161.755 43.6634 161.349 43.6234C161.15 43.6032 160.96 43.5261 160.802 43.4012C160.645 43.2763 160.527 43.1089 160.462 42.9189C160.432 42.4729 160.538 42.0285 160.765 41.6436Z" fill="currentColor"/>
<path d="M160.793 62.3229L160.49 40.9248C160.492 40.4625 160.669 40.0183 160.986 39.6812C161.302 39.3441 161.734 39.1389 162.195 39.1069L172.059 36.9227C175.209 36.6902 177.181 40.6077 177.28 43.7642C177.4 47.2871 177.4 51.5146 176.907 54.1498C175.92 59.3707 171.876 59.9133 171.876 59.9133C171.876 59.9133 171.876 60.1176 171.791 62.027C171.791 62.027 173.25 66.3461 168.832 65.9515C165.964 65.6838 160.793 62.3229 160.793 62.3229Z" fill="#FFBF9D"/>
<path d="M175.864 47.9918C175.854 48.1653 175.78 48.3289 175.656 48.4512C175.532 48.5734 175.368 48.6457 175.194 48.6541C175.106 48.6618 175.018 48.6515 174.934 48.6237C174.85 48.5959 174.773 48.5513 174.707 48.4926C174.641 48.4338 174.588 48.3622 174.55 48.2822C174.513 48.2021 174.492 48.1153 174.49 48.027C174.5 47.8535 174.574 47.6899 174.698 47.5676C174.821 47.4454 174.986 47.3731 175.159 47.3647C175.247 47.358 175.335 47.3691 175.419 47.3972C175.502 47.4254 175.579 47.47 175.645 47.5286C175.71 47.5871 175.764 47.6583 175.801 47.7379C175.839 47.8174 175.86 47.9038 175.864 47.9918Z" fill="currentColor"/>
<path d="M176.287 45.9623C176.202 46.0469 175.702 45.6523 174.976 45.6382C174.25 45.6241 173.715 45.9623 173.637 45.8707C173.56 45.7792 173.687 45.6735 173.926 45.5114C174.247 45.3042 174.623 45.2008 175.004 45.2155C175.381 45.222 175.745 45.3533 176.04 45.5889C176.258 45.7651 176.329 45.9271 176.287 45.9623Z" fill="currentColor"/>
<path d="M169.819 47.7664C169.734 47.8509 169.234 47.4564 168.515 47.4352C167.796 47.4141 167.247 47.7594 167.169 47.6678C167.092 47.5762 167.226 47.4775 167.458 47.3155C167.776 47.1112 168.148 47.0085 168.526 47.0211C168.904 47.0336 169.268 47.1609 169.572 47.3859C169.819 47.5621 169.889 47.7241 169.819 47.7664Z" fill="currentColor"/>
<path d="M171.629 51.3316C172.015 51.2232 172.413 51.164 172.813 51.1554C173.003 51.1554 173.179 51.1132 173.215 50.9863C173.232 50.7961 173.193 50.6049 173.102 50.4368C172.947 49.9788 172.778 49.5067 172.602 49.0276C172.134 47.8203 171.759 46.5789 171.481 45.3145C172.05 46.4785 172.521 47.6875 172.89 48.929C173.06 49.4292 173.222 49.9083 173.37 50.3381C173.474 50.5577 173.501 50.8058 173.447 51.0427C173.416 51.1067 173.372 51.1631 173.317 51.2082C173.263 51.2532 173.199 51.2857 173.13 51.3034C173.027 51.3192 172.923 51.3192 172.82 51.3034C172.426 51.3614 172.026 51.3708 171.629 51.3316Z" fill="currentColor"/>
<path d="M171.876 59.9136C169.401 59.8719 166.988 59.1398 164.907 57.7998C164.907 57.7998 166.563 61.4848 171.826 61.1536L171.876 59.9136Z" fill="#FF9A6C"/>
<path d="M171.277 53.0649C171.143 52.8896 170.966 52.7507 170.765 52.6609C170.563 52.571 170.342 52.5331 170.121 52.5505C169.96 52.5579 169.803 52.5987 169.659 52.6703C169.514 52.7418 169.386 52.8426 169.283 52.9662C169.183 53.084 169.122 53.2293 169.107 53.3829C169.092 53.5364 169.124 53.6908 169.198 53.8258C169.311 53.9598 169.461 54.057 169.629 54.1048C169.798 54.1525 169.976 54.1486 170.143 54.0935C170.489 53.9847 170.81 53.8074 171.087 53.5722C171.169 53.5146 171.241 53.443 171.298 53.3608C171.324 53.3209 171.338 53.2744 171.338 53.2269C171.338 53.1794 171.324 53.1329 171.298 53.093" fill="#FF9A6C"/>
<path d="M169.487 51.7685C169.607 51.7685 169.586 52.5506 170.241 53.1283C170.897 53.7061 171.735 53.6497 171.735 53.7554C171.735 53.8611 171.545 53.9034 171.192 53.9034C170.731 53.894 170.288 53.7246 169.938 53.4243C169.602 53.1351 169.395 52.7247 169.361 52.2828C169.339 51.9587 169.431 51.7614 169.487 51.7685Z" fill="currentColor"/>
<path d="M169.854 45.265C169.776 45.4553 169.058 45.3425 168.205 45.42C167.353 45.4976 166.662 45.7089 166.556 45.5257C166.451 45.3425 166.627 45.258 166.916 45.0748C167.289 44.8479 167.712 44.7149 168.149 44.6873C168.585 44.6435 169.026 44.7089 169.431 44.8775C169.741 45.0114 169.889 45.1664 169.854 45.265Z" fill="currentColor"/>
<path d="M176.16 42.7921C176.026 42.9471 175.533 42.7921 174.934 42.7358C174.335 42.6794 173.82 42.8133 173.708 42.6371C173.595 42.461 173.708 42.3905 173.975 42.2426C174.277 42.062 174.626 41.9784 174.976 42.003C175.329 42.0225 175.668 42.1477 175.948 42.3623C176.16 42.5385 176.23 42.6864 176.16 42.7921Z" fill="currentColor"/>
<path d="M158.933 40.1287C159.933 37.1131 164.372 32.9701 167.543 33.2238L172.573 36.3239C172.394 37.1832 171.989 37.979 171.399 38.6292C170.81 39.2795 170.057 39.7606 169.22 40.023C168.318 40.2837 167.24 40.3471 166.697 41.1151C166.155 41.8831 166.45 43.0456 165.936 43.8489C165.232 44.9692 163.301 44.8917 162.766 46.1035C162.526 46.632 162.639 47.2661 162.392 47.7875C162.068 48.4921 160.278 49.3587 159.574 49.1191C158.869 48.8796 158.869 47.6254 158.623 47.0054C158.324 46.2612 158.296 45.4356 158.545 44.6732C158.848 43.1584 158.461 41.5731 158.933 40.1287Z" fill="currentColor"/>
<path d="M161.709 49.7321C161.709 49.3446 161.3 48.4075 160.913 48.323C159.891 48.1327 158.031 48.1609 157.932 50.7749C157.798 54.3542 161.455 53.7483 161.455 53.6426C161.455 53.5369 161.674 51.1413 161.709 49.7321Z" fill="#FFBF9D"/>
<path d="M160.384 52.2897C160.384 52.2897 160.321 52.332 160.215 52.3743C160.066 52.4346 159.899 52.4346 159.75 52.3743C159.524 52.2202 159.343 52.0082 159.226 51.7603C159.11 51.5124 159.062 51.2378 159.088 50.9651C159.09 50.6578 159.16 50.3549 159.292 50.0773C159.329 49.9667 159.393 49.867 159.477 49.7871C159.562 49.7072 159.666 49.6495 159.778 49.6194C159.851 49.6044 159.927 49.6143 159.993 49.6475C160.06 49.6807 160.113 49.7353 160.145 49.8025C160.187 49.9082 160.145 49.9787 160.145 49.9857C160.145 49.9928 160.222 49.9223 160.201 49.7744C160.184 49.6859 160.137 49.6062 160.067 49.5489C159.973 49.4704 159.851 49.4324 159.729 49.4432C159.575 49.4617 159.429 49.5203 159.306 49.613C159.182 49.7058 159.085 49.8295 159.024 49.9716C158.865 50.2789 158.778 50.6189 158.771 50.9651C158.748 51.2906 158.823 51.6155 158.986 51.898C159.149 52.1806 159.393 52.4078 159.687 52.5504C159.783 52.5795 159.884 52.5876 159.984 52.5742C160.084 52.5608 160.179 52.5263 160.264 52.4729C160.377 52.3743 160.398 52.2968 160.384 52.2897Z" fill="#FF9A6C"/>
<path d="M171.524 35.253C171.869 36.7045 174.095 38.5505 175.047 39.6708C176.921 41.7845 177.294 42.5314 177.315 47.3718C178.237 45.7912 178.723 43.9946 178.725 42.165C178.667 40.2614 177.915 38.4447 176.611 37.0568C175.954 36.3772 175.148 35.8603 174.256 35.5472C173.364 35.234 172.412 35.1333 171.474 35.253" fill="currentColor"/>
<path d="M157.925 38.5151C157.252 39.5576 156.694 40.6704 156.262 41.8337C155.946 43.0332 155.766 44.2647 155.727 45.5046C155.401 44.2542 155.465 42.9341 155.91 41.721C156.243 40.4737 156.946 39.3562 157.925 38.5151Z" fill="#455A64"/>
<path d="M131.376 42.8977C131.376 42.8977 131.686 43.1373 132.292 43.4614C133.157 43.891 134.11 44.1129 135.075 44.1096C136.513 44.0952 137.926 43.7377 139.197 43.0668C140.758 42.2224 142.264 41.2811 143.707 40.2485C145.174 39.2015 146.815 38.4237 148.554 37.9515C149.994 37.6152 151.488 37.5768 152.944 37.8388C153.922 38.0088 154.871 38.3172 155.762 38.7548C156.004 38.8757 156.239 39.0098 156.467 39.1564C156.549 39.1992 156.625 39.2538 156.692 39.3184C155.493 38.7422 154.22 38.3366 152.908 38.1136C151.489 37.8983 150.041 37.9629 148.646 38.3038C146.945 38.7772 145.34 39.545 143.904 40.5726C142.45 41.6177 140.924 42.5595 139.338 43.3909C138.017 44.0652 136.552 44.4086 135.068 44.3914C134.078 44.3649 133.11 44.0938 132.25 43.6023C132.019 43.4631 131.8 43.3052 131.595 43.1302C131.445 42.9893 131.372 42.9118 131.376 42.8977Z" fill="currentColor"/>
<path d="M149.949 45.1594C149.949 45.1594 149.999 45.0819 150.118 44.9692C150.309 44.8141 150.52 44.6861 150.746 44.5887C151.592 44.2579 152.512 44.1605 153.409 44.3068C154.543 44.4196 155.833 44.8776 157.277 44.8423C158.032 44.8007 158.762 44.5574 159.391 44.1377C160.064 43.6726 160.685 43.1364 161.244 42.5383C161.822 41.9262 162.444 41.3564 163.104 40.8333C163.737 40.3633 164.455 40.0189 165.218 39.8187C166.683 39.4523 168.036 39.3889 169.072 39.0295C169.916 38.8144 170.686 38.3736 171.298 37.7542C171.504 37.5073 171.687 37.2433 171.848 36.9651C171.848 36.9651 171.848 37.0567 171.784 37.2117C171.687 37.4377 171.561 37.6506 171.411 37.8458C170.826 38.5426 170.053 39.0563 169.184 39.3254C168.106 39.7271 166.747 39.8187 165.337 40.1991C164.605 40.389 163.915 40.7192 163.308 41.1714C162.669 41.6904 162.064 42.2506 161.497 42.8484C160.921 43.4668 160.275 44.0175 159.574 44.49C158.887 44.9252 158.097 45.1685 157.284 45.1946C155.748 45.1946 154.466 44.7155 153.374 44.5746C152.517 44.4124 151.633 44.4657 150.802 44.7296C150.507 44.8509 150.222 44.9946 149.949 45.1594Z" fill="#455A64"/>
<path d="M192.295 124.164H194.824C194.824 124.164 189.977 109.29 188.483 103.386C186.989 97.4816 184.96 77.8308 184.96 77.8308L177.442 65.409L172.249 62.1609L186.877 111.031L192.295 124.164Z" fill="#37842A"/>
<path d="M168.952 181.581L168.501 191.861C168.501 191.861 178.802 195.764 178.901 197.673L158.94 197.518L158.982 181.475L168.952 181.581Z" fill="currentColor"/>
<g opacity="0.6">
<path d="M158.94 197.518L159.01 195.905L178.119 196.659C178.119 196.659 179.006 197.046 178.901 197.673L158.94 197.518Z" fill="#455A64"/>
</g>
<path d="M168.825 191.762C168.825 191.853 168.339 191.896 167.853 192.206C167.366 192.516 167.113 192.91 167.021 192.91C166.93 192.91 167.085 192.311 167.677 191.945C168.268 191.579 168.853 191.67 168.825 191.762Z" fill="#455A64"/>
<path d="M170.918 192.642C170.918 192.734 170.516 192.896 170.178 193.305C169.84 193.713 169.748 194.15 169.649 194.15C169.551 194.15 169.494 193.594 169.917 193.086C170.34 192.579 170.911 192.551 170.918 192.642Z" fill="#455A64"/>
<path d="M172.087 195.158C171.996 195.158 171.862 194.686 172.087 194.157C172.313 193.629 172.792 193.418 172.841 193.495C172.89 193.573 172.602 193.861 172.397 194.298C172.193 194.735 172.179 195.144 172.087 195.158Z" fill="#455A64"/>
<path d="M168.67 189.408C168.628 189.493 168.184 189.359 167.634 189.408C167.085 189.458 166.648 189.613 166.599 189.528C166.549 189.444 166.965 189.098 167.613 189.07C168.261 189.042 168.719 189.331 168.67 189.408Z" fill="currentColor"/>
<path d="M199.728 181.539L199.277 191.811C199.277 191.811 209.571 195.722 209.67 197.631L189.716 197.476L189.758 181.433L199.728 181.539Z" fill="currentColor"/>
<path d="M189.716 197.476L189.779 195.855L208.895 196.609C208.895 196.609 209.775 197.004 209.67 197.631L189.716 197.476Z" fill="#455A64"/>
<path d="M199.601 191.713C199.601 191.811 199.108 191.853 198.629 192.163C198.15 192.474 197.882 192.868 197.797 192.868C197.713 192.868 197.854 192.269 198.446 191.903C199.038 191.536 199.622 191.628 199.601 191.713Z" fill="#455A64"/>
<path d="M201.687 192.6C201.687 192.692 201.285 192.854 200.947 193.263C200.609 193.671 200.517 194.108 200.419 194.101C200.32 194.094 200.264 193.545 200.693 193.044C201.123 192.544 201.687 192.502 201.687 192.6Z" fill="#455A64"/>
<path d="M202.856 195.109C202.765 195.109 202.638 194.644 202.892 194.115C203.145 193.587 203.596 193.368 203.646 193.453C203.695 193.538 203.399 193.819 203.195 194.256C202.99 194.693 202.934 195.102 202.856 195.109Z" fill="#455A64"/>
<path d="M199.411 189.359C199.376 189.451 198.925 189.31 198.375 189.359C197.826 189.408 197.396 189.563 197.339 189.479C197.283 189.394 197.706 189.049 198.361 189.021C199.016 188.993 199.488 189.282 199.411 189.359Z" fill="currentColor"/>
<path d="M161.779 104.943C159.348 109.875 157.629 114.18 158.045 119.634C158.263 122.452 160.715 126.327 160.92 129.547C161.371 136.452 161.124 148.944 160.786 150.621C159.019 158.645 158.1 166.833 158.045 175.049C158.045 186.583 158.242 190.353 158.242 190.353H169.664C169.664 190.353 170.446 168.433 173.976 155.751C177.252 143.977 181.021 126.067 181.021 118.295V107.768L161.779 104.95V104.943Z" fill="currentColor"/>
<path d="M186.341 106.669C186.341 106.669 200.672 142.392 200.672 152.228C200.672 154.511 199.665 190.353 199.665 190.353H189.138C188.659 175.993 186.764 166.46 187.56 152.968L176.35 127.8V102.675L185.721 101.308L186.341 106.669Z" fill="currentColor"/>
<path d="M181.021 125.313C180.998 125.612 180.948 125.909 180.873 126.201C180.746 126.828 180.591 127.61 180.394 128.603C179.986 130.717 179.45 133.465 178.851 136.53C178.252 139.595 177.66 142.427 177.202 144.442C176.977 145.45 176.78 146.267 176.625 146.824C176.566 147.119 176.477 147.407 176.357 147.683C176.381 147.384 176.431 147.087 176.505 146.795C176.625 146.175 176.787 145.386 176.977 144.4L178.527 136.466C179.14 133.373 179.711 130.576 180.169 128.561C180.401 127.546 180.599 126.736 180.746 126.172C180.808 125.877 180.9 125.589 181.021 125.313Z" fill="#455A64"/>
<path d="M172.757 64.6128C173.208 64.6128 193.281 71.1724 192.119 70.6863L192.654 70.1296L199.89 59.2297L206.457 63.119C206.457 63.119 199.918 75.6113 198.84 77.563C198.323 78.5235 197.554 79.3248 196.615 79.881C195.677 80.4371 194.605 80.727 193.514 80.7195C192.041 80.7195 179.471 78.6058 179.471 78.6058L172.757 64.6128Z" fill="#37842A"/>
<path d="M185.721 101.308L169.819 103.125L163.477 68.2556L159.821 62.9572L160.659 59.1172L171.608 63.2742L171.813 61.6325L177.569 69.0166L181.641 73.3286C183.824 75.5892 185.294 78.4411 185.869 81.53C186.13 83.0519 184.573 86.6171 184.573 86.6171L185.566 95.4807L185.721 101.308Z" fill="#E0E0E0"/>
<g opacity="0.3">
<path d="M160.603 127.405C160.603 127.405 176.583 128.617 180.113 127.884C181.327 127.64 182.424 126.992 183.223 126.045C184.023 125.098 184.479 123.909 184.516 122.67C184.735 119.253 184.587 112.679 184.516 110.692C184.389 107.783 182.402 101.822 182.402 101.822L159.856 125.073L160.603 127.405Z" fill="black"/>
</g>
<path d="M155.487 65.9727C151.457 71.0457 152.26 73.2017 154.783 79.4091C155.205 80.4378 158.926 88.928 159.489 90.1329C161.955 95.375 162.308 96.4037 161.765 98.3342C158.552 109.713 154.628 124.164 154.628 124.164C154.628 124.164 178.929 127.476 180.993 125.313C183.058 123.15 183.213 109.417 182.55 103.393C181.846 96.7419 179.204 86.2436 177.816 82.0795C176.984 79.5782 175.49 73.702 172.179 69.6154C169.72 66.5575 168.346 65.8107 165.063 63.6617L159.764 60.9138L159.158 62.9571L155.487 65.9727Z" fill="#37842A"/>
<path d="M186.285 57.6867L187.285 54.9106L194.296 58.3138L193.161 61.4633L186.285 57.6867Z" fill="#E0E0E0"/>
<g opacity="0.3">
<path d="M157.178 79.078C157.178 79.078 167.254 84.3553 171.27 85.4192C183.058 88.618 184.425 83.0166 184.425 83.0166L178.259 83.2773L166 76.2314L157.178 79.078Z" fill="black"/>
</g>
<path d="M156.164 78.754C155.995 78.6201 177.238 86.1732 181.564 84.8134C185.89 83.4535 187.356 78.0353 188.532 75.2099C190.871 69.5733 193.901 60.0825 193.901 60.0825L186.285 56.8696L178.443 72.3705C178.443 72.3705 162.942 65.3669 161.462 64.9371C159.983 64.5073 155.501 63.9296 153.296 69.1646C150.851 75.0549 156.164 78.754 156.164 78.754Z" fill="#37842A"/>
<path d="M156.164 78.7539C156.164 78.7539 156.1 78.7539 156.002 78.6482C155.85 78.5386 155.704 78.421 155.565 78.2959C155.018 77.8197 154.526 77.2832 154.099 76.6965C153.397 75.7536 152.916 74.6653 152.69 73.5118C152.556 72.782 152.532 72.0362 152.62 71.2994C152.704 70.9118 152.754 70.5032 152.88 70.1086C153.003 69.6959 153.152 69.2912 153.324 68.8967C153.693 68.0428 154.203 67.2568 154.832 66.5716C155.53 65.8163 156.407 65.2493 157.383 64.9229C158.435 64.5742 159.556 64.4824 160.652 64.6551C160.937 64.6993 161.22 64.7605 161.497 64.8383C161.772 64.9299 162.047 65.0356 162.315 65.1413L163.949 65.8459C168.353 67.7271 173.243 69.9043 178.513 72.2646L178.288 72.3492L186.109 56.8484L186.186 56.6934L186.348 56.7638L189.124 57.9334L193.965 59.9767L194.12 60.0472L194.07 60.2022C192.894 63.8519 191.696 67.3819 190.463 70.7709C189.843 72.4549 189.209 74.1036 188.546 75.703C187.98 77.2935 187.319 78.8487 186.566 80.3603C186.188 81.0865 185.742 81.7753 185.235 82.4177C184.744 83.0534 184.162 83.6137 183.509 84.0805C182.87 84.5424 182.154 84.886 181.395 85.0951C180.651 85.227 179.891 85.2508 179.14 85.1656C176.463 84.8195 173.818 84.2635 171.228 83.5027C166.479 82.2345 162.723 80.9944 160.131 80.1348C157.538 79.2752 156.143 78.7257 156.143 78.7257C156.498 78.7959 156.847 78.8972 157.185 79.0286L160.173 79.9798C162.773 80.7971 166.514 82.002 171.291 83.235C173.873 83.9472 176.507 84.4584 179.168 84.7639C179.887 84.8405 180.613 84.8144 181.324 84.6864C182.039 84.4813 182.711 84.1521 183.311 83.7141C183.94 83.2642 184.498 82.7228 184.967 82.1077C185.462 81.4802 185.894 80.8052 186.256 80.0926C187.002 78.5903 187.656 77.0445 188.215 75.4634C188.87 73.8711 189.505 72.2365 190.118 70.5314C191.337 67.1635 192.534 63.6335 193.704 59.9626L193.81 60.1881L188.99 58.1871L186.207 57.0175L186.447 56.9259L178.598 72.4267L178.527 72.5747L178.372 72.5042C173.116 70.1298 168.233 67.9315 163.844 66.0361L162.216 65.3315C161.948 65.2188 161.688 65.1272 161.427 65.0356C161.162 64.9568 160.891 64.8979 160.617 64.8595C159.563 64.6822 158.483 64.7619 157.467 65.092C156.531 65.4023 155.688 65.9425 155.015 66.6632C154.394 67.3235 153.891 68.0863 153.529 68.9179C153.351 69.299 153.2 69.6922 153.078 70.0945C152.951 70.4821 152.902 70.8766 152.81 71.25C152.723 71.9674 152.739 72.6935 152.859 73.4061C153.065 74.5414 153.52 75.617 154.191 76.5556C154.598 77.1493 155.071 77.6953 155.6 78.1831L156.164 78.7539Z" fill="currentColor"/>
<path d="M161.547 109.516L163.52 105.528L177.287 105.768L175.758 109.896L161.547 109.516Z" fill="#37842A"/>
<path d="M161.547 109.516H162.667L165.662 109.558C168.205 109.558 171.728 109.643 175.758 109.741L175.61 109.847C176.075 108.593 176.561 107.268 177.069 105.909L177.132 105.718L177.287 105.937C171.742 105.845 166.789 105.732 163.513 105.641L163.611 105.584C162.991 106.782 162.484 107.748 162.117 108.452L161.709 109.234C161.61 109.417 161.554 109.516 161.547 109.523C161.574 109.433 161.61 109.346 161.652 109.262C161.751 109.058 161.864 108.797 162.012 108.487L163.421 105.486V105.429H163.491C166.768 105.429 171.721 105.521 177.259 105.613H177.491L177.414 105.824L177.344 106.014L175.878 109.946L175.836 110.052H175.723C171.608 109.932 168.022 109.798 165.499 109.699L162.547 109.572L161.772 109.537L161.547 109.516Z" fill="currentColor"/>
<path d="M177.245 98.0805C177.245 98.1721 173.926 98.0311 169.84 97.7704C165.753 97.5097 162.442 97.2209 162.449 97.1293C162.456 97.0377 165.767 97.1856 169.861 97.4463C173.954 97.707 177.252 97.9889 177.245 98.0805Z" fill="currentColor"/>
<path d="M200.299 59.5189L201.63 57.2783L206.915 60.3644L205.886 62.7952L200.299 59.5189Z" fill="#E0E0E0"/>
<path d="M193.499 75.3014C192.919 74.7172 192.479 74.0095 192.21 73.2311C191.942 72.4527 191.853 71.6238 191.949 70.8062C192.041 70.8062 192.069 71.8912 192.506 73.1313C192.943 74.3713 193.57 75.245 193.499 75.3014Z" fill="currentColor"/>
<path d="M179.351 76.9501C178.753 76.326 178.378 75.5204 178.288 74.6602C178.088 73.8186 178.18 72.9345 178.548 72.1519C178.501 72.9717 178.52 73.794 178.605 74.6108C178.796 75.4079 179.045 76.1898 179.351 76.9501Z" fill="currentColor"/>
<g opacity="0.3">
<path d="M162.653 109.537L162.406 110.742L176.667 111.144L177.287 105.768L175.758 109.896L162.653 109.537Z" fill="black"/>
</g>
<path d="M173.891 64.3662C174.058 64.8535 174.176 65.3563 174.243 65.867L174.293 66.1347L174.067 65.9797C173.518 65.5922 172.806 65.0778 172.01 64.486L172.256 64.3873C172.179 64.8806 172.101 65.4019 172.017 65.9374C171.967 66.2615 171.918 66.5786 171.869 66.8816L171.834 67.1L171.636 67.0013C170.438 66.4165 169.396 65.8811 168.649 65.4935C168.235 65.3001 167.843 65.064 167.479 64.789C167.916 64.9081 168.339 65.0735 168.74 65.2822C169.508 65.6204 170.572 66.1136 171.777 66.6913L171.552 66.8111L171.7 65.867C171.784 65.3244 171.869 64.8101 171.946 64.3169L171.989 64.0632L172.193 64.2182C172.982 64.8171 173.673 65.3597 174.201 65.7754L174.046 65.9374C173.937 65.4209 173.885 64.894 173.891 64.3662Z" fill="currentColor"/>
<path d="M199.665 190.395C197.933 190.576 196.191 190.638 194.451 190.578C192.711 190.638 190.968 190.576 189.237 190.395C190.968 190.209 192.711 190.148 194.451 190.212C196.191 190.148 197.933 190.209 199.665 190.395Z" fill="#455A64"/>
<path d="M169.177 190.395C167.337 190.576 165.487 190.637 163.639 190.578C161.789 190.637 159.937 190.576 158.094 190.395C159.936 190.209 161.789 190.148 163.639 190.212C165.487 190.148 167.338 190.209 169.177 190.395Z" fill="#455A64"/>
<path d="M144.82 229.986C145.257 226.829 140.804 224.229 137.457 223.962C135.858 223.835 134.202 224.074 132.687 223.553C129.418 222.411 128.107 218.177 124.937 216.831C122.548 215.824 119.8 216.718 117.482 217.881C115.164 219.044 112.874 220.516 110.288 220.699C108.034 220.84 105.589 219.995 103.623 221.108C102.157 221.925 101.389 223.616 100.037 224.631C98.6838 225.646 96.9858 225.808 95.3441 225.899C93.7024 225.991 91.9973 226.005 90.5036 226.688C89.0099 227.372 87.7699 228.957 88.0799 230.571L144.82 229.986Z" fill="white"/>
<path d="M144.82 229.986H144.545H143.707L140.466 230.042L128.438 230.211L88.0587 230.676H87.9248V230.542C87.8486 230.076 87.872 229.599 87.9934 229.142C88.1149 228.686 88.3316 228.26 88.6294 227.893C89.2301 227.133 90.0412 226.567 90.9616 226.265C93.0753 225.561 95.2666 225.85 97.3028 225.476C98.3101 225.329 99.2644 224.931 100.079 224.321C100.818 223.627 101.506 222.881 102.136 222.087C102.478 221.698 102.869 221.354 103.299 221.066C103.732 220.79 104.208 220.59 104.708 220.474C105.698 220.306 106.706 220.283 107.702 220.403C108.652 220.514 109.609 220.538 110.563 220.474C111.485 220.361 112.388 220.124 113.248 219.769C114.96 219.065 116.503 218.113 118.123 217.374C119.678 216.587 121.405 216.202 123.147 216.253C123.981 216.309 124.792 216.55 125.521 216.958C126.207 217.368 126.831 217.873 127.374 218.459C128.452 219.579 129.298 220.798 130.291 221.777C131.18 222.765 132.373 223.427 133.68 223.658C134.921 223.856 136.125 223.75 137.246 223.828C138.294 223.897 139.324 224.135 140.296 224.532C141.113 224.859 141.887 225.285 142.6 225.8C143.17 226.216 143.673 226.715 144.094 227.28C144.4 227.705 144.625 228.182 144.756 228.689C144.84 228.999 144.869 229.321 144.841 229.64C144.841 229.852 144.841 229.957 144.841 229.957V229.626C144.846 229.317 144.805 229.008 144.721 228.71C144.333 227.564 143.568 226.583 142.551 225.927C141.844 225.424 141.077 225.009 140.268 224.694C139.311 224.303 138.298 224.065 137.267 223.99C136.161 223.919 134.956 224.032 133.673 223.842C132.32 223.607 131.082 222.934 130.15 221.925C129.136 220.925 128.276 219.706 127.219 218.614C126.692 218.047 126.084 217.561 125.416 217.169C124.718 216.782 123.943 216.553 123.147 216.5C121.452 216.459 119.774 216.841 118.264 217.613C116.672 218.318 115.122 219.318 113.381 220.023C112.495 220.383 111.563 220.62 110.612 220.727C109.64 220.794 108.664 220.773 107.695 220.664C106.732 220.55 105.757 220.574 104.8 220.734C104.329 220.839 103.881 221.025 103.475 221.284C103.066 221.559 102.694 221.886 102.369 222.256C101.725 223.067 101.019 223.826 100.255 224.525C99.4012 225.171 98.3977 225.59 97.338 225.744C95.2243 226.124 93.0683 225.829 91.0672 226.519C90.2053 226.804 89.4443 227.333 88.876 228.041C88.6013 228.37 88.3995 228.754 88.2841 229.167C88.1688 229.58 88.1423 230.013 88.2066 230.437L88.0446 230.303L128.319 229.971L140.388 229.901H144.517L144.82 229.986Z" fill="currentColor"/>
<path d="M285.652 274.226C286.089 271.07 281.636 268.477 278.289 268.209C276.69 268.075 275.034 268.322 273.519 267.794C270.25 266.652 268.939 262.425 265.769 261.072C263.38 260.064 260.632 260.966 258.314 262.129C255.996 263.291 253.706 264.764 251.12 264.947C248.873 265.095 246.428 264.242 244.455 265.356C242.99 266.18 242.222 267.871 240.869 268.879C239.516 269.886 237.818 270.062 236.176 270.154C234.535 270.245 232.829 270.26 231.336 270.943C229.842 271.626 228.602 273.205 228.919 274.825L285.652 274.226Z" fill="white"/>
<g opacity="0.2">
<path d="M255.179 278.919C252.931 279.067 250.486 278.214 248.513 279.327C247.048 280.152 246.28 281.843 244.927 282.85C243.574 283.858 241.876 284.034 240.235 284.126C238.593 284.217 236.895 284.231 235.401 284.915C233.907 285.598 232.667 287.177 232.977 288.797L267.502 288.452L265.917 284.323L258.11 278.968L255.179 278.919Z" fill="black"/>
</g>
<path d="M285.652 274.226H285.377H284.539L281.298 274.283L269.27 274.452L228.891 274.917H228.757V274.783C228.681 274.317 228.704 273.839 228.826 273.383C228.947 272.926 229.164 272.5 229.462 272.134C230.066 271.373 230.879 270.806 231.801 270.499C233.915 269.794 236.099 270.09 238.142 269.71C239.15 269.568 240.105 269.173 240.918 268.561C241.659 267.87 242.347 267.123 242.975 266.328C243.317 265.938 243.708 265.595 244.138 265.306C244.569 265.028 245.046 264.827 245.547 264.714C246.536 264.544 247.545 264.52 248.542 264.644C249.491 264.753 250.449 264.774 251.402 264.707C252.326 264.602 253.23 264.365 254.087 264.003C255.799 263.298 257.349 262.347 258.962 261.607C260.519 260.825 262.245 260.441 263.986 260.487C264.82 260.544 265.63 260.785 266.361 261.191C267.048 261.597 267.672 262.1 268.214 262.685C269.292 263.805 270.137 265.024 271.131 266.011C272.021 266.996 273.213 267.657 274.52 267.892C275.76 268.089 276.965 267.977 278.085 268.061C279.132 268.134 280.162 268.372 281.136 268.766C281.953 269.095 282.727 269.523 283.44 270.041C284.01 270.455 284.514 270.954 284.933 271.521C285.241 271.945 285.465 272.423 285.596 272.93C285.679 273.237 285.708 273.557 285.68 273.874C285.68 274.092 285.68 274.191 285.68 274.191V273.867C285.685 273.555 285.644 273.244 285.56 272.944C285.178 271.788 284.415 270.794 283.397 270.126C282.686 269.626 281.918 269.214 281.107 268.9C280.151 268.505 279.138 268.267 278.106 268.195C277 268.118 275.795 268.237 274.52 268.047C273.165 267.813 271.926 267.137 270.997 266.124C269.982 265.123 269.123 263.911 268.066 262.812C267.534 262.25 266.927 261.763 266.262 261.368C265.564 260.98 264.79 260.751 263.993 260.698C262.299 260.664 260.622 261.046 259.11 261.812C257.518 262.516 255.968 263.524 254.228 264.228C253.342 264.592 252.41 264.83 251.459 264.933C250.487 265.006 249.51 264.987 248.542 264.876C247.578 264.756 246.603 264.778 245.646 264.94C245.177 265.047 244.729 265.233 244.321 265.489C243.913 265.763 243.544 266.09 243.222 266.462C242.576 267.271 241.87 268.029 241.108 268.731C240.252 269.378 239.246 269.797 238.184 269.949C236.071 270.337 233.957 270.041 231.914 270.732C231.029 271.046 230.26 271.621 229.708 272.38C229.434 272.708 229.233 273.091 229.117 273.503C229.002 273.914 228.975 274.346 229.039 274.769L228.877 274.642L269.158 274.311L281.22 274.24H284.497H285.645L285.652 274.226Z" fill="currentColor"/>
<g opacity="0.2">
<path d="M149.273 239.131C147.681 239.004 146.018 239.251 144.51 238.723C141.234 237.581 139.923 233.347 136.76 232.001C134.371 230.993 131.616 231.888 129.298 233.058C126.98 234.227 125.775 235.545 123.168 235.714L109.224 245.522L156.657 245.155C157.073 241.999 152.62 239.406 149.273 239.131Z" fill="black"/>
</g>
<path d="M141.375 88.1039C141.72 85.5744 138.148 83.4889 135.456 83.2705C134.174 83.1648 132.842 83.3621 131.63 82.9393C128.995 82.0233 127.945 78.6202 125.38 77.5351C123.457 76.7249 121.245 77.4506 119.384 78.3877C117.524 79.3248 115.685 80.5014 113.607 80.6353C111.796 80.748 109.837 80.0787 108.252 80.9594C107.075 81.6217 106.455 82.9816 105.37 83.7778C104.237 84.4714 102.929 84.8259 101.601 84.7994C100.276 84.7661 98.957 84.9812 97.7115 85.4335C96.5137 85.9831 95.5203 87.2513 95.7669 88.5478L141.375 88.1039Z" fill="white"/>
<path d="M141.374 88.1037H141.149H140.48L137.88 88.153L128.213 88.2869L95.802 88.6603H95.6963V88.5546C95.6413 88.181 95.6649 87.8 95.7656 87.436C95.8663 87.072 96.0419 86.7331 96.2811 86.4409C96.7685 85.8331 97.4221 85.3802 98.1624 85.1374C99.8534 84.5596 101.615 84.7992 103.242 84.4962C104.051 84.3836 104.818 84.0658 105.469 83.5732C106.066 83.0171 106.619 82.4165 107.125 81.7765C107.401 81.4656 107.716 81.191 108.062 80.9592C108.414 80.7349 108.803 80.5729 109.21 80.4801C110.005 80.3491 110.813 80.3301 111.613 80.4237C112.375 80.5161 113.144 80.5349 113.91 80.4801C114.651 80.3932 115.377 80.2035 116.066 79.9164C117.475 79.3598 118.687 78.5848 119.99 77.9929C121.24 77.3598 122.628 77.0498 124.028 77.091C124.696 77.1382 125.346 77.3332 125.93 77.6618C126.482 77.9882 126.985 78.3915 127.424 78.8595C128.283 79.7614 128.967 80.7408 129.763 81.5299C130.479 82.3223 131.438 82.855 132.49 83.0448C133.483 83.1998 134.448 83.1152 135.35 83.1786C136.193 83.2418 137.02 83.4367 137.802 83.7564C138.458 84.0226 139.08 84.3656 139.655 84.7781C140.11 85.1145 140.514 85.5156 140.853 85.9688C141.098 86.3038 141.28 86.6812 141.389 87.082C141.453 87.3302 141.475 87.5876 141.452 87.843V88.0966V87.8359C141.455 87.5859 141.421 87.3367 141.353 87.0961C141.042 86.1764 140.429 85.3892 139.613 84.8626C139.044 84.4568 138.426 84.1253 137.774 83.8762C137.006 83.5645 136.192 83.3789 135.364 83.3266C134.477 83.2632 133.504 83.3618 132.483 83.2068C131.4 83.0149 130.409 82.4728 129.664 81.6638C128.847 80.8606 128.163 79.8812 127.311 79.0005C126.9 78.5484 126.425 78.1591 125.902 77.845C125.34 77.533 124.718 77.3478 124.077 77.3024C122.715 77.2747 121.368 77.582 120.152 78.1972C118.877 78.7891 117.63 79.6064 116.228 80.1348C115.519 80.4329 114.772 80.6321 114.008 80.7267C113.226 80.7807 112.441 80.7642 111.662 80.6774C110.889 80.5809 110.106 80.5975 109.337 80.7267C108.96 80.8125 108.6 80.9627 108.273 81.1706C107.944 81.3906 107.645 81.6536 107.385 81.9527C106.87 82.6014 106.307 83.2113 105.701 83.7775C105.016 84.2954 104.212 84.6323 103.362 84.7569C101.678 85.0599 99.9309 84.8274 98.3174 85.384C97.6252 85.6085 97.0149 86.0326 96.5629 86.6029C96.3421 86.8672 96.1797 87.1752 96.0862 87.5067C95.9927 87.8382 95.9703 88.1857 96.0204 88.5264L95.8936 88.4207L128.248 88.153L137.943 88.0966H141.466L141.374 88.1037Z" fill="currentColor"/>
<path d="M65.5404 181.186C65.8222 179.157 62.9545 177.487 60.8056 177.318C59.7839 177.234 58.6918 177.389 57.7477 177.05C55.6339 176.346 54.7955 173.598 52.7451 172.731C51.2091 172.083 49.4406 172.661 47.954 173.436C46.4673 174.211 44.9947 175.127 43.3249 175.24C41.8805 175.331 40.3092 174.796 39.041 175.5C38.1039 176.029 37.6318 177.114 36.737 177.755C35.832 178.313 34.7845 178.597 33.7214 178.572C32.6631 178.547 31.6094 178.719 30.6142 179.08C30.1199 179.271 29.701 179.618 29.4203 180.067C29.1395 180.517 29.0121 181.046 29.0571 181.574L65.5404 181.186Z" fill="white"/>
<path d="M65.5402 181.186H65.3641H64.8286H62.7149L54.9644 181.292L29.0076 181.595H28.9231V181.51C28.8785 181.209 28.8974 180.901 28.9787 180.608C29.06 180.314 29.2019 180.041 29.3951 179.805C29.7821 179.316 30.3038 178.951 30.8959 178.755C32.2557 178.297 33.6649 178.488 34.9613 178.248C35.6097 178.161 36.2242 177.906 36.7439 177.508C37.2218 177.074 37.6648 176.603 38.0685 176.099C38.2904 175.852 38.5411 175.632 38.8154 175.444C39.0997 175.267 39.4117 175.138 39.7384 175.063C40.374 174.955 41.0222 174.94 41.6619 175.021C42.2726 175.088 42.8878 175.102 43.5009 175.063C44.0919 174.992 44.6703 174.841 45.2201 174.612C46.3263 174.169 47.3338 173.549 48.3625 173.069C49.3628 172.57 50.472 172.328 51.5895 172.365C52.125 172.4 52.6456 172.556 53.1114 172.823C53.5525 173.083 53.9536 173.406 54.3021 173.781C55.0067 174.486 55.5422 175.282 56.1763 175.895C56.7517 176.527 57.5192 176.953 58.3605 177.107C59.1567 177.233 59.9247 177.163 60.6504 177.212C61.8919 177.319 63.0808 177.762 64.0888 178.495C64.4539 178.762 64.7768 179.083 65.047 179.446C65.2472 179.713 65.3932 180.017 65.4768 180.341C65.5291 180.538 65.5482 180.743 65.5332 180.947V181.151V180.94C65.5383 180.739 65.5122 180.54 65.4557 180.348C65.1971 179.612 64.7015 178.982 64.0465 178.558C63.5913 178.237 63.0993 177.973 62.581 177.769C61.9647 177.522 61.313 177.374 60.6504 177.332C59.9458 177.283 59.1638 177.332 58.3464 177.233C57.4746 177.085 56.6766 176.651 56.0777 176C55.4295 175.359 54.8799 174.591 54.1964 173.887C53.8567 173.524 53.4677 173.211 53.0409 172.957C52.5919 172.709 52.0941 172.562 51.5824 172.527C50.4932 172.502 49.4142 172.744 48.44 173.231C47.4184 173.704 46.4249 174.331 45.3046 174.782C44.7344 175.018 44.1348 175.177 43.522 175.254C42.8974 175.299 42.2698 175.285 41.6478 175.211C41.0289 175.137 40.4026 175.151 39.7877 175.254C39.4861 175.323 39.1981 175.442 38.9352 175.606C38.6746 175.784 38.4378 175.995 38.2306 176.233C37.8199 176.753 37.37 177.24 36.8848 177.691C36.3381 178.11 35.6924 178.379 35.0107 178.474C33.6649 178.72 32.2628 178.53 30.9734 178.974C30.4176 179.155 29.9275 179.495 29.5642 179.953C29.3872 180.164 29.2568 180.41 29.1815 180.674C29.1062 180.939 29.0878 181.217 29.1274 181.489L29.0287 181.405L54.9151 181.193L62.6655 181.151H65.4839L65.5402 181.186Z" fill="currentColor"/>
<path d="M312.088 172.612C312.398 170.343 309.192 168.469 306.782 168.278C305.627 168.187 304.436 168.356 303.344 167.982C300.984 167.158 300.039 164.107 297.742 163.135C296.016 162.43 294.036 163.057 292.367 163.896C290.697 164.734 289.048 165.791 287.181 165.911C285.56 166.017 283.799 165.418 282.383 166.207C281.326 166.799 280.769 168.018 279.797 168.736C278.782 169.362 277.607 169.681 276.415 169.652C275.215 169.619 274.02 169.812 272.892 170.223C271.814 170.716 270.926 171.858 271.144 173.041L312.088 172.612Z" fill="white"/>
<path d="M312.088 172.611H311.884H311.285L308.952 172.654L300.279 172.774L271.187 173.105H271.088V173.013C271.035 172.676 271.055 172.331 271.146 172.001C271.237 171.672 271.397 171.366 271.617 171.104C272.052 170.556 272.637 170.147 273.301 169.927C274.822 169.413 276.401 169.631 277.859 169.356C278.586 169.254 279.275 168.968 279.86 168.525C280.393 168.027 280.887 167.49 281.34 166.918C281.587 166.637 281.869 166.389 282.178 166.179C282.495 165.98 282.842 165.837 283.207 165.756C283.919 165.634 284.646 165.618 285.363 165.707C286.048 165.782 286.739 165.799 287.427 165.756C288.091 165.677 288.741 165.506 289.358 165.249C290.598 164.748 291.711 164.051 292.881 163.522C294.002 162.954 295.247 162.676 296.502 162.712C297.104 162.756 297.689 162.931 298.215 163.226C298.709 163.519 299.157 163.882 299.546 164.304C300.321 165.108 300.955 165.988 301.66 166.693C302.302 167.405 303.162 167.883 304.105 168.053C305 168.194 305.866 168.116 306.677 168.173C307.432 168.229 308.174 168.405 308.875 168.694C309.464 168.931 310.022 169.239 310.538 169.61C310.946 169.91 311.306 170.268 311.609 170.674C311.831 170.973 311.994 171.313 312.088 171.674C312.148 171.904 312.169 172.142 312.151 172.379V172.604C312.147 172.527 312.147 172.449 312.151 172.372C312.153 172.148 312.125 171.926 312.067 171.71C311.78 170.887 311.23 170.181 310.503 169.702C309.992 169.341 309.438 169.045 308.854 168.821C308.163 168.543 307.433 168.377 306.691 168.328C305.895 168.271 305.028 168.328 304.105 168.222C303.126 168.049 302.233 167.553 301.568 166.813C300.864 166.108 300.216 165.22 299.455 164.431C299.076 164.021 298.64 163.67 298.158 163.389C297.655 163.109 297.097 162.943 296.524 162.902C295.301 162.878 294.092 163.154 293.001 163.706C291.859 164.234 290.739 164.939 289.478 165.446C288.84 165.712 288.169 165.89 287.484 165.974C286.779 166.026 286.071 166.009 285.37 165.925C284.667 165.84 283.955 165.856 283.256 165.974C282.915 166.049 282.591 166.185 282.298 166.376C282.002 166.573 281.734 166.81 281.502 167.081C281.041 167.662 280.537 168.209 279.994 168.715C279.375 169.182 278.648 169.485 277.88 169.596C276.373 169.871 274.801 169.659 273.357 170.153C272.735 170.357 272.186 170.739 271.779 171.252C271.569 171.494 271.416 171.779 271.33 172.087C271.243 172.395 271.226 172.719 271.278 173.034L271.159 172.936L300.18 172.696L308.875 172.647H312.067L312.088 172.611Z" fill="currentColor"/>
<path d="M272.455 21.1756C272.695 19.4846 270.299 18.0895 268.51 17.9416C267.651 17.9796 266.791 17.9062 265.952 17.7232C264.19 17.1102 263.493 14.8414 261.774 14.1157C260.491 13.5802 259.019 14.0593 257.779 14.6864C256.539 15.3135 255.306 16.0956 253.918 16.1872C252.713 16.2647 251.395 15.8137 250.338 16.4056C249.556 16.8424 249.141 17.7513 248.415 18.2868C247.662 18.7587 246.788 19.0033 245.899 18.9914C245.016 18.97 244.137 19.1134 243.307 19.4142C242.889 19.5764 242.535 19.8706 242.3 20.2522C242.065 20.6337 241.96 21.0817 242.003 21.5279L272.455 21.1756Z" fill="white"/>
<path d="M272.455 10.1755H271.863H270.123L263.669 10.2601L242.003 10.549H241.933V10.4785C241.895 10.2291 241.911 9.97459 241.979 9.73174C242.047 9.48889 242.166 9.26316 242.327 9.06933C242.648 8.6587 243.085 8.35424 243.581 8.19565C244.709 7.80813 245.885 7.97018 246.97 7.7729C247.512 7.69285 248.025 7.47982 248.464 7.15287C248.857 6.77909 249.225 6.3789 249.563 5.95507C249.747 5.74454 249.958 5.55969 250.19 5.4055C250.426 5.25652 250.686 5.14927 250.958 5.08844C251.491 5.01174 252.032 5.01174 252.565 5.08844C253.073 5.13389 253.585 5.13389 254.094 5.08844C254.59 5.02625 255.076 4.8983 255.538 4.70796C256.454 4.34158 257.286 3.82019 258.152 3.42562C258.987 3.00267 259.915 2.79442 260.851 2.81968C261.299 2.85374 261.735 2.98604 262.126 3.2072C262.494 3.42307 262.829 3.69126 263.12 4.00338C263.697 4.60932 264.148 5.25754 264.677 5.78598C265.158 6.31373 265.799 6.66995 266.502 6.80057C267.164 6.89922 267.812 6.84285 268.411 6.88512C268.974 6.92709 269.526 7.06035 270.046 7.27969C270.487 7.46164 270.903 7.69836 271.286 7.98427C271.591 8.20934 271.861 8.47754 272.089 8.78045C272.254 9.00382 272.374 9.25762 272.441 9.52731C272.485 9.69267 272.501 9.86396 272.49 10.0346V10.2037V10.0276C272.499 9.8607 272.477 9.6937 272.427 9.53436C272.218 8.92029 271.808 8.39427 271.264 8.04064C270.885 7.76933 270.473 7.54681 270.039 7.37833C269.525 7.17351 268.983 7.0499 268.432 7.01195C267.788 7.01951 267.143 6.99364 266.502 6.93444C265.776 6.8091 265.112 6.44745 264.613 5.90575C264.071 5.37027 263.613 4.71501 263.042 4.1302C262.761 3.82482 262.436 3.56353 262.077 3.35516C261.702 3.14617 261.286 3.02341 260.858 2.99583C259.948 2.97567 259.047 3.18144 258.237 3.59472C257.384 3.98224 256.553 4.51068 255.616 4.88411C255.143 5.0836 254.645 5.2164 254.136 5.27868C253.616 5.32804 253.092 5.32804 252.572 5.27868C252.055 5.20815 251.531 5.20815 251.015 5.27868C250.765 5.33815 250.527 5.43811 250.31 5.5746C250.092 5.72308 249.893 5.89824 249.718 6.09599C249.377 6.53082 249.003 6.93837 248.598 7.31492C248.14 7.66077 247.602 7.88608 247.034 7.97018C245.914 8.17451 244.744 8.0195 243.666 8.38589C243.205 8.54207 242.797 8.82538 242.489 9.2032C242.343 9.37998 242.236 9.58543 242.174 9.8063C242.112 10.0272 242.097 10.2586 242.13 10.4855L242.045 10.4151L263.655 10.2389L270.123 10.2037H272.498L272.455 10.1755Z" fill="currentColor"/>
<path d="M66.7379 271.197C66.9704 269.506 64.5819 268.111 62.7852 267.97C61.9269 268.004 61.0677 267.93 60.2276 267.751C58.4732 267.138 57.7686 264.862 56.0564 264.144C54.7741 263.601 53.3015 264.08 52.0544 264.707C50.8073 265.335 49.5884 266.117 48.2003 266.208C46.9885 266.286 45.6779 265.842 44.6211 266.427C43.8319 266.871 43.4233 267.772 42.6975 268.308C41.947 268.786 41.0718 269.031 40.1822 269.012C39.2969 268.992 38.4153 269.135 37.5823 269.435C37.165 269.598 36.8124 269.892 36.5783 270.274C36.3442 270.656 36.2415 271.103 36.2858 271.549L66.7379 271.197Z" fill="white"/>
<path d="M66.7381 271.197H66.5902H66.1392H64.4059L57.952 271.288L36.286 271.535H36.2156V271.465C36.1787 271.216 36.1941 270.962 36.2609 270.719C36.3276 270.476 36.4441 270.25 36.6031 270.055C36.9306 269.652 37.3653 269.349 37.8573 269.182C38.9916 268.801 40.1683 268.963 41.2533 268.759C41.7939 268.683 42.3059 268.47 42.74 268.139C43.1408 267.77 43.5107 267.37 43.8462 266.941C44.0317 266.733 44.2424 266.548 44.4733 266.392C44.7083 266.242 44.9686 266.137 45.2413 266.081C45.7696 265.99 46.3083 265.976 46.8407 266.039C47.3504 266.1 47.8647 266.112 48.3767 266.074C48.8614 266.016 49.3357 265.89 49.7858 265.701C50.7089 265.328 51.5403 264.813 52.4069 264.412C53.2428 263.991 54.1702 263.785 55.1055 263.813C55.5511 263.844 55.9843 263.974 56.3737 264.193C56.7431 264.41 57.078 264.681 57.3672 264.996C57.9449 265.595 58.4029 266.251 58.9313 266.779C59.4099 267.306 60.0489 267.66 60.7492 267.787C61.4537 267.892 62.0597 267.836 62.6656 267.878C63.2278 267.919 63.7797 268.05 64.3003 268.266C64.7421 268.446 65.1588 268.683 65.5403 268.97C65.8449 269.193 66.1134 269.462 66.3365 269.766C66.5001 269.989 66.6218 270.24 66.6958 270.506C66.7406 270.671 66.7549 270.843 66.7381 271.014C66.7381 271.133 66.7381 271.183 66.7381 271.183V271.007C66.7383 270.84 66.717 270.674 66.6747 270.513C66.4626 269.901 66.0538 269.376 65.5121 269.02C65.1308 268.754 64.7193 268.534 64.2862 268.364C63.7713 268.157 63.2266 268.033 62.6727 267.998C62.0808 267.956 61.4326 267.998 60.7492 267.92C60.023 267.792 59.3593 267.428 58.8609 266.885C58.3113 266.349 57.8533 265.701 57.2897 265.109C57.0034 264.809 56.6789 264.549 56.3244 264.334C55.9481 264.129 55.5326 264.007 55.1055 263.975C54.196 263.958 53.2963 264.164 52.4844 264.574C51.6319 264.968 50.8004 265.49 49.8634 265.87C49.3895 266.071 48.8885 266.202 48.3767 266.258C47.8565 266.307 47.3327 266.307 46.8125 266.258C46.2987 266.18 45.7762 266.18 45.2624 266.258C45.012 266.314 44.7734 266.414 44.5578 266.554C44.3396 266.702 44.1408 266.877 43.966 267.075C43.6209 267.504 43.2466 267.909 42.8457 268.287C42.3864 268.636 41.8455 268.861 41.2745 268.942C40.1542 269.146 38.9846 268.991 37.9136 269.365C37.4486 269.514 37.0388 269.798 36.737 270.182C36.5904 270.359 36.4827 270.564 36.4208 270.785C36.3589 271.006 36.3442 271.238 36.3776 271.465L36.2931 271.394L57.8956 271.211L64.3707 271.176H66.7452L66.7381 271.197Z" fill="currentColor"/>
<path d="M311.017 105.458C311.581 101.364 305.796 97.996 301.456 97.6437C299.384 97.4746 297.228 97.7917 295.269 97.1082C291.042 95.6286 289.323 90.1329 285.173 88.3855C282.073 87.082 278.507 88.2446 275.499 89.7594C272.49 91.2743 269.524 93.1696 266.163 93.388C263.239 93.5783 260.068 92.4932 257.511 93.9165C255.608 94.9804 254.615 97.1787 252.854 98.4681C251.092 99.7575 248.901 100.004 246.766 100.124C244.631 100.244 242.433 100.258 240.488 101.145C238.543 102.033 236.965 104.091 237.346 106.183L311.017 105.458Z" fill="white"/>
<path d="M311.017 105.458C311.017 105.458 310.897 105.458 310.658 105.458H309.573L305.345 105.535L289.731 105.747L237.332 106.352H237.155L237.12 106.183C237.026 105.574 237.061 104.952 237.225 104.358C237.389 103.764 237.678 103.212 238.071 102.738C238.854 101.753 239.907 101.019 241.101 100.624C243.842 99.6942 246.688 100.089 249.31 99.6026C250.617 99.4145 251.856 98.8981 252.91 98.1018C253.873 97.2067 254.766 96.2385 255.58 95.206C256.026 94.7005 256.535 94.2552 257.095 93.8814C257.662 93.5175 258.29 93.2574 258.948 93.1134C260.231 92.8934 261.539 92.8626 262.83 93.0218C264.063 93.1656 265.306 93.1939 266.544 93.1063C267.742 92.9696 268.914 92.6611 270.024 92.1904C272.251 91.3026 274.252 90.0766 276.366 89.0902C278.383 88.0687 280.623 87.5674 282.883 87.6317C283.967 87.711 285.02 88.026 285.969 88.5547C286.858 89.0824 287.668 89.7349 288.372 90.4923C289.781 91.9508 290.866 93.5291 292.148 94.8044C293.307 96.0818 294.855 96.9412 296.552 97.2493C298.165 97.5029 299.722 97.362 301.181 97.4677C302.542 97.5696 303.878 97.8858 305.141 98.4048C306.201 98.8294 307.204 99.3832 308.128 100.054C308.867 100.594 309.52 101.242 310.066 101.977C310.463 102.517 310.757 103.127 310.932 103.774C311.035 104.176 311.071 104.593 311.038 105.007C311.038 105.289 311.003 105.415 311.003 105.415C311.003 105.415 311.003 105.26 311.003 104.993C311.017 104.59 310.967 104.188 310.855 103.802C310.345 102.317 309.353 101.044 308.037 100.187C307.117 99.5361 306.121 99.0012 305.07 98.595C303.827 98.0927 302.512 97.7906 301.174 97.7002C299.765 97.6086 298.172 97.7636 296.517 97.51C294.761 97.2066 293.155 96.3294 291.951 95.0158C290.633 93.7193 289.52 92.1411 288.146 90.7248C287.463 89.9888 286.674 89.3573 285.807 88.8507C284.904 88.3473 283.9 88.0491 282.869 87.977C280.667 87.9279 278.488 88.4267 276.528 89.4284C274.463 90.3726 272.448 91.6408 270.186 92.5568C269.041 93.0371 267.834 93.3549 266.6 93.5009C265.339 93.5949 264.072 93.569 262.816 93.4234C261.564 93.2738 260.297 93.3047 259.054 93.515C258.444 93.646 257.861 93.8846 257.335 94.2196C256.811 94.5755 256.337 94.9996 255.926 95.4808C255.096 96.5291 254.187 97.5115 253.206 98.4189C252.102 99.2631 250.799 99.8091 249.422 100.004C246.71 100.504 243.884 100.124 241.277 101.019C240.167 101.39 239.188 102.076 238.459 102.992C238.103 103.418 237.842 103.914 237.693 104.449C237.543 104.983 237.509 105.543 237.592 106.092L237.381 105.923L289.647 105.493L305.303 105.401H310.665L311.017 105.458Z" fill="currentColor"/>
</svg>
