<svg width="24" height="24" viewBox="0 0 24 24" fill="none" xmlns="http://www.w3.org/2000/svg">
<path fill-rule="evenodd" clip-rule="evenodd" d="M2.92003 2.80852C3.31055 2.41799 3.94372 2.41799 4.33424 2.80852L6.92962 5.4039C8.33767 4.62485 10.0207 4.10008 12 4.1001C19.6792 4.10018 22.8995 11.9996 22.8995 11.9996C22.8995 11.9996 21.6681 15.05 18.8854 17.3597L20.295 18.7693C20.6856 19.1598 20.6856 19.793 20.295 20.1835C19.9045 20.574 19.2713 20.574 18.8808 20.1835L2.92003 4.22273C2.52951 3.83221 2.52951 3.19904 2.92003 2.80852ZM10.0387 8.51301L8.41558 6.88986C9.45409 6.40352 10.6442 6.10008 12 6.1001C15.0788 6.10013 17.303 7.66486 18.8382 9.38262C19.6044 10.2398 20.1677 11.1044 20.5386 11.7553C20.5881 11.8422 20.6339 11.9249 20.6761 12.0028C20.6345 12.0801 20.5893 12.1621 20.5405 12.2482C20.1722 12.8984 19.6121 13.762 18.8485 14.6182C18.4383 15.0782 17.9781 15.5275 17.4645 15.9388L15.487 13.9613C15.8136 13.3818 16 12.7126 16 12C16 9.79086 14.2091 8 12 8C11.2874 8 10.6182 8.18636 10.0387 8.51301ZM11.5717 10.046L13.954 12.4283C13.9841 12.2903 14 12.147 14 12C14 10.8954 13.1046 10 12 10C11.853 10 11.7097 10.0159 11.5717 10.046ZM3.46142 11.7554C3.83225 11.1044 4.39563 10.2399 5.16175 9.38265C5.3953 9.12133 5.71489 8.81536 5.98092 8.56609L4.54977 7.14941C2.17108 9.37338 1.10046 11.9997 1.10046 11.9997C1.10046 11.9997 4.28954 19.8992 12 19.8992C13.6551 19.8992 15.1018 19.5352 16.3534 18.9635L14.8501 17.416C13.9954 17.7198 13.0476 17.8992 12 17.8992C8.904 17.8992 6.68037 16.3328 5.15151 14.6183C4.38793 13.7621 3.82773 12.8985 3.45949 12.2483C3.41069 12.1622 3.36549 12.0802 3.32385 12.0029C3.36607 11.925 3.41192 11.8423 3.46142 11.7554ZM12 16C9.79086 16 8 14.2091 8 12C8 11.4616 8.10639 10.948 8.29928 10.4791L10.0054 12.148C10.077 13.1271 10.8535 13.9105 11.8296 13.9928L13.5407 15.6925C13.0665 15.8906 12.546 16 12 16Z" fill="currentColor"/>
</svg>
