<svg width="24" height="24" viewBox="0 0 24 24" fill="none" xmlns="http://www.w3.org/2000/svg">
<path fill-rule="evenodd" clip-rule="evenodd" d="M19.9381 13H17.7835C17.7392 13.761 17.6447 14.4992 17.5047 15.2031H19.333C19.6344 14.514 19.8416 13.7742 19.9381 13ZM18.077 17.2031H16.9518C16.7571 17.739 16.5323 18.2409 16.2803 18.7017C16.264 18.7316 16.2475 18.7613 16.2308 18.791C16.9245 18.3579 17.5471 17.8214 18.077 17.2031ZM15.4592 15.2031C15.6179 14.5183 15.7283 13.7789 15.7797 13H13V15.2031H15.4592ZM13 17.2031H14.7941C14.7088 17.3912 14.6191 17.571 14.5256 17.742C14.0471 18.6168 13.5181 19.1829 13 19.4955V17.2031ZM11 15.2031V13H8.14893C8.20035 13.7789 8.31078 14.5183 8.46946 15.2031H11ZM9.13453 17.2031H11V19.537C10.4593 19.2343 9.90352 18.6569 9.40307 17.742C9.30957 17.571 9.21991 17.3912 9.13453 17.2031ZM6.42396 15.2031C6.28395 14.4992 6.18945 13.761 6.14514 13H4.06189C4.15843 13.7742 4.36558 14.514 4.66704 15.2031H6.42396ZM5.92301 17.2031H6.97693C7.17158 17.739 7.39638 18.2409 7.64838 18.7017L7.65892 18.7209C7.00937 18.3005 6.42464 17.7885 5.92301 17.2031ZM17.7835 11C17.7392 10.239 17.6447 9.50075 17.5047 8.79688H19.333C19.6344 9.48602 19.8416 10.2258 19.9381 11H17.7835ZM18.077 6.79688H16.9517C16.7571 6.26107 16.5323 5.75915 16.2803 5.29845C16.2639 5.2685 16.2474 5.23866 16.2307 5.20894C16.9245 5.64207 17.5471 6.17857 18.077 6.79688ZM13 6.79688H14.7941C14.7087 6.60886 14.6191 6.42909 14.5256 6.25817C14.0471 5.38337 13.5181 4.8172 13 4.5046V6.79688ZM15.4592 8.79688H13V11H15.7797C15.7283 10.2211 15.6179 9.48174 15.4592 8.79688ZM11 4.46313V6.79687H9.13459C9.21995 6.60886 9.30959 6.42909 9.40307 6.25817C9.90352 5.34319 10.4593 4.76584 11 4.46313ZM11 8.79687H8.46948C8.31081 9.48174 8.20036 10.2211 8.14894 11H11V8.79687ZM7.64838 5.29845C7.3964 5.75915 7.17161 6.26107 6.97697 6.79687H5.92301C6.42467 6.21151 7.00944 5.69947 7.65903 5.27905L7.64838 5.29845ZM6.42399 8.79687H4.66704C4.36558 9.48602 4.15843 10.2258 4.06189 11H6.14514C6.18946 10.239 6.28397 9.50075 6.42399 8.79687ZM12 22C17.5228 22 22 17.5228 22 12C22 6.47715 17.5228 2 12 2C6.47715 2 2 6.47715 2 12C2 17.5228 6.47715 22 12 22Z" fill="currentColor"/>
</svg>
