<svg width="24" height="24" viewBox="0 0 24 24" fill="none" xmlns="http://www.w3.org/2000/svg">
<path fill-rule="evenodd" clip-rule="evenodd" d="M6 2C5.44772 2 5 2.44772 5 3C5 3.55229 5.44772 4 6 4L6.93441 4C7.21635 7.61399 8.25964 10.5435 9.76273 12C8.25963 13.4565 7.21633 16.386 6.93439 20L6 20C5.44772 20 5 20.4477 5 21C5 21.5523 5.44772 22 6 22H17.0525L17.142 22L18 22C18.5523 22 19 21.5523 19 21C19 20.4477 18.5523 20 18 20L17.0655 20C16.7835 16.386 15.7402 13.4565 14.2371 12C15.7403 10.5435 16.7836 7.614 17.0655 4H18C18.5523 4 19 3.55229 19 3C19 2.44772 18.5523 2 18 2H6.85792H6ZM11.9999 13C11.6987 13 10.9258 13.2613 10.1199 15.0077C9.54426 16.2553 9.11377 17.9697 8.94098 20H15.0589C14.8861 17.9697 14.4556 16.2553 13.8799 15.0077C13.0741 13.2613 12.3012 13 11.9999 13ZM10.1199 8.99231C9.54427 7.74473 9.11379 6.0303 8.94099 4L15.0589 4C14.8861 6.03029 14.4556 7.74473 13.88 8.99231C13.0741 10.7387 12.3012 11 11.9999 11C11.6987 11 10.9258 10.7387 10.1199 8.99231Z" fill="currentColor"/>
</svg>
