<svg width="165" height="186" viewBox="0 0 165 186" fill="none" xmlns="http://www.w3.org/2000/svg">
<path fill-rule="evenodd" clip-rule="evenodd" d="M110.072 113.025C119.178 126.096 126.497 136.602 117.389 139.957C114.436 138.961 112.582 129.906 109.8 116.32C109.456 114.642 109.099 112.896 108.723 111.087C109.176 111.739 109.626 112.385 110.072 113.025ZM109.445 179.978C108.493 180.078 107.623 180.13 106.824 180.109L109.445 179.978Z" fill="#24272D"/>
<path fill-rule="evenodd" clip-rule="evenodd" d="M109.445 179.978C108.493 180.078 107.623 180.13 106.824 180.109L109.445 179.978Z" fill="#C6CAD2"/>
<path d="M98.6132 146.813C95.3638 147.896 95.9633 155.003 100.057 174.961C100.28 175.491 100.511 175.97 100.75 176.404C102.261 179.136 104.141 180.037 106.824 180.109L109.445 179.978C110.23 179.897 111.07 179.783 111.973 179.652C120.829 171.749 120.248 161.066 117.389 139.957C114.436 138.961 112.582 129.906 109.8 116.32C109.456 114.642 109.099 112.896 108.723 111.087C108.181 112.204 107.681 113.361 107.219 114.546C106.886 115.4 106.573 116.268 106.278 117.145C104.174 123.401 102.974 130.146 101.999 135.626C100.906 141.767 100.096 146.319 98.6132 146.813Z" fill="#C6CAD2"/>
<path fill-rule="evenodd" clip-rule="evenodd" d="M109.445 179.978C108.493 180.078 107.623 180.13 106.824 180.109L109.445 179.978Z" fill="#F4F4F6"/>
<path fill-rule="evenodd" clip-rule="evenodd" d="M109.799 116.315L109.8 116.32C109.799 116.318 109.799 116.316 109.799 116.315Z" fill="#F4F4F6"/>
<path d="M151.33 181.456C160.353 175.682 158.753 163.798 151.907 141.907H137.768L138.851 151.739H134.157L133.074 141.458L117.389 139.957C120.248 161.066 120.829 171.749 111.973 179.652C126.766 181.709 135.28 182.358 151.33 181.456Z" fill="#F4F4F6"/>
<path d="M157.72 130.86C149.917 115.825 147.629 110.23 143.748 108.561C139.537 107.844 135.893 107.345 132.554 107.107C131.567 107.037 130.606 106.989 129.666 106.966C126.264 106.882 123.122 107.112 119.916 107.712C118.962 107.891 118.002 108.102 117.028 108.347C114.416 109.006 111.702 109.91 108.723 111.087C109.119 111.658 109.513 112.223 109.904 112.785L110.072 113.025C119.178 126.096 126.497 136.602 117.389 139.957L133.074 141.458C135.507 137.686 135.602 133.695 135.602 132.252C135.602 130.808 139.574 130.448 140.296 132.252C141.018 134.056 139.564 138.609 137.768 141.907H151.907C159.475 141.793 160.975 138.296 157.72 130.86Z" fill="#F4F4F6"/>
<path d="M151.907 141.907C158.753 163.798 160.353 175.682 151.33 181.456M151.907 141.907C159.475 141.793 160.975 138.296 157.72 130.86C149.917 115.825 147.629 110.23 143.748 108.561C139.537 107.844 135.893 107.345 132.554 107.107M151.907 141.907H137.768M151.33 181.456C135.28 182.358 126.766 181.709 111.973 179.652M151.33 181.456H161.44M111.973 179.652C120.829 171.749 120.248 161.066 117.389 139.957M111.973 179.652C111.07 179.783 110.23 179.897 109.445 179.978M98.6132 146.813C95.3638 147.896 95.9633 155.003 100.057 174.961C100.28 175.491 100.511 175.97 100.75 176.404M98.6132 146.813C99.3117 150.798 103.167 151.163 111.973 150.782M98.6132 146.813C100.096 146.319 100.906 141.767 101.999 135.626C102.974 130.146 104.174 123.401 106.278 117.145M108.723 111.087C111.702 109.91 114.416 109.006 117.028 108.347M108.723 111.087C108.181 112.204 107.681 113.361 107.219 114.546M108.723 111.087C109.119 111.658 109.513 112.223 109.904 112.785M108.723 111.087C109.098 112.894 109.456 114.639 109.799 116.315M117.389 139.957L133.074 141.458M117.389 139.957C126.497 136.602 119.178 126.096 110.072 113.025M117.389 139.957C114.436 138.961 112.582 129.906 109.8 116.32M132.554 107.107C131.567 107.037 130.606 106.989 129.666 106.966M132.554 107.107C132.471 106.899 132.397 106.701 132.326 106.511C131.876 105.306 131.536 104.394 129.666 103.148C127.499 101.705 123.323 102.208 120.639 103.87C118.872 105.158 118.124 106.196 117.028 108.347M117.028 108.347C118.002 108.102 118.962 107.891 119.916 107.712M119.916 107.712C123.122 107.112 126.264 106.882 129.666 106.966M119.916 107.712C119.996 107.616 120.063 107.531 120.126 107.45C120.46 107.027 120.699 106.722 122.083 105.674C124.61 104.231 126.412 104.038 128.582 105.313C129.247 105.926 129.522 106.283 129.666 106.966M100.75 176.404C94.2982 173.247 91.267 171.156 93.1968 163.413C93.1968 163.413 97.6437 137.049 101.502 120.47C102.41 117.63 103.467 116.893 106.278 117.145M100.75 176.404C102.261 179.136 104.141 180.037 106.824 180.109M106.278 117.145C106.573 116.268 106.886 115.4 107.219 114.546M107.219 114.546L102.224 115.418C100.356 115.947 99.5123 116.886 98.6132 120.47L89.947 167.382C89.346 171.146 90.0227 172.773 92.8356 174.961L101.501 180.373M101.501 180.373L95.7242 181.817M101.501 180.373L106.824 180.109M109.445 179.978C108.493 180.078 107.623 180.13 106.824 180.109M109.445 179.978L106.824 180.109M149.525 178.93C154.691 174.178 155.518 169.472 152.774 156.917M133.074 141.458C135.507 137.686 135.602 133.695 135.602 132.252C135.602 130.808 139.574 130.448 140.296 132.252C141.018 134.056 139.564 138.609 137.768 141.907M133.074 141.458L137.768 141.907M133.074 141.458L134.157 151.739H138.851L137.768 141.907M110.072 113.025C110.016 112.945 109.96 112.865 109.904 112.785M110.072 113.025L109.904 112.785M109.8 116.32L109.799 116.315M109.8 116.32C109.799 116.318 109.799 116.316 109.799 116.315" stroke="#24272D" stroke-width="0.6975" stroke-linecap="round" stroke-linejoin="round"/>
<path d="M88.5768 37.4488C92.4913 37.8837 94.6137 37.8454 97.9648 36.0054C99.4243 37.8672 100.505 38.7058 104.103 38.8923C107.714 37.4488 108.911 40.9275 107.353 42.1401C105.227 43.795 104.55 44.69 105.186 45.7488L106.631 47.5531C107.142 47.1871 107.628 46.8474 108.09 46.5235L108.091 46.523C111.038 44.4612 113.063 43.0445 114.935 39.614C117.102 35.6445 116.376 32.0205 112.769 32.0359C111.182 21.1001 107.806 19.0597 99.7702 23.7359C93.6319 19.7672 88.2558 21.4491 88.2157 30.2315C82.4118 27.8783 78.4831 31.6574 88.5768 37.4488Z" fill="#24272D"/>
<path d="M70.8841 65.236C72.7347 65.3959 73.6314 65.6568 74.4948 67.0403L77.0224 66.6795C77.3413 66.452 77.5346 66.2791 77.5769 66.0932C77.6102 65.9469 77.5499 65.7925 77.3834 65.5969L74.96 62.4378L69.0787 54.7709C68.7257 54.4352 68.4888 54.3454 67.9954 54.41L61.4961 55.8535C60.7731 56.0607 60.7216 56.308 61.135 56.9361L66.7197 63.928C67.0552 64.06 67.2733 64.1534 67.2733 64.1534C68.7735 65.019 69.4858 65.0921 70.6212 65.2087C70.7063 65.2175 70.7937 65.2264 70.8841 65.236Z" fill="#24272D"/>
<path d="M61.8575 169.526H73.0509L73.1125 169.482C76.5699 167.047 78.5276 165.668 80.272 161.587C80.835 159.99 81.2266 158.614 81.6143 157.25C82.151 155.364 82.6802 153.503 83.6461 151.122C84.1868 150.131 84.8515 149.065 85.6882 147.874C88.7267 142.959 90.0341 139.835 91.1043 133.078C92.4958 126.606 94.7486 123.325 103.742 118.644C115.793 112.396 120.904 108.242 123.962 98.4352C114.216 97.9796 110.256 97.0951 104.825 94.8266C101.447 95.4747 99.5426 95.3729 96.1594 94.4657C80.584 109.797 73.5497 123.832 66.3448 151.122C65.3094 155.044 64.2704 159.239 63.202 163.752C62.7595 165.621 62.3119 167.545 61.8575 169.526Z" fill="#27A613"/>
<path d="M66.3448 151.122C73.5497 123.832 80.584 109.797 96.1594 94.4657L93.6319 93.3831L93.6124 93.3856C79.5869 95.1657 67.9941 96.6371 65.1068 109.983L57.8853 149.317L66.3448 151.122Z" fill="#27A613"/>
<path d="M96.1594 94.4657C99.5426 95.3729 101.447 95.4747 104.825 94.8266C110.225 92.034 112.31 90.0338 114.574 85.8049C118.572 77.6388 120.061 72.7649 122.367 64.153C120.093 60.4036 116.537 56.4142 110.602 52.6052C109.639 56.6186 108.066 57.9691 103.381 58.74C103.466 66.218 102.235 70.347 99.5047 72.0466C95.3708 77.1781 90.2477 75.3789 79.5499 69.5659L78.2086 74.2577L75.217 84.7223C78.981 91.5513 85.6882 89.0527 93.6319 93.3831L96.1594 94.4657Z" fill="#27A613"/>
<path d="M80.272 68.1225L79.5499 69.5659C90.2477 75.3789 95.3708 77.1781 99.5047 72.0466C95.8795 74.3031 89.6113 72.2776 80.272 68.1225Z" fill="#27A613"/>
<path fill-rule="evenodd" clip-rule="evenodd" d="M79.5499 69.5659L80.272 68.1225C79.0607 67.6151 78.4884 67.1462 77.5769 66.0932C77.5346 66.2791 77.3413 66.452 77.0224 66.6795C77.7539 68.2492 78.3241 68.8416 79.5499 69.5659ZM77.3834 65.5969L77.3836 65.5936C77.4473 64.0762 77.483 63.2246 74.96 62.4378L77.3834 65.5969Z" fill="#27A613"/>
<path d="M104.825 94.8266C110.256 97.0951 114.216 97.9796 123.962 98.4352H127.573C132.687 94.7234 129.235 83.4811 127.327 77.2678L127.327 77.266L127.327 77.2651C127.153 76.6986 126.992 76.1739 126.851 75.7007C126.715 75.2428 126.579 74.7621 126.438 74.2611L126.437 74.26C125.632 71.4115 124.641 67.9023 122.367 64.153C120.061 72.7649 118.572 77.6388 114.574 85.8049C112.31 90.0338 110.225 92.034 104.825 94.8266Z" fill="#27A613"/>
<path fill-rule="evenodd" clip-rule="evenodd" d="M79.5499 69.5659L80.272 68.1225C79.0607 67.6151 78.4884 67.1462 77.5769 66.0932C77.5346 66.2791 77.3413 66.452 77.0224 66.6795C77.7539 68.2492 78.3241 68.8416 79.5499 69.5659ZM77.3834 65.5969L77.3836 65.5936C77.4473 64.0762 77.483 63.2246 74.96 62.4378L77.3834 65.5969Z" fill="#F4F4F6"/>
<path d="M96.1594 94.4657C99.5426 95.3729 101.447 95.4747 104.825 94.8266C110.225 92.034 112.31 90.0338 114.574 85.8049C118.572 77.6388 120.061 72.7649 122.367 64.153C120.093 60.4036 116.537 56.4142 110.602 52.6052C109.639 56.6186 108.066 57.9691 103.381 58.74C103.466 66.218 102.235 70.347 99.5047 72.0466C95.3708 77.1781 90.2477 75.3789 79.5499 69.5659L78.2086 74.2577L75.217 84.7223C78.981 91.5513 85.6882 89.0527 93.6319 93.3831L96.1594 94.4657Z" fill="#F4F4F6"/>
<path d="M104.825 94.8266C110.256 97.0951 114.216 97.9796 123.962 98.4352H127.573C132.687 94.7234 129.235 83.4811 127.327 77.2678L127.327 77.266L127.327 77.2651C127.153 76.6986 126.992 76.1739 126.851 75.7007C126.715 75.2428 126.579 74.7621 126.438 74.2611L126.437 74.26C125.632 71.4115 124.641 67.9023 122.367 64.153C120.061 72.7649 118.572 77.6388 114.574 85.8049C112.31 90.0338 110.225 92.034 104.825 94.8266Z" fill="#F4F4F6"/>
<path d="M80.272 68.1225L79.5499 69.5659C90.2477 75.3789 95.3708 77.1781 99.5047 72.0466C95.8795 74.3031 89.6113 72.2776 80.272 68.1225Z" fill="#F4F4F6"/>
<path d="M73.0509 169.526C77.3989 175.493 77.82 178.216 78.1059 182.878H43.4426C44.5707 181.472 45.8911 180.269 47.4141 179.111M73.0509 169.526H61.8575M73.0509 169.526L73.1125 169.482M73.0509 169.526C73.0715 169.511 73.092 169.497 73.1125 169.482M61.8575 169.526C62.3119 167.545 62.7595 165.621 63.202 163.752M61.8575 169.526C57.1556 174.216 52.3122 176.65 47.6616 178.987M47.4141 179.111L47.6616 178.987M47.4141 179.111C47.4965 179.07 47.579 179.028 47.6616 178.987M96.1594 94.4657C99.5426 95.373 101.447 95.4747 104.825 94.8266M96.1594 94.4657C80.584 109.797 73.5497 123.832 66.3448 151.122M96.1594 94.4657L93.6319 93.3831M104.825 94.8266C110.256 97.0951 114.216 97.9796 123.962 98.4352M104.825 94.8266C110.225 92.034 112.31 90.0338 114.574 85.8049C118.572 77.6388 120.061 72.7649 122.367 64.153M123.962 98.4352C120.904 108.242 115.793 112.396 103.742 118.644C94.7486 123.325 92.4958 126.606 91.1043 133.078C90.0341 139.835 88.7267 142.959 85.6882 147.874C84.8515 149.065 84.1868 150.131 83.6461 151.122C82.6802 153.503 82.151 155.364 81.6143 157.25C81.2266 158.614 80.835 159.99 80.272 161.587C78.5276 165.668 76.5699 167.047 73.1125 169.482M123.962 98.4352H127.573C132.687 94.7234 129.235 83.4811 127.327 77.2678L127.327 77.266L127.327 77.2651C127.153 76.6986 126.991 76.1739 126.851 75.7007C126.715 75.2428 126.579 74.7621 126.438 74.2611L126.437 74.26C125.632 71.4115 124.641 67.9023 122.367 64.153M63.202 163.752L37.665 158.7C39.4223 156.692 40.7957 155.954 43.4426 155.091C49.3585 153.617 52.5215 152.377 57.8853 149.317M63.202 163.752C64.2704 159.239 65.3094 155.044 66.3448 151.122M57.8853 149.317L66.3448 151.122M57.8853 149.317L65.1068 109.983C67.9941 96.6371 79.5869 95.1657 93.6124 93.3856M93.6319 93.3831C85.6882 89.0527 78.981 91.5513 75.217 84.7223L78.2086 74.2577M93.6319 93.3831L93.6124 93.3856M93.6319 93.3831C93.6254 93.3839 93.6189 93.3848 93.6124 93.3856M110.602 52.6052C109.639 56.6186 108.066 57.9691 103.381 58.74M110.602 52.6052C116.537 56.4142 120.093 60.4036 122.367 64.153M110.602 52.6052L106.631 47.5531M103.381 58.74C103.466 66.218 102.235 70.347 99.5047 72.0466M103.381 58.74C103.032 54.939 102.394 53.0955 100.853 50.0792M80.272 68.1225L79.5499 69.5659M80.272 68.1225C89.6113 72.2776 95.8795 74.3031 99.5047 72.0466M80.272 68.1225C79.0607 67.6151 78.4884 67.1462 77.5769 66.0932M79.5499 69.5659C90.2477 75.3789 95.3708 77.1781 99.5047 72.0466M79.5499 69.5659L78.2086 74.2577M79.5499 69.5659C78.3241 68.8416 77.7539 68.2492 77.0224 66.6795M100.853 50.0792C103.381 49.5964 104.464 48.997 106.631 47.5531M100.853 50.0792C95.5939 51.0838 93.2495 50.3161 90.3822 46.1096C88.611 46.1372 87.6291 46.1458 87.8547 44.6662L88.3601 39.6145M106.631 47.5531L105.186 45.7488C104.55 44.69 105.227 43.795 107.353 42.1401C108.911 40.9275 107.714 37.4488 104.103 38.8923C100.505 38.7058 99.4243 37.8672 97.9648 36.0054C94.6137 37.8454 92.4913 37.8837 88.5768 37.4488M106.631 47.5531C107.142 47.1871 107.628 46.8474 108.09 46.5235L108.091 46.523C111.038 44.4612 113.063 43.0445 114.935 39.614C117.102 35.6445 116.376 32.0205 112.769 32.0359C111.182 21.1001 107.806 19.0597 99.7702 23.7359C93.6319 19.7672 88.2558 21.4491 88.2157 30.2315C82.4118 27.8783 78.4831 31.6574 88.5768 37.4488M88.5768 37.4488L88.3601 39.6145M88.3601 39.6145C89.1611 39.5532 89.6069 39.84 90.3822 40.6971M88.3601 39.6145C87.8547 36.7276 85.3271 37.0884 85.3271 37.0884C85.3271 37.0884 83.5217 37.8102 84.2439 40.3362C84.966 42.8623 87.999 43.2232 88.3601 39.6145ZM90.3822 40.6971C90.3822 44.6662 94.1002 45.0668 94.7151 43.2232C95.0762 42.1406 95.1835 41.1789 94.7151 40.3362C92.9097 37.0884 90.2561 39.3475 90.3822 40.6971ZM78.2086 74.2577C75.7748 71.4001 73.9839 70.2404 69.8008 69.2055C67.8901 68.7107 67.0213 68.2324 66.1901 66.6795C65.5426 65.1155 64.0236 64.5143 62.9404 64.1534C61.8571 63.7925 62.5793 63.0708 63.6625 63.0708C64.4276 63.0708 65.913 63.6108 66.7197 63.928M77.0224 66.6795L74.4948 67.0403C73.6314 65.6568 72.7347 65.3959 70.8841 65.236C70.8419 65.2315 70.8004 65.2272 70.7595 65.223M77.0224 66.6795C77.3413 66.452 77.5346 66.2791 77.5769 66.0932M66.7197 63.928C67.0552 64.06 67.2733 64.1534 67.2733 64.1534C68.7735 65.019 69.4858 65.0921 70.6212 65.2087L70.6238 65.209M66.7197 63.928L61.135 56.9361C60.7216 56.308 60.7731 56.0607 61.4961 55.8535L67.9954 54.41C68.4888 54.3454 68.7257 54.4352 69.0787 54.7709L74.96 62.4378M77.3834 65.5969C77.5499 65.7925 77.6102 65.9469 77.5769 66.0932M77.3834 65.5969L74.96 62.4378M77.3834 65.5969L77.3836 65.5936M77.3834 65.5969C77.3835 65.5958 77.3835 65.5947 77.3836 65.5936M74.96 62.4378C77.483 63.2246 77.4473 64.0762 77.3836 65.5936M70.7595 65.223C70.7136 65.2182 70.6683 65.2136 70.6238 65.209M70.7595 65.223L70.6238 65.209" stroke="#24272D" stroke-width="0.6975"/>
<g clip-path="url(#clip0_9931_25634)">
<path fill-rule="evenodd" clip-rule="evenodd" d="M51.6089 18.1057C52.5647 17.2101 56.8382 12.9869 56.8382 9.06654C56.8382 6.09878 54.4127 3.69293 51.4207 3.69293C48.4287 3.69293 46.0033 6.09878 46.0033 9.06654C46.0033 12.6541 50.296 17.154 51.239 18.0993C51.3427 18.2032 51.5017 18.206 51.6089 18.1057ZM51.4207 11.6108C53.0317 11.6108 54.3378 10.3048 54.3378 8.69372C54.3378 7.08264 53.0317 5.77661 51.4207 5.77661C49.8096 5.77661 48.5036 7.08264 48.5036 8.69372C48.5036 10.3048 49.8096 11.6108 51.4207 11.6108Z" fill="white"/>
<path d="M51.6089 18.1057L51.8404 18.3527L51.6089 18.1057ZM51.239 18.0993L51.4787 17.8601H51.4787L51.239 18.0993ZM56.4996 9.06654C56.4996 10.9169 55.4843 12.8798 54.3068 14.5232C53.1371 16.1556 51.8475 17.4181 51.3774 17.8586L51.8404 18.3527C52.3261 17.8976 53.6512 16.6008 54.8572 14.9176C56.0554 13.2454 57.1768 11.1365 57.1768 9.06654H56.4996ZM51.4207 4.03152C54.2283 4.03152 56.4996 6.28837 56.4996 9.06654H57.1768C57.1768 5.90919 54.5971 3.35434 51.4207 3.35434V4.03152ZM46.3418 9.06654C46.3418 6.28837 48.6131 4.03152 51.4207 4.03152V3.35434C48.2443 3.35434 45.6647 5.90919 45.6647 9.06654H46.3418ZM51.4787 17.8601C51.0135 17.3938 49.7196 16.048 48.5443 14.3788C47.3581 12.6941 46.3418 10.7474 46.3418 9.06654H45.6647C45.6647 10.9732 46.7947 13.0702 47.9906 14.7687C49.1975 16.4827 50.5215 17.8595 50.9993 18.3384L51.4787 17.8601ZM51.3774 17.8586C51.3875 17.849 51.4059 17.8401 51.4285 17.8405C51.4511 17.8409 51.469 17.8504 51.4787 17.8601L50.9993 18.3384C51.2319 18.5716 51.5996 18.5783 51.8404 18.3527L51.3774 17.8586ZM53.9992 8.69372C53.9992 10.1178 52.8447 11.2722 51.4207 11.2722V11.9494C53.2187 11.9494 54.6764 10.4918 54.6764 8.69372H53.9992ZM51.4207 6.11521C52.8447 6.11521 53.9992 7.26964 53.9992 8.69372H54.6764C54.6764 6.89564 53.2187 5.43802 51.4207 5.43802V6.11521ZM48.8422 8.69372C48.8422 7.26964 49.9966 6.11521 51.4207 6.11521V5.43802C49.6226 5.43802 48.165 6.89564 48.165 8.69372H48.8422ZM51.4207 11.2722C49.9966 11.2722 48.8422 10.1178 48.8422 8.69372H48.165C48.165 10.4918 49.6226 11.9494 51.4207 11.9494V11.2722Z" fill="#27A613"/>
<path d="M54.1295 18.033C54.9607 18.281 55.4839 18.6413 55.4839 19.0425C55.4839 19.7905 53.6648 20.3968 51.4208 20.3968C49.1768 20.3968 47.3577 19.7905 47.3577 19.0425C47.3577 18.6413 47.8808 18.281 48.712 18.033" stroke="#24272D" stroke-width="0.677184" stroke-linecap="round"/>
</g>
<path d="M3.61427 48.679V60.5905L8.64185 57.6126L14.3877 60.5905L19.4152 57.6126V45.7011L14.3877 48.679L8.64185 45.7011L3.61427 48.679Z" fill="white"/>
<path fill-rule="evenodd" clip-rule="evenodd" d="M8.56999 45.3148C8.455 45.3148 8.3534 45.3721 8.2922 45.4597L3.39584 48.3195C3.29191 48.3802 3.22801 48.4915 3.22801 48.6118V60.4458C3.22801 60.5671 3.29287 60.6791 3.39804 60.7395C3.50322 60.7998 3.63265 60.7994 3.73737 60.7382L8.56047 57.9212L8.56999 57.9214C8.6132 57.9214 8.65453 57.9133 8.69252 57.8985L14.267 60.7473C14.3248 60.7769 14.389 60.7887 14.4517 60.783C14.4619 60.7839 14.4722 60.7844 14.4827 60.7844C14.5975 60.7844 14.699 60.7273 14.7602 60.6398L19.6572 57.7797C19.7611 57.719 19.825 57.6077 19.825 57.4873V45.6534C19.825 45.5321 19.7602 45.4201 19.655 45.3597C19.5498 45.2993 19.4204 45.2998 19.3157 45.361L14.4926 48.178C14.4893 48.1779 14.486 48.1778 14.4827 48.1778C14.4395 48.1778 14.3983 48.1859 14.3604 48.2006L8.78609 45.3518C8.72815 45.3222 8.66395 45.3104 8.60111 45.3162C8.59086 45.3152 8.58048 45.3148 8.56999 45.3148ZM14.1441 48.8506L8.90858 46.1749V57.2484L14.1441 59.924V48.8506ZM14.8213 59.82L19.1479 57.293V46.2432L14.8213 48.7702V59.82ZM3.9052 48.8062L8.2314 46.2794V57.3292L3.9052 59.856V48.8062Z" fill="#27A613"/>
<path d="M11.4388 55.0193C11.5105 55.005 11.5686 55.0774 11.5391 55.1443L8.8029 61.3541C8.7665 61.4367 8.64479 61.4206 8.63103 61.3314L8.09649 57.8637C8.09157 57.8318 8.07002 57.805 8.03996 57.7933L4.76959 56.5224C4.68545 56.4897 4.69607 56.3674 4.78459 56.3497L11.4388 55.0193Z" fill="white" stroke="#24272D" stroke-width="0.677184"/>
<line x1="35.0022" y1="122.777" x2="31.5234" y2="119.298" stroke="#24272D" stroke-width="0.657262" stroke-linecap="round"/>
<circle cx="27.5799" cy="114.452" r="6.13445" fill="white" stroke="#27A613" stroke-width="0.657262"/>
<path d="M31.1042 111.848C30.6743 111.266 30.1069 110.799 29.4527 110.49C28.7986 110.181 28.078 110.038 27.3554 110.075" stroke="#24272D" stroke-width="0.657262" stroke-linecap="round"/>
<path d="M10.4467 92.2203C10.405 92.7048 10.2386 93.1703 9.96369 93.5715C9.6888 93.9728 9.31477 94.2961 8.87791 94.5103C8.44105 94.7244 7.95622 94.8219 7.47049 94.7935C6.98476 94.765 6.51465 94.6116 6.1058 94.3479C5.69695 94.0843 5.36326 93.7195 5.13714 93.2889C4.91102 92.8583 4.80015 92.3766 4.8153 91.8906C4.83045 91.4045 4.9711 90.9307 5.2236 90.515C5.47609 90.0993 5.83185 89.7559 6.25633 89.5183" stroke="#DDDFE4" stroke-width="0.6975"/>
<ellipse cx="8.74352" cy="90.2086" rx="2.8216" ry="2.81996" stroke="#24272D" stroke-width="0.6975"/>
<ellipse cx="26.3086" cy="31.8355" rx="1.97512" ry="1.97397" stroke="#27A613" stroke-width="0.6975"/>
<defs>
<clipPath id="clip0_9931_25634">
<rect width="18.0583" height="18.0477" fill="white" transform="translate(42.3917 2.78998)"/>
</clipPath>
</defs>
</svg>
