<svg width="165" height="186" viewBox="0 0 165 186" fill="none" xmlns="http://www.w3.org/2000/svg">
<path fill-rule="evenodd" clip-rule="evenodd" d="M110.072 113.025C119.178 126.096 126.497 136.602 117.389 139.957C114.436 138.961 112.582 129.907 109.8 116.32C109.456 114.643 109.099 112.896 108.723 111.087C109.176 111.739 109.626 112.385 110.072 113.025ZM109.445 179.979C108.493 180.078 107.623 180.13 106.824 180.109L109.445 179.979Z" fill="#131313"/>
<path fill-rule="evenodd" clip-rule="evenodd" d="M109.445 179.979C108.493 180.078 107.623 180.13 106.824 180.109L109.445 179.979Z" fill="#5C5C5C"/>
<path d="M98.6132 146.813C95.3638 147.896 95.9633 155.003 100.057 174.961C100.28 175.491 100.511 175.97 100.75 176.404C102.261 179.136 104.141 180.037 106.824 180.109L109.445 179.979C110.23 179.897 111.07 179.783 111.973 179.652C120.829 171.749 120.248 161.067 117.389 139.957C114.436 138.961 112.582 129.907 109.8 116.32C109.456 114.643 109.099 112.896 108.723 111.087C108.181 112.204 107.681 113.361 107.219 114.546C106.886 115.4 106.573 116.268 106.278 117.145C104.174 123.401 102.974 130.146 101.999 135.626C100.906 141.767 100.096 146.319 98.6132 146.813Z" fill="#5C5C5C"/>
<path fill-rule="evenodd" clip-rule="evenodd" d="M109.445 179.979C108.493 180.078 107.623 180.13 106.824 180.109L109.445 179.979Z" fill="#B8B8B8"/>
<path fill-rule="evenodd" clip-rule="evenodd" d="M109.799 116.315L109.8 116.32C109.799 116.318 109.799 116.316 109.799 116.315Z" fill="#B8B8B8"/>
<path d="M151.33 181.456C160.353 175.682 158.753 163.798 151.907 141.907H137.768L138.851 151.739H134.157L133.074 141.458L117.389 139.957C120.248 161.067 120.829 171.749 111.973 179.652C126.766 181.709 135.28 182.359 151.33 181.456Z" fill="#B8B8B8"/>
<path d="M157.72 130.86C149.917 115.825 147.629 110.23 143.748 108.561C139.537 107.844 135.893 107.345 132.554 107.107C131.567 107.037 130.606 106.989 129.666 106.966C126.264 106.882 123.122 107.112 119.916 107.712C118.962 107.891 118.002 108.102 117.028 108.347C114.416 109.006 111.702 109.91 108.723 111.087C109.119 111.658 109.513 112.223 109.904 112.785L110.072 113.025C119.178 126.096 126.497 136.602 117.389 139.957L133.074 141.458C135.507 137.686 135.602 133.695 135.602 132.252C135.602 130.808 139.574 130.448 140.296 132.252C141.018 134.056 139.564 138.609 137.768 141.907H151.907C159.475 141.793 160.975 138.296 157.72 130.86Z" fill="#B8B8B8"/>
<path d="M151.907 141.907C158.753 163.798 160.353 175.682 151.33 181.456M151.907 141.907C159.475 141.793 160.975 138.296 157.72 130.86C149.917 115.825 147.629 110.23 143.748 108.561C139.537 107.844 135.893 107.345 132.554 107.107M151.907 141.907H137.768M151.33 181.456C135.28 182.359 126.766 181.709 111.973 179.652M151.33 181.456H161.44M111.973 179.652C120.829 171.749 120.248 161.067 117.389 139.957M111.973 179.652C111.07 179.783 110.23 179.897 109.445 179.979M98.6132 146.813C95.3638 147.896 95.9633 155.003 100.057 174.961C100.28 175.491 100.511 175.97 100.75 176.404M98.6132 146.813C99.3117 150.798 103.167 151.163 111.973 150.782M98.6132 146.813C100.096 146.319 100.906 141.767 101.999 135.626C102.974 130.146 104.174 123.401 106.278 117.145M108.723 111.087C111.702 109.91 114.416 109.006 117.028 108.347M108.723 111.087C108.181 112.204 107.681 113.361 107.219 114.546M108.723 111.087C109.119 111.658 109.513 112.223 109.904 112.785M108.723 111.087C109.098 112.894 109.456 114.639 109.799 116.315M117.389 139.957L133.074 141.458M117.389 139.957C126.497 136.602 119.178 126.096 110.072 113.025M117.389 139.957C114.436 138.961 112.582 129.907 109.8 116.32M132.554 107.107C131.567 107.037 130.606 106.989 129.666 106.966M132.554 107.107C132.471 106.899 132.397 106.701 132.326 106.511C131.876 105.306 131.536 104.394 129.666 103.148C127.499 101.705 123.323 102.208 120.639 103.87C118.872 105.158 118.124 106.196 117.028 108.347M117.028 108.347C118.002 108.102 118.962 107.891 119.916 107.712M119.916 107.712C123.122 107.112 126.264 106.882 129.666 106.966M119.916 107.712C119.996 107.617 120.063 107.531 120.126 107.451C120.46 107.027 120.699 106.722 122.083 105.674C124.61 104.231 126.412 104.038 128.582 105.313C129.247 105.926 129.522 106.283 129.666 106.966M100.75 176.404C94.2982 173.247 91.267 171.156 93.1968 163.413C93.1968 163.413 97.6437 137.049 101.502 120.47C102.41 117.63 103.467 116.893 106.278 117.145M100.75 176.404C102.261 179.136 104.141 180.037 106.824 180.109M106.278 117.145C106.573 116.268 106.886 115.4 107.219 114.546M107.219 114.546L102.224 115.418C100.356 115.947 99.5123 116.886 98.6132 120.47L89.947 167.382C89.346 171.146 90.0227 172.773 92.8356 174.961L101.501 180.373M101.501 180.373L95.7242 181.817M101.501 180.373L106.824 180.109M109.445 179.979C108.493 180.078 107.623 180.13 106.824 180.109M109.445 179.979L106.824 180.109M149.525 178.93C154.691 174.178 155.518 169.472 152.774 156.917M133.074 141.458C135.507 137.686 135.602 133.695 135.602 132.252C135.602 130.808 139.574 130.448 140.296 132.252C141.018 134.056 139.564 138.609 137.768 141.907M133.074 141.458L137.768 141.907M133.074 141.458L134.157 151.739H138.851L137.768 141.907M110.072 113.025C110.016 112.945 109.96 112.865 109.904 112.785M110.072 113.025L109.904 112.785M109.8 116.32L109.799 116.315M109.8 116.32C109.799 116.318 109.799 116.316 109.799 116.315" stroke="white" stroke-width="0.6975" stroke-linecap="round" stroke-linejoin="round"/>
<path d="M76.5 66L79.5 70L78 74.5001C72.5 68.0001 67.4 70 67 68C65 64.5 62.5 64.5 62.5 63.5C63 62 76.5 66 76.5 66Z" fill="#D1D0D0"/>
<path d="M88 45.5L88.5 35.5L95 28.5L110 39L106.5 47.5C107 47 110 53 111 52.5C112.2 58.1 106.5 58.8333 103.5 58.5C102.5 53.5 101 50.5 101 50C92.7022 53.3191 90.5 45.5 90 46C89.1056 46.8944 88.5 45.8333 88 45.5Z" fill="#D1D0D0"/>
<path d="M88.5768 37.4489C92.4913 37.8838 94.6137 37.8454 97.9648 36.0054C99.4243 37.8673 100.505 38.7059 104.103 38.8924C107.714 37.4489 108.911 40.9276 107.353 42.1402C105.227 43.7951 104.55 44.6901 105.186 45.7488L106.631 47.5532C107.142 47.1872 107.628 46.8474 108.09 46.5236L108.091 46.5231C111.038 44.4612 113.063 43.0446 114.935 39.6141C117.102 35.6446 116.376 32.0206 112.769 32.0359C111.182 21.1002 107.806 19.0598 99.7702 23.736C93.6319 19.7673 88.2558 21.4491 88.2157 30.2316C82.4118 27.8783 78.4831 31.6575 88.5768 37.4489Z" fill="black"/>
<path d="M70.8841 65.2361C72.7347 65.396 73.6314 65.6568 74.4948 67.0404L77.0224 66.6795C77.3413 66.452 77.5347 66.2792 77.5769 66.0933C77.6102 65.947 77.5499 65.7925 77.3834 65.5969L74.96 62.4378L69.0787 54.771C68.7257 54.4352 68.4888 54.3455 67.9954 54.4101L61.4961 55.8535C60.7731 56.0608 60.7216 56.308 61.135 56.9361L66.7197 63.9281C67.0552 64.0601 67.2733 64.1535 67.2733 64.1535C68.7735 65.019 69.4858 65.0922 70.6212 65.2088C70.7063 65.2175 70.7937 65.2265 70.8841 65.2361Z" fill="black"/>
<path d="M61.8575 169.526H73.0509L73.1125 169.482C76.57 167.047 78.5276 165.668 80.2721 161.587C80.835 159.99 81.2266 158.614 81.6143 157.25C82.151 155.364 82.6802 153.503 83.6462 151.122C84.1868 150.131 84.8515 149.065 85.6882 147.874C88.7267 142.959 90.0342 139.836 91.1044 133.078C92.4958 126.606 94.7486 123.325 103.742 118.644C115.793 112.396 120.904 108.242 123.962 98.4353C114.216 97.9797 110.256 97.0951 104.825 94.8266C101.447 95.4747 99.5426 95.373 96.1594 94.4658C80.584 109.797 73.5497 123.832 66.3448 151.122C65.3094 155.044 64.2704 159.239 63.202 163.752C62.7595 165.621 62.3119 167.545 61.8575 169.526Z" fill="#02A222"/>
<path d="M66.3448 151.122C73.5497 123.832 80.584 109.797 96.1594 94.4658L93.6319 93.3832L93.6124 93.3856C79.5869 95.1658 67.9941 96.6371 65.1068 109.983L57.8853 149.317L66.3448 151.122Z" fill="#02A222"/>
<path d="M96.1594 94.4658C99.5426 95.373 101.447 95.4747 104.825 94.8266C110.225 92.034 112.31 90.0339 114.574 85.805C118.572 77.6389 120.061 72.765 122.367 64.153C120.093 60.4037 116.537 56.4142 110.602 52.6053C109.639 56.6187 108.066 57.9691 103.381 58.74C103.466 66.2181 102.235 70.347 99.5047 72.0467C95.3708 77.1781 90.2477 75.3789 79.5499 69.566L78.2086 74.2577L75.217 84.7224C78.981 91.5514 85.6882 89.0528 93.6319 93.3832L96.1594 94.4658Z" fill="#02A222"/>
<path d="M80.2721 68.1225L79.5499 69.566C90.2477 75.3789 95.3708 77.1781 99.5047 72.0467C95.8795 74.3032 89.6113 72.2777 80.2721 68.1225Z" fill="#02A222"/>
<path fill-rule="evenodd" clip-rule="evenodd" d="M79.5499 69.566L80.2721 68.1225C79.0607 67.6152 78.4884 67.1462 77.5769 66.0933C77.5347 66.2792 77.3413 66.452 77.0224 66.6795C77.7539 68.2492 78.3241 68.8417 79.5499 69.566ZM77.3834 65.5969L77.3836 65.5937C77.4473 64.0762 77.483 63.2247 74.96 62.4378L77.3834 65.5969Z" fill="#02A222"/>
<path d="M104.825 94.8266C110.256 97.0951 114.216 97.9797 123.962 98.4353H127.573C132.687 94.7234 129.235 83.4812 127.327 77.2678L127.327 77.266L127.327 77.2651C127.153 76.6987 126.992 76.174 126.851 75.7007C126.715 75.2428 126.579 74.7622 126.438 74.2611L126.437 74.2601C125.632 71.4116 124.641 67.9023 122.367 64.153C120.061 72.765 118.572 77.6389 114.574 85.805C112.31 90.0339 110.225 92.034 104.825 94.8266Z" fill="#02A222"/>
<path fill-rule="evenodd" clip-rule="evenodd" d="M79.5499 69.566L80.2721 68.1225C79.0607 67.6152 78.4884 67.1462 77.5769 66.0933C77.5347 66.2792 77.3413 66.452 77.0224 66.6795C77.7539 68.2492 78.3241 68.8417 79.5499 69.566ZM77.3834 65.5969L77.3836 65.5937C77.4473 64.0762 77.483 63.2247 74.96 62.4378L77.3834 65.5969Z" fill="#5C5C5C"/>
<path d="M96.1594 94.4658C99.5426 95.373 101.447 95.4747 104.825 94.8266C110.225 92.034 112.31 90.0339 114.574 85.805C118.572 77.6389 120.061 72.765 122.367 64.153C120.093 60.4037 116.537 56.4142 110.602 52.6053C109.639 56.6187 108.066 57.9691 103.381 58.74C103.466 66.2181 102.235 70.347 99.5047 72.0467C95.3708 77.1781 90.2477 75.3789 79.5499 69.566L78.2086 74.2577L75.217 84.7224C78.981 91.5514 85.6882 89.0528 93.6319 93.3832L96.1594 94.4658Z" fill="#5C5C5C"/>
<path d="M104.825 94.8266C110.256 97.0951 114.216 97.9797 123.962 98.4353H127.573C132.687 94.7234 129.235 83.4812 127.327 77.2678L127.327 77.266L127.327 77.2651C127.153 76.6987 126.992 76.174 126.851 75.7007C126.715 75.2428 126.579 74.7622 126.438 74.2611L126.437 74.2601C125.632 71.4116 124.641 67.9023 122.367 64.153C120.061 72.765 118.572 77.6389 114.574 85.805C112.31 90.0339 110.225 92.034 104.825 94.8266Z" fill="#5C5C5C"/>
<path d="M80.2721 68.1225L79.5499 69.566C90.2477 75.3789 95.3708 77.1781 99.5047 72.0467C95.8795 74.3032 89.6113 72.2777 80.2721 68.1225Z" fill="#5C5C5C"/>
<path d="M73.0509 169.526C77.3989 175.494 77.82 178.216 78.1059 182.878H43.4426C44.5707 181.472 45.8911 180.269 47.4141 179.111M73.0509 169.526H61.8575M73.0509 169.526L73.1125 169.482M73.0509 169.526C73.0715 169.511 73.092 169.497 73.1125 169.482M61.8575 169.526C62.3119 167.545 62.7595 165.621 63.202 163.752M61.8575 169.526C57.1556 174.216 52.3123 176.65 47.6616 178.987M47.4141 179.111L47.6616 178.987M47.4141 179.111C47.4965 179.07 47.579 179.029 47.6616 178.987M96.1594 94.4658C99.5426 95.373 101.447 95.4747 104.825 94.8266M96.1594 94.4658C80.584 109.797 73.5497 123.832 66.3448 151.122M96.1594 94.4658L93.6319 93.3832M104.825 94.8266C110.256 97.0951 114.216 97.9797 123.962 98.4353M104.825 94.8266C110.225 92.034 112.31 90.0339 114.574 85.805C118.572 77.6389 120.061 72.765 122.367 64.153M123.962 98.4353C120.904 108.242 115.793 112.396 103.742 118.644C94.7486 123.325 92.4958 126.606 91.1044 133.078C90.0342 139.836 88.7267 142.959 85.6882 147.874C84.8515 149.065 84.1868 150.131 83.6462 151.122C82.6802 153.503 82.151 155.364 81.6143 157.25C81.2266 158.614 80.835 159.99 80.2721 161.587C78.5276 165.668 76.57 167.047 73.1125 169.482M123.962 98.4353H127.573C132.687 94.7234 129.235 83.4812 127.327 77.2678L127.327 77.266L127.327 77.2651C127.153 76.6987 126.992 76.174 126.851 75.7007C126.715 75.2428 126.579 74.7622 126.438 74.2611L126.437 74.2601C125.632 71.4116 124.641 67.9023 122.367 64.153M63.202 163.752L37.665 158.7C39.4223 156.692 40.7957 155.954 43.4426 155.091C49.3585 153.617 52.5215 152.377 57.8853 149.317M63.202 163.752C64.2704 159.239 65.3094 155.044 66.3448 151.122M57.8853 149.317L66.3448 151.122M57.8853 149.317L65.1068 109.983C67.9941 96.6371 79.5869 95.1658 93.6124 93.3856M93.6319 93.3832C85.6882 89.0528 78.981 91.5514 75.217 84.7224L78.2086 74.2577M93.6319 93.3832L93.6124 93.3856M93.6319 93.3832C93.6254 93.384 93.6189 93.3848 93.6124 93.3856M110.602 52.6053C109.639 56.6187 108.066 57.9691 103.381 58.74M110.602 52.6053C116.537 56.4142 120.093 60.4037 122.367 64.153M110.602 52.6053L106.631 47.5532M103.381 58.74C103.466 66.2181 102.235 70.347 99.5047 72.0467M103.381 58.74C103.032 54.939 102.394 53.0956 100.853 50.0792M80.2721 68.1225L79.5499 69.566M80.2721 68.1225C89.6113 72.2777 95.8795 74.3032 99.5047 72.0467M80.2721 68.1225C79.0607 67.6152 78.4884 67.1462 77.5769 66.0933M79.5499 69.566C90.2477 75.3789 95.3708 77.1781 99.5047 72.0467M79.5499 69.566L78.2086 74.2577M79.5499 69.566C78.3241 68.8417 77.7539 68.2492 77.0224 66.6795M100.853 50.0792C103.381 49.5965 104.464 48.9971 106.631 47.5532M100.853 50.0792C95.5939 51.0838 93.2495 50.3161 90.3822 46.1097C88.611 46.1373 87.6291 46.1459 87.8547 44.6662L88.3601 39.6146M106.631 47.5532L105.186 45.7488C104.55 44.6901 105.227 43.7951 107.353 42.1402C108.911 40.9276 107.714 37.4489 104.103 38.8924C100.505 38.7059 99.4243 37.8673 97.9648 36.0054C94.6137 37.8454 92.4913 37.8838 88.5768 37.4489M106.631 47.5532C107.142 47.1872 107.628 46.8474 108.09 46.5236L108.091 46.5231C111.038 44.4612 113.063 43.0446 114.935 39.6141C117.102 35.6446 116.376 32.0206 112.769 32.0359C111.182 21.1002 107.806 19.0598 99.7702 23.736C93.6319 19.7673 88.2558 21.4491 88.2157 30.2316C82.4118 27.8783 78.4831 31.6575 88.5768 37.4489M88.5768 37.4489L88.3601 39.6146M88.3601 39.6146C89.1611 39.5533 89.6069 39.8401 90.3822 40.6972M88.3601 39.6146C87.8547 36.7276 85.3271 37.0885 85.3271 37.0885C85.3271 37.0885 83.5217 37.8102 84.2439 40.3363C84.9661 42.8624 87.999 43.2232 88.3601 39.6146ZM90.3822 40.6972C90.3822 44.6662 94.1002 45.0668 94.7151 43.2232C95.0762 42.1406 95.1835 41.1789 94.7151 40.3363C92.9097 37.0885 90.2561 39.3476 90.3822 40.6972ZM78.2086 74.2577C75.7748 71.4001 73.9839 70.2405 69.8008 69.2056C67.8901 68.7108 67.0213 68.2324 66.1901 66.6795C65.5426 65.1156 64.0236 64.5143 62.9404 64.1535C61.8571 63.7926 62.5793 63.0709 63.6625 63.0709C64.4276 63.0709 65.913 63.6109 66.7197 63.9281M77.0224 66.6795L74.4948 67.0404C73.6314 65.6568 72.7347 65.396 70.8841 65.2361C70.8419 65.2316 70.8005 65.2273 70.7595 65.223M77.0224 66.6795C77.3413 66.452 77.5347 66.2792 77.5769 66.0933M66.7197 63.9281C67.0552 64.0601 67.2733 64.1535 67.2733 64.1535C68.7735 65.019 69.4858 65.0922 70.6212 65.2088L70.6238 65.209M66.7197 63.9281L61.135 56.9361C60.7216 56.308 60.7731 56.0608 61.4961 55.8535L67.9954 54.4101C68.4888 54.3455 68.7257 54.4352 69.0787 54.771L74.96 62.4378M77.3834 65.5969C77.5499 65.7925 77.6102 65.947 77.5769 66.0933M77.3834 65.5969L74.96 62.4378M77.3834 65.5969L77.3836 65.5937M77.3834 65.5969C77.3835 65.5959 77.3835 65.5948 77.3836 65.5937M74.96 62.4378C77.483 63.2247 77.4473 64.0762 77.3836 65.5937M70.7595 65.223C70.7136 65.2183 70.6683 65.2136 70.6238 65.209M70.7595 65.223L70.6238 65.209" stroke="white" stroke-width="0.6975"/>
<g clip-path="url(#clip0_10214_15715)">
<path fill-rule="evenodd" clip-rule="evenodd" d="M51.6089 18.1057C52.5648 17.2101 56.8382 12.987 56.8382 9.0666C56.8382 6.09884 54.4127 3.69299 51.4207 3.69299C48.4288 3.69299 46.0033 6.09884 46.0033 9.0666C46.0033 12.6541 50.296 17.1541 51.239 18.0993C51.3427 18.2033 51.5018 18.2061 51.6089 18.1057ZM51.4207 11.6109C53.0317 11.6109 54.3378 10.3048 54.3378 8.69378C54.3378 7.08271 53.0317 5.77667 51.4207 5.77667C49.8096 5.77667 48.5036 7.08271 48.5036 8.69378C48.5036 10.3048 49.8096 11.6109 51.4207 11.6109Z" fill="#131313"/>
<path d="M51.6089 18.1057L51.8404 18.3528L51.8404 18.3528L51.6089 18.1057ZM51.239 18.0993L51.4787 17.8602L51.4787 17.8602L51.239 18.0993ZM56.4996 9.0666C56.4996 10.917 55.4843 12.8799 54.3068 14.5232C53.1371 16.1556 51.8475 17.4182 51.3774 17.8586L51.8404 18.3528C52.3261 17.8977 53.6512 16.6008 54.8572 14.9177C56.0554 13.2454 57.1768 11.1366 57.1768 9.0666H56.4996ZM51.4207 4.03159C54.2283 4.03159 56.4996 6.28843 56.4996 9.0666H57.1768C57.1768 5.90925 54.5971 3.3544 51.4207 3.3544V4.03159ZM46.3419 9.0666C46.3419 6.28843 48.6132 4.03159 51.4207 4.03159V3.3544C48.2444 3.3544 45.6647 5.90925 45.6647 9.0666H46.3419ZM51.4787 17.8602C51.0135 17.3939 49.7196 16.048 48.5444 14.3789C47.3582 12.6942 46.3419 10.7475 46.3419 9.0666H45.6647C45.6647 10.9733 46.7947 13.0703 47.9907 14.7688C49.1975 16.4828 50.5215 17.8596 50.9993 18.3385L51.4787 17.8602ZM51.3774 17.8586C51.3875 17.8491 51.4059 17.8402 51.4285 17.8406C51.4511 17.841 51.469 17.8505 51.4787 17.8602L50.9993 18.3385C51.2319 18.5716 51.5996 18.5784 51.8404 18.3528L51.3774 17.8586ZM53.9992 8.69378C53.9992 10.1178 52.8447 11.2723 51.4207 11.2723V11.9495C53.2187 11.9495 54.6764 10.4918 54.6764 8.69378H53.9992ZM51.4207 6.11527C52.8447 6.11527 53.9992 7.2697 53.9992 8.69378H54.6764C54.6764 6.89571 53.2187 5.43808 51.4207 5.43808V6.11527ZM48.8422 8.69378C48.8422 7.2697 49.9966 6.11527 51.4207 6.11527V5.43808C49.6226 5.43808 48.165 6.89571 48.165 8.69378H48.8422ZM51.4207 11.2723C49.9966 11.2723 48.8422 10.1178 48.8422 8.69378H48.165C48.165 10.4918 49.6226 11.9495 51.4207 11.9495V11.2723Z" fill="#27A613"/>
<path d="M54.1295 18.0331C54.9608 18.2811 55.4839 18.6415 55.4839 19.0426C55.4839 19.7906 53.6648 20.397 51.4208 20.397C49.1768 20.397 47.3577 19.7906 47.3577 19.0426C47.3577 18.6415 47.8808 18.2811 48.712 18.0331" stroke="white" stroke-width="0.677184" stroke-linecap="round"/>
</g>
<path fill-rule="evenodd" clip-rule="evenodd" d="M8.57 45.3148C8.45501 45.3148 8.35341 45.3721 8.29221 45.4598L3.39585 48.3195C3.29192 48.3802 3.22803 48.4915 3.22803 48.6119V60.4459C3.22803 60.5672 3.29288 60.6792 3.39806 60.7395C3.50323 60.7999 3.63267 60.7994 3.73738 60.7383L8.56049 57.9213L8.57 57.9214C8.61322 57.9214 8.65454 57.9133 8.69254 57.8986L14.267 60.7474C14.3249 60.777 14.389 60.7888 14.4517 60.7831C14.4619 60.784 14.4723 60.7845 14.4827 60.7845C14.5975 60.7845 14.699 60.7273 14.7602 60.6399L19.6572 57.7798C19.7612 57.7191 19.8251 57.6078 19.8251 57.4874V45.6534C19.8251 45.5321 19.7602 45.4201 19.655 45.3598C19.5498 45.2994 19.4204 45.2999 19.3157 45.361L14.4926 48.178C14.4893 48.1779 14.486 48.1779 14.4827 48.1779C14.4396 48.1779 14.3983 48.1859 14.3604 48.2006L8.78611 45.3519C8.72816 45.3223 8.66397 45.3105 8.60113 45.3162C8.59088 45.3153 8.5805 45.3148 8.57 45.3148ZM14.1441 48.8506L8.90859 46.175V57.2485L14.1441 59.9241V48.8506ZM14.8213 59.82L19.1479 57.293V46.2433L14.8213 48.7703V59.82ZM3.90521 48.8063L8.23141 46.2795V57.3293L3.90521 59.856V48.8063Z" fill="#27A613"/>
<path d="M11.4388 55.0194C11.5105 55.0051 11.5686 55.0774 11.5391 55.1443L8.80293 61.3541C8.76653 61.4367 8.64482 61.4207 8.63106 61.3315L8.09652 57.8638C8.0916 57.8319 8.07005 57.8051 8.03999 57.7934L4.76962 56.5225C4.68548 56.4898 4.6961 56.3675 4.78462 56.3498L11.4388 55.0194Z" fill="white" stroke="#24272D" stroke-width="0.677184"/>
<ellipse cx="92.7131" cy="41.4378" rx="2.05018" ry="2.68788" transform="rotate(-28.5151 92.7131 41.4378)" fill="#131313"/>
<line x1="35.0023" y1="122.777" x2="31.5234" y2="119.298" stroke="white" stroke-width="0.657262" stroke-linecap="round"/>
<circle cx="27.5799" cy="114.452" r="6.13445" stroke="#27A613" stroke-width="0.657262"/>
<path d="M31.1043 111.848C30.6743 111.266 30.1069 110.799 29.4528 110.49C28.7986 110.181 28.0781 110.039 27.3554 110.076" stroke="white" stroke-width="0.657262" stroke-linecap="round"/>
<path d="M10.4468 92.2203C10.405 92.7048 10.2386 93.1703 9.96372 93.5715C9.68883 93.9728 9.3148 94.2961 8.87794 94.5103C8.44108 94.7244 7.95625 94.8219 7.47052 94.7935C6.98479 94.765 6.51468 94.6116 6.10583 94.3479C5.69698 94.0843 5.36329 93.7195 5.13717 93.2889C4.91105 92.8583 4.80018 92.3766 4.81533 91.8906C4.83048 91.4045 4.97113 90.9307 5.22363 90.515C5.47612 90.0993 5.83188 89.7559 6.25636 89.5183" stroke="#DDDFE4" stroke-width="0.6975"/>
<ellipse cx="8.74354" cy="90.2086" rx="2.8216" ry="2.81996" stroke="#02A222" stroke-width="0.6975"/>
<ellipse cx="26.3086" cy="31.8355" rx="1.97512" ry="1.97397" stroke="#27A613" stroke-width="0.6975"/>
<defs>
<clipPath id="clip0_10214_15715">
<rect width="18.0583" height="18.0477" fill="white" transform="translate(42.3918 2.79004)"/>
</clipPath>
</defs>
</svg>
