<svg width="25" height="24" viewBox="0 0 25 24" fill="none" xmlns="http://www.w3.org/2000/svg">
<path fill-rule="evenodd" clip-rule="evenodd" d="M5.85431 18.6457L5.92502 17.1608L13.2762 9.80965L14.034 9.05183L14.1393 8.94655L15.5535 10.3608L15.4287 10.4856L14.6669 11.2473L7.33923 18.575L5.85431 18.6457ZM16.9677 8.94655L18.6012 7.31306L17.187 5.89885L15.5535 7.53233L16.9677 8.94655ZM3.94567 16.6795C3.95751 16.431 4.06153 16.1958 4.23743 16.0199L16.8334 3.42397C17.0287 3.22871 17.3453 3.22871 17.5405 3.42397L21.076 6.95951C21.2713 7.15477 21.2713 7.47135 21.076 7.66661L8.48007 20.2626C8.30417 20.4385 8.06902 20.5425 7.82053 20.5543L4.30131 20.7219C4.00673 20.736 3.76406 20.4933 3.77809 20.1987L3.94567 16.6795Z" fill="currentColor"/>
</svg>
