<svg width="24" height="24" viewBox="0 0 24 24" fill="none" xmlns="http://www.w3.org/2000/svg">
<path d="M12.0005 2C17.5233 2 22.0005 6.47715 22.0005 12C22.0005 17.5228 17.5233 22 12.0005 22C6.47764 22 2.00049 17.5228 2.00049 12C2.00049 6.47715 6.47764 2 12.0005 2ZM12.0005 4C7.58221 4 4.00049 7.58172 4.00049 12C4.00049 16.4183 7.58221 20 12.0005 20C16.4188 20 20.0005 16.4183 20.0005 12C20.0005 7.58172 16.4188 4 12.0005 4ZM12.0005 6C12.5528 6 13.0005 6.44772 13.0005 7V11H17.0005C17.5528 11 18.0005 11.4477 18.0005 12C18.0005 12.5523 17.5528 13 17.0005 13H13.0005V17C13.0005 17.5523 12.5528 18 12.0005 18C11.4482 18 11.0005 17.5523 11.0005 17V13H7.00049C6.4482 13 6.00049 12.5523 6.00049 12C6.00049 11.4477 6.4482 11 7.00049 11H11.0005V7C11.0005 6.44772 11.4482 6 12.0005 6Z" fill="currentColor"/>
</svg>
