<svg width="20" height="20" viewBox="0 0 20 20" fill="none" xmlns="http://www.w3.org/2000/svg">
<path d="M14.771 13.2156C16.1029 13.2156 17.1829 14.2949 17.1831 15.6267C17.1831 16.9587 16.103 18.0388 14.771 18.0388C13.4391 18.0387 12.3599 16.9586 12.3599 15.6267C12.36 14.295 13.4393 13.2157 14.771 13.2156ZM12.189 3.63257C13.4149 3.63281 14.398 4.06916 15.0718 4.77808C15.7359 5.47694 16.057 6.39673 16.0571 7.29956C16.0571 8.20249 15.7359 9.12308 15.0718 9.82202C14.398 10.5308 13.4148 10.9664 12.189 10.9666H6.6792C5.81259 10.9666 5.23011 11.248 4.86768 11.6062C4.49886 11.9712 4.31015 12.462 4.31006 12.9597C4.31014 13.4574 4.4988 13.9472 4.86768 14.3123C5.23009 14.6708 5.8121 14.9529 6.6792 14.9529H10.7495C11.1633 14.9532 11.4993 15.2891 11.4995 15.7029C11.4994 16.1168 11.1634 16.4525 10.7495 16.4529H6.6792C5.46735 16.4529 4.48919 16.0488 3.81201 15.3787C3.14147 14.7151 2.81014 13.8334 2.81006 12.9597C2.81014 12.0862 3.14165 11.2043 3.81201 10.5408C4.48917 9.87091 5.46756 9.46655 6.6792 9.46655H12.189C13.0416 9.46644 13.6183 9.17245 13.9839 8.78784C14.3588 8.3932 14.5571 7.85452 14.5571 7.29956C14.557 6.74461 14.3589 6.20589 13.9839 5.81128C13.6183 5.42666 13.0415 5.13279 12.189 5.13257H9.17432C8.76013 5.13253 8.42432 4.79675 8.42432 4.38257C8.42458 3.96858 8.76029 3.63259 9.17432 3.63257H12.189ZM5.55029 1.97925C6.76648 2.10272 7.71533 3.1299 7.71533 4.37866L7.70361 4.62476C7.58021 5.84087 6.55282 6.78959 5.3042 6.78979L5.05713 6.77808C3.92206 6.66276 3.02 5.75985 2.90479 4.62476L2.89209 4.37866C2.89209 3.04668 3.97222 1.96655 5.3042 1.96655L5.55029 1.97925ZM5.3042 3.46655C4.80064 3.46655 4.39209 3.87511 4.39209 4.37866C4.39227 4.88206 4.80076 5.28979 5.3042 5.28979C5.80746 5.28958 6.21515 4.88193 6.21533 4.37866C6.21533 3.87524 5.80757 3.46677 5.3042 3.46655Z" fill="#1F865B"/>
</svg>
