<svg width="24" height="24" viewBox="0 0 24 24" fill="none" xmlns="http://www.w3.org/2000/svg">
<path fill-rule="evenodd" clip-rule="evenodd" d="M16 10.5C16 13.5376 13.5376 16 10.5 16C7.46243 16 5 13.5376 5 10.5C5 7.46243 7.46243 5 10.5 5C13.5376 5 16 7.46243 16 10.5ZM15.0492 16.4633C13.7874 17.4273 12.2106 18 10.5 18C6.35786 18 3 14.6421 3 10.5C3 6.35786 6.35786 3 10.5 3C14.6421 3 18 6.35786 18 10.5C18 12.2105 17.4274 13.7873 16.4634 15.0491L20.2933 18.879C20.6839 19.2695 20.6839 19.9027 20.2933 20.2932C19.9028 20.6838 19.2696 20.6838 18.8791 20.2932L15.0492 16.4633Z" fill="currentColor"/>
</svg>
