<svg width="24" height="24" viewBox="0 0 24 24" fill="none" xmlns="http://www.w3.org/2000/svg">
<path d="M10.05 13.9499L3.57495 11.3249C3.35828 11.2416 3.19995 11.1124 3.09995 10.9374C2.99995 10.7624 2.94995 10.5832 2.94995 10.3999C2.94995 10.2166 3.00412 10.0374 3.11245 9.8624C3.22078 9.6874 3.38328 9.55824 3.59995 9.4749L18.95 3.7749C19.15 3.69157 19.3416 3.6749 19.525 3.7249C19.7083 3.7749 19.8666 3.86657 20 3.9999C20.1333 4.13324 20.225 4.29157 20.275 4.4749C20.325 4.65824 20.3083 4.8499 20.225 5.0499L14.525 20.3999C14.4416 20.6166 14.3125 20.7791 14.1375 20.8874C13.9625 20.9957 13.7833 21.0499 13.6 21.0499C13.4166 21.0499 13.2375 20.9999 13.0625 20.8999C12.8875 20.7999 12.7583 20.6416 12.675 20.4249L10.05 13.9499ZM13.55 17.2999L17.6 6.3999L6.69995 10.4499L11.6 12.3999L13.55 17.2999Z" fill="currentColor"/>
</svg>
