<svg width="42" height="43" viewBox="0 0 42 43" fill="none" xmlns="http://www.w3.org/2000/svg">
<path d="M22.1462 8.36725L25.2615 14.9707C25.4775 15.4293 25.8968 15.7471 26.3837 15.8211L33.3503 16.88C34.5712 17.0655 35.0582 18.6339 34.1751 19.5308L29.1331 24.672C28.7838 25.0276 28.6238 25.5429 28.7053 26.049L29.8952 33.3054C30.1033 34.5762 28.8291 35.5442 27.7371 34.9437L21.5052 31.5186C21.0716 31.2805 20.5537 31.2805 20.1208 31.5186L13.8881 34.9437C12.7969 35.5442 11.522 34.5762 11.7301 33.3054L12.9208 26.049C13.0021 25.5429 12.8444 25.0276 12.4929 24.672L7.45085 19.5308C6.56702 18.6306 7.05684 17.0624 8.27557 16.88L15.2444 15.8211C15.7285 15.7471 16.1476 15.4293 16.3644 14.9707L19.479 8.36725C20.025 7.21092 21.601 7.21092 22.1462 8.36725Z" fill="#E5E5E5"/>
</svg>
