<svg width="24" height="24" viewBox="0 0 24 24" fill="none" xmlns="http://www.w3.org/2000/svg">
<path fill-rule="evenodd" clip-rule="evenodd" d="M4.08092 2.71149C5.361 1.60842 7.30429 1.81181 8.32893 3.1561L10.0471 5.41027C10.5961 6.13054 10.7827 7.0641 10.5528 7.94048L9.9931 10.0742C9.90572 10.4074 9.99942 10.7619 10.2399 11.0082L12.8838 13.7157C13.1268 13.9645 13.4835 14.0656 13.8207 13.9812L16.1441 13.3995C17.0197 13.1803 17.9474 13.3767 18.6595 13.932L20.868 15.6541C22.2245 16.7119 22.3869 18.7054 21.2194 19.9693L20.7796 20.4454C19.4709 21.8622 17.3961 22.432 15.5485 21.6421C9.19578 18.9265 5.24575 14.9329 2.38693 8.49009C1.53298 6.56556 2.14849 4.37671 3.6833 3.05413L4.08092 2.71149ZM6.77336 4.34506C6.43182 3.89696 5.78405 3.82916 5.35736 4.19685L4.95974 4.53949C4.0192 5.34997 3.70316 6.63042 4.17525 7.69438C6.84204 13.7044 10.4383 17.327 16.3168 19.8399C17.33 20.273 18.5395 19.9847 19.343 19.1148L19.7828 18.6386C20.172 18.2173 20.1179 17.5528 19.6657 17.2003L17.4572 15.4781C17.2198 15.293 16.9106 15.2276 16.6187 15.3006L14.2953 15.8823C13.2837 16.1356 12.2138 15.8323 11.4847 15.0857L8.84075 12.3783C8.11935 11.6395 7.83826 10.5757 8.1004 9.57639L8.6601 7.44263C8.73673 7.15051 8.67453 6.83932 8.49153 6.59923L6.77336 4.34506Z" fill="currentColor"/>
</svg>
