<svg width="24" height="24" viewBox="0 0 24 24" fill="none" xmlns="http://www.w3.org/2000/svg">
<path fill-rule="evenodd" clip-rule="evenodd" d="M20 6.5625H17.8293C17.4175 5.39731 16.3062 4.5625 15 4.5625C13.6938 4.5625 12.5825 5.39731 12.1707 6.5625H4C3.44772 6.5625 3 7.01022 3 7.5625C3 8.11478 3.44772 8.5625 4 8.5625H12.1707C12.5825 9.72769 13.6938 10.5625 15 10.5625C16.3062 10.5625 17.4175 9.72769 17.8293 8.5625H20C20.5523 8.5625 21 8.11478 21 7.5625C21 7.01022 20.5523 6.5625 20 6.5625ZM4 15.4375C3.44772 15.4375 3 15.8852 3 16.4375C3 16.9898 3.44772 17.4375 4 17.4375H6.17071C6.58254 18.6027 7.69378 19.4375 9 19.4375C10.3062 19.4375 11.4175 18.6027 11.8293 17.4375H20C20.5523 17.4375 21 16.9898 21 16.4375C21 15.8852 20.5523 15.4375 20 15.4375H11.8293C11.4175 14.2723 10.3062 13.4375 9 13.4375C7.69378 13.4375 6.58254 14.2723 6.17071 15.4375H4Z" fill="currentColor"/>
</svg>
