<svg width="24" height="24" viewBox="0 0 24 24" fill="none" xmlns="http://www.w3.org/2000/svg">
<mask id="mask0_4460_991" style="mask-type:alpha" maskUnits="userSpaceOnUse" x="0" y="0" width="24" height="24">
<rect width="24" height="24" fill="#D9D9D9"/>
</mask>
<g mask="url(#mask0_4460_991)">
<path d="M1 19V17.825C1 17.5583 1.05 17.3042 1.15 17.0625C1.25 16.8208 1.39167 16.6083 1.575 16.425L3 15V9L1.575 7.575C1.39167 7.39167 1.25 7.17917 1.15 6.9375C1.05 6.69583 1 6.44167 1 6.175V4C1 3.71667 1.09583 3.47917 1.2875 3.2875C1.47917 3.09583 1.71667 3 2 3C2.28333 3 2.52083 3.09583 2.7125 3.2875C2.90417 3.47917 3 3.71667 3 4V5H5V4C5 3.71667 5.09583 3.47917 5.2875 3.2875C5.47917 3.09583 5.71667 3 6 3C6.28333 3 6.52083 3.09583 6.7125 3.2875C6.90417 3.47917 7 3.71667 7 4V5H9V4C9 3.71667 9.09583 3.47917 9.2875 3.2875C9.47917 3.09583 9.71667 3 10 3C10.2833 3 10.5208 3.09583 10.7125 3.2875C10.9042 3.47917 11 3.71667 11 4V6.175C11 6.44167 10.95 6.69583 10.85 6.9375C10.75 7.17917 10.6083 7.39167 10.425 7.575L9 9V10H15V9L13.575 7.575C13.3917 7.39167 13.25 7.17917 13.15 6.9375C13.05 6.69583 13 6.44167 13 6.175V4C13 3.71667 13.0958 3.47917 13.2875 3.2875C13.4792 3.09583 13.7167 3 14 3C14.2833 3 14.5208 3.09583 14.7125 3.2875C14.9042 3.47917 15 3.71667 15 4V5H17V4C17 3.71667 17.0958 3.47917 17.2875 3.2875C17.4792 3.09583 17.7167 3 18 3C18.2833 3 18.5208 3.09583 18.7125 3.2875C18.9042 3.47917 19 3.71667 19 4V5H21V4C21 3.71667 21.0958 3.47917 21.2875 3.2875C21.4792 3.09583 21.7167 3 22 3C22.2833 3 22.5208 3.09583 22.7125 3.2875C22.9042 3.47917 23 3.71667 23 4V6.175C23 6.44167 22.95 6.69583 22.85 6.9375C22.75 7.17917 22.6083 7.39167 22.425 7.575L21 9V15L22.425 16.425C22.6083 16.6083 22.75 16.8208 22.85 17.0625C22.95 17.3042 23 17.5583 23 17.825V19C23 19.55 22.8042 20.0208 22.4125 20.4125C22.0208 20.8042 21.55 21 21 21H15C14.7167 21 14.4792 20.9042 14.2875 20.7125C14.0958 20.5208 14 20.2833 14 20V18C14 17.45 13.8042 16.9792 13.4125 16.5875C13.0208 16.1958 12.55 16 12 16C11.45 16 10.9792 16.1958 10.5875 16.5875C10.1958 16.9792 10 17.45 10 18V20C10 20.2833 9.90417 20.5208 9.7125 20.7125C9.52083 20.9042 9.28333 21 9 21H3C2.45 21 1.97917 20.8042 1.5875 20.4125C1.19583 20.0208 1 19.55 1 19ZM3 19H8V18C8 16.9 8.39167 15.9583 9.175 15.175C9.95833 14.3917 10.9 14 12 14C13.1 14 14.0417 14.3917 14.825 15.175C15.6083 15.9583 16 16.9 16 18V19H21V17.825L19 15.825V8.175L20.175 7H15.825L17 8.175V12H7V8.175L8.175 7H3.825L5 8.175V15.825L3 17.825V19Z" fill="currentColor"/>
</g>
</svg>
