<svg width="24" height="24" viewBox="0 0 24 24" fill="none" xmlns="http://www.w3.org/2000/svg">
<mask id="mask0_4407_221" style="mask-type:alpha" maskUnits="userSpaceOnUse" x="0" y="0" width="24" height="24">
<rect width="24" height="24" fill="#D9D9D9"/>
</mask>
<g mask="url(#mask0_4407_221)">
<path d="M3.95 19L2.05 12.3C2 12.1 2.02083 11.8667 2.1125 11.6C2.20417 11.3333 2.4 11.15 2.7 11.05L4 10.6V6C4 5.45 4.19583 4.97917 4.5875 4.5875C4.97917 4.19583 5.45 4 6 4H9V2C9 1.71667 9.09583 1.47917 9.2875 1.2875C9.47917 1.09583 9.71667 1 10 1H14C14.2833 1 14.5208 1.09583 14.7125 1.2875C14.9042 1.47917 15 1.71667 15 2V4H18C18.55 4 19.0208 4.19583 19.4125 4.5875C19.8042 4.97917 20 5.45 20 6V10.6L21.3 11.05C21.65 11.1833 21.8583 11.3792 21.925 11.6375C21.9917 11.8958 22 12.1167 21.95 12.3L20.05 19C19.3833 19 18.7667 18.8708 18.2 18.6125C17.6333 18.3542 17.1167 18.025 16.65 17.625C16.4667 17.4417 16.25 17.35 16 17.35C15.75 17.35 15.5333 17.4417 15.35 17.625C14.8833 18.025 14.3667 18.3542 13.8 18.6125C13.2333 18.8708 12.6333 19 12 19C11.8333 19 11.675 18.9917 11.525 18.975C11.375 18.9583 11.225 18.9333 11.075 18.9C10.5917 18.8 10.1333 18.625 9.7 18.375C9.26667 18.125 8.86667 17.8333 8.5 17.5C8.36667 17.3667 8.19583 17.3 7.9875 17.3C7.77917 17.3 7.60833 17.3667 7.475 17.5C7.00833 17.95 6.46667 18.3125 5.85 18.5875C5.23333 18.8625 4.6 19 3.95 19ZM12 23C11.3167 23 10.6375 22.9167 9.9625 22.75C9.2875 22.5833 8.63333 22.3333 8 22C7.36667 22.3333 6.71667 22.5833 6.05 22.75C5.38333 22.9167 4.7 23 4 23H3C2.71667 23 2.47917 22.9042 2.2875 22.7125C2.09583 22.5208 2 22.2833 2 22C2 21.7167 2.09583 21.4792 2.2875 21.2875C2.47917 21.0958 2.71667 21 3 21H4C4.6 21 5.2 20.9167 5.8 20.75C6.4 20.5833 6.95833 20.3417 7.475 20.025C7.64167 19.925 7.81667 19.875 8 19.875C8.18333 19.875 8.35833 19.925 8.525 20.025C8.89167 20.2583 9.3125 20.45 9.7875 20.6C10.2625 20.75 10.7167 20.85 11.15 20.9C11.2833 20.9167 11.425 20.9292 11.575 20.9375C11.725 20.9458 11.8667 20.95 12 20.95C12.6 20.95 13.2 20.875 13.8 20.725C14.4 20.575 14.9583 20.3417 15.475 20.025C15.6417 19.925 15.8167 19.875 16 19.875C16.1833 19.875 16.3583 19.925 16.525 20.025C17.0417 20.3583 17.6 20.6042 18.2 20.7625C18.8 20.9208 19.4 21 20 21H21C21.2833 21 21.5208 21.0958 21.7125 21.2875C21.9042 21.4792 22 21.7167 22 22C22 22.2833 21.9042 22.5208 21.7125 22.7125C21.5208 22.9042 21.2833 23 21 23H20C19.3 23 18.6167 22.9167 17.95 22.75C17.2833 22.5833 16.6333 22.3333 16 22C15.3667 22.3333 14.7125 22.5833 14.0375 22.75C13.3625 22.9167 12.6833 23 12 23ZM6 9.95L11.375 8.2C11.575 8.13333 11.7833 8.1 12 8.1C12.2167 8.1 12.425 8.13333 12.625 8.2L18 9.95V6H6V9.95ZM12 17C12.5 17 12.9667 16.8625 13.4 16.5875C13.8333 16.3125 14.2167 15.9917 14.55 15.625C14.95 15.1917 15.4417 14.9792 16.025 14.9875C16.6083 14.9958 17.0917 15.2167 17.475 15.65C17.6583 15.8333 17.8417 16.0125 18.025 16.1875C18.2083 16.3625 18.4167 16.5167 18.65 16.65L19.75 12.65L12 10.1L4.2 12.65L5.35 16.6C5.56667 16.4667 5.76667 16.325 5.95 16.175C6.13333 16.025 6.31667 15.8583 6.5 15.675C6.91667 15.2417 7.42083 15.0208 8.0125 15.0125C8.60417 15.0042 9.1 15.2167 9.5 15.65C9.73333 15.9 9.98333 16.1375 10.25 16.3625C10.5167 16.5875 10.8167 16.7583 11.15 16.875C11.2833 16.925 11.4208 16.9583 11.5625 16.975C11.7042 16.9917 11.85 17 12 17Z" fill="currentColor"/>
</g>
</svg>
